<?xml version="1.0" encoding="utf-8"?>
<!-- Generator: Adobe Illustrator 16.0.0, SVG Export Plug-In . SVG Version: 6.00 Build 0)  -->
<!DOCTYPE svg PUBLIC "-//W3C//DTD SVG 1.1//EN" "http://www.w3.org/Graphics/SVG/1.1/DTD/svg11.dtd">
<svg version="1.1" id="Layer_1" xmlns="http://www.w3.org/2000/svg" xmlns:xlink="http://www.w3.org/1999/xlink" x="0px" y="0px"
	 width="72px" height="72px" viewBox="0 0 72 72" enable-background="new 0 0 72 72" xml:space="preserve">
<g>
	<path d="M36,3.518C18.09,3.518,3.518,18.089,3.518,36C3.518,53.91,18.09,68.482,36,68.482S68.482,53.91,68.482,36
		C68.482,18.089,53.91,3.518,36,3.518z M36,64.482C20.295,64.482,7.518,51.705,7.518,36S20.295,7.518,36,7.518
		S64.482,20.295,64.482,36S51.705,64.482,36,64.482z"/>
	<path d="M42.646,11.739c-0.533-0.142-1.082,0.169-1.229,0.701c-0.145,0.534,0.17,1.083,0.701,1.229
		C52.146,16.41,59.148,25.593,59.148,36c0,0.553,0.449,1,1,1c0.553,0,1-0.447,1-1C61.148,24.694,53.541,14.718,42.646,11.739z"/>
	<path d="M36.001,12.851c0.433,0,0.864,0.012,1.292,0.035c0.02,0.002,0.037,0.002,0.057,0.002c0.527,0,0.969-0.413,0.998-0.945
		c0.03-0.552-0.392-1.024-0.945-1.053c-0.465-0.025-0.931-0.039-1.401-0.039c-0.552,0-1,0.447-1,1
		C35.001,12.404,35.449,12.851,36.001,12.851z"/>
	<path d="M44.652,27.339l-10.558,6.48c-0.08,0.046-0.139,0.104-0.212,0.154v-4.475c0-1.52-1.434-2.623-2.929-2.623
		c-0.54,0-1.44,0.153-1.971,0.461l-10.38,6.483c-0.947,0.548-1.49,1.364-1.489,2.239c0,0.84,0.508,1.614,1.367,2.108l10.581,6.518
		c0.502,0.289,1.049,0.443,1.582,0.443c0.691,0,1.678-0.256,2.143-0.719c0.483-0.479,1.096-1.156,1.096-1.906v-4.459
		c0.057,0.037,0.101,0.083,0.161,0.117l10.305,6.523c0.51,0.293,1.021,0.443,1.523,0.443c0.68,0,1.635-0.279,2.059-0.785
		c0.395-0.471,0.951-1.107,0.951-1.84V29.498C48.881,27.384,46.673,26.169,44.652,27.339z M31.882,42.502
		c0,0.152-0.373,0.359-0.503,0.488c-0.112,0.113-0.617,0.137-0.73,0.137c-0.183,0-0.379-0.061-0.553-0.16l-10.569-6.518
		c-0.288-0.166-0.37-0.326-0.37-0.393c-0.001-0.085,0.176-0.298,0.563-0.523l10.466-6.483c0.198-0.114,0.578-0.175,0.767-0.175
		c0.264,0,0.928,0.107,0.929,0.623V42.502z M46.88,42.501c0,0.246-0.396,0.455-0.481,0.556c-0.027,0.032-0.412,0.069-0.521,0.069
		c-0.082,0-0.255-0.022-0.484-0.153l-10.292-6.525c-0.317-0.182-0.41-0.362-0.41-0.438c0-0.081,0.164-0.27,0.527-0.48l10.296-6.48
		c0.264-0.153,0.617-0.175,0.701-0.175c0.264,0,0.666,0.338,0.665,0.623V42.501z"/>
</g>
</svg>
