<?xml version="1.0" encoding="utf-8"?>
<!-- Generator: Adobe Illustrator 16.0.0, SVG Export Plug-In . SVG Version: 6.00 Build 0)  -->
<!DOCTYPE svg PUBLIC "-//W3C//DTD SVG 1.1//EN" "http://www.w3.org/Graphics/SVG/1.1/DTD/svg11.dtd">
<svg version="1.1" id="Layer_1" xmlns="http://www.w3.org/2000/svg" xmlns:xlink="http://www.w3.org/1999/xlink" x="0px" y="0px"
	 width="72px" height="72px" viewBox="0 0 72 72" enable-background="new 0 0 72 72" xml:space="preserve">
<g>
	<path d="M60.498,61.961l-1.997-37.088C58.468,21.078,55.372,18,51.568,18h-4.688V9.077C46.881,5.442,43.782,3,39.734,3h-7.136
		c-4.179,0-6.717,2.499-6.718,6.077V18h-5.448c-3.803,0-6.9,3.078-6.932,6.873l-1.997,37.088c-0.002,0.036-0.003,0.07-0.003,0.107
		c0,3.822,3.11,6.932,6.932,6.932h35.136c3.822,0,6.932-3.109,6.933-6.932C60.501,62.031,60.5,61.997,60.498,61.961z M29.88,9.077
		C29.88,7.149,31.87,7,32.597,7h7.137c1.834,0,3.146,0.699,3.146,2.077V18H29.88V9.077z M53.568,65H18.432
		c-1.601,0-2.907-1.29-2.932-2.885l1.997-37.076c0.002-0.036,0.003-0.071,0.003-0.107c0-1.617,1.316-2.932,2.932-2.932h31.136
		c1.617,0,2.933,1.316,2.933,2.932c0,0.036,0.001,0.071,0.003,0.107l1.997,37.076C56.475,63.71,55.17,65,53.568,65z"/>
	<path d="M21.553,40.039c-0.58-0.025-1.023,0.426-1.052,0.977l-0.039,0.809C20.433,42.377,20.857,43,21.408,43
		c0.019,0,0.036,0,0.054,0c0.528,0,0.97-0.529,0.998-1.064l0.039-0.86C22.528,40.523,22.104,40.068,21.553,40.039z"/>
	<path d="M21.345,43.963c-0.555-0.038-1.023,0.395-1.052,0.946l-0.792,15.038c-0.029,0.552,0.394,1.023,0.946,1.052
		C20.465,61,20.483,61,20.501,61c0.528,0,0.97-0.414,0.998-0.947l0.792-15.037C22.32,44.463,21.897,43.992,21.345,43.963z"/>
</g>
</svg>
