<?xml version="1.0" encoding="utf-8"?>
<!-- Generator: Adobe Illustrator 16.0.0, SVG Export Plug-In . SVG Version: 6.00 Build 0)  -->
<!DOCTYPE svg PUBLIC "-//W3C//DTD SVG 1.1//EN" "http://www.w3.org/Graphics/SVG/1.1/DTD/svg11.dtd">
<svg version="1.1" id="Layer_1" xmlns="http://www.w3.org/2000/svg" xmlns:xlink="http://www.w3.org/1999/xlink" x="0px" y="0px"
	 width="72px" height="72px" viewBox="0 0 72 72" enable-background="new 0 0 72 72" xml:space="preserve">
<g>
	<path d="M65.745,6.925c-5.315-5.316-8.962-5.362-14.302-0.14c-5.13-4.937-7.946-4.794-13.142,0.402L9.41,35.079
		c-0.13,0.126-0.232,0.269-0.321,0.417l-2.798,2.701c-5.86,5.859-4.676,8.934,0.42,14.031l12.728,12.726
		c2.6,2.601,4.552,4.149,6.824,4.149c0.033,0,0.064,0,0.096,0c2.301,0,4.243-1.483,6.776-4.018l28.893-27.887
		c0.13-0.125,0.23-0.267,0.319-0.414l2.8-2.702c2.451-2.452,4.051-4.605,3.887-7.146c-0.133-2.044-1.362-3.822-3.458-6.018
		C70.331,16.09,71.522,12.703,65.745,6.925z M62.916,9.753c3.62,3.621,3.655,4.48-0.157,8.329L54.277,9.6
		C58.016,5.914,59.143,5.981,62.916,9.753z M62.346,31.23L33.452,59.122c-0.129,0.124-0.23,0.265-0.318,0.411l-2.802,2.705
		c-1.432,1.433-3.063,2.879-3.997,2.875c-0.971-0.016-2.601-1.518-4.067-2.983L9.539,49.402c-4.11-4.112-4.137-4.66-0.445-8.353
		l28.892-27.892c0.131-0.126,0.232-0.269,0.321-0.418l2.798-2.7c3.869-3.869,4.094-3.862,8.064,0.109l12.729,12.729
		C66.009,26.989,66.036,27.537,62.346,31.23z"/>
	<path d="M18.99,38.639c0.256,0,0.512-0.098,0.707-0.293l0.707-0.707c0.391-0.391,0.391-1.023,0-1.414
		c-0.391-0.391-1.023-0.391-1.414,0l-0.707,0.707c-0.391,0.391-0.391,1.023,0,1.414C18.478,38.541,18.734,38.639,18.99,38.639z"/>
	<path d="M29.227,26.36l-6.682,6.311c-0.401,0.379-0.42,1.012-0.04,1.413c0.197,0.208,0.461,0.313,0.727,0.313
		c0.247,0,0.494-0.091,0.686-0.273l6.682-6.311c0.401-0.379,0.42-1.012,0.04-1.413C30.262,25.999,29.628,25.98,29.227,26.36z"/>
	<path d="M53.188,19.445c-0.381-0.4-1.013-0.419-1.414-0.041l-2.378,2.245l-2.245-2.377c-0.379-0.4-1.012-0.42-1.414-0.04
		c-0.4,0.379-0.42,1.012-0.039,1.413l2.244,2.376l-2.377,2.245c-0.4,0.38-0.42,1.013-0.041,1.414
		c0.199,0.208,0.463,0.313,0.729,0.313c0.246,0,0.493-0.091,0.686-0.272l2.378-2.245l2.245,2.377
		c0.196,0.208,0.461,0.313,0.727,0.313c0.246,0,0.492-0.091,0.686-0.273c0.401-0.379,0.42-1.012,0.041-1.413l-2.244-2.376
		l2.377-2.245C53.547,20.479,53.566,19.846,53.188,19.445z"/>
	<path d="M17.966,48.457c-0.378-0.4-1.011-0.42-1.413-0.04c-0.401,0.379-0.42,1.013-0.04,1.413l5.862,6.207
		c0.197,0.208,0.461,0.313,0.727,0.313c0.246,0,0.493-0.091,0.686-0.272c0.401-0.38,0.42-1.013,0.04-1.413L17.966,48.457z"/>
</g>
</svg>
