<?xml version="1.0" encoding="utf-8"?>
<!-- Generator: Adobe Illustrator 16.0.0, SVG Export Plug-In . SVG Version: 6.00 Build 0)  -->
<!DOCTYPE svg PUBLIC "-//W3C//DTD SVG 1.1//EN" "http://www.w3.org/Graphics/SVG/1.1/DTD/svg11.dtd">
<svg version="1.1" id="Layer_1" xmlns="http://www.w3.org/2000/svg" xmlns:xlink="http://www.w3.org/1999/xlink" x="0px" y="0px"
	 width="72px" height="72px" viewBox="0 0 72 72" enable-background="new 0 0 72 72" xml:space="preserve">
<g>
	<g>
		<path d="M69,62.568c0,3.828-3.104,6.932-6.932,6.932H19.932C16.104,69.5,13,66.396,13,62.568V18.432
			c0-3.828,3.104-6.932,6.932-6.932h42.137c3.828,0,6.932,3.104,6.932,6.932V62.568z M65,18.432c0-1.619-1.313-2.932-2.932-2.932
			H19.932C18.313,15.5,17,16.813,17,18.432v44.137c0,1.619,1.313,2.932,2.932,2.932h42.137c1.619,0,2.932-1.313,2.932-2.932V18.432z
			"/>
	</g>
	<g>
		<path d="M5,41.5c-1.104,0-2-0.896-2-2V9.432C3,5.609,5.729,2.5,9.551,2.5h33.068c1.104,0,2,0.896,2,2s-0.896,2-2,2H9.551
			C7.934,6.5,7,7.815,7,9.432V39.5C7,40.604,6.104,41.5,5,41.5z"/>
	</g>
	<g>
		<g>
			<path d="M55.849,61.5H41.619c-0.553,0-1-0.447-1-1s0.447-1,1-1h14.229c0.53,0,2.151,0,2.151-2.77V52.5c0-0.553,0.447-1,1-1
				c0.552,0,1,0.447,1,1v4.23C60,61.035,56.982,61.5,55.849,61.5z"/>
		</g>
		<g>
			<path d="M59,50.5c-0.553,0-1-0.447-1-1v-1c0-0.553,0.447-1,1-1c0.552,0,1,0.447,1,1v1C60,50.053,59.552,50.5,59,50.5z"/>
		</g>
	</g>
</g>
</svg>
