<?xml version="1.0" encoding="utf-8"?>
<!-- Generator: Adobe Illustrator 16.0.0, SVG Export Plug-In . SVG Version: 6.00 Build 0)  -->
<!DOCTYPE svg PUBLIC "-//W3C//DTD SVG 1.1//EN" "http://www.w3.org/Graphics/SVG/1.1/DTD/svg11.dtd">
<svg version="1.1" id="Layer_1" xmlns="http://www.w3.org/2000/svg" xmlns:xlink="http://www.w3.org/1999/xlink" x="0px" y="0px"
	 width="72px" height="72px" viewBox="0 0 72 72" enable-background="new 0 0 72 72" xml:space="preserve">
<g>
	<path d="M46.186,20.724l1.625,1.016c0.164,0.104,0.348,0.152,0.528,0.152c0.333,0,0.659-0.166,0.849-0.469
		c0.293-0.469,0.152-1.085-0.315-1.378l-1.624-1.016c-0.471-0.294-1.086-0.152-1.378,0.317
		C45.577,19.815,45.718,20.431,46.186,20.724z"/>
	<path d="M39.123,16.308l4.926,3.08c0.165,0.103,0.348,0.152,0.529,0.152c0.333,0,0.658-0.166,0.849-0.469
		c0.294-0.469,0.152-1.085-0.317-1.378l-4.926-3.08c-0.47-0.294-1.086-0.151-1.377,0.317C38.514,15.399,38.654,16.015,39.123,16.308
		z"/>
	<path d="M60.468,49.148L39.707,35.881l20.759-13.268c0.578-0.37,0.925-1.009,0.925-1.695c-0.002-0.686-0.358-1.323-0.939-1.686
		L35.936,3.845c-0.037-0.023-0.077-0.037-0.115-0.057c-0.069-0.038-0.138-0.075-0.212-0.104c-0.059-0.023-0.12-0.039-0.18-0.056
		c-0.064-0.019-0.126-0.039-0.193-0.051c-0.075-0.014-0.149-0.017-0.224-0.022c-0.046-0.003-0.09-0.014-0.137-0.014
		c-0.011,0-0.021,0.003-0.033,0.003c-0.076,0.001-0.15,0.013-0.226,0.022c-0.057,0.008-0.115,0.01-0.169,0.022
		c-0.063,0.014-0.123,0.038-0.185,0.057c-0.062,0.021-0.125,0.036-0.185,0.062c-0.058,0.025-0.111,0.06-0.167,0.09
		c-0.057,0.031-0.115,0.059-0.168,0.095c-0.052,0.036-0.098,0.081-0.147,0.122c-0.05,0.042-0.103,0.082-0.148,0.128
		c-0.04,0.04-0.072,0.087-0.108,0.131c-0.048,0.059-0.098,0.116-0.14,0.18c-0.006,0.01-0.014,0.017-0.02,0.026
		c-0.025,0.04-0.039,0.083-0.061,0.124c-0.035,0.066-0.071,0.131-0.099,0.201c-0.025,0.063-0.042,0.128-0.06,0.193
		c-0.017,0.06-0.036,0.118-0.047,0.18c-0.015,0.08-0.019,0.159-0.024,0.239c-0.003,0.042-0.013,0.082-0.013,0.124v25.975
		L13.687,19.253c-0.932-0.593-2.168-0.322-2.763,0.608c-0.595,0.931-0.323,2.168,0.608,2.763L32.277,35.88L11.531,49.139
		c-0.93,0.596-1.203,1.832-0.608,2.764c0.382,0.597,1.028,0.923,1.688,0.923c0.368,0,0.742-0.101,1.075-0.313l19.189-12.264V66.54
		c0,0.075,0.014,0.146,0.022,0.22c0.003,0.026,0.003,0.052,0.008,0.077c0.145,0.963,0.968,1.703,1.97,1.703
		c0.519,0,0.987-0.202,1.342-0.526l24.244-15.49c0.577-0.367,0.93-1.002,0.93-1.687C61.393,50.154,61.044,49.516,60.468,49.148z
		 M36.875,32.942V9.158l18.771,11.788L36.875,32.942z M36.875,62.843V38.818l18.789,12.007L36.875,62.843z"/>
</g>
</svg>
