<?xml version="1.0" encoding="utf-8"?>
<!-- Generator: Adobe Illustrator 16.0.0, SVG Export Plug-In . SVG Version: 6.00 Build 0)  -->
<!DOCTYPE svg PUBLIC "-//W3C//DTD SVG 1.1//EN" "http://www.w3.org/Graphics/SVG/1.1/DTD/svg11.dtd">
<svg version="1.1" id="Layer_1" xmlns="http://www.w3.org/2000/svg" xmlns:xlink="http://www.w3.org/1999/xlink" x="0px" y="0px"
	 width="72px" height="72px" viewBox="0 0 72 72" enable-background="new 0 0 72 72" xml:space="preserve">
<g>
	<path d="M68.504,41.564c0-8.303-7.124-8.925-13.008-8.972v-3.306c0-1.105-0.996-1.719-2.1-1.719h-48c-1.104,0-1.9,0.615-1.9,1.719
		v28.299c0,7.097,1.4,10.981,9.592,10.981h32c6.511,0,9.492-2.268,10.219-7.866C62.916,59.627,68.504,48.75,68.504,41.564z
		 M51.496,57.585c0,5.698-1.043,6.981-6.408,6.981h-32c-5.107,0-5.592-0.969-5.592-6.981V31.567h44V57.585z M55.496,56.57V36.596
		c6.722,0.096,9.008,0.978,9.008,4.969C64.504,46.811,60.434,55.17,55.496,56.57z"/>
	<path d="M11.086,46.305c0.26,0,0.52-0.109,0.71-0.289c0.18-0.189,0.29-0.449,0.29-0.711c0-0.27-0.11-0.52-0.29-0.709
		c-0.37-0.371-1.05-0.371-1.42,0c-0.18,0.18-0.29,0.439-0.29,0.709c0,0.262,0.11,0.521,0.29,0.711
		C10.566,46.195,10.826,46.305,11.086,46.305z"/>
	<path d="M10.496,50.285v3.42c0,5.684,1.678,7.417,7.345,7.417c0.552,0,1-0.447,1-1c0-0.554-0.448-1-1-1
		c-4.588,0-5.345-0.81-5.345-5.417v-3.42c0-0.553-0.448-1-1-1C10.943,49.285,10.496,49.732,10.496,50.285z"/>
	<path d="M22.698,15.716c0.751,0.675,0.828,1.173,0.822,1.487c-0.021,0.938-0.962,2.264-2.518,3.549
		c-0.852,0.703-0.973,1.963-0.27,2.815c0.396,0.479,0.968,0.727,1.544,0.727c0.449,0,0.9-0.15,1.273-0.457
		c2.55-2.106,3.923-4.369,3.97-6.548c0.024-1.17-0.328-2.908-2.146-4.545c-3.027-2.724-3.375-3.928-1.773-6.137
		c0.649-0.894,0.45-2.145-0.445-2.793c-0.894-0.648-2.144-0.45-2.793,0.445C16.257,9.92,20.607,13.835,22.698,15.716z"/>
	<path d="M34.698,15.716c0.751,0.675,0.828,1.173,0.822,1.487c-0.021,0.938-0.962,2.264-2.518,3.549
		c-0.852,0.703-0.973,1.963-0.27,2.815c0.396,0.479,0.968,0.727,1.544,0.727c0.449,0,0.9-0.15,1.273-0.457
		c2.551-2.106,3.924-4.369,3.971-6.548c0.023-1.17-0.328-2.908-2.146-4.545c-3.027-2.724-3.375-3.928-1.773-6.137
		c0.649-0.894,0.45-2.145-0.445-2.793c-0.894-0.648-2.145-0.45-2.793,0.445C28.257,9.92,32.607,13.835,34.698,15.716z"/>
</g>
</svg>
