<?xml version="1.0" encoding="utf-8"?>
<!-- Generator: Adobe Illustrator 16.0.0, SVG Export Plug-In . SVG Version: 6.00 Build 0)  -->
<!DOCTYPE svg PUBLIC "-//W3C//DTD SVG 1.1//EN" "http://www.w3.org/Graphics/SVG/1.1/DTD/svg11.dtd">
<svg version="1.1" id="Layer_1" xmlns="http://www.w3.org/2000/svg" xmlns:xlink="http://www.w3.org/1999/xlink" x="0px" y="0px"
	 width="72px" height="72px" viewBox="0 0 72 72" enable-background="new 0 0 72 72" xml:space="preserve">
<g>
	<path d="M36,3.197C17.911,3.197,3.195,17.912,3.195,36S17.911,68.803,36,68.803S68.805,54.087,68.805,36S54.089,3.197,36,3.197z
		 M37.271,64.771v-0.915c0-1.104-0.896-2-2-2s-2,0.896-2,2v0.814C19.482,63.368,8.497,52.306,7.309,38.484H8c1.104,0,2-0.896,2-2
		s-0.896-2-2-2H7.235C7.979,20.213,19.161,8.662,33.272,7.33v0.527c0,1.104,0.896,2,2,2c1.105,0,2-0.896,2-2V7.229
		c14.792,0.646,26.725,12.496,27.493,27.256H63c-1.104,0-2,0.896-2,2s0.896,2,2,2h1.69C63.462,52.79,51.737,64.139,37.271,64.771z"
		/>
	<path d="M45.325,25.233l-14.228,5.095c-0.284,0.101-0.506,0.326-0.607,0.611l-5.095,14.557c-0.127,0.363-0.034,0.77,0.24,1.04
		c0.19,0.188,0.444,0.29,0.704,0.29c0.113,0,0.227-0.02,0.335-0.059l14.229-5.097c0.283-0.101,0.506-0.325,0.605-0.61l0.727-2.072
		c0.184-0.521-0.09-1.092-0.611-1.274c-0.521-0.187-1.092,0.093-1.273,0.612l-0.57,1.624l-11.803,4.228l4.244-12.129l11.805-4.226
		l-0.724,2.069c-0.183,0.52,0.093,1.091,0.613,1.273c0.522,0.187,1.091-0.092,1.272-0.613l1.418-4.048
		c0.127-0.363,0.035-0.769-0.239-1.04C46.093,25.193,45.686,25.104,45.325,25.233z"/>
	<path d="M43.581,32.119c-0.522-0.186-1.091,0.092-1.272,0.613l-0.805,2.295c-0.184,0.52,0.092,1.091,0.613,1.273
		c0.109,0.039,0.221,0.057,0.33,0.057c0.412,0,0.8-0.258,0.943-0.67l0.803-2.295C44.377,32.872,44.102,32.301,43.581,32.119z"/>
</g>
</svg>
