<?xml version="1.0" encoding="utf-8"?>
<!-- Generator: Adobe Illustrator 16.0.0, SVG Export Plug-In . SVG Version: 6.00 Build 0)  -->
<!DOCTYPE svg PUBLIC "-//W3C//DTD SVG 1.1//EN" "http://www.w3.org/Graphics/SVG/1.1/DTD/svg11.dtd">
<svg version="1.1" id="Layer_1" xmlns="http://www.w3.org/2000/svg" xmlns:xlink="http://www.w3.org/1999/xlink" x="0px" y="0px"
	 width="72px" height="72px" viewBox="0 0 72 72" enable-background="new 0 0 72 72" xml:space="preserve">
<g>
	<path d="M50.119,63.5h-27c-1.104,0-2,0.895-2,2c0,1.104,0.896,2,2,2h27c1.105,0,2-0.896,2-2C52.119,64.395,51.223,63.5,50.119,63.5
		z"/>
	<path d="M62.068,4.5H9.932C6.104,4.5,3,7.604,3,11.432v37.136c0,3.828,3.104,6.932,6.932,6.933h52.136
		c3.828,0,6.932-3.104,6.932-6.933V11.432C69,7.604,65.896,4.5,62.068,4.5z M7,15.5h58.001v27H7V15.5z M9.932,8.5h52.136
		C63.688,8.5,65,9.813,65,11.432h0.001V13.5H7v-2.068C7,9.813,8.313,8.5,9.932,8.5z M62.068,51.5H9.932
		C8.313,51.5,7,50.188,7,48.568V44.5h58.001v4.068C65.001,50.188,63.688,51.5,62.068,51.5z"/>
	<path d="M33.14,27.458c-0.514-0.202-1.095,0.053-1.295,0.568l-0.271,0.696c-0.202,0.515,0.053,1.095,0.568,1.295
		c0.119,0.047,0.242,0.068,0.362,0.068c0.4,0,0.778-0.241,0.933-0.636l0.271-0.696C33.909,28.238,33.655,27.658,33.14,27.458z"/>
	<path d="M31.891,30.663c-0.516-0.203-1.094,0.054-1.294,0.568l-2.836,7.283c-0.202,0.516,0.053,1.096,0.568,1.295
		c0.119,0.047,0.242,0.068,0.362,0.068c0.401,0,0.779-0.242,0.933-0.637l2.836-7.282C32.661,31.443,32.406,30.863,31.891,30.663z"/>
	<path d="M29.149,20.494c-0.516-0.202-1.094,0.054-1.295,0.569l-4.146,10.652c-0.201,0.515,0.054,1.094,0.569,1.294
		c0.119,0.047,0.242,0.068,0.362,0.068c0.4,0,0.778-0.242,0.933-0.637l4.146-10.652C29.919,21.273,29.664,20.694,29.149,20.494z"/>
	<path d="M23.665,34.578c-0.512-0.202-1.094,0.053-1.295,0.568l-0.609,1.566c-0.202,0.515,0.053,1.095,0.568,1.295
		c0.119,0.048,0.242,0.068,0.362,0.068c0.401,0,0.779-0.242,0.933-0.636l0.609-1.566C24.435,35.358,24.18,34.778,23.665,34.578z"/>
</g>
</svg>
