<?xml version="1.0" encoding="utf-8"?>
<!-- Generator: Adobe Illustrator 16.0.0, SVG Export Plug-In . SVG Version: 6.00 Build 0)  -->
<!DOCTYPE svg PUBLIC "-//W3C//DTD SVG 1.1//EN" "http://www.w3.org/Graphics/SVG/1.1/DTD/svg11.dtd">
<svg version="1.1" id="Layer_1" xmlns="http://www.w3.org/2000/svg" xmlns:xlink="http://www.w3.org/1999/xlink" x="0px" y="0px"
	 width="72px" height="72px" viewBox="0 0 72 72" enable-background="new 0 0 72 72" xml:space="preserve">
<g>
	<path d="M54.016,9.453C48.688,5.833,42.46,3.92,36.005,3.92c-8.552,0-16.608,3.331-22.685,9.384
		C7.255,19.37,3.915,27.431,3.915,36.001c0,17.688,14.396,32.08,32.09,32.08c16.838,0,30.892-13.147,31.996-29.894
		c0.058-0.682,0.084-1.396,0.084-2.188C68.085,25.362,62.826,15.438,54.016,9.453z M64.025,34.192l-25.633,0.738l17.614-18.626
		C60.716,21.085,63.59,27.418,64.025,34.192z M51.768,12.761c0.982,0.667,1.912,1.391,2.79,2.164l-18.573,19.64L16.869,15.449
		c5.228-4.86,11.982-7.529,19.136-7.529C41.654,7.92,47.104,9.594,51.768,12.761z M36.005,64.08c-15.488,0-28.09-12.598-28.09-28.08
		c0-7.166,2.674-13.922,7.538-19.139l19.845,19.846c0.002,0.003,0.006,0.004,0.009,0.006c0.083,0.081,0.182,0.144,0.289,0.192
		c0.01,0.005,0.018,0.015,0.028,0.019C35.741,36.973,35.87,37,36.005,37c0.006,0,0.01,0,0.015,0.001
		c0.001,0,0.003-0.001,0.004-0.001c0.003,0,0.006,0,0.01,0l28.048-0.808c-0.004,0.599-0.022,1.152-0.068,1.696
		C63.044,52.576,50.743,64.08,36.005,64.08z"/>
	<path d="M12.093,38.855c0.551-0.045,0.961-0.526,0.915-1.078c-0.048-0.588-0.072-1.187-0.072-1.776c0-0.553-0.448-1-1-1
		c-0.553,0-1,0.447-1,1c0,0.644,0.026,1.296,0.079,1.94c0.043,0.522,0.48,0.918,0.996,0.918
		C12.039,38.859,12.066,38.857,12.093,38.855z"/>
	<path d="M13.94,42.488c-0.168-0.527-0.73-0.818-1.257-0.65c-0.525,0.168-0.816,0.732-0.648,1.258
		c1.491,4.672,4.373,8.697,8.335,11.635c0.179,0.133,0.388,0.197,0.595,0.197c0.306,0,0.608-0.138,0.803-0.404
		c0.329-0.443,0.236-1.068-0.207-1.398C17.938,50.438,15.303,46.76,13.94,42.488z"/>
</g>
</svg>
