<?xml version="1.0" encoding="utf-8"?>
<!-- Generator: Adobe Illustrator 16.0.0, SVG Export Plug-In . SVG Version: 6.00 Build 0)  -->
<!DOCTYPE svg PUBLIC "-//W3C//DTD SVG 1.1//EN" "http://www.w3.org/Graphics/SVG/1.1/DTD/svg11.dtd">
<svg version="1.1" id="Layer_1" xmlns="http://www.w3.org/2000/svg" xmlns:xlink="http://www.w3.org/1999/xlink" x="0px" y="0px"
	 width="72px" height="72px" viewBox="0 0 72 72" enable-background="new 0 0 72 72" xml:space="preserve">
<g>
	<g>
		<path d="M60.522,65H10.386C6.563,65,4,61.952,4,58.129V13.993C4,10.171,6.563,7,10.386,7h18.51c0.923,0,1.727,0.632,1.943,1.529
			L32.89,17h27.633C64.345,17,68,20.171,68,23.993v34.136C68,61.952,64.345,65,60.522,65z M10.386,11C8.769,11,8,12.377,8,13.993
			v44.136C8,59.747,8.769,61,10.386,61h50.137C62.139,61,64,59.747,64,58.129V23.993C64,22.377,62.139,21,60.522,21H31.315
			c-0.923,0-1.727-0.632-1.943-1.529L27.321,11H10.386z"/>
	</g>
	<g>
		<path d="M56.764,58h-10.31c-0.553,0-1-0.447-1-1s0.447-1,1-1h10.31C57.753,56,59,55.893,59,53.704v-3.643c0-0.553,0.447-1,1-1
			c0.552,0,1,0.447,1,1v3.643C61,56.594,59.212,58,56.764,58z"/>
	</g>
	<g>
		<path d="M59.533,46.471c-0.26,0-0.52-0.109-0.71-0.289c-0.18-0.191-0.29-0.451-0.29-0.711s0.11-0.52,0.29-0.709
			c0.381-0.371,1.04-0.371,1.421,0c0.18,0.189,0.289,0.449,0.289,0.709s-0.109,0.52-0.289,0.711
			C60.054,46.362,59.794,46.471,59.533,46.471z"/>
	</g>
	<g>
		<path d="M62.454,13h-25c-1.104,0-2-0.896-2-2s0.896-2,2-2h25c1.104,0,2,0.896,2,2S63.559,13,62.454,13z"/>
	</g>
</g>
</svg>
