<?xml version="1.0" encoding="utf-8"?>
<!-- Generator: Adobe Illustrator 16.0.0, SVG Export Plug-In . SVG Version: 6.00 Build 0)  -->
<!DOCTYPE svg PUBLIC "-//W3C//DTD SVG 1.1//EN" "http://www.w3.org/Graphics/SVG/1.1/DTD/svg11.dtd">
<svg version="1.1" id="Layer_1" xmlns="http://www.w3.org/2000/svg" xmlns:xlink="http://www.w3.org/1999/xlink" x="0px" y="0px"
	 width="72px" height="72px" viewBox="0 0 72 72" enable-background="new 0 0 72 72" xml:space="preserve">
<g>
	<path d="M63.398,9.005c-3.295-3.296-7.683-5.11-12.355-5.11c-4.628,0-8.966,1.789-12.215,5.038l-25.12,25.121
		c-3.313,3.313-4.192,6.938-2.611,10.772c1.043,2.532,3.089,4.969,5.433,7.411L4.077,64.691c-0.781,0.781-0.781,2.047,0,2.828
		c0.391,0.391,0.902,0.586,1.414,0.586c0.511,0,1.024-0.195,1.414-0.586l12.441-12.441c3.984,3.912,7.701,6.994,11.87,6.994
		c2.493,0,4.894-1.135,7.134-3.377l25.121-25.12c3.27-3.27,5.059-7.637,5.037-12.295C68.486,16.638,66.672,12.278,63.398,9.005z
		 M60.643,30.747l-25.121,25.12c-1.485,1.482-2.893,2.205-4.306,2.205c-2.988,0-6.323-3.092-10.058-6.827
		c-2.768-2.769-5.34-5.46-6.364-7.944c-0.675-1.638-0.996-3.681,1.742-6.419l25.12-25.121c2.494-2.493,5.826-3.866,9.387-3.866
		c3.604,0,6.988,1.398,9.527,3.938c2.523,2.524,3.922,5.885,3.938,9.466C64.525,24.882,63.152,28.237,60.643,30.747z"/>
	<path d="M60.799,19.938c-0.087-0.545-0.599-0.927-1.146-0.837c-0.545,0.088-0.916,0.585-0.827,1.13
		c0.083,0.51,0.116,0.996,0.1,1.512c-0.017,0.553,0.415,0.964,0.968,0.964c0.012,0,0.021,0,0.032,0c0.537,0,0.981-0.363,0.998-0.905
		C60.943,21.159,60.902,20.574,60.799,19.938z"/>
	<path d="M43.792,14.384l-6.403,6.404c-0.391,0.391-0.391,1.023,0,1.414c0.195,0.195,0.451,0.293,0.707,0.293
		s0.512-0.098,0.709-0.293l6.402-6.404c3.12-3.12,8.215-3.103,11.357,0.041c0.392,0.391,1.023,0.391,1.414,0
		c0.392-0.391,0.392-1.023,0-1.414C54.055,10.503,47.689,10.485,43.792,14.384z"/>
</g>
</svg>
