<?xml version="1.0" encoding="utf-8"?>
<!-- Generator: Adobe Illustrator 16.0.0, SVG Export Plug-In . SVG Version: 6.00 Build 0)  -->
<!DOCTYPE svg PUBLIC "-//W3C//DTD SVG 1.1//EN" "http://www.w3.org/Graphics/SVG/1.1/DTD/svg11.dtd">
<svg version="1.1" id="Layer_1" xmlns="http://www.w3.org/2000/svg" xmlns:xlink="http://www.w3.org/1999/xlink" x="0px" y="0px"
	 width="72px" height="72px" viewBox="0 0 72 72" enable-background="new 0 0 72 72" xml:space="preserve">
<g>
	<path d="M45.287,47.524c6.339-6.295,10.629-18.074,10.629-25.67C55.916,10.873,46.98,1.938,36,1.938
		c-10.981,0-19.916,8.935-19.916,19.916c0,7.676,4.219,19.235,10.508,25.55c-1.355,1.1-2.222,2.777-2.222,4.658v10
		c0,3.313,2.687,6,6,6h1.358c0.445,1.064,1.305,2,2.596,2h2.895c1.291,0,2.235-0.936,2.738-2h1.413c3.313,0,6-2.687,6-6v-10
		C47.37,50.247,46.561,48.624,45.287,47.524z M28.45,62.593c-0.047-0.17-0.08-0.346-0.08-0.53v-4.255l14.861-6.464
		c0.087,0.224,0.139,0.465,0.139,0.719v4.04L28.45,62.593z M30.37,50.063h10.794L28.37,55.627v-3.564
		C28.37,50.958,29.266,50.063,30.37,50.063z M20.084,21.854c0-8.776,7.14-15.916,15.916-15.916c8.775,0,15.916,7.14,15.916,15.916
		c0,7.314-4.605,19.146-10.771,24.033l0.14,0.176H31.095C24.884,41.361,20.084,29.242,20.084,21.854z M41.37,64.063h-11
		c-0.08,0-0.155-0.015-0.233-0.023l13.233-5.756v3.779C43.37,63.167,42.475,64.063,41.37,64.063z"/>
	<path d="M36.271,23.062c0.27,0,0.52-0.11,0.709-0.29c0.181-0.19,0.291-0.45,0.291-0.71s-0.11-0.521-0.291-0.71
		c-0.369-0.37-1.049-0.37-1.419,0c-0.181,0.189-0.29,0.439-0.29,0.71c0,0.27,0.109,0.52,0.29,0.71
		C35.75,22.952,36.011,23.062,36.271,23.062z"/>
	<path d="M36.37,25.062c-0.553,0-1,0.447-1,1v5c0,0.553,0.447,1,1,1c0.553,0,1-0.447,1-1v-5
		C37.37,25.509,36.923,25.062,36.37,25.062z"/>
	<path d="M32.165,32.112c0.256,0,0.512-0.098,0.707-0.293c0.391-0.391,0.391-1.023,0-1.414l-2.726-2.726
		c-0.391-0.391-1.023-0.391-1.414,0c-0.391,0.391-0.391,1.023,0,1.414l2.726,2.726C31.653,32.014,31.909,32.112,32.165,32.112z"/>
	<path d="M40.539,32.112c0.256,0,0.512-0.098,0.707-0.293l2.727-2.726c0.391-0.391,0.391-1.023,0-1.414
		c-0.392-0.391-1.023-0.391-1.414,0l-2.727,2.726c-0.391,0.391-0.391,1.023,0,1.414C40.027,32.014,40.283,32.112,40.539,32.112z"/>
</g>
</svg>
