<?xml version="1.0" encoding="utf-8"?>
<!-- Generator: Adobe Illustrator 16.0.0, SVG Export Plug-In . SVG Version: 6.00 Build 0)  -->
<!DOCTYPE svg PUBLIC "-//W3C//DTD SVG 1.1//EN" "http://www.w3.org/Graphics/SVG/1.1/DTD/svg11.dtd">
<svg version="1.1" id="Layer_1" xmlns="http://www.w3.org/2000/svg" xmlns:xlink="http://www.w3.org/1999/xlink" x="0px" y="0px"
	 width="72px" height="72px" viewBox="0 0 72 72" enable-background="new 0 0 72 72" xml:space="preserve">
<g>
	<g>
		<path d="M25.76,59.479c0,3.828-3.104,6.932-6.932,6.932H9.691c-3.828,0-6.932-3.104-6.932-6.932V37.343
			c0-3.828,3.104-6.932,6.932-6.932h9.137c3.828,0,6.932,3.104,6.932,6.932V59.479z M21.76,37.343c0-1.619-1.313-2.932-2.932-2.932
			H9.691c-1.619,0-2.932,1.313-2.932,2.932v22.137c0,1.619,1.313,2.932,2.932,2.932h9.137c1.619,0,2.932-1.313,2.932-2.932V37.343z"
			/>
	</g>
	<path d="M15.76,57.661c0,0.967-0.784,1.75-1.75,1.75h-0.5c-0.966,0-1.75-0.783-1.75-1.75v-0.5c0-0.967,0.784-1.75,1.75-1.75h0.5
		c0.966,0,1.75,0.783,1.75,1.75V57.661z"/>
	<g>
		<path d="M40.835,66.446c-4.977,0-10.323-0.632-12.136-8.175c-0.036-0.152,0.061-0.31,0.061-0.467V32.526
			c0-0.279-0.057-0.556,0.057-0.811l0.338-0.895c0.558-1.727,2.183-4.359,4.807-8.435c1.794-2.788,3.636-5.672,4.209-7.122
			c0.975-2.467,0.971-5.793,0.89-6.865c-0.057-0.754,0.313-1.476,0.96-1.865c0.167-0.101,1.685-0.98,3.648-0.98
			c1.251,0,2.405,0.347,3.432,1.029c2.781,1.849,5.896,4.738,5.283,10.716c-0.191,1.885-0.981,3.653-1.744,5.364
			c-0.501,1.124-0.974,2.186-1.239,3.189c-0.054,0.204-0.06,0.758-0.063,1.222c2.181,0.188,4.376,0.354,6.351,0.354
			c1.245,0,2.258-0.01,3.076-0.019c1.059-0.011,1.794-0.017,2.31,0.002c0.377,0.008,0.731,0.02,1.057,0.063
			c2.168,0.289,4.095,1.406,5.424,3.144c1.329,1.738,1.901,3.89,1.612,6.059c-0.28,2.11-1.379,4.028-3.041,5.341
			c0.731,1.347,1.021,2.896,0.816,4.426c-0.236,1.776-1.092,3.36-2.43,4.521c0,0.027,0.002,0.053,0.004,0.075
			c0.449,1.047,0.606,2.201,0.454,3.348c-0.219,1.643-1.087,3.14-2.38,4.16c0.344,0.84,0.458,1.777,0.327,2.751
			c-0.266,1.986-1.676,3.662-3.618,4.323c-1.175,0.593-2.659,0.717-4.637,0.717l0,0c-0.667,0-1.411-0.014-2.237-0.029
			c-1.007-0.019-2.141-0.04-3.414-0.04c-1.587,0-3.079,0.049-4.522,0.096C43.195,66.407,41.976,66.446,40.835,66.446z M32.76,57.56
			c1,4.201,3.246,4.887,8.19,4.887c1.101,0,2.218-0.038,3.466-0.079c1.477-0.048,2.973-0.098,4.625-0.098
			c1.301,0,2.444,0.021,3.473,0.041c0.8,0.015,1.512,0.028,2.156,0.028l0,0c0.577,0,2.331,0,2.856-0.302
			c0.135-0.077,0.276-0.139,0.425-0.183c0.431-0.127,0.928-0.521,1.003-1.087c0.031-0.233,0.033-0.567-0.133-0.84
			c-0.43-0.703-0.545-1.652-0.312-2.543c0.207-0.789,0.666-1.417,1.295-1.769c0.664-0.373,1.102-1.014,1.201-1.757
			c0.059-0.443-0.004-0.886-0.182-1.279c-0.455-1.003-0.569-3.419,0.837-4.454c0.732-0.535,1.197-1.318,1.316-2.209
			c0.104-0.778-0.076-1.566-0.506-2.222c-0.88-1.342-0.397-3.728,0.938-4.642c0.984-0.671,1.637-1.729,1.793-2.904
			c0.148-1.11-0.145-2.211-0.825-3.101c-0.68-0.889-1.666-1.46-2.776-1.608c-0.18-0.024-0.357-0.029-0.533-0.029
			c-0.024,0-0.117,0-0.142-0.001c-0.468-0.019-1.163-0.011-2.121,0c-0.829,0.008-1.854,0.019-3.116,0.019
			c-2.542,0-5.314-0.246-7.995-0.483l-0.607-0.054c-0.536-0.047-1.031-0.309-1.372-0.725c-0.341-0.417-0.5-0.953-0.44-1.488
			c0.057-0.505,0.06-1.05,0.063-1.577c0.006-0.808,0.011-1.569,0.196-2.271c0.348-1.316,0.909-2.577,1.453-3.797
			c0.663-1.488,1.29-2.894,1.417-4.143c0.411-4.008-1.513-5.645-3.519-6.979c-0.527-0.349-1.213-0.417-1.803-0.3
			c-0.013,1.716-0.206,4.595-1.206,7.123c-0.719,1.814-2.594,4.729-4.58,7.815c-1.791,2.781-4.019,6.244-4.406,7.546
			c-0.024,0.081,0.061,0.161,0.026,0.239L32.76,32.95V57.56z"/>
	</g>
	<g>
		<path d="M49.693,59.411c-0.006,0-0.013,0-0.019,0c-0.114,0-0.217,0.185-0.311,0.169c-0.545-0.009-0.983-0.354-0.983-0.901
			c0-0.553,0.447-0.951,1-0.951c0.326,0,1.317,0.024,1.337,1.007c0.003,0.142-0.029,0.093-0.09,0.216
			C50.484,59.329,50.119,59.411,49.693,59.411z"/>
	</g>
	<g>
		<path d="M42.378,60.095c-2.429,0-4.51-0.485-6.432-2.699c-0.362-0.417-0.317-1.048,0.1-1.41c0.417-0.364,1.048-0.318,1.41,0.1
			c1.975,2.273,3.978,2.134,7.614,1.879c0.46-0.032,0.939-0.065,1.44-0.095c0.536-0.035,1.024,0.388,1.058,0.939
			c0.032,0.551-0.388,1.024-0.939,1.057c-0.493,0.029-0.966,0.063-1.42,0.094C44.213,60.029,43.271,60.095,42.378,60.095z"/>
	</g>
</g>
</svg>
