<?xml version="1.0" encoding="utf-8"?>
<!-- Generator: Adobe Illustrator 16.0.0, SVG Export Plug-In . SVG Version: 6.00 Build 0)  -->
<!DOCTYPE svg PUBLIC "-//W3C//DTD SVG 1.1//EN" "http://www.w3.org/Graphics/SVG/1.1/DTD/svg11.dtd">
<svg version="1.1" id="Layer_1" xmlns="http://www.w3.org/2000/svg" xmlns:xlink="http://www.w3.org/1999/xlink" x="0px" y="0px"
	 width="72px" height="72px" viewBox="0 0 72 72" enable-background="new 0 0 72 72" xml:space="preserve">
<g>
	<path d="M58.619,33.5H53.5V19.821c0-9.55-7.318-17.321-16.463-17.321h-0.123C27.7,2.5,19.5,10.594,19.5,19.821V33.5h-5.881
		c-1.104,0-2.119,0.896-2.119,2v24.15c0,8.279,3.985,9.85,11.119,9.85h29c8.224,0,8.881-2.701,8.881-9.85V35.5
		C60.5,34.396,59.723,33.5,58.619,33.5z M23.5,19.821C23.5,12.725,29.831,6.5,36.914,6.5h0.123c6.82,0,12.463,6.101,12.463,13.321
		V33.5h-26V19.821z M51.619,65.5h-29c-6.084,0-7.119-0.766-7.119-5.85V37.5h41v22.15C56.5,65.5,56.619,65.5,51.619,65.5z"/>
	<path d="M25.619,40.5h-5c-0.553,0-1.119,0.447-1.119,1v11c0,0.553,0.447,1,1,1c0.552,0,1-0.447,1-1v-10h4.119c0.552,0,1-0.447,1-1
		S26.171,40.5,25.619,40.5z"/>
	<path d="M20.5,55.5c-0.553,0-1,0.447-1,1v1c0,0.553,0.447,1,1,1c0.552,0,1-0.447,1-1v-1C21.5,55.947,21.052,55.5,20.5,55.5z"/>
</g>
</svg>
