<?xml version="1.0" encoding="utf-8"?>
<!-- Generator: Adobe Illustrator 16.0.0, SVG Export Plug-In . SVG Version: 6.00 Build 0)  -->
<!DOCTYPE svg PUBLIC "-//W3C//DTD SVG 1.1//EN" "http://www.w3.org/Graphics/SVG/1.1/DTD/svg11.dtd">
<svg version="1.1" id="Layer_1" xmlns="http://www.w3.org/2000/svg" xmlns:xlink="http://www.w3.org/1999/xlink" x="0px" y="0px"
	 width="72px" height="72px" viewBox="0 0 72 72" enable-background="new 0 0 72 72" xml:space="preserve">
<g>
	<g>
		<path d="M68.5,62.068c0,3.828-3.104,6.932-6.932,6.932H10.432C6.604,69,3.5,65.896,3.5,62.068V9.932C3.5,6.104,6.604,3,10.432,3
			h51.137C65.396,3,68.5,6.104,68.5,9.932V62.068z M64.5,9.932C64.5,8.313,63.188,7,61.568,7H10.432C8.813,7,7.5,8.313,7.5,9.932
			v52.137C7.5,63.688,8.813,65,10.432,65h51.137c1.619,0,2.932-1.313,2.932-2.932V9.932z"/>
	</g>
	<g>
		<g>
			<path d="M17.16,48.695c-0.337,0-0.665-0.17-0.854-0.479c-0.66-1.078-1.232-2.219-1.7-3.388c-0.205-0.513,0.044-1.095,0.557-1.3
				c0.515-0.205,1.096,0.044,1.3,0.558c0.427,1.064,0.948,2.104,1.55,3.087c0.288,0.471,0.14,1.086-0.331,1.374
				C17.519,48.648,17.338,48.695,17.16,48.695z"/>
		</g>
		<g>
			<path d="M35.625,59.052c-5.506,0-10.813-2-14.942-5.632c-0.414-0.365-0.455-0.997-0.09-1.411
				c0.364-0.414,0.997-0.456,1.411-0.091c3.764,3.311,8.602,5.134,13.621,5.134c11.376,0,20.632-9.256,20.632-20.632
				s-9.256-20.632-20.632-20.632c-11.377,0-20.633,9.256-20.633,20.632c0,0.553-0.447,1-1,1c-0.552,0-1-0.447-1-1
				c0-12.479,10.153-22.632,22.633-22.632S58.257,23.94,58.257,36.42S48.104,59.052,35.625,59.052z"/>
		</g>
		<g>
			<g>
				<path d="M27.624,42.256c-3.218,0-5.835-2.618-5.835-5.836s2.617-5.836,5.835-5.836s5.836,2.618,5.836,5.836
					S30.842,42.256,27.624,42.256z M27.624,32.584c-2.114,0-3.835,1.721-3.835,3.836s1.721,3.836,3.835,3.836
					c2.115,0,3.836-1.721,3.836-3.836S29.739,32.584,27.624,32.584z"/>
			</g>
			<g>
				<path d="M43.625,42.256c-3.218,0-5.836-2.618-5.836-5.836s2.618-5.836,5.836-5.836s5.835,2.618,5.835,5.836
					S46.843,42.256,43.625,42.256z M43.625,32.584c-2.115,0-3.836,1.721-3.836,3.836s1.721,3.836,3.836,3.836
					c2.114,0,3.835-1.721,3.835-3.836S45.739,32.584,43.625,32.584z"/>
			</g>
		</g>
	</g>
</g>
</svg>
