<?xml version="1.0" encoding="utf-8"?>
<!-- Generator: Adobe Illustrator 16.0.0, SVG Export Plug-In . SVG Version: 6.00 Build 0)  -->
<!DOCTYPE svg PUBLIC "-//W3C//DTD SVG 1.1//EN" "http://www.w3.org/Graphics/SVG/1.1/DTD/svg11.dtd">
<svg version="1.1" id="Layer_1" xmlns="http://www.w3.org/2000/svg" xmlns:xlink="http://www.w3.org/1999/xlink" x="0px" y="0px"
	 width="72px" height="72px" viewBox="0 0 72 72" enable-background="new 0 0 72 72" xml:space="preserve">
<g>
	<g>
		<g>
			<path d="M12,21h-1c-4.687,0-8.5-3.813-8.5-8.5S6.313,4,11,4h1c4.687,0,8.5,3.813,8.5,8.5S16.687,21,12,21z M11,8
				c-2.481,0-4.5,2.019-4.5,4.5S8.519,17,11,17h1c2.481,0,4.5-2.019,4.5-4.5S14.481,8,12,8H11z"/>
		</g>
		<g>
			<path d="M12,68h-1c-4.687,0-8.5-3.813-8.5-8.5S6.313,51,11,51h1c4.687,0,8.5,3.813,8.5,8.5S16.687,68,12,68z M11,55
				c-2.481,0-4.5,2.019-4.5,4.5S8.519,64,11,64h1c2.481,0,4.5-2.019,4.5-4.5S14.481,55,12,55H11z"/>
		</g>
		<g>
			<path d="M12,45h-1c-4.687,0-8.5-3.813-8.5-8.5S6.313,28,11,28h1c4.687,0,8.5,3.813,8.5,8.5S16.687,45,12,45z M11,32
				c-2.481,0-4.5,2.019-4.5,4.5S8.519,41,11,41h1c2.481,0,4.5-2.019,4.5-4.5S14.481,32,12,32H11z"/>
		</g>
	</g>
	<g>
		<g>
			<path d="M36,21h-1c-4.687,0-8.5-3.813-8.5-8.5S30.313,4,35,4h1c4.687,0,8.5,3.813,8.5,8.5S40.687,21,36,21z M35,8
				c-2.481,0-4.5,2.019-4.5,4.5S32.519,17,35,17h1c2.481,0,4.5-2.019,4.5-4.5S38.481,8,36,8H35z"/>
		</g>
		<g>
			<path d="M36,68h-1c-4.687,0-8.5-3.813-8.5-8.5S30.313,51,35,51h1c4.687,0,8.5,3.813,8.5,8.5S40.687,68,36,68z M35,55
				c-2.481,0-4.5,2.019-4.5,4.5S32.519,64,35,64h1c2.481,0,4.5-2.019,4.5-4.5S38.481,55,36,55H35z"/>
		</g>
		<g>
			<path d="M36,45h-1c-4.687,0-8.5-3.813-8.5-8.5S30.313,28,35,28h1c4.687,0,8.5,3.813,8.5,8.5S40.687,45,36,45z M35,32
				c-2.481,0-4.5,2.019-4.5,4.5S32.519,41,35,41h1c2.481,0,4.5-2.019,4.5-4.5S38.481,32,36,32H35z"/>
		</g>
	</g>
	<g>
		<g>
			<path d="M61,21h-1c-4.687,0-8.5-3.813-8.5-8.5S55.313,4,60,4h1c4.687,0,8.5,3.813,8.5,8.5S65.687,21,61,21z M60,8
				c-2.481,0-4.5,2.019-4.5,4.5S57.519,17,60,17h1c2.481,0,4.5-2.019,4.5-4.5S63.481,8,61,8H60z"/>
		</g>
		<g>
			<path d="M61,68h-1c-4.687,0-8.5-3.813-8.5-8.5S55.313,51,60,51h1c4.687,0,8.5,3.813,8.5,8.5S65.687,68,61,68z M60,55
				c-2.481,0-4.5,2.019-4.5,4.5S57.519,64,60,64h1c2.481,0,4.5-2.019,4.5-4.5S63.481,55,61,55H60z"/>
		</g>
		<g>
			<path d="M61,45h-1c-4.687,0-8.5-3.813-8.5-8.5S55.313,28,60,28h1c4.687,0,8.5,3.813,8.5,8.5S65.687,45,61,45z M60,32
				c-2.481,0-4.5,2.019-4.5,4.5S57.519,41,60,41h1c2.481,0,4.5-2.019,4.5-4.5S63.481,32,61,32H60z"/>
		</g>
	</g>
</g>
</svg>
