<?xml version="1.0" encoding="utf-8"?>
<!-- Generator: Adobe Illustrator 16.0.0, SVG Export Plug-In . SVG Version: 6.00 Build 0)  -->
<!DOCTYPE svg PUBLIC "-//W3C//DTD SVG 1.1//EN" "http://www.w3.org/Graphics/SVG/1.1/DTD/svg11.dtd">
<svg version="1.1" id="Layer_1" xmlns="http://www.w3.org/2000/svg" xmlns:xlink="http://www.w3.org/1999/xlink" x="0px" y="0px"
	 width="72px" height="72px" viewBox="0 0 72 72" enable-background="new 0 0 72 72" xml:space="preserve">
<g>
	<path d="M15.244,58.063c-2.168,0-3.744-1.781-3.744-3.969V37.1c0-0.553-0.448-1-1-1c-0.553,0-1,0.447-1,1v16.994
		c0,3.291,2.473,5.969,5.744,5.969c0.552,0,1-0.446,1-1C16.244,58.51,15.796,58.063,15.244,58.063z"/>
	<path d="M20.124,58.1h-1c-0.552,0-1,0.447-1,1s0.448,1,1,1h1c0.553,0,1-0.447,1-1S20.677,58.1,20.124,58.1z"/>
	<path d="M62.568,34.1h-4.067v-9.143c0-3.78-3.485-6.856-7.308-6.856h-2.901C47.516,10.694,41.234,4.9,33.625,4.9
		c-7.61,0-13.891,5.794-14.668,13.201H9.056c-3.823,0-6.556,3.076-6.556,6.856v35.137c0,3.863,2.734,7.006,6.556,7.006h42.137
		c3.822,0,7.307-3.143,7.308-7.006V52.1h4.067c3.828,0,6.932-3.104,6.932-6.932h0.001v-4.137C69.501,37.203,66.396,34.1,62.568,34.1
		z M33.625,8.9c5.4,0,9.87,4.007,10.625,9.201H22.999C23.753,12.907,28.223,8.9,33.625,8.9z M54.501,60.094
		c0,1.629-1.718,3.006-3.308,3.006H9.056c-1.589,0-2.556-1.377-2.556-3.006V24.956c0-1.601,0.912-2.856,2.556-2.856h42.137
		c1.645,0,3.308,1.254,3.308,2.856V34.1h-6.069c-3.828,0-6.932,3.103-6.932,6.931v4.137c0,3.828,3.104,6.932,6.932,6.932h6.069
		V60.094z M65.501,45.168c0,1.619-1.313,2.932-2.933,2.932H48.432c-1.619,0-2.932-1.313-2.932-2.932v-4.137
		c0-1.619,1.313-2.932,2.932-2.932h14.137c1.619,0,2.932,1.313,2.932,2.932h0.001V45.168z"/>
	<circle cx="50.542" cy="43.024" r="1.917"/>
</g>
</svg>
