<?xml version="1.0" encoding="UTF-8"?>
<svg width="48px" height="48px" viewBox="0 0 48 48" version="1.1" xmlns="http://www.w3.org/2000/svg" xmlns:xlink="http://www.w3.org/1999/xlink">
    <!-- Generator: Sketch 41.2 (35397) - http://www.bohemiancoding.com/sketch -->
    <title>theicons.co/svg/tech-36</title>
    <desc>Created with Sketch.</desc>
    <defs></defs>
    <g id="The-Icons" stroke="none" stroke-width="1" fill="none" fill-rule="evenodd">
        <g id="v-1.4" transform="translate(-1728.000000, -864.000000)" fill="#4D4D4D">
            <g id="Tech" transform="translate(96.000000, 768.000000)">
                <g id="SD" transform="translate(1632.000000, 96.000000)">
                    <path d="M30,10.8273435 L36,16.8254393 L36,40 L34,40 L34,28.0001062 C34,26.8900584 33.1086907,26 32.0092049,26 L15.9907951,26 C14.8982124,26 14,26.895478 14,28.0001062 L14,40 L12,40 L12,8 L14,8 L14,14.000385 C14,15.1125667 14.8954305,16 16,16 C17.1122704,16 18,15.1047419 18,14.000385 L18,8 L20,8 L20,14.000385 C20,15.1125667 20.8954305,16 22,16 C23.1122704,16 24,15.1047419 24,14.000385 L24,8 L26,8 L26,14.000385 C26,15.1125667 26.8954305,16 28,16 C29.1122704,16 30,15.1047419 30,14.000385 L30,10.8273435 Z M30,40 L18,40 L18,30 L30,30 L30,40 Z M8,7.00041944 L8,40.9995806 C8,42.6479435 9.34007988,44 10.9965348,44 L37.0034652,44 C38.6676532,44 40,42.6525134 40,40.9965779 L40,15.9968262 C40,15.4662832 39.7891992,14.9574792 39.4139891,14.5823882 L29.4139891,4.585562 C29.0389346,4.21062654 28.530323,4 28,4 L10.9933977,4 C9.33720513,4 8,5.34648198 8,7.00041944 Z" id="Combined-Shape"></path>
                </g>
            </g>
        </g>
    </g>
</svg>