<svg width="541" height="500" viewBox="0 0 541 500" xmlns="http://www.w3.org/2000/svg"><title>hardware</title><g fill="none" fill-rule="evenodd"><g fill="#ECF0F1"><path d="M491.927 215.67h-74.35a2.6 2.6 0 0 1-2.602-2.596 2.6 2.6 0 0 1 2.603-2.596h73.27l18.942-18.93c1.004-1.014 2.66-1.01 3.674 0a2.61 2.61 0 0 1 0 3.677l-19.7 19.685c-.49.485-1.148.76-1.837.76M467.5 178.728H416.96a2.6 2.6 0 0 1 0-5.197h49.47l12.126-12.14a2.596 2.596 0 0 1 1.837-.76h41.57a2.595 2.595 0 0 1 2.595 2.598 2.59 2.59 0 0 1-2.596 2.593h-40.492l-12.13 12.143a2.595 2.595 0 0 1-1.837.765M526.293 355.4c-.66 0-1.334-.243-1.828-.755l-28.168-28.16H420.22a2.6 2.6 0 0 1-2.604-2.596 2.6 2.6 0 0 1 2.603-2.597h77.15c.69 0 1.347.272 1.832.76l28.937 28.916a2.61 2.61 0 0 1 0 3.675 2.585 2.585 0 0 1-1.847.756M451.743 289.537H420.22a2.6 2.6 0 0 1 0-5.2h31.523a2.597 2.597 0 0 1 2.594 2.595 2.6 2.6 0 0 1-2.594 2.605M524.99 283.938h-37.387c-.68 0-1.337-.274-1.83-.765l-30.597-30.587H420.22a2.6 2.6 0 0 1-2.604-2.595 2.6 2.6 0 0 1 2.603-2.595h36.028c.698 0 1.352.272 1.85.756l30.59 30.59h36.302a2.598 2.598 0 0 1 0 5.198"/><path d="M528.643 172.512c-5.122 0-9.287-4.166-9.287-9.284 0-5.117 4.165-9.277 9.287-9.277 5.128 0 9.286 4.16 9.286 9.278s-4.16 9.284-9.287 9.284zm0-13.36c-2.248 0-4.088 1.823-4.088 4.076 0 2.253 1.84 4.09 4.088 4.09a4.09 4.09 0 0 0 4.09-4.09 4.08 4.08 0 0 0-4.09-4.077zM515.735 197.938c-5.13 0-9.287-4.16-9.287-9.274 0-5.12 4.158-9.287 9.287-9.287 5.11 0 9.28 4.166 9.28 9.287 0 5.114-4.17 9.274-9.28 9.274zm0-13.358c-2.254 0-4.094 1.834-4.094 4.084 0 2.25 1.84 4.083 4.095 4.083a4.09 4.09 0 0 0 4.078-4.083 4.09 4.09 0 0 0-4.078-4.084zM531.668 290.61c-5.115 0-9.277-4.16-9.277-9.274 0-5.114 4.163-9.274 9.278-9.274 5.125 0 9.29 4.16 9.29 9.274 0 5.115-4.165 9.275-9.29 9.275zm0-13.348a4.086 4.086 0 0 0-4.08 4.074 4.085 4.085 0 0 0 4.08 4.08c2.25 0 4.094-1.826 4.094-4.08 0-2.243-1.843-4.074-4.094-4.074zM458.424 296.21c-5.128 0-9.283-4.16-9.283-9.278 0-5.117 4.156-9.284 9.284-9.284 5.11 0 9.284 4.167 9.284 9.284 0 5.117-4.174 9.278-9.284 9.278zm0-13.36a4.095 4.095 0 0 0-4.087 4.082 4.094 4.094 0 0 0 4.087 4.087 4.095 4.095 0 0 0 4.085-4.088 4.097 4.097 0 0 0-4.086-4.083zM531.023 366.802c-5.128 0-9.29-4.16-9.29-9.274 0-5.12 4.162-9.28 9.29-9.28 5.11 0 9.287 4.16 9.287 9.28 0 5.114-4.177 9.274-9.287 9.274zm0-13.364a4.092 4.092 0 0 0-4.094 4.09 4.087 4.087 0 0 0 4.093 4.077c2.248 0 4.088-1.833 4.088-4.077 0-2.253-1.84-4.09-4.087-4.09zM155.81 178.728H78.933a2.603 2.603 0 0 1-2.61-2.598c0-1.436 1.168-2.6 2.61-2.6h76.877a2.602 2.602 0 0 1 2.603 2.6c0 1.435-1.167 2.598-2.603 2.598M29.55 322.877c-.663 0-1.33-.257-1.833-.766a2.585 2.585 0 0 1 0-3.67l33.337-33.34a2.58 2.58 0 0 1 1.837-.764h92.92a2.6 2.6 0 0 1 0 5.2H63.968l-32.574 32.575a2.595 2.595 0 0 1-1.843.767M155.81 326.485H85.595a2.606 2.606 0 0 1-1.84-.76l-9.63-9.663a2.6 2.6 0 0 1 .007-3.676 2.592 2.592 0 0 1 3.67.006l8.87 8.9h69.138a2.6 2.6 0 0 1 2.603 2.597 2.6 2.6 0 0 1-2.603 2.595M76.26 228.537H16.642a2.6 2.6 0 0 1-2.603-2.596 2.6 2.6 0 0 1 2.603-2.597h58.532l12.137-12.127a2.603 2.603 0 0 1 1.833-.765h66.665a2.61 2.61 0 0 1 2.603 2.606 2.6 2.6 0 0 1-2.603 2.595H90.223l-12.13 12.128c-.49.484-1.143.76-1.834.76M155.81 252.586H40.492a2.602 2.602 0 0 1-2.606-2.595 2.602 2.602 0 0 1 2.606-2.595H155.81a2.6 2.6 0 0 1 2.603 2.596 2.6 2.6 0 0 1-2.603 2.596"/><path d="M72.255 185.4c-5.12 0-9.287-4.156-9.287-9.27 0-5.118 4.168-9.284 9.287-9.284 5.115 0 9.27 4.166 9.27 9.284 0 5.114-4.155 9.27-9.27 9.27zm0-13.363a4.1 4.1 0 0 0-4.097 4.093c0 2.243 1.837 4.074 4.097 4.074 2.244 0 4.07-1.83 4.07-4.074 0-2.257-1.826-4.093-4.07-4.093zM9.962 235.213c-5.12 0-9.287-4.16-9.287-9.272 0-5.12 4.168-9.286 9.287-9.286 5.118 0 9.274 4.167 9.274 9.287 0 5.112-4.156 9.273-9.274 9.273zm0-13.358a4.086 4.086 0 0 0-4.088 4.086c0 2.25 1.828 4.072 4.088 4.072a4.077 4.077 0 0 0 4.078-4.07 4.086 4.086 0 0 0-4.078-4.087zM33.808 259.262c-5.116 0-9.284-4.157-9.284-9.27 0-5.122 4.168-9.285 9.284-9.285 5.12 0 9.278 4.163 9.278 9.284 0 5.115-4.16 9.272-9.278 9.272zm0-13.364a4.09 4.09 0 0 0-4.08 4.093c0 2.25 1.826 4.072 4.08 4.072 2.25 0 4.078-1.82 4.078-4.07 0-2.257-1.827-4.094-4.078-4.094zM25.003 334.11c-5.122 0-9.287-4.16-9.287-9.274 0-5.117 4.165-9.284 9.287-9.284 5.113 0 9.277 4.167 9.277 9.284 0 5.115-4.164 9.275-9.277 9.275zm0-13.366a4.095 4.095 0 0 0-4.088 4.092 4.083 4.083 0 0 0 4.088 4.074 4.075 4.075 0 0 0 4.078-4.074 4.087 4.087 0 0 0-4.077-4.092zM71.25 318.778c-5.124 0-9.292-4.16-9.292-9.272 0-5.114 4.168-9.278 9.293-9.278 5.114 0 9.27 4.164 9.27 9.278 0 5.11-4.156 9.272-9.27 9.272zm0-13.346c-2.26 0-4.096 1.83-4.096 4.074 0 2.25 1.837 4.08 4.097 4.08a4.08 4.08 0 0 0 4.073-4.08 4.08 4.08 0 0 0-4.072-4.074zM195.007 484.648c-.66 0-1.328-.256-1.837-.762a2.606 2.606 0 0 1 0-3.673l16.514-16.522v-83.153c0-1.432 1.17-2.6 2.6-2.6 1.432 0 2.6 1.168 2.6 2.6v84.232c0 .69-.276 1.344-.76 1.835l-17.28 17.28a2.58 2.58 0 0 1-1.837.763M295.34 461.623a2.614 2.614 0 0 1-1.84-.762 2.59 2.59 0 0 1 .005-3.672l27.298-27.27v-49.38c0-1.433 1.167-2.6 2.594-2.6a2.605 2.605 0 0 1 2.605 2.6V431a2.59 2.59 0 0 1-.762 1.83l-28.06 28.03a2.603 2.603 0 0 1-1.84.763M239.437 422.636c-.66 0-1.328-.256-1.834-.763a2.59 2.59 0 0 1 0-3.672l9.145-9.132v-28.53c0-1.433 1.167-2.6 2.6-2.6a2.603 2.603 0 0 1 2.596 2.6v29.604c0 .69-.27 1.355-.76 1.843l-9.91 9.895a2.61 2.61 0 0 1-1.837.756M264.318 486.537a2.6 2.6 0 0 1-2.597-2.602v-34.42c0-.743.32-1.456.875-1.947l21.235-18.803v-48.228a2.605 2.605 0 0 1 5.208 0v49.395c0 .75-.324 1.457-.88 1.948l-21.247 18.802v33.253a2.6 2.6 0 0 1-2.592 2.602M382.405 481.398a2.61 2.61 0 0 1-1.834-.76l-21.937-21.93a2.655 2.655 0 0 1-.754-1.84v-76.33a2.6 2.6 0 0 1 2.6-2.6c1.428 0 2.59 1.167 2.59 2.6v75.252l21.18 21.173a2.604 2.604 0 0 1 0 3.676 2.627 2.627 0 0 1-1.845.758"/><path d="M190.293 496.056c-5.12 0-9.287-4.16-9.287-9.275 0-5.116 4.168-9.286 9.287-9.286 5.115 0 9.274 4.17 9.274 9.287 0 5.115-4.16 9.276-9.274 9.276zm0-13.362a4.09 4.09 0 0 0-4.09 4.087 4.084 4.084 0 0 0 4.09 4.075 4.078 4.078 0 0 0 4.072-4.074 4.083 4.083 0 0 0-4.072-4.086zM234.716 434.034c-5.12 0-9.286-4.157-9.286-9.272 0-5.12 4.167-9.287 9.286-9.287 5.12 0 9.28 4.167 9.28 9.287 0 5.115-4.16 9.272-9.28 9.272zm0-13.358a4.097 4.097 0 0 0-4.09 4.086c0 2.25 1.836 4.078 4.09 4.078a4.078 4.078 0 0 0 4.08-4.078 4.086 4.086 0 0 0-4.08-4.086zM264.324 499.895c-5.12 0-9.287-4.157-9.287-9.272 0-5.117 4.168-9.283 9.287-9.283 5.115 0 9.277 4.166 9.277 9.283 0 5.115-4.16 9.272-9.276 9.272zm0-13.358a4.09 4.09 0 0 0-4.09 4.086c0 2.247 1.833 4.075 4.09 4.075a4.075 4.075 0 0 0 4.075-4.075 4.08 4.08 0 0 0-4.076-4.086zM290.615 473.028c-5.12 0-9.286-4.155-9.286-9.27 0-5.12 4.164-9.286 9.285-9.286 5.116 0 9.284 4.167 9.284 9.287 0 5.113-4.17 9.268-9.285 9.268zm0-13.358a4.097 4.097 0 0 0-4.087 4.09c0 2.243 1.837 4.076 4.087 4.076a4.084 4.084 0 0 0 4.08-4.077 4.09 4.09 0 0 0-4.08-4.09zM387.135 492.802c-5.116 0-9.287-4.163-9.287-9.277 0-5.12 4.17-9.284 9.287-9.284 5.12 0 9.274 4.164 9.274 9.285 0 5.114-4.156 9.277-9.275 9.277zm0-13.364a4.09 4.09 0 0 0-4.082 4.087c0 2.253 1.83 4.08 4.082 4.08a4.08 4.08 0 0 0 4.08-4.08 4.087 4.087 0 0 0-4.08-4.087zM249.347 122.065a2.602 2.602 0 0 1-2.6-2.602v-52.13c0-.743.322-1.447.88-1.947L277.22 39.23V16.263a2.607 2.607 0 0 1 2.602-2.605c1.43 0 2.59 1.173 2.59 2.605v24.14a2.59 2.59 0 0 1-.873 1.947l-29.596 26.153v50.96a2.6 2.6 0 0 1-2.597 2.602M212.284 122.065c-1.43 0-2.6-1.164-2.6-2.602V41.08l-23.667-23.654a2.606 2.606 0 0 1 0-3.673 2.598 2.598 0 0 1 3.68 0l24.427 24.414c.484.484.76 1.145.76 1.836v79.46a2.602 2.602 0 0 1-2.6 2.602M360.48 122.065c-1.44 0-2.6-1.164-2.6-2.602V18.225a2.595 2.595 0 0 1 5.19 0v101.238a2.596 2.596 0 0 1-2.59 2.602M323.397 122.065a2.6 2.6 0 0 1-2.594-2.602V50.78L307.81 37.773a2.6 2.6 0 0 1 .01-3.68 2.587 2.587 0 0 1 3.663.004l13.757 13.77c.49.49.762 1.153.762 1.838v69.76a2.603 2.603 0 0 1-2.605 2.6M286.435 122.065a2.603 2.603 0 0 1-2.605-2.602V75.435c0-.685.284-1.35.765-1.83l11.658-11.725a2.597 2.597 0 0 1 3.677-.016 2.59 2.59 0 0 1 .012 3.673l-10.904 10.97v42.956a2.603 2.603 0 0 1-2.603 2.602"/><path d="M183.13 20.14c-5.122 0-9.287-4.165-9.287-9.276 0-5.12 4.165-9.284 9.287-9.284 5.113 0 9.284 4.164 9.284 9.284 0 5.11-4.17 9.275-9.284 9.275zm0-13.365a4.095 4.095 0 0 0-4.088 4.09 4.088 4.088 0 0 0 4.088 4.076 4.08 4.08 0 0 0 4.078-4.076 4.087 4.087 0 0 0-4.078-4.09zM279.822 18.858c-5.128 0-9.29-4.16-9.29-9.275 0-5.117 4.162-9.28 9.29-9.28 5.11 0 9.265 4.163 9.265 9.28 0 5.115-4.155 9.275-9.265 9.275zm0-13.36c-2.263 0-4.1 1.83-4.1 4.085 0 2.247 1.837 4.074 4.1 4.074a4.075 4.075 0 0 0 4.07-4.074c0-2.256-1.825-4.086-4.07-4.086zM302.826 68.27c-5.116 0-9.287-4.165-9.287-9.28 0-5.117 4.17-9.28 9.286-9.28s9.277 4.163 9.277 9.28c0 5.115-4.16 9.28-9.277 9.28zm0-13.366a4.096 4.096 0 0 0-4.088 4.087 4.09 4.09 0 0 0 4.088 4.08c2.25 0 4.08-1.826 4.08-4.08a4.09 4.09 0 0 0-4.08-4.086zM304.92 40.48c-5.11 0-9.285-4.156-9.285-9.27 0-5.117 4.175-9.287 9.284-9.287 5.12 0 9.283 4.17 9.283 9.287 0 5.114-4.162 9.27-9.284 9.27zm0-13.357a4.088 4.088 0 0 0-4.08 4.087 4.083 4.083 0 0 0 8.167 0 4.088 4.088 0 0 0-4.088-4.087zM360.482 20.824c-5.125 0-9.287-4.16-9.287-9.268 0-5.124 4.162-9.29 9.287-9.29 5.116 0 9.274 4.166 9.274 9.29 0 5.108-4.158 9.268-9.274 9.268zm0-13.36a4.096 4.096 0 0 0-4.09 4.092c0 2.246 1.833 4.074 4.09 4.074a4.077 4.077 0 0 0 4.075-4.074c0-2.257-1.825-4.093-4.075-4.093z"/></g><g fill="#ECF0F1"><path d="M203.11 101.127h18.346v18.336H203.11v-18.336zM240.172 101.127h18.35v18.336h-18.35v-18.336zM277.238 101.127h18.345v18.336h-18.345v-18.336zM314.305 101.127h18.35v18.336h-18.35v-18.336zM351.306 101.127h18.345v18.336h-18.344v-18.336zM203.11 380.537h18.346v18.34H203.11v-18.34zM240.172 380.537h18.35v18.34h-18.35v-18.34zM277.238 380.537h18.345v18.34h-18.345v-18.34zM314.305 380.537h18.35v18.34h-18.35v-18.34zM351.306 380.537h18.345v18.34h-18.344v-18.34zM137.468 166.96h18.342v18.342h-18.342V166.96zM137.468 204.01h18.342v18.34h-18.342v-18.34zM137.468 241.065h18.342v18.333h-18.342v-18.333zM137.468 278.117h18.342v18.343h-18.342v-18.343zM137.468 315.105h18.342v18.34h-18.342v-18.34zM416.958 166.96h18.352v18.342h-18.352V166.96zM416.958 204.01h18.352v18.34h-18.352v-18.34zM416.958 241.065h18.352v18.333h-18.352v-18.333zM416.958 278.117h18.352v18.343h-18.352v-18.343zM416.958 315.105h18.352v18.34h-18.352v-18.34z"/></g><path d="M155.81 119.463h261.148v261.07H155.81v-261.07z" fill="#020F3B"/><path d="M202.3 165.944h168.163v168.118H202.3V165.944z" fill="#3FB1B1"/><g fill="#020F3B"><path d="M221.052 189.278a4.587 4.587 0 0 1 0-9.173c2.53 0 4.59 2.06 4.59 4.583 0 2.53-2.06 4.59-4.59 4.59M242.833 189.278a4.592 4.592 0 0 1-4.585-4.59 4.59 4.59 0 0 1 4.585-4.583 4.59 4.59 0 0 1 4.58 4.583 4.59 4.59 0 0 1-4.58 4.59M264.605 189.278a4.59 4.59 0 0 1-4.582-4.59 4.588 4.588 0 0 1 4.582-4.583c2.528 0 4.587 2.06 4.587 4.583 0 2.53-2.06 4.59-4.587 4.59M286.39 189.278a4.6 4.6 0 0 1-4.595-4.59c0-2.524 2.065-4.583 4.594-4.583a4.592 4.592 0 0 1 4.58 4.583c0 2.53-2.06 4.59-4.58 4.59M308.16 189.278a4.595 4.595 0 0 1-4.59-4.59 4.587 4.587 0 1 1 4.59 4.59M329.93 189.278c-2.526 0-4.573-2.06-4.573-4.59 0-2.524 2.047-4.583 4.573-4.583 2.53 0 4.594 2.06 4.594 4.583 0 2.53-2.063 4.59-4.594 4.59M351.72 189.278a4.596 4.596 0 0 1-4.594-4.59 4.594 4.594 0 0 1 4.594-4.583 4.59 4.59 0 0 1 4.582 4.583 4.59 4.59 0 0 1-4.582 4.59M221.052 211.046a4.585 4.585 0 0 1 0-9.17c2.53 0 4.59 2.06 4.59 4.587a4.592 4.592 0 0 1-4.59 4.583M242.833 211.046a4.59 4.59 0 0 1-4.585-4.583 4.59 4.59 0 0 1 4.585-4.586 4.59 4.59 0 0 1 4.58 4.586 4.588 4.588 0 0 1-4.58 4.583M264.605 211.046a4.586 4.586 0 0 1-4.582-4.583 4.59 4.59 0 0 1 4.582-4.586c2.528 0 4.587 2.058 4.587 4.586a4.59 4.59 0 0 1-4.587 4.583M286.39 211.046c-2.53 0-4.595-2.055-4.595-4.583s2.065-4.586 4.594-4.586a4.593 4.593 0 0 1 4.58 4.586 4.59 4.59 0 0 1-4.58 4.583M308.16 211.046a4.592 4.592 0 0 1-4.59-4.583 4.587 4.587 0 0 1 9.176 0 4.585 4.585 0 0 1-4.585 4.583M329.93 211.046a4.58 4.58 0 0 1-4.573-4.583c0-2.528 2.047-4.586 4.573-4.586a4.597 4.597 0 0 1 4.594 4.586c0 2.528-2.063 4.583-4.594 4.583M351.72 211.046a4.592 4.592 0 0 1-4.594-4.583 4.595 4.595 0 0 1 4.594-4.586 4.59 4.59 0 0 1 4.582 4.586 4.588 4.588 0 0 1-4.582 4.583M221.052 232.812a4.583 4.583 0 0 1-4.58-4.584 4.587 4.587 0 0 1 4.58-4.58c2.53 0 4.59 2.06 4.59 4.58a4.59 4.59 0 0 1-4.59 4.584M242.833 232.812a4.587 4.587 0 0 1-4.585-4.584 4.59 4.59 0 0 1 4.585-4.58 4.59 4.59 0 0 1 4.58 4.58 4.586 4.586 0 0 1-4.58 4.584M264.605 232.812a4.584 4.584 0 0 1-4.582-4.584 4.587 4.587 0 0 1 4.582-4.58c2.528 0 4.587 2.06 4.587 4.58a4.59 4.59 0 0 1-4.587 4.584M286.39 232.812c-2.53 0-4.595-2.053-4.595-4.584 0-2.52 2.065-4.58 4.594-4.58a4.59 4.59 0 0 1 4.58 4.58c0 2.53-2.06 4.584-4.58 4.584M308.16 232.812a4.59 4.59 0 0 1-4.59-4.584c0-2.52 2.06-4.58 4.59-4.58a4.586 4.586 0 0 1 4.585 4.58c0 2.53-2.05 4.584-4.584 4.584M329.93 232.812a4.578 4.578 0 0 1-4.573-4.584 4.58 4.58 0 0 1 4.573-4.58c2.53 0 4.594 2.06 4.594 4.58a4.592 4.592 0 0 1-4.594 4.584M351.72 232.812a4.59 4.59 0 0 1-4.594-4.584c0-2.52 2.06-4.58 4.594-4.58a4.59 4.59 0 0 1 4.582 4.58 4.586 4.586 0 0 1-4.582 4.584M221.052 254.586a4.588 4.588 0 0 1-4.58-4.586 4.588 4.588 0 0 1 4.58-4.586c2.53 0 4.59 2.058 4.59 4.586a4.594 4.594 0 0 1-4.59 4.586M242.833 254.586a4.59 4.59 0 0 1-4.585-4.586 4.59 4.59 0 0 1 4.585-4.586 4.59 4.59 0 0 1 4.58 4.586 4.59 4.59 0 0 1-4.58 4.586M264.605 254.586a4.59 4.59 0 0 1-4.582-4.586 4.59 4.59 0 0 1 4.582-4.586c2.528 0 4.587 2.058 4.587 4.586a4.594 4.594 0 0 1-4.587 4.586M286.39 254.586c-2.53 0-4.595-2.058-4.595-4.586 0-2.528 2.065-4.586 4.594-4.586a4.593 4.593 0 0 1 4.58 4.586 4.593 4.593 0 0 1-4.58 4.586M308.16 254.586a4.594 4.594 0 0 1-4.59-4.586 4.587 4.587 0 1 1 4.59 4.586M329.93 254.586c-2.526 0-4.573-2.058-4.573-4.586 0-2.528 2.047-4.586 4.573-4.586a4.597 4.597 0 0 1 4.594 4.586 4.597 4.597 0 0 1-4.594 4.586M351.72 254.586a4.595 4.595 0 0 1-4.594-4.586 4.595 4.595 0 0 1 4.594-4.586 4.59 4.59 0 0 1 4.582 4.586 4.59 4.59 0 0 1-4.582 4.586M221.052 276.358a4.588 4.588 0 0 1-4.58-4.586 4.586 4.586 0 0 1 4.58-4.587 4.592 4.592 0 0 1 4.59 4.587 4.594 4.594 0 0 1-4.59 4.586M242.833 276.358a4.59 4.59 0 0 1-4.585-4.586 4.59 4.59 0 0 1 4.585-4.587 4.59 4.59 0 0 1 4.58 4.587 4.59 4.59 0 0 1-4.58 4.586M264.605 276.358a4.587 4.587 0 0 1 0-9.173 4.592 4.592 0 0 1 4.587 4.587 4.594 4.594 0 0 1-4.587 4.586M286.39 276.358c-2.53 0-4.595-2.06-4.595-4.586a4.597 4.597 0 0 1 4.594-4.587 4.59 4.59 0 0 1 4.58 4.587 4.593 4.593 0 0 1-4.58 4.586M308.16 276.358a4.594 4.594 0 0 1-4.59-4.586c0-2.53 2.06-4.587 4.59-4.587a4.587 4.587 0 0 1 0 9.173M329.93 276.358c-2.526 0-4.573-2.06-4.573-4.586a4.58 4.58 0 0 1 4.573-4.587 4.595 4.595 0 0 1 4.594 4.587 4.597 4.597 0 0 1-4.594 4.586M351.72 276.358a4.595 4.595 0 0 1-4.594-4.586c0-2.53 2.06-4.587 4.594-4.587a4.59 4.59 0 0 1 4.582 4.587 4.59 4.59 0 0 1-4.582 4.586M221.052 298.127a4.585 4.585 0 0 1-4.58-4.584 4.585 4.585 0 0 1 4.58-4.583 4.592 4.592 0 0 1 4.59 4.583 4.592 4.592 0 0 1-4.59 4.584M242.833 298.127a4.59 4.59 0 0 1-4.585-4.584 4.59 4.59 0 0 1 4.585-4.583 4.588 4.588 0 0 1 4.58 4.583 4.588 4.588 0 0 1-4.58 4.584M264.605 298.127a4.586 4.586 0 0 1-4.582-4.584 4.586 4.586 0 0 1 4.582-4.583 4.59 4.59 0 0 1 4.587 4.583 4.59 4.59 0 0 1-4.587 4.584M286.39 298.127c-2.53 0-4.595-2.056-4.595-4.584 0-2.528 2.065-4.583 4.594-4.583a4.59 4.59 0 0 1 4.58 4.583 4.59 4.59 0 0 1-4.58 4.584M308.16 298.127a4.592 4.592 0 0 1-4.59-4.584 4.592 4.592 0 0 1 4.59-4.583 4.585 4.585 0 0 1 0 9.167M329.93 298.127a4.58 4.58 0 0 1-4.573-4.584 4.58 4.58 0 0 1 4.573-4.583c2.53 0 4.594 2.055 4.594 4.583s-2.063 4.584-4.594 4.584M351.72 298.127a4.592 4.592 0 0 1-4.594-4.584 4.588 4.588 0 0 1 9.176 0 4.588 4.588 0 0 1-4.582 4.584M221.052 319.892a4.585 4.585 0 0 1 0-9.17c2.53 0 4.59 2.06 4.59 4.587a4.592 4.592 0 0 1-4.59 4.582M242.833 319.892a4.59 4.59 0 0 1-4.585-4.583 4.59 4.59 0 0 1 4.585-4.588 4.59 4.59 0 0 1 4.58 4.587 4.588 4.588 0 0 1-4.58 4.582M264.605 319.892a4.586 4.586 0 0 1-4.582-4.583 4.59 4.59 0 0 1 4.582-4.588c2.528 0 4.587 2.06 4.587 4.587a4.59 4.59 0 0 1-4.587 4.582M286.39 319.892c-2.53 0-4.595-2.056-4.595-4.583 0-2.53 2.065-4.588 4.594-4.588a4.593 4.593 0 0 1 4.58 4.587 4.59 4.59 0 0 1-4.58 4.582M308.16 319.892a4.592 4.592 0 0 1-4.59-4.583 4.587 4.587 0 0 1 9.176 0 4.585 4.585 0 0 1-4.585 4.582M329.93 319.892a4.58 4.58 0 0 1-4.573-4.583c0-2.53 2.047-4.588 4.573-4.588a4.597 4.597 0 0 1 4.594 4.587c0 2.526-2.063 4.582-4.594 4.582M351.72 319.892a4.592 4.592 0 0 1-4.594-4.583 4.595 4.595 0 0 1 4.594-4.588 4.59 4.59 0 0 1 4.582 4.587 4.588 4.588 0 0 1-4.582 4.582"/></g><g fill="#ECF0F1"><path d="M237.02 353.79h9.467v3.074h-9.466a5.13 5.13 0 0 1-4.892 3.586 5.125 5.125 0 0 1-5.128-5.123 5.125 5.125 0 0 1 5.128-5.122 5.13 5.13 0 0 1 4.893 3.586zm-7.965 1.537l1.536-2.664h3.075l1.537 2.664-1.537 2.665h-3.074l-1.535-2.665z"/><path d="M252.664 357.81c-.99.102-1.86.117-3.338.117-1.004 0-1.256-.5-1.256-2.567 0-2.065.252-2.567 1.256-2.567 1.403 0 2.082.015 3.116.03l.236-2.33c-1.02-.282-1.757-.4-3.352-.4-3.382 0-4.623 1.387-4.623 5.267 0 3.88 1.24 5.267 4.623 5.267 1.595 0 2.54-.133 3.574-.487l-.236-2.33zm10.294 2.64l-.798-3.128c-.25-1.24-1.108-1.52-1.67-1.593v-.09c1.58-.162 2.07-1.194 2.07-2.42 0-2.374-1.3-3.097-4.3-3.097-2.037 0-2.968.015-4.326.147v10.18h3.146v-3.718h.99c.545 0 .752.133.87.694l.665 3.024h3.353zm-5.878-5.975v-2.095h1.107c.916 0 1.152.207 1.152 1.048 0 .84-.237 1.047-1.153 1.047h-1.107zm12.51 3.777l.516 2.198h3.264l-2.644-9.353a1.092 1.092 0 0 0-1.078-.827h-2.91c-.516 0-.945.325-1.078.827l-2.643 9.353h3.264l.518-2.198h2.79zm-.518-2.243h-1.758l.503-2.184c.073-.37.132-.797.177-1.166h.4c.028.37.102.797.176 1.166l.502 2.183zm12.303-3.35l.147-2.242c-1.403-.207-3.426-.207-5.125-.207-1.417 0-2.422.946-2.422 2.318v7.922h3.205v-3.94h3.648v-2.123h-3.648v-1.195c0-.31.236-.532.635-.532h3.56zm9.393 0v-2.39h-8.906v2.39h2.85v7.79h3.205v-7.79h2.85zM305.27 350.27h-3.16l-.502 6.27c-.03.502-.074 1.122-.074 1.668h-.236c-.074-.532-.163-1.15-.222-1.682l-.694-5.31a1.05 1.05 0 0 0-1.078-.946h-2.29c-.575 0-1.018.384-1.077.945l-.68 5.28c-.06.532-.162 1.196-.236 1.713h-.235c0-.65-.03-1.195-.06-1.697l-.516-6.24h-3.162l1.27 9.324c.074.517.547.856 1.093.856h2.734c.546 0 1.033-.34 1.092-.856l.68-5.606c.06-.487.088-1.003.118-1.505h.25c.03.487.06 1.004.12 1.49l.693 5.62c.06.518.547.857 1.093.857h2.718c.546 0 1.02-.34 1.093-.856l1.27-9.324zm5.436-.206c-3.486 0-4.74 1.106-4.74 5.296s1.254 5.297 4.74 5.297c3.5 0 4.755-1.107 4.755-5.297 0-4.19-1.254-5.296-4.754-5.296zm0 2.375c1.093 0 1.373.56 1.373 2.92s-.28 2.92-1.374 2.92c-1.093 0-1.374-.56-1.374-2.92s.28-2.92 1.374-2.92zm15.02 8.01l-.798-3.128c-.25-1.24-1.107-1.52-1.67-1.593v-.09c1.582-.162 2.07-1.194 2.07-2.42 0-2.374-1.3-3.097-4.3-3.097-2.037 0-2.967.015-4.326.147v10.18h3.146v-3.718h.99c.546 0 .752.133.87.694l.665 3.024h3.353zm-5.878-5.975v-2.095h1.107c.916 0 1.152.207 1.152 1.048 0 .84-.236 1.047-1.152 1.047h-1.107zm10.47 1.726l2.157 4.25h3.56l-2.378-4.234c-.237-.443-.74-.885-1.02-1.003v-.06c.28-.117.65-.442.902-.9l2.347-3.983h-3.44l-2.128 3.866h-.562a5.65 5.65 0 0 0 .147-1.3v-2.566H326.7v10.18h3.205v-3.32c0-.28-.044-.604-.118-.93h.532zm14.105 2.008h-4.548l4.4-5.695v-2.243h-7.797v2.243h4.253l-4.4 5.695v2.242h8.093v-2.242z"/></g></g></svg>