<?xml version="1.0" encoding="UTF-8" standalone="no"?>
<svg width="541px" height="500px" viewBox="0 0 541 500" version="1.1" xmlns="http://www.w3.org/2000/svg" xmlns:xlink="http://www.w3.org/1999/xlink" xmlns:sketch="http://www.bohemiancoding.com/sketch/ns">
    <!-- Generator: Sketch 3.3.3 (12072) - http://www.bohemiancoding.com/sketch -->
    <title>hardware</title>
    <desc>Created with Sketch.</desc>
    <defs></defs>
    <g id="Page-1" stroke="none" stroke-width="1" fill="none" fill-rule="evenodd" sketch:type="MSPage">
        <g id="Illustrations" sketch:type="MSArtboardGroup" transform="translate(-254.000000, -1762.000000)">
            <g id="hardware" sketch:type="MSLayerGroup" transform="translate(254.500000, 1762.000000)">
                <g id="Group" fill="#ECF0F1" sketch:type="MSShapeGroup">
                    <path d="M491.427115,215.669753 L417.077975,215.669753 C415.639278,215.669753 414.475354,214.506173 414.475354,213.074074 C414.475354,211.641975 415.639278,210.478395 417.077975,210.478395 L490.346549,210.478395 L509.29042,191.549383 C510.293804,190.533951 511.948614,190.537037 512.964346,191.549383 C513.973904,192.564815 513.973904,194.209877 512.964346,195.225309 L493.264078,214.910494 C492.773192,215.395062 492.11559,215.669753 491.427115,215.669753" id="Fill-1"></path>
                    <path d="M467.001116,178.728395 L416.458397,178.728395 C415.0197,178.728395 413.855775,177.564815 413.855775,176.12963 C413.855775,174.694444 415.0197,173.530864 416.458397,173.530864 L465.926724,173.530864 L478.053766,161.388889 C478.53539,160.901235 479.208428,160.62963 479.890729,160.62963 L521.458573,160.62963 C522.89727,160.62963 524.055019,161.79321 524.055019,163.228395 C524.055019,164.660494 522.89727,165.820988 521.458573,165.820988 L480.968208,165.820988 L468.838079,177.962963 C468.35028,178.453704 467.686504,178.728395 467.001116,178.728395" id="Fill-2"></path>
                    <path d="M525.793187,355.401235 C525.132498,355.401235 524.45946,355.157407 523.965487,354.645062 L495.796666,326.484568 L419.71862,326.484568 C418.279923,326.484568 417.115999,325.320988 417.115999,323.888889 C417.115999,322.45679 418.279923,321.29321 419.71862,321.29321 L496.871057,321.29321 C497.559532,321.29321 498.217134,321.564815 498.701845,322.052469 L527.639412,350.969136 C528.64897,351.987654 528.64897,353.632716 527.639412,354.645062 C527.13309,355.157407 526.456964,355.401235 525.793187,355.401235" id="Fill-3"></path>
                    <path d="M451.243371,289.537037 L419.71862,289.537037 C418.279923,289.537037 417.115999,288.373457 417.115999,286.932099 C417.115999,285.5 418.279923,284.33642 419.71862,284.33642 L451.243371,284.33642 C452.672806,284.33642 453.83673,285.5 453.83673,286.932099 C453.83673,288.373457 452.672806,289.537037 451.243371,289.537037" id="Fill-4"></path>
                    <path d="M524.490333,283.938272 L487.102737,283.938272 C486.423524,283.938272 485.765922,283.66358 485.271949,283.17284 L454.676485,252.58642 L419.71862,252.58642 C418.279923,252.58642 417.115999,251.42284 417.115999,249.990741 C417.115999,248.558642 418.279923,247.395062 419.71862,247.395062 L455.747789,247.395062 C456.445526,247.395062 457.100041,247.666667 457.597101,248.151235 L488.189478,278.740741 L524.490333,278.740741 C525.922855,278.740741 527.08678,279.904321 527.08678,281.33642 C527.08678,282.771605 525.922855,283.938272 524.490333,283.938272" id="Fill-5"></path>
                    <path d="M528.142647,172.512346 C523.020763,172.512346 518.855951,168.345679 518.855951,163.228395 C518.855951,158.111111 523.020763,153.950617 528.142647,153.950617 C533.270707,153.950617 537.429343,158.111111 537.429343,163.228395 C537.429343,168.345679 533.270707,172.512346 528.142647,172.512346 L528.142647,172.512346 Z M528.142647,159.151235 C525.895069,159.151235 524.055019,160.975309 524.055019,163.228395 C524.055019,165.481481 525.895069,167.317901 528.142647,167.317901 C530.408749,167.317901 532.233363,165.481481 532.233363,163.228395 C532.233363,160.975309 530.408749,159.151235 528.142647,159.151235 L528.142647,159.151235 Z" id="Fill-6"></path>
                    <path d="M515.234511,197.938272 C510.106451,197.938272 505.947815,193.777778 505.947815,188.66358 C505.947815,183.54321 510.106451,179.376543 515.234511,179.376543 C520.344046,179.376543 524.515032,183.54321 524.515032,188.66358 C524.515032,193.777778 520.344046,197.938272 515.234511,197.938272 L515.234511,197.938272 Z M515.234511,184.580247 C512.980758,184.580247 511.140708,186.41358 511.140708,188.66358 C511.140708,190.91358 512.980758,192.746914 515.234511,192.746914 C517.479001,192.746914 519.312877,190.91358 519.312877,188.66358 C519.312877,186.41358 517.479001,184.580247 515.234511,184.580247 L515.234511,184.580247 Z" id="Fill-7"></path>
                    <path d="M531.168233,290.611111 C526.052523,290.611111 521.890799,286.450617 521.890799,281.33642 C521.890799,276.222222 526.052523,272.061728 531.168233,272.061728 C536.293205,272.061728 540.458017,276.222222 540.458017,281.33642 C540.458017,286.450617 536.293205,290.611111 531.168233,290.611111 L531.168233,290.611111 Z M531.168233,277.262346 C528.920655,277.262346 527.08678,279.092593 527.08678,281.33642 C527.08678,283.589506 528.920655,285.416667 531.168233,285.416667 C533.418899,285.416667 535.262036,283.589506 535.262036,281.33642 C535.262036,279.092593 533.418899,277.262346 531.168233,277.262346 L531.168233,277.262346 Z" id="Fill-8"></path>
                    <path d="M457.924359,296.209877 C452.796299,296.209877 448.64075,292.049383 448.64075,286.932099 C448.64075,281.814815 452.796299,277.648148 457.924359,277.648148 C463.033894,277.648148 467.207967,281.814815 467.207967,286.932099 C467.207967,292.049383 463.033894,296.209877 457.924359,296.209877 L457.924359,296.209877 Z M457.924359,282.848765 C455.673693,282.848765 453.83673,284.685185 453.83673,286.932099 C453.83673,289.185185 455.673693,291.018519 457.924359,291.018519 C460.168849,291.018519 462.008899,289.185185 462.008899,286.932099 C462.008899,284.685185 460.168849,282.848765 457.924359,282.848765 L457.924359,282.848765 Z" id="Fill-9"></path>
                    <path d="M530.522981,366.802469 C525.394922,366.802469 521.233197,362.641975 521.233197,357.527778 C521.233197,352.407407 525.394922,348.246914 530.522981,348.246914 C535.632516,348.246914 539.809677,352.407407 539.809677,357.527778 C539.809677,362.641975 535.632516,366.802469 530.522981,366.802469 L530.522981,366.802469 Z M530.522981,353.438272 C528.256879,353.438272 526.429178,355.274691 526.429178,357.527778 C526.429178,359.771605 528.256879,361.604938 530.522981,361.604938 C532.770559,361.604938 534.610609,359.771605 534.610609,357.527778 C534.610609,355.274691 532.770559,353.438272 530.522981,353.438272 L530.522981,353.438272 Z" id="Fill-10"></path>
                    <path d="M155.310208,178.728395 L78.4325434,178.728395 C76.9907591,178.728395 75.8237475,177.564815 75.8237475,176.12963 C75.8237475,174.694444 76.9907591,173.530864 78.4325434,173.530864 L155.310208,173.530864 C156.745818,173.530864 157.91283,174.694444 157.91283,176.12963 C157.91283,177.564815 156.745818,178.728395 155.310208,178.728395" id="Fill-11"></path>
                    <path d="M29.0506611,322.876543 C28.3868846,322.876543 27.7200208,322.62037 27.2167857,322.111111 C26.197966,321.098765 26.197966,319.453704 27.2167857,318.441358 L60.5538013,285.098765 C61.0415998,284.608025 61.6992016,284.33642 62.3907641,284.33642 L155.310208,284.33642 C156.745818,284.33642 157.91283,285.5 157.91283,286.932099 C157.91283,288.373457 156.745818,289.537037 155.310208,289.537037 L63.4682431,289.537037 L30.8937986,322.111111 C30.3874761,322.62037 29.7175249,322.876543 29.0506611,322.876543" id="Fill-12"></path>
                    <path d="M155.310208,326.484568 L85.0950068,326.484568 C84.4034443,326.484568 83.7396678,326.209877 83.2549566,325.725309 L73.6255668,316.061728 C72.6129217,315.040123 72.6160091,313.395062 73.6317414,312.385802 C74.6505611,311.37037 76.2961093,311.376543 77.3025797,312.391975 L86.1724858,321.29321 L155.310208,321.29321 C156.745818,321.29321 157.91283,322.45679 157.91283,323.888889 C157.91283,325.320988 156.745818,326.484568 155.310208,326.484568" id="Fill-13"></path>
                    <path d="M75.7589135,228.537037 L16.1425242,228.537037 C14.7038273,228.537037 13.539903,227.37037 13.539903,225.941358 C13.539903,224.506173 14.7038273,223.342593 16.1425242,223.342593 L74.6752598,223.342593 L86.8115636,211.216049 C87.2962748,210.731481 87.9569639,210.450617 88.6454391,210.450617 L155.310208,210.450617 C156.745818,210.450617 157.91283,211.623457 157.91283,213.055556 C157.91283,214.490741 156.745818,215.651235 155.310208,215.651235 L89.7229181,215.651235 L77.5927889,227.777778 C77.1019031,228.262346 76.4504759,228.537037 75.7589135,228.537037" id="Fill-14"></path>
                    <path d="M155.310208,252.58642 L39.9921673,252.58642 C38.5534703,252.58642 37.3864587,251.42284 37.3864587,249.990741 C37.3864587,248.558642 38.5534703,247.395062 39.9921673,247.395062 L155.310208,247.395062 C156.745818,247.395062 157.91283,248.558642 157.91283,249.990741 C157.91283,251.42284 156.745818,252.58642 155.310208,252.58642" id="Fill-15"></path>
                    <path d="M71.7546433,185.401235 C66.6358461,185.401235 62.4679474,181.243827 62.4679474,176.12963 C62.4679474,171.012346 66.6358461,166.845679 71.7546433,166.845679 C76.8703532,166.845679 81.0259026,171.012346 81.0259026,176.12963 C81.0259026,181.243827 76.8703532,185.401235 71.7546433,185.401235 L71.7546433,185.401235 Z M71.7546433,172.037037 C69.494716,172.037037 67.6577532,173.873457 67.6577532,176.12963 C67.6577532,178.373457 69.494716,180.203704 71.7546433,180.203704 C73.999134,180.203704 75.8237475,178.373457 75.8237475,176.12963 C75.8237475,173.873457 73.999134,172.037037 71.7546433,172.037037 L71.7546433,172.037037 Z" id="Fill-16"></path>
                    <path d="M9.46153684,235.212963 C4.34273966,235.212963 0.174840881,231.052469 0.174840881,225.941358 C0.174840881,220.820988 4.34273966,216.654321 9.46153684,216.654321 C14.580334,216.654321 18.7358835,220.820988 18.7358835,225.941358 C18.7358835,231.052469 14.580334,235.212963 9.46153684,235.212963 L9.46153684,235.212963 Z M9.46153684,221.854938 C7.2016095,221.854938 5.3739087,223.685185 5.3739087,225.941358 C5.3739087,228.191358 7.2016095,230.012346 9.46153684,230.012346 C11.7091148,230.012346 13.539903,228.191358 13.539903,225.941358 C13.539903,223.685185 11.7091148,221.854938 9.46153684,221.854938 L9.46153684,221.854938 Z" id="Fill-17"></path>
                    <path d="M33.3080925,259.262346 C28.1923827,259.262346 24.0244839,255.104938 24.0244839,249.990741 C24.0244839,244.87037 28.1923827,240.70679 33.3080925,240.70679 C38.4268897,240.70679 42.5855265,244.87037 42.5855265,249.990741 C42.5855265,255.104938 38.4268897,259.262346 33.3080925,259.262346 L33.3080925,259.262346 Z M33.3080925,245.898148 C31.0543399,245.898148 29.2266391,247.734568 29.2266391,249.990741 C29.2266391,252.240741 31.0543399,254.061728 33.3080925,254.061728 C35.5587579,254.061728 37.3864587,252.240741 37.3864587,249.990741 C37.3864587,247.734568 35.5587579,245.898148 33.3080925,245.898148 L33.3080925,245.898148 Z" id="Fill-18"></path>
                    <path d="M24.5030204,334.111111 C19.3811359,334.111111 15.2163245,329.950617 15.2163245,324.83642 C15.2163245,319.719136 19.3811359,315.552469 24.5030204,315.552469 C29.615643,315.552469 33.7804544,319.719136 33.7804544,324.83642 C33.7804544,329.950617 29.615643,334.111111 24.5030204,334.111111 L24.5030204,334.111111 Z M24.5030204,320.743827 C22.2492678,320.743827 20.4153923,322.580247 20.4153923,324.83642 C20.4153923,327.08642 22.2492678,328.910494 24.5030204,328.910494 C26.7567731,328.910494 28.5813866,327.08642 28.5813866,324.83642 C28.5813866,322.580247 26.7567731,320.743827 24.5030204,320.743827 L24.5030204,320.743827 Z" id="Fill-19"></path>
                    <path d="M70.7512603,318.777778 C65.6262884,318.777778 61.4583897,314.617284 61.4583897,309.506173 C61.4583897,304.391975 65.6262884,300.228395 70.7512603,300.228395 C75.8638828,300.228395 80.0194322,304.391975 80.0194322,309.506173 C80.0194322,314.617284 75.8638828,318.777778 70.7512603,318.777778 L70.7512603,318.777778 Z M70.7512603,305.432099 C68.4913329,305.432099 66.6543701,307.262346 66.6543701,309.506173 C66.6543701,311.756173 68.4913329,313.58642 70.7512603,313.58642 C72.995751,313.58642 74.8234518,311.756173 74.8234518,309.506173 C74.8234518,307.262346 72.995751,305.432099 70.7512603,305.432099 L70.7512603,305.432099 Z" id="Fill-20"></path>
                    <path d="M194.506981,484.648148 C193.846292,484.648148 193.179428,484.391975 192.670018,483.885802 C191.66046,482.873457 191.66046,481.228395 192.670018,480.212963 L209.184159,463.691358 L209.184159,380.537037 C209.184159,379.104938 210.354258,377.938272 211.783693,377.938272 C213.216215,377.938272 214.383227,379.104938 214.383227,380.537037 L214.383227,464.768519 C214.383227,465.459877 214.108454,466.114198 213.623743,466.604938 L196.343944,483.885802 C195.843796,484.391975 195.173845,484.648148 194.506981,484.648148" id="Fill-21"></path>
                    <path d="M294.83911,461.623457 C294.175334,461.623457 293.511557,461.367284 292.99906,460.861111 C291.983328,459.848765 291.983328,458.200617 293.005235,457.188272 L320.303428,429.916667 L320.303428,380.537037 C320.303428,379.104938 321.47044,377.938272 322.896787,377.938272 C324.335484,377.938272 325.502496,379.104938 325.502496,380.537037 L325.502496,431 C325.502496,431.685185 325.224636,432.348765 324.739925,432.830247 L296.67916,460.861111 C296.16975,461.367284 295.505974,461.623457 294.83911,461.623457" id="Fill-22"></path>
                    <path d="M238.936782,422.635802 C238.276093,422.635802 237.609229,422.37963 237.102906,421.873457 C236.084087,420.854938 236.084087,419.212963 237.102906,418.200617 L246.247585,409.067901 L246.247585,380.537037 C246.247585,379.104938 247.414597,377.938272 248.847119,377.938272 C250.276554,377.938272 251.443566,379.104938 251.443566,380.537037 L251.443566,410.141975 C251.443566,410.833333 251.174968,411.496914 250.684082,411.984568 L240.773745,421.87963 C240.267422,422.37963 239.603646,422.635802 238.936782,422.635802" id="Fill-23"></path>
                    <path d="M263.817594,486.537037 C262.381984,486.537037 261.221147,485.367284 261.221147,483.935185 L261.221147,449.515432 C261.221147,448.771605 261.539143,448.058642 262.094862,447.567901 L283.329535,428.765432 L283.329535,380.537037 C283.329535,379.104938 284.496547,377.938272 285.935243,377.938272 C287.370853,377.938272 288.537865,379.104938 288.537865,380.537037 L288.537865,429.932099 C288.537865,430.682099 288.213695,431.388889 287.657975,431.87963 L266.410953,450.682099 L266.410953,483.935185 C266.410953,485.367284 265.250116,486.537037 263.817594,486.537037" id="Fill-24"></path>
                    <path d="M381.904972,481.398148 C381.241196,481.398148 380.583594,481.141975 380.071097,480.638889 L358.132512,458.70679 C357.657063,458.216049 357.379203,457.555556 357.379203,456.867284 L357.379203,380.537037 C357.379203,379.104938 358.54004,377.938272 359.978737,377.938272 C361.408172,377.938272 362.569009,379.104938 362.569009,380.537037 L362.569009,455.790123 L383.751197,476.962963 C384.763842,477.975309 384.763842,479.617284 383.751197,480.638889 C383.2387,481.141975 382.574923,481.398148 381.904972,481.398148" id="Fill-25"></path>
                    <path d="M189.792624,496.055556 C184.673827,496.055556 180.505928,491.895062 180.505928,486.780864 C180.505928,481.66358 184.673827,477.493827 189.792624,477.493827 C194.908334,477.493827 199.066971,481.66358 199.066971,486.780864 C199.066971,491.895062 194.908334,496.055556 189.792624,496.055556 L189.792624,496.055556 Z M189.792624,482.694444 C187.532697,482.694444 185.701909,484.524691 185.701909,486.780864 C185.701909,489.027778 187.532697,490.854938 189.792624,490.854938 C192.037115,490.854938 193.864816,489.027778 193.864816,486.780864 C193.864816,484.524691 192.037115,482.694444 189.792624,482.694444 L189.792624,482.694444 Z" id="Fill-26"></path>
                    <path d="M234.216251,434.033951 C229.097453,434.033951 224.929555,429.876543 224.929555,424.762346 C224.929555,419.641975 229.097453,415.475309 234.216251,415.475309 C239.335048,415.475309 243.496772,419.641975 243.496772,424.762346 C243.496772,429.876543 239.335048,434.033951 234.216251,434.033951 L234.216251,434.033951 Z M234.216251,420.675926 C231.962498,420.675926 230.125535,422.512346 230.125535,424.762346 C230.125535,427.012346 231.962498,428.839506 234.216251,428.839506 C236.470003,428.839506 238.294617,427.012346 238.294617,424.762346 C238.294617,422.512346 236.470003,420.675926 234.216251,420.675926 L234.216251,420.675926 Z" id="Fill-27"></path>
                    <path d="M263.823769,499.895062 C258.704971,499.895062 254.537073,495.737654 254.537073,490.623457 C254.537073,485.506173 258.704971,481.339506 263.823769,481.339506 C268.939478,481.339506 273.101203,485.506173 273.101203,490.623457 C273.101203,495.737654 268.939478,499.895062 263.823769,499.895062 L263.823769,499.895062 Z M263.823769,486.537037 C261.566929,486.537037 259.733053,488.367284 259.733053,490.623457 C259.733053,492.87037 261.566929,494.697531 263.823769,494.697531 C266.077521,494.697531 267.899047,492.87037 267.899047,490.623457 C267.899047,488.367284 266.077521,486.537037 263.823769,486.537037 L263.823769,486.537037 Z" id="Fill-28"></path>
                    <path d="M290.115492,473.027778 C284.993607,473.027778 280.828796,468.873457 280.828796,463.759259 C280.828796,458.638889 284.993607,454.472222 290.115492,454.472222 C295.231201,454.472222 299.3991,458.638889 299.3991,463.759259 C299.3991,468.873457 295.231201,473.027778 290.115492,473.027778 L290.115492,473.027778 Z M290.115492,459.669753 C287.864826,459.669753 286.027863,461.506173 286.027863,463.759259 C286.027863,466.003086 287.864826,467.83642 290.115492,467.83642 C292.366157,467.83642 294.193858,466.003086 294.193858,463.759259 C294.193858,461.506173 292.366157,459.669753 290.115492,459.669753 L290.115492,459.669753 Z" id="Fill-29"></path>
                    <path d="M386.634765,492.802469 C381.519056,492.802469 377.348069,488.638889 377.348069,483.524691 C377.348069,478.404321 381.519056,474.240741 386.634765,474.240741 C391.753563,474.240741 395.909112,478.404321 395.909112,483.524691 C395.909112,488.638889 391.753563,492.802469 386.634765,492.802469 L386.634765,492.802469 Z M386.634765,479.438272 C384.3841,479.438272 382.553312,481.274691 382.553312,483.524691 C382.553312,485.777778 384.3841,487.604938 386.634765,487.604938 C388.891605,487.604938 390.716219,485.777778 390.716219,483.524691 C390.716219,481.274691 388.891605,479.438272 386.634765,479.438272 L386.634765,479.438272 Z" id="Fill-30"></path>
                    <path d="M248.847119,122.064815 C247.414597,122.064815 246.247585,120.901235 246.247585,119.462963 L246.247585,67.3333333 C246.247585,66.5895062 246.568668,65.8858025 247.127475,65.3858025 L276.719556,39.2314815 L276.719556,16.2623457 C276.719556,14.8302469 277.88348,13.6574074 279.322177,13.6574074 C280.751612,13.6574074 281.912449,14.8302469 281.912449,16.2623457 L281.912449,40.4012346 C281.912449,41.1481481 281.597541,41.8549383 281.038734,42.3487654 L251.443566,68.5030864 L251.443566,119.462963 C251.443566,120.901235 250.276554,122.064815 248.847119,122.064815" id="Fill-31"></path>
                    <path d="M211.783693,122.064815 C210.354258,122.064815 209.184159,120.901235 209.184159,119.462963 L209.184159,41.0802469 L185.516669,17.4259259 C184.507111,16.4135802 184.507111,14.7623457 185.516669,13.7530864 C186.529314,12.7345679 188.171775,12.7345679 189.196769,13.7530864 L213.623743,38.1666667 C214.108454,38.6512346 214.383227,39.3117284 214.383227,40.0030864 L214.383227,119.462963 C214.383227,120.901235 213.216215,122.064815 211.783693,122.064815" id="Fill-32"></path>
                    <path d="M359.978737,122.064815 C358.54004,122.064815 357.379203,120.901235 357.379203,119.462963 L357.379203,18.2253086 C357.379203,16.7932099 358.54004,15.6296296 359.978737,15.6296296 C361.408172,15.6296296 362.569009,16.7932099 362.569009,18.2253086 L362.569009,119.462963 C362.569009,120.901235 361.408172,122.064815 359.978737,122.064815" id="Fill-33"></path>
                    <path d="M322.896787,122.064815 C321.47044,122.064815 320.303428,120.901235 320.303428,119.462963 L320.303428,50.7808642 L307.308846,37.7716049 C306.296201,36.75 306.299288,35.1049383 307.321195,34.0925926 C308.324578,33.0802469 309.979388,33.0833333 310.982771,34.095679 L324.739925,47.867284 C325.230811,48.3549383 325.502496,49.0185185 325.502496,49.7037037 L325.502496,119.462963 C325.502496,120.901235 324.335484,122.064815 322.896787,122.064815" id="Fill-34"></path>
                    <path d="M285.935243,122.064815 C284.496547,122.064815 283.329535,120.901235 283.329535,119.462963 L283.329535,75.4351852 C283.329535,74.75 283.613569,74.0864198 284.095193,73.6049383 L295.752961,61.8796296 C296.777955,60.8549383 298.417328,60.8549383 299.429974,61.8641975 C300.454968,62.8796296 300.454968,64.5246914 299.442323,65.537037 L288.537865,76.5061728 L288.537865,119.462963 C288.537865,120.901235 287.370853,122.064815 285.935243,122.064815" id="Fill-35"></path>
                    <path d="M182.630013,20.1388889 C177.508128,20.1388889 173.343317,15.9753086 173.343317,10.8641975 C173.343317,5.74382716 177.508128,1.58024691 182.630013,1.58024691 C187.742635,1.58024691 191.913622,5.74382716 191.913622,10.8641975 C191.913622,15.9753086 187.742635,20.1388889 182.630013,20.1388889 L182.630013,20.1388889 Z M182.630013,6.77469136 C180.37626,6.77469136 178.542385,8.61111111 178.542385,10.8641975 C178.542385,13.1111111 180.37626,14.941358 182.630013,14.941358 C184.883766,14.941358 186.708379,13.1111111 186.708379,10.8641975 C186.708379,8.61111111 184.883766,6.77469136 182.630013,6.77469136 L182.630013,6.77469136 Z" id="Fill-36"></path>
                    <path d="M279.322177,18.8580247 C274.194118,18.8580247 270.032394,14.6975309 270.032394,9.58333333 C270.032394,4.46604938 274.194118,0.302469136 279.322177,0.302469136 C284.431713,0.302469136 288.587262,4.46604938 288.587262,9.58333333 C288.587262,14.6975309 284.431713,18.8580247 279.322177,18.8580247 L279.322177,18.8580247 Z M279.322177,5.49691358 C277.059163,5.49691358 275.2222,7.32716049 275.2222,9.58333333 C275.2222,11.8302469 277.059163,13.6574074 279.322177,13.6574074 C281.566668,13.6574074 283.391282,11.8302469 283.391282,9.58333333 C283.391282,7.32716049 281.566668,5.49691358 279.322177,5.49691358 L279.322177,5.49691358 Z" id="Fill-37"></path>
                    <path d="M302.325891,68.2685185 C297.210182,68.2685185 293.039195,64.1049383 293.039195,58.9907407 C293.039195,53.8734568 297.210182,49.7098765 302.325891,49.7098765 C307.441601,49.7098765 311.603325,53.8734568 311.603325,58.9907407 C311.603325,64.1049383 307.441601,68.2685185 302.325891,68.2685185 L302.325891,68.2685185 Z M302.325891,54.904321 C300.075226,54.904321 298.238263,56.7407407 298.238263,58.9907407 C298.238263,61.2438272 300.075226,63.0709877 302.325891,63.0709877 C304.576557,63.0709877 306.407345,61.2438272 306.407345,58.9907407 C306.407345,56.7407407 304.576557,54.904321 302.325891,54.904321 L302.325891,54.904321 Z" id="Fill-38"></path>
                    <path d="M304.419103,40.4814815 C299.309568,40.4814815 295.135494,36.3240741 295.135494,31.2098765 C295.135494,26.0925926 299.309568,21.9228395 304.419103,21.9228395 C309.540987,21.9228395 313.702711,26.0925926 313.702711,31.2098765 C313.702711,36.3240741 309.540987,40.4814815 304.419103,40.4814815 L304.419103,40.4814815 Z M304.419103,27.1234568 C302.174612,27.1234568 300.340737,28.9537037 300.340737,31.2098765 C300.340737,33.4567901 302.174612,35.2839506 304.419103,35.2839506 C306.675943,35.2839506 308.506731,33.4567901 308.506731,31.2098765 C308.506731,28.9537037 306.675943,27.1234568 304.419103,27.1234568 L304.419103,27.1234568 Z" id="Fill-39"></path>
                    <path d="M359.981825,20.8240741 C354.856853,20.8240741 350.695129,16.6635802 350.695129,11.5555556 C350.695129,6.43209877 354.856853,2.2654321 359.981825,2.2654321 C365.097534,2.2654321 369.256171,6.43209877 369.256171,11.5555556 C369.256171,16.6635802 365.097534,20.8240741 359.981825,20.8240741 L359.981825,20.8240741 Z M359.981825,7.46296296 C357.724985,7.46296296 355.891109,9.29938272 355.891109,11.5555556 C355.891109,13.8024691 357.724985,15.6296296 359.981825,15.6296296 C362.23249,15.6296296 364.057103,13.8024691 364.057103,11.5555556 C364.057103,9.29938272 362.23249,7.46296296 359.981825,7.46296296 L359.981825,7.46296296 Z" id="Fill-40"></path>
                </g>
                <g id="Group" transform="translate(136.000000, 101.000000)" fill="#ECF0F1" sketch:type="MSShapeGroup">
                    <path d="M66.6112285,0.12654321 L84.9561578,0.12654321 L84.9561578,18.462963 L66.6112285,18.462963 L66.6112285,0.12654321 Z" id="Fill-41"></path>
                    <path d="M103.671567,0.12654321 L122.022671,0.12654321 L122.022671,18.462963 L103.671567,18.462963 L103.671567,0.12654321 Z" id="Fill-42"></path>
                    <path d="M140.73808,0.12654321 L159.083009,0.12654321 L159.083009,18.462963 L140.73808,18.462963 L140.73808,0.12654321 Z" id="Fill-43"></path>
                    <path d="M177.804593,0.12654321 L196.155697,0.12654321 L196.155697,18.462963 L177.804593,18.462963 L177.804593,0.12654321 Z" id="Fill-44"></path>
                    <path d="M214.806273,0.12654321 L233.151202,0.12654321 L233.151202,18.462963 L214.806273,18.462963 L214.806273,0.12654321 Z" id="Fill-45"></path>
                    <path d="M66.6112285,279.537037 L84.9561578,279.537037 L84.9561578,297.876543 L66.6112285,297.876543 L66.6112285,279.537037 Z" id="Fill-46"></path>
                    <path d="M103.671567,279.537037 L122.022671,279.537037 L122.022671,297.876543 L103.671567,297.876543 L103.671567,279.537037 Z" id="Fill-47"></path>
                    <path d="M140.73808,279.537037 L159.083009,279.537037 L159.083009,297.876543 L140.73808,297.876543 L140.73808,279.537037 Z" id="Fill-48"></path>
                    <path d="M177.804593,279.537037 L196.155697,279.537037 L196.155697,297.876543 L177.804593,297.876543 L177.804593,279.537037 Z" id="Fill-49"></path>
                    <path d="M214.806273,279.537037 L233.151202,279.537037 L233.151202,297.876543 L214.806273,297.876543 L214.806273,279.537037 Z" id="Fill-50"></path>
                    <path d="M0.968366284,65.9598765 L19.3102083,65.9598765 L19.3102083,84.3024691 L0.968366284,84.3024691 L0.968366284,65.9598765 Z" id="Fill-51"></path>
                    <path d="M0.968366284,103.009259 L19.3102083,103.009259 L19.3102083,121.348765 L0.968366284,121.348765 L0.968366284,103.009259 Z" id="Fill-52"></path>
                    <path d="M0.968366284,140.064815 L19.3102083,140.064815 L19.3102083,158.398148 L0.968366284,158.398148 L0.968366284,140.064815 Z" id="Fill-53"></path>
                    <path d="M0.968366284,177.117284 L19.3102083,177.117284 L19.3102083,195.459877 L0.968366284,195.459877 L0.968366284,177.117284 Z" id="Fill-54"></path>
                    <path d="M0.968366284,214.104938 L19.3102083,214.104938 L19.3102083,232.444444 L0.968366284,232.444444 L0.968366284,214.104938 Z" id="Fill-55"></path>
                    <path d="M280.458397,65.9598765 L298.809501,65.9598765 L298.809501,84.3024691 L280.458397,84.3024691 L280.458397,65.9598765 Z" id="Fill-56"></path>
                    <path d="M280.458397,103.009259 L298.809501,103.009259 L298.809501,121.348765 L280.458397,121.348765 L280.458397,103.009259 Z" id="Fill-57"></path>
                    <path d="M280.458397,140.064815 L298.809501,140.064815 L298.809501,158.398148 L280.458397,158.398148 L280.458397,140.064815 Z" id="Fill-58"></path>
                    <path d="M280.458397,177.117284 L298.809501,177.117284 L298.809501,195.459877 L280.458397,195.459877 L280.458397,177.117284 Z" id="Fill-59"></path>
                    <path d="M280.458397,214.104938 L298.809501,214.104938 L298.809501,232.444444 L280.458397,232.444444 L280.458397,214.104938 Z" id="Fill-60"></path>
                </g>
                <path d="M155.310208,119.462963 L416.458397,119.462963 L416.458397,380.533951 L155.310208,380.533951 L155.310208,119.462963 Z" id="Fill-61" fill="#020F3B" sketch:type="MSShapeGroup"></path>
                <path d="M201.79926,165.944444 L369.96317,165.944444 L369.96317,334.061728 L201.79926,334.061728 L201.79926,165.944444 Z" id="Fill-62" fill="#3FB1B1" sketch:type="MSShapeGroup"></path>
                <g id="Group" transform="translate(215.000000, 180.000000)" fill="#020F3B" sketch:type="MSShapeGroup">
                    <path d="M5.55171722,9.27777778 C3.02627929,9.27777778 0.973203222,7.2191358 0.973203222,4.6882716 C0.973203222,2.16358025 3.02627929,0.104938272 5.55171722,0.104938272 C8.08332981,0.104938272 10.1425805,2.16358025 10.1425805,4.6882716 C10.1425805,7.2191358 8.08332981,9.27777778 5.55171722,9.27777778" id="Fill-63"></path>
                    <path d="M27.3328475,9.27777778 C24.8043223,9.27777778 22.7481589,7.2191358 22.7481589,4.6882716 C22.7481589,2.16358025 24.8043223,0.104938272 27.3328475,0.104938272 C29.8582855,0.104938272 31.9144489,2.16358025 31.9144489,4.6882716 C31.9144489,7.2191358 29.8582855,9.27777778 27.3328475,9.27777778" id="Fill-64"></path>
                    <path d="M49.1047158,9.27777778 C46.5761906,9.27777778 44.5231145,7.2191358 44.5231145,4.6882716 C44.5231145,2.16358025 46.5761906,0.104938272 49.1047158,0.104938272 C51.6332411,0.104938272 53.6924918,2.16358025 53.6924918,4.6882716 C53.6924918,7.2191358 51.6332411,9.27777778 49.1047158,9.27777778" id="Fill-65"></path>
                    <path d="M70.8889335,9.27777778 C68.3604082,9.27777778 66.2949828,7.2191358 66.2949828,4.6882716 C66.2949828,2.16358025 68.3604082,0.104938272 70.8889335,0.104938272 C73.4112841,0.104938272 75.4705348,2.16358025 75.4705348,4.6882716 C75.4705348,7.2191358 73.4112841,9.27777778 70.8889335,9.27777778" id="Fill-66"></path>
                    <path d="M92.6608018,9.27777778 C90.1291892,9.27777778 88.0699385,7.2191358 88.0699385,4.6882716 C88.0699385,2.16358025 90.1291892,0.104938272 92.6608018,0.104938272 C95.1955017,0.104938272 97.2454905,2.16358025 97.2454905,4.6882716 C97.2454905,7.2191358 95.1955017,9.27777778 92.6608018,9.27777778" id="Fill-67"></path>
                    <path d="M114.429583,9.27777778 C111.904145,9.27777778 109.857243,7.2191358 109.857243,4.6882716 C109.857243,2.16358025 111.904145,0.104938272 114.429583,0.104938272 C116.961195,0.104938272 119.023533,2.16358025 119.023533,4.6882716 C119.023533,7.2191358 116.961195,9.27777778 114.429583,9.27777778" id="Fill-68"></path>
                    <path d="M136.219975,9.27777778 C133.685275,9.27777778 131.626024,7.2191358 131.626024,4.6882716 C131.626024,2.16358025 133.685275,0.104938272 136.219975,0.104938272 C138.745413,0.104938272 140.801576,2.16358025 140.801576,4.6882716 C140.801576,7.2191358 138.745413,9.27777778 136.219975,9.27777778" id="Fill-69"></path>
                    <path d="M5.55171722,31.0462963 C3.02627929,31.0462963 0.973203222,28.9907407 0.973203222,26.462963 C0.973203222,23.9351852 3.02627929,21.8765432 5.55171722,21.8765432 C8.08332981,21.8765432 10.1425805,23.9351852 10.1425805,26.462963 C10.1425805,28.9907407 8.08332981,31.0462963 5.55171722,31.0462963" id="Fill-70"></path>
                    <path d="M27.3328475,31.0462963 C24.8043223,31.0462963 22.7481589,28.9907407 22.7481589,26.462963 C22.7481589,23.9351852 24.8043223,21.8765432 27.3328475,21.8765432 C29.8582855,21.8765432 31.9144489,23.9351852 31.9144489,26.462963 C31.9144489,28.9907407 29.8582855,31.0462963 27.3328475,31.0462963" id="Fill-71"></path>
                    <path d="M49.1047158,31.0462963 C46.5761906,31.0462963 44.5231145,28.9907407 44.5231145,26.462963 C44.5231145,23.9351852 46.5761906,21.8765432 49.1047158,21.8765432 C51.6332411,21.8765432 53.6924918,23.9351852 53.6924918,26.462963 C53.6924918,28.9907407 51.6332411,31.0462963 49.1047158,31.0462963" id="Fill-72"></path>
                    <path d="M70.8889335,31.0462963 C68.3604082,31.0462963 66.2949828,28.9907407 66.2949828,26.462963 C66.2949828,23.9351852 68.3604082,21.8765432 70.8889335,21.8765432 C73.4112841,21.8765432 75.4705348,23.9351852 75.4705348,26.462963 C75.4705348,28.9907407 73.4112841,31.0462963 70.8889335,31.0462963" id="Fill-73"></path>
                    <path d="M92.6608018,31.0462963 C90.1291892,31.0462963 88.0699385,28.9907407 88.0699385,26.462963 C88.0699385,23.9351852 90.1291892,21.8765432 92.6608018,21.8765432 C95.1955017,21.8765432 97.2454905,23.9351852 97.2454905,26.462963 C97.2454905,28.9907407 95.1955017,31.0462963 92.6608018,31.0462963" id="Fill-74"></path>
                    <path d="M114.429583,31.0462963 C111.904145,31.0462963 109.857243,28.9907407 109.857243,26.462963 C109.857243,23.9351852 111.904145,21.8765432 114.429583,21.8765432 C116.961195,21.8765432 119.023533,23.9351852 119.023533,26.462963 C119.023533,28.9907407 116.961195,31.0462963 114.429583,31.0462963" id="Fill-75"></path>
                    <path d="M136.219975,31.0462963 C133.685275,31.0462963 131.626024,28.9907407 131.626024,26.462963 C131.626024,23.9351852 133.685275,21.8765432 136.219975,21.8765432 C138.745413,21.8765432 140.801576,23.9351852 140.801576,26.462963 C140.801576,28.9907407 138.745413,31.0462963 136.219975,31.0462963" id="Fill-76"></path>
                    <path d="M5.55171722,52.8117284 C3.02627929,52.8117284 0.973203222,50.7592593 0.973203222,48.2283951 C0.973203222,45.7067901 3.02627929,43.6481481 5.55171722,43.6481481 C8.08332981,43.6481481 10.1425805,45.7067901 10.1425805,48.2283951 C10.1425805,50.7592593 8.08332981,52.8117284 5.55171722,52.8117284" id="Fill-77"></path>
                    <path d="M27.3328475,52.8117284 C24.8043223,52.8117284 22.7481589,50.7592593 22.7481589,48.2283951 C22.7481589,45.7067901 24.8043223,43.6481481 27.3328475,43.6481481 C29.8582855,43.6481481 31.9144489,45.7067901 31.9144489,48.2283951 C31.9144489,50.7592593 29.8582855,52.8117284 27.3328475,52.8117284" id="Fill-78"></path>
                    <path d="M49.1047158,52.8117284 C46.5761906,52.8117284 44.5231145,50.7592593 44.5231145,48.2283951 C44.5231145,45.7067901 46.5761906,43.6481481 49.1047158,43.6481481 C51.6332411,43.6481481 53.6924918,45.7067901 53.6924918,48.2283951 C53.6924918,50.7592593 51.6332411,52.8117284 49.1047158,52.8117284" id="Fill-79"></path>
                    <path d="M70.8889335,52.8117284 C68.3604082,52.8117284 66.2949828,50.7592593 66.2949828,48.2283951 C66.2949828,45.7067901 68.3604082,43.6481481 70.8889335,43.6481481 C73.4112841,43.6481481 75.4705348,45.7067901 75.4705348,48.2283951 C75.4705348,50.7592593 73.4112841,52.8117284 70.8889335,52.8117284" id="Fill-80"></path>
                    <path d="M92.6608018,52.8117284 C90.1291892,52.8117284 88.0699385,50.7592593 88.0699385,48.2283951 C88.0699385,45.7067901 90.1291892,43.6481481 92.6608018,43.6481481 C95.1955017,43.6481481 97.2454905,45.7067901 97.2454905,48.2283951 C97.2454905,50.7592593 95.1955017,52.8117284 92.6608018,52.8117284" id="Fill-81"></path>
                    <path d="M114.429583,52.8117284 C111.904145,52.8117284 109.857243,50.7592593 109.857243,48.2283951 C109.857243,45.7067901 111.904145,43.6481481 114.429583,43.6481481 C116.961195,43.6481481 119.023533,45.7067901 119.023533,48.2283951 C119.023533,50.7592593 116.961195,52.8117284 114.429583,52.8117284" id="Fill-82"></path>
                    <path d="M136.219975,52.8117284 C133.685275,52.8117284 131.626024,50.7592593 131.626024,48.2283951 C131.626024,45.7067901 133.685275,43.6481481 136.219975,43.6481481 C138.745413,43.6481481 140.801576,45.7067901 140.801576,48.2283951 C140.801576,50.7592593 138.745413,52.8117284 136.219975,52.8117284" id="Fill-83"></path>
                    <path d="M5.55171722,74.5864198 C3.02627929,74.5864198 0.973203222,72.5277778 0.973203222,70 C0.973203222,67.4722222 3.02627929,65.4135802 5.55171722,65.4135802 C8.08332981,65.4135802 10.1425805,67.4722222 10.1425805,70 C10.1425805,72.5277778 8.08332981,74.5864198 5.55171722,74.5864198" id="Fill-84"></path>
                    <path d="M27.3328475,74.5864198 C24.8043223,74.5864198 22.7481589,72.5277778 22.7481589,70 C22.7481589,67.4722222 24.8043223,65.4135802 27.3328475,65.4135802 C29.8582855,65.4135802 31.9144489,67.4722222 31.9144489,70 C31.9144489,72.5277778 29.8582855,74.5864198 27.3328475,74.5864198" id="Fill-85"></path>
                    <path d="M49.1047158,74.5864198 C46.5761906,74.5864198 44.5231145,72.5277778 44.5231145,70 C44.5231145,67.4722222 46.5761906,65.4135802 49.1047158,65.4135802 C51.6332411,65.4135802 53.6924918,67.4722222 53.6924918,70 C53.6924918,72.5277778 51.6332411,74.5864198 49.1047158,74.5864198" id="Fill-86"></path>
                    <path d="M70.8889335,74.5864198 C68.3604082,74.5864198 66.2949828,72.5277778 66.2949828,70 C66.2949828,67.4722222 68.3604082,65.4135802 70.8889335,65.4135802 C73.4112841,65.4135802 75.4705348,67.4722222 75.4705348,70 C75.4705348,72.5277778 73.4112841,74.5864198 70.8889335,74.5864198" id="Fill-87"></path>
                    <path d="M92.6608018,74.5864198 C90.1291892,74.5864198 88.0699385,72.5277778 88.0699385,70 C88.0699385,67.4722222 90.1291892,65.4135802 92.6608018,65.4135802 C95.1955017,65.4135802 97.2454905,67.4722222 97.2454905,70 C97.2454905,72.5277778 95.1955017,74.5864198 92.6608018,74.5864198" id="Fill-88"></path>
                    <path d="M114.429583,74.5864198 C111.904145,74.5864198 109.857243,72.5277778 109.857243,70 C109.857243,67.4722222 111.904145,65.4135802 114.429583,65.4135802 C116.961195,65.4135802 119.023533,67.4722222 119.023533,70 C119.023533,72.5277778 116.961195,74.5864198 114.429583,74.5864198" id="Fill-89"></path>
                    <path d="M136.219975,74.5864198 C133.685275,74.5864198 131.626024,72.5277778 131.626024,70 C131.626024,67.4722222 133.685275,65.4135802 136.219975,65.4135802 C138.745413,65.4135802 140.801576,67.4722222 140.801576,70 C140.801576,72.5277778 138.745413,74.5864198 136.219975,74.5864198" id="Fill-90"></path>
                    <path d="M5.55171722,96.3580247 C3.02627929,96.3580247 0.973203222,94.2993827 0.973203222,91.7716049 C0.973203222,89.2407407 3.02627929,87.1851852 5.55171722,87.1851852 C8.08332981,87.1851852 10.1425805,89.2407407 10.1425805,91.7716049 C10.1425805,94.2993827 8.08332981,96.3580247 5.55171722,96.3580247" id="Fill-91"></path>
                    <path d="M27.3328475,96.3580247 C24.8043223,96.3580247 22.7481589,94.2993827 22.7481589,91.7716049 C22.7481589,89.2407407 24.8043223,87.1851852 27.3328475,87.1851852 C29.8582855,87.1851852 31.9144489,89.2407407 31.9144489,91.7716049 C31.9144489,94.2993827 29.8582855,96.3580247 27.3328475,96.3580247" id="Fill-92"></path>
                    <path d="M49.1047158,96.3580247 C46.5761906,96.3580247 44.5231145,94.2993827 44.5231145,91.7716049 C44.5231145,89.2407407 46.5761906,87.1851852 49.1047158,87.1851852 C51.6332411,87.1851852 53.6924918,89.2407407 53.6924918,91.7716049 C53.6924918,94.2993827 51.6332411,96.3580247 49.1047158,96.3580247" id="Fill-93"></path>
                    <path d="M70.8889335,96.3580247 C68.3604082,96.3580247 66.2949828,94.2993827 66.2949828,91.7716049 C66.2949828,89.2407407 68.3604082,87.1851852 70.8889335,87.1851852 C73.4112841,87.1851852 75.4705348,89.2407407 75.4705348,91.7716049 C75.4705348,94.2993827 73.4112841,96.3580247 70.8889335,96.3580247" id="Fill-94"></path>
                    <path d="M92.6608018,96.3580247 C90.1291892,96.3580247 88.0699385,94.2993827 88.0699385,91.7716049 C88.0699385,89.2407407 90.1291892,87.1851852 92.6608018,87.1851852 C95.1955017,87.1851852 97.2454905,89.2407407 97.2454905,91.7716049 C97.2454905,94.2993827 95.1955017,96.3580247 92.6608018,96.3580247" id="Fill-95"></path>
                    <path d="M114.429583,96.3580247 C111.904145,96.3580247 109.857243,94.2993827 109.857243,91.7716049 C109.857243,89.2407407 111.904145,87.1851852 114.429583,87.1851852 C116.961195,87.1851852 119.023533,89.2407407 119.023533,91.7716049 C119.023533,94.2993827 116.961195,96.3580247 114.429583,96.3580247" id="Fill-96"></path>
                    <path d="M136.219975,96.3580247 C133.685275,96.3580247 131.626024,94.2993827 131.626024,91.7716049 C131.626024,89.2407407 133.685275,87.1851852 136.219975,87.1851852 C138.745413,87.1851852 140.801576,89.2407407 140.801576,91.7716049 C140.801576,94.2993827 138.745413,96.3580247 136.219975,96.3580247" id="Fill-97"></path>
                    <path d="M5.55171722,118.126543 C3.02627929,118.126543 0.973203222,116.070988 0.973203222,113.54321 C0.973203222,111.015432 3.02627929,108.959877 5.55171722,108.959877 C8.08332981,108.959877 10.1425805,111.015432 10.1425805,113.54321 C10.1425805,116.070988 8.08332981,118.126543 5.55171722,118.126543" id="Fill-98"></path>
                    <path d="M27.3328475,118.126543 C24.8043223,118.126543 22.7481589,116.070988 22.7481589,113.54321 C22.7481589,111.015432 24.8043223,108.959877 27.3328475,108.959877 C29.8582855,108.959877 31.9144489,111.015432 31.9144489,113.54321 C31.9144489,116.070988 29.8582855,118.126543 27.3328475,118.126543" id="Fill-99"></path>
                    <path d="M49.1047158,118.126543 C46.5761906,118.126543 44.5231145,116.070988 44.5231145,113.54321 C44.5231145,111.015432 46.5761906,108.959877 49.1047158,108.959877 C51.6332411,108.959877 53.6924918,111.015432 53.6924918,113.54321 C53.6924918,116.070988 51.6332411,118.126543 49.1047158,118.126543" id="Fill-100"></path>
                    <path d="M70.8889335,118.126543 C68.3604082,118.126543 66.2949828,116.070988 66.2949828,113.54321 C66.2949828,111.015432 68.3604082,108.959877 70.8889335,108.959877 C73.4112841,108.959877 75.4705348,111.015432 75.4705348,113.54321 C75.4705348,116.070988 73.4112841,118.126543 70.8889335,118.126543" id="Fill-101"></path>
                    <path d="M92.6608018,118.126543 C90.1291892,118.126543 88.0699385,116.070988 88.0699385,113.54321 C88.0699385,111.015432 90.1291892,108.959877 92.6608018,108.959877 C95.1955017,108.959877 97.2454905,111.015432 97.2454905,113.54321 C97.2454905,116.070988 95.1955017,118.126543 92.6608018,118.126543" id="Fill-102"></path>
                    <path d="M114.429583,118.126543 C111.904145,118.126543 109.857243,116.070988 109.857243,113.54321 C109.857243,111.015432 111.904145,108.959877 114.429583,108.959877 C116.961195,108.959877 119.023533,111.015432 119.023533,113.54321 C119.023533,116.070988 116.961195,118.126543 114.429583,118.126543" id="Fill-103"></path>
                    <path d="M136.219975,118.126543 C133.685275,118.126543 131.626024,116.070988 131.626024,113.54321 C131.626024,111.015432 133.685275,108.959877 136.219975,108.959877 C138.745413,108.959877 140.801576,111.015432 140.801576,113.54321 C140.801576,116.070988 138.745413,118.126543 136.219975,118.126543" id="Fill-104"></path>
                    <path d="M5.55171722,139.891975 C3.02627929,139.891975 0.973203222,137.83642 0.973203222,135.308642 C0.973203222,132.780864 3.02627929,130.722222 5.55171722,130.722222 C8.08332981,130.722222 10.1425805,132.780864 10.1425805,135.308642 C10.1425805,137.83642 8.08332981,139.891975 5.55171722,139.891975" id="Fill-105"></path>
                    <path d="M27.3328475,139.891975 C24.8043223,139.891975 22.7481589,137.83642 22.7481589,135.308642 C22.7481589,132.780864 24.8043223,130.722222 27.3328475,130.722222 C29.8582855,130.722222 31.9144489,132.780864 31.9144489,135.308642 C31.9144489,137.83642 29.8582855,139.891975 27.3328475,139.891975" id="Fill-106"></path>
                    <path d="M49.1047158,139.891975 C46.5761906,139.891975 44.5231145,137.83642 44.5231145,135.308642 C44.5231145,132.780864 46.5761906,130.722222 49.1047158,130.722222 C51.6332411,130.722222 53.6924918,132.780864 53.6924918,135.308642 C53.6924918,137.83642 51.6332411,139.891975 49.1047158,139.891975" id="Fill-107"></path>
                    <path d="M70.8889335,139.891975 C68.3604082,139.891975 66.2949828,137.83642 66.2949828,135.308642 C66.2949828,132.780864 68.3604082,130.722222 70.8889335,130.722222 C73.4112841,130.722222 75.4705348,132.780864 75.4705348,135.308642 C75.4705348,137.83642 73.4112841,139.891975 70.8889335,139.891975" id="Fill-108"></path>
                    <path d="M92.6608018,139.891975 C90.1291892,139.891975 88.0699385,137.83642 88.0699385,135.308642 C88.0699385,132.780864 90.1291892,130.722222 92.6608018,130.722222 C95.1955017,130.722222 97.2454905,132.780864 97.2454905,135.308642 C97.2454905,137.83642 95.1955017,139.891975 92.6608018,139.891975" id="Fill-109"></path>
                    <path d="M114.429583,139.891975 C111.904145,139.891975 109.857243,137.83642 109.857243,135.308642 C109.857243,132.780864 111.904145,130.722222 114.429583,130.722222 C116.961195,130.722222 119.023533,132.780864 119.023533,135.308642 C119.023533,137.83642 116.961195,139.891975 114.429583,139.891975" id="Fill-110"></path>
                    <path d="M136.219975,139.891975 C133.685275,139.891975 131.626024,137.83642 131.626024,135.308642 C131.626024,132.780864 133.685275,130.722222 136.219975,130.722222 C138.745413,130.722222 140.801576,132.780864 140.801576,135.308642 C140.801576,137.83642 138.745413,139.891975 136.219975,139.891975" id="Fill-111"></path>
                </g>
                <g id="CRAFTWORKZ-WHITE-Copy" transform="translate(226.500000, 350.000000)" fill="#ECF0F1" sketch:type="MSShapeGroup">
                    <path d="M10.0214798,3.7906729 L19.4868682,3.7906729 L19.4868682,6.86419146 L10.0214798,6.86419146 C9.3680217,8.94245705 7.42431311,10.4499631 5.12812322,10.4499631 C2.29593897,10.4499631 0,8.1565279 0,5.32743218 C0,2.49833646 2.29593897,0.204901238 5.12812322,0.204901238 C7.42431311,0.204901238 9.3680217,1.71240731 10.0214798,3.7906729 L10.0214798,3.7906729 Z M2.05460466,5.32743218 L3.59136394,2.66278119 L6.6648825,2.66278119 L8.20164179,5.32743218 L6.6648825,7.99208317 L3.59136394,7.99208317 L2.05460466,5.32743218 Z" id="tool"></path>
                    <path d="M25.6635901,7.80919597 C24.6740674,7.91246619 23.8026968,7.92721908 22.3257973,7.92721908 C21.3215056,7.92721908 21.0704327,7.42562085 21.0704327,5.36021638 C21.0704327,3.2948119 21.3215056,2.79321367 22.3257973,2.79321367 C23.7288518,2.79321367 24.4082255,2.80796656 25.4420552,2.82271945 L25.6783591,0.49176297 C24.6592985,0.211458077 23.9208487,0.0934349643 22.3257973,0.0934349643 C18.9436974,0.0934349643 17.7031019,1.48020654 17.7031019,5.36021638 C17.7031019,9.24022621 18.9436974,10.6269978 22.3257973,10.6269978 C23.9208487,10.6269978 24.8660644,10.4942218 25.899894,10.1401524 L25.6635901,7.80919597 Z M35.9575795,10.4499631 L35.1600538,7.32235063 C34.9089809,6.08310794 34.0523792,5.80280305 33.4911574,5.7290386 L33.4911574,5.64052127 C35.0714398,5.47823949 35.5588167,4.44553725 35.5588167,3.22104746 C35.5588167,0.845832309 34.2591451,0.122940743 31.2610392,0.122940743 C29.2229179,0.122940743 28.2924712,0.137693632 26.9337237,0.270469634 L26.9337237,10.4499631 L30.0795196,10.4499631 L30.0795196,6.73223506 L31.0690422,6.73223506 C31.615495,6.73223506 31.822261,6.86501106 31.9404129,7.42562085 L32.6050177,10.4499631 L35.9575795,10.4499631 Z M30.0795196,4.47504303 L30.0795196,2.38013278 L31.1871942,2.38013278 C32.1028719,2.38013278 32.3391758,2.58667322 32.3391758,3.4275879 C32.3391758,4.26850258 32.1028719,4.47504303 31.1871942,4.47504303 L30.0795196,4.47504303 Z M42.5888582,8.25178264 L43.1057731,10.4499631 L46.3697209,10.4499631 L43.7260708,1.09663142 C43.5931499,0.595033194 43.164849,0.270469634 42.6479342,0.270469634 L39.7384422,0.270469634 C39.2215274,0.270469634 38.7932266,0.595033194 38.6603056,1.09663142 L36.0166555,10.4499631 L39.2806034,10.4499631 L39.7975182,8.25178264 L42.5888582,8.25178264 Z M42.0719434,6.0093435 L40.314433,6.0093435 L40.8165789,3.82591591 C40.8904238,3.45709368 40.9494998,3.0292599 40.9938068,2.66043767 L41.3925697,2.66043767 C41.4221076,3.0292599 41.4959526,3.45709368 41.5697976,3.82591591 L42.0719434,6.0093435 Z M54.3745162,2.66043767 L54.5222061,0.417998525 C53.1191516,0.211458077 51.0957993,0.211458077 49.3973649,0.211458077 C47.9795414,0.211458077 46.9752497,1.15564298 46.9752497,2.52766167 L46.9752497,10.4499631 L50.1801216,10.4499631 L50.1801216,6.51094173 L53.8280633,6.51094173 L53.8280633,4.38652569 L50.1801216,4.38652569 L50.1801216,3.19154168 C50.1801216,2.88173101 50.4164255,2.66043767 50.8151884,2.66043767 L54.3745162,2.66043767 Z M63.7675969,2.66043767 L63.7675969,0.270469634 L54.861893,0.270469634 L54.861893,2.66043767 L57.712309,2.66043767 L57.712309,10.4499631 L60.9171809,10.4499631 L60.9171809,2.66043767 L63.7675969,2.66043767 Z" id="CRAFT"></path>
                    <path d="M78.2707499,0.270469634 L75.110185,0.270469634 L74.6080391,6.5404475 C74.5785012,7.04204573 74.5341942,7.66166708 74.5341942,8.20752397 L74.2978903,8.20752397 C74.2240453,7.67641997 74.1354313,7.05679862 74.0763553,6.52569462 L73.3822126,1.21465454 C73.3083676,0.65404475 72.8800667,0.270469634 72.3040759,0.270469634 L70.0148817,0.270469634 C69.4388909,0.270469634 68.9958211,0.65404475 68.9367451,1.21465454 L68.2573713,6.49618884 C68.1982954,7.02729284 68.0949124,7.69117285 68.0210674,8.20752397 L67.7847635,8.20752397 C67.7847635,7.55839685 67.7552255,7.01253996 67.7256875,6.51094173 L67.2087727,0.270469634 L64.0482078,0.270469634 L65.3183414,9.59429555 C65.3921863,10.1106467 65.8647942,10.4499631 66.411247,10.4499631 L69.143511,10.4499631 C69.6899638,10.4499631 70.1773407,10.1106467 70.2364167,9.59429555 L70.9157904,3.98819769 C70.9748664,3.50135235 71.0044044,2.98500123 71.0339424,2.483403 L71.2850153,2.483403 C71.3145533,2.97024834 71.3440913,3.48659946 71.4031673,3.9734448 L72.09731,9.59429555 C72.156386,10.1106467 72.6437628,10.4499631 73.1902156,10.4499631 L75.9077107,10.4499631 C76.4541635,10.4499631 76.9267713,10.1106467 77.0006163,9.59429555 L78.2707499,0.270469634 Z M83.70574,0.0639291861 C80.2202572,0.0639291861 78.9648926,1.17039587 78.9648926,5.36021638 C78.9648926,9.55003688 80.2202572,10.6565036 83.70574,10.6565036 C87.2059918,10.6565036 88.4613563,9.55003688 88.4613563,5.36021638 C88.4613563,1.17039587 87.2059918,0.0639291861 83.70574,0.0639291861 L83.70574,0.0639291861 Z M83.70574,2.43914433 C84.7986456,2.43914433 85.0792565,2.99975412 85.0792565,5.36021638 C85.0792565,7.72067863 84.7986456,8.28128842 83.70574,8.28128842 C82.6128344,8.28128842 82.3322235,7.72067863 82.3322235,5.36021638 C82.3322235,2.99975412 82.6128344,2.43914433 83.70574,2.43914433 L83.70574,2.43914433 Z M98.7258078,10.4499631 L97.9282821,7.32235063 C97.6772091,6.08310794 96.8206074,5.80280305 96.2593856,5.7290386 L96.2593856,5.64052127 C97.8396681,5.47823949 98.3270449,4.44553725 98.3270449,3.22104746 C98.3270449,0.845832309 97.0273734,0.122940743 94.0292674,0.122940743 C91.9911461,0.122940743 91.0606994,0.137693632 89.7019519,0.270469634 L89.7019519,10.4499631 L92.8477478,10.4499631 L92.8477478,6.73223506 L93.8372705,6.73223506 C94.3837233,6.73223506 94.5904892,6.86501106 94.7086412,7.42562085 L95.3732459,10.4499631 L98.7258078,10.4499631 Z M92.8477478,4.47504303 L92.8477478,2.38013278 L93.9554224,2.38013278 C94.8711001,2.38013278 95.107404,2.58667322 95.107404,3.4275879 C95.107404,4.26850258 94.8711001,4.47504303 93.9554224,4.47504303 L92.8477478,4.47504303 Z M103.318965,6.20113105 L105.475238,10.4499631 L109.034566,10.4499631 L106.656758,6.21588394 C106.420454,5.77329727 105.918308,5.3307106 105.637697,5.21268748 L105.637697,5.15367593 C105.918308,5.03565282 106.287533,4.71108925 106.538606,4.25374969 L108.886876,0.270469634 L105.4457,0.270469634 L103.318965,4.13572658 L102.757743,4.13572658 C102.861126,3.7078928 102.905433,3.25055323 102.905433,2.83747234 L102.905433,0.270469634 L99.7005614,0.270469634 L99.7005614,10.4499631 L102.905433,10.4499631 L102.905433,7.13056307 C102.905433,6.85025818 102.861126,6.52569462 102.787281,6.20113105 L103.318965,6.20113105 Z M117.423355,8.20752397 L112.874505,8.20752397 L117.275665,2.51290878 L117.275665,0.270469634 L109.477636,0.270469634 L109.477636,2.51290878 L113.731107,2.51290878 L109.329946,8.20752397 L109.329946,10.4499631 L117.423355,10.4499631 L117.423355,8.20752397 Z" id="---------------WORKZ"></path>
                </g>
            </g>
        </g>
    </g>
</svg>