<?xml version="1.0" encoding="utf-8"?>
<!-- Generator: Adobe Illustrator 16.0.0, SVG Export Plug-In . SVG Version: 6.00 Build 0)  -->
<!DOCTYPE svg PUBLIC "-//W3C//DTD SVG 1.1//EN" "http://www.w3.org/Graphics/SVG/1.1/DTD/svg11.dtd">
<svg version="1.1" id="Layer_1" xmlns="http://www.w3.org/2000/svg" xmlns:xlink="http://www.w3.org/1999/xlink" x="0px" y="0px"
	 width="72px" height="72px" viewBox="0 0 72 72" enable-background="new 0 0 72 72" xml:space="preserve">
<g>
	<path d="M65.449,38.262c0-4.996-1.241-9.706-3.421-13.847c3.26-2.138,5.206-5.722,5.206-9.624c0-6.347-5.164-11.51-11.51-11.51
		c-4.536,0-8.612,2.644-10.478,6.756c-3.022-1.033-6.258-1.603-9.625-1.603c-3.126,0-6.141,0.486-8.974,1.382
		c-1.909-3.984-5.919-6.535-10.374-6.535c-6.347,0-11.511,5.163-11.511,11.51c0,3.674,1.738,7.054,4.66,9.223
		C7.11,28.25,5.794,33.105,5.794,38.262c0,9.117,4.117,17.287,10.585,22.763l-3.424,4.48c-0.671,0.877-0.503,2.134,0.375,2.804
		c0.362,0.276,0.789,0.412,1.212,0.412c0.603,0,1.197-0.271,1.591-0.787l3.466-4.535c4.632,2.963,10.128,4.688,16.023,4.688
		c5.704,0,11.038-1.612,15.575-4.401l3.246,4.248c0.394,0.516,0.988,0.787,1.591,0.787c0.423,0,0.85-0.136,1.212-0.412
		c0.878-0.67,1.046-1.927,0.375-2.804l-3.163-4.139C61.16,55.893,65.449,47.569,65.449,38.262z M55.725,7.28
		c4.143,0,7.512,3.369,7.512,7.51c0,2.508-1.237,4.812-3.31,6.214c-2.826-3.968-6.594-7.216-10.979-9.416
		C50.187,8.966,52.806,7.28,55.725,7.28z M8.762,14.79c0-4.141,3.369-7.51,7.511-7.51c2.807,0,5.332,1.562,6.625,4.011
		c-4.508,2.135-8.396,5.367-11.323,9.35C9.804,19.221,8.762,17.092,8.762,14.79z M9.794,38.262
		c0-14.242,11.587-25.828,25.828-25.828S61.449,24.02,61.449,38.262c0,14.239-11.586,25.825-25.827,25.825
		S9.794,52.501,9.794,38.262z"/>
	<path d="M25.53,56.104c-6.416-3.642-10.402-10.478-10.402-17.842c0-0.554-0.447-1-1-1c-0.553,0-1,0.446-1,1
		c0,8.084,4.374,15.588,11.416,19.582c0.155,0.088,0.325,0.129,0.492,0.129c0.349,0,0.687-0.182,0.871-0.507
		C26.179,56.986,26.01,56.374,25.53,56.104z"/>
	<path d="M33.752,58.671c-0.394-0.036-0.782-0.082-1.169-0.142c-0.547-0.073-1.055,0.298-1.137,0.843
		c-0.081,0.547,0.295,1.056,0.842,1.137c0.424,0.063,0.851,0.115,1.284,0.154c0.031,0.002,0.061,0.004,0.091,0.004
		c0.512,0,0.948-0.39,0.995-0.91C34.707,59.206,34.302,58.721,33.752,58.671z"/>
	<path d="M38.205,37.921V22.929c0-1.104-0.896-2-2-2c-1.104,0-2,0.896-2,2v15.814c0,0.526-0.095,1.032,0.276,1.405l5.395,5.761
		c0.392,0.396,0.906,0.594,1.422,0.594c0.509,0,1.167-0.192,1.558-0.578c0.785-0.776,0.941-2.043,0.166-2.827L38.205,37.921z"/>
</g>
</svg>
