<?xml version="1.0" encoding="utf-8"?>
<!-- Generator: Adobe Illustrator 16.0.0, SVG Export Plug-In . SVG Version: 6.00 Build 0)  -->
<!DOCTYPE svg PUBLIC "-//W3C//DTD SVG 1.1//EN" "http://www.w3.org/Graphics/SVG/1.1/DTD/svg11.dtd">
<svg version="1.1" id="Layer_1" xmlns="http://www.w3.org/2000/svg" xmlns:xlink="http://www.w3.org/1999/xlink" x="0px" y="0px"
	 width="72px" height="72px" viewBox="0 0 72 72" enable-background="new 0 0 72 72" xml:space="preserve">
<g>
	<path d="M58.811,13.181C52.717,7.087,44.613,3.73,35.994,3.73c-8.62,0-16.724,3.358-22.819,9.452
		c-12.582,12.582-12.582,33.054,0,45.636c6.094,6.095,14.198,9.451,22.817,9.451s16.724-3.357,22.818-9.455
		c6.096-6.092,9.451-14.196,9.451-22.815S64.906,19.277,58.811,13.181z M55.982,55.988c-4.152,4.152-9.371,6.846-15.036,7.843
		c-0.007-0.045-0.01-0.09-0.017-0.134c-0.088-0.545-0.604-0.922-1.146-0.827c-0.545,0.087-0.916,0.601-0.828,1.146
		c0.005,0.032,0.008,0.064,0.013,0.097c-0.982,0.102-1.976,0.157-2.977,0.157c-7.551,0-14.65-2.941-19.989-8.279
		c-6.266-6.268-8.964-14.768-8.104-22.963c0.026,0.004,0.053,0.006,0.079,0.01c0.054,0.01,0.107,0.014,0.16,0.014
		c0.483,0,0.907-0.35,0.987-0.843c0.088-0.544-0.283-1.058-0.828-1.146c-0.039-0.006-0.078-0.009-0.117-0.015
		c0.974-5.511,3.578-10.789,7.826-15.038c4.008-4.006,9.007-6.662,14.444-7.738c0.028,0.188,0.042,0.379,0.072,0.565
		c0.079,0.492,0.504,0.842,0.986,0.842c0.053,0,0.107-0.004,0.161-0.015c0.545-0.087,0.916-0.599,0.828-1.146
		c-0.029-0.183-0.044-0.372-0.071-0.557c1.176-0.147,2.366-0.23,3.57-0.23c7.551,0,14.65,2.942,19.988,8.28
		c5.34,5.34,8.279,12.438,8.279,19.99c0,1.203-0.083,2.394-0.23,3.568c-0.186-0.026-0.374-0.041-0.559-0.071
		c-0.546-0.091-1.058,0.284-1.146,0.828c-0.089,0.544,0.282,1.058,0.827,1.146c0.188,0.03,0.378,0.045,0.567,0.072
		C62.646,46.981,59.989,51.981,55.982,55.988z"/>
	<path d="M31.743,44.098c-0.363-0.416-0.995-0.461-1.411-0.098s-0.46,0.996-0.097,1.412c1.141,1.309,2.196,2.701,3.136,4.143
		c0.192,0.293,0.512,0.453,0.838,0.453c0.188,0,0.377-0.053,0.546-0.162c0.462-0.303,0.593-0.922,0.291-1.385
		C34.056,46.943,32.944,45.475,31.743,44.098z"/>
	<path d="M37.711,53.24c-0.234-0.5-0.829-0.715-1.331-0.48c-0.5,0.234-0.714,0.828-0.48,1.33c0.733,1.563,1.364,3.194,1.872,4.844
		c0.133,0.43,0.527,0.705,0.955,0.705c0.097,0,0.196-0.014,0.295-0.043c0.527-0.164,0.824-0.724,0.66-1.25
		C39.146,56.605,38.482,54.889,37.711,53.24z"/>
	<path d="M23.509,36.93c-0.461-0.3-1.082-0.171-1.384,0.293c-0.301,0.463-0.171,1.082,0.292,1.383
		c1.441,0.939,2.834,1.992,4.144,3.131c0.189,0.166,0.423,0.246,0.656,0.246c0.28,0,0.557-0.115,0.755-0.344
		c0.362-0.416,0.318-1.048-0.099-1.41C26.495,39.029,25.027,37.919,23.509,36.93z"/>
	<path d="M18.726,34.27c-1.649-0.772-3.367-1.434-5.106-1.969c-0.525-0.16-1.086,0.137-1.249,0.662
		c-0.162,0.529,0.135,1.088,0.662,1.25c1.651,0.508,3.281,1.135,4.846,1.867c0.138,0.065,0.281,0.096,0.424,0.096
		c0.376,0,0.737-0.213,0.905-0.576C19.442,35.1,19.227,34.504,18.726,34.27z"/>
	<path d="M49.012,33.914c-1.443-0.942-2.836-1.996-4.143-3.135c-0.415-0.361-1.047-0.32-1.411,0.096
		c-0.362,0.416-0.319,1.049,0.097,1.412c1.377,1.199,2.844,2.311,4.363,3.303c0.169,0.109,0.357,0.162,0.546,0.162
		c0.326,0,0.646-0.16,0.839-0.453C49.605,34.836,49.475,34.215,49.012,33.914z"/>
	<path d="M58.393,38.313c-1.65-0.508-3.281-1.137-4.845-1.871c-0.504-0.235-1.096-0.018-1.33,0.48
		c-0.235,0.502-0.02,1.096,0.48,1.33c1.649,0.773,3.366,1.438,5.106,1.973c0.098,0.029,0.196,0.043,0.293,0.043
		c0.428,0,0.823-0.275,0.957-0.705C59.217,39.036,58.921,38.475,58.393,38.313z"/>
	<path d="M33.671,13.577c-0.162-0.527-0.721-0.824-1.249-0.662c-0.528,0.162-0.825,0.721-0.663,1.25
		c0.535,1.74,1.197,3.459,1.968,5.105c0.171,0.363,0.53,0.576,0.906,0.576c0.143,0,0.287-0.032,0.424-0.095
		c0.5-0.234,0.715-0.828,0.481-1.328C34.807,16.86,34.179,15.229,33.671,13.577z"/>
	<path d="M38.063,22.961c-0.301-0.463-0.92-0.594-1.383-0.293c-0.464,0.303-0.594,0.922-0.292,1.385
		c0.991,1.519,2.101,2.988,3.298,4.363c0.197,0.229,0.477,0.344,0.754,0.344c0.234,0,0.468-0.08,0.656-0.246
		c0.418-0.361,0.461-0.994,0.098-1.41C40.057,25.797,39.003,24.402,38.063,22.961z"/>
</g>
</svg>
