<?xml version="1.0" encoding="utf-8"?>
<!-- Generator: Adobe Illustrator 16.0.0, SVG Export Plug-In . SVG Version: 6.00 Build 0)  -->
<!DOCTYPE svg PUBLIC "-//W3C//DTD SVG 1.1//EN" "http://www.w3.org/Graphics/SVG/1.1/DTD/svg11.dtd">
<svg version="1.1" id="Layer_1" xmlns="http://www.w3.org/2000/svg" xmlns:xlink="http://www.w3.org/1999/xlink" x="0px" y="0px"
	 width="72px" height="72px" viewBox="0 0 72 72" enable-background="new 0 0 72 72" xml:space="preserve">
<g>
	<path d="M61.5,43.604V26.991C61.5,13.486,50.227,2.5,36.838,2.5H35.4c-13.388,0-23.9,10.986-23.9,24.491v16.521
		c-4.44,0.134-8,3.765-8,8.237v0.5c0,4.557,3.693,8.25,8.25,8.25h12.762c0.12,6.325,1.409,9,9.22,9h4c7.449,0,10.443-2.225,10.738-9
		H60.25c4.557,0,8.25-3.693,8.25-8.25v-0.5C68.5,47.619,65.462,44.208,61.5,43.604z M35.4,6.5h1.438
		C48.021,6.5,57.5,15.692,57.5,26.991V43.5h-42V26.991C15.5,15.692,24.216,6.5,35.4,6.5z M37.732,65.5h-4
		c-4.865,0-5.206-0.355-5.229-5h15.972C44.291,64.853,42.908,65.5,37.732,65.5z M64.5,52.25c0,2.348-1.902,4.25-4.25,4.25h-48.5
		c-2.348,0-4.25-1.902-4.25-4.25v-0.5c0-2.348,1.902-4.25,4.25-4.25h48.5c2.348,0,4.25,1.902,4.25,4.25V52.25z"/>
	<path d="M41.454,13.186c6.478,2.83,10.665,9.226,10.665,16.293c0,0.553,0.447,1,1,1s1-0.447,0.999-1
		c0-7.862-4.657-14.978-11.864-18.125c-0.509-0.223-1.095,0.011-1.316,0.516C40.717,12.375,40.948,12.965,41.454,13.186z"/>
	<path d="M34.349,11.71c0.564,0,1.128,0.026,1.676,0.078c0.032,0.003,0.064,0.004,0.095,0.004c0.511,0,0.946-0.389,0.993-0.906
		c0.052-0.55-0.352-1.038-0.901-1.09c-0.61-0.057-1.237-0.086-1.863-0.086c-0.553,0-1,0.447-1,1S33.796,11.71,34.349,11.71z"/>
</g>
</svg>
