<?xml version="1.0" encoding="utf-8"?>
<!-- Generator: Adobe Illustrator 16.0.0, SVG Export Plug-In . SVG Version: 6.00 Build 0)  -->
<!DOCTYPE svg PUBLIC "-//W3C//DTD SVG 1.1//EN" "http://www.w3.org/Graphics/SVG/1.1/DTD/svg11.dtd">
<svg version="1.1" id="Layer_1" xmlns="http://www.w3.org/2000/svg" xmlns:xlink="http://www.w3.org/1999/xlink" x="0px" y="0px"
	 width="72px" height="72px" viewBox="0 0 72 72" enable-background="new 0 0 72 72" xml:space="preserve">
<g>
	<path d="M37.314,29.759c-3.833,0-7.431,2.049-9.39,5.347c-0.281,0.474-0.125,1.089,0.35,1.37c0.16,0.096,0.336,0.141,0.51,0.141
		c0.341,0,0.674-0.175,0.86-0.49c1.601-2.694,4.538-4.368,7.669-4.368c0.552,0,1-0.447,1-1
		C38.314,30.206,37.866,29.759,37.314,29.759z"/>
	<path d="M27.889,37.436c-0.542-0.125-1.076,0.207-1.201,0.746c-0.182,0.78-0.286,1.266-0.286,2.146c0,0.553,0.447,1,1,1
		c0.552,0,1-0.448,1-1c0-0.664,0.071-0.998,0.233-1.69C28.761,38.098,28.426,37.561,27.889,37.436z"/>
	<path d="M61.688,19h-4.906l-4.014-7.034c-0.041-0.071-0.086-0.124-0.135-0.189C50.754,9.258,48.006,8,44.232,8H27.424l-1.342,0.014
		c-2.299,0-4.742,0.321-7.117,3.861c-0.048,0.071-0.092,0.13-0.13,0.207L15.38,19h-4.829C6.522,19,3.5,22.199,3.5,25.908v31.137
		C3.5,60.786,6.592,64,10.551,64h51.137c3.666,0,6.813-2.953,6.813-6.955V25.908C68.5,21.943,65.414,19,61.688,19z M10.551,23h6.068
		c0.759,0,1.453-0.397,1.793-1.078l3.946-7.908c1.286-1.872,2.17-1.963,3.726-1.963l18.148,0.007c2.475,0,4.016,0.603,5.125,2.035
		l4.524,7.929C54.236,22.647,54.9,23,55.62,23h6.067c1.793,0,2.813,1.534,2.813,2.908V32H48.227
		c-2.515-4.057-6.994-6.773-12.107-6.773S26.526,27.943,24.011,32H7.5v-6.092C7.5,24.308,8.964,23,10.551,23z M36.119,51.727
		c-6.755,0-12.25-5.496-12.25-12.25c0-6.754,5.495-12.25,12.25-12.25c6.755,0,12.25,5.495,12.25,12.25
		C48.369,46.23,42.874,51.727,36.119,51.727z M7.5,34h15.467c-0.706,1.688-1.098,3.536-1.098,5.477c0,2.352,0.583,4.566,1.596,6.523
		H7.5V34z M61.688,60H10.551C8.818,60,7.5,58.568,7.5,57.045V48h16.619c0.184,0,0.347-0.063,0.495-0.15
		c2.594,3.555,6.778,5.877,11.505,5.877c4.659,0,8.791-2.258,11.393-5.727h4.607c0.552,0,1-0.447,1-1s-0.448-1-1-1h-3.346
		c1.014-1.957,1.596-4.172,1.596-6.523c0-1.939-0.393-3.789-1.098-5.477h15.229v12h-5.382c-0.553,0-1,0.447-1,1s0.447,1,1,1h5.382
		v9.045C64.501,58.5,63.359,60,61.688,60z"/>
	<path d="M56.119,46h-1c-0.553,0-1,0.447-1,1s0.447,1,1,1h1c0.552,0,1-0.447,1-1S56.671,46,56.119,46z"/>
</g>
</svg>
