<?xml version="1.0" encoding="utf-8"?>
<!-- Generator: Adobe Illustrator 16.0.0, SVG Export Plug-In . SVG Version: 6.00 Build 0)  -->
<!DOCTYPE svg PUBLIC "-//W3C//DTD SVG 1.1//EN" "http://www.w3.org/Graphics/SVG/1.1/DTD/svg11.dtd">
<svg version="1.1" id="Layer_1" xmlns="http://www.w3.org/2000/svg" xmlns:xlink="http://www.w3.org/1999/xlink" x="0px" y="0px"
	 width="72px" height="72px" viewBox="0 0 72 72" enable-background="new 0 0 72 72" xml:space="preserve">
<g>
	<path d="M56.068,4H15.932C12.104,4,9,7.104,9,10.932v50.136C9,64.896,12.104,68,15.932,68h40.136C59.896,68,63,64.896,63,61.068
		V10.932C63,7.104,59.896,4,56.068,4z M37.993,8h10v15.844l-4.563-2.188c-0.138-0.066-0.283-0.099-0.43-0.099
		s-0.3,0.033-0.436,0.099l-4.571,2.188V8z M13,61.068V10.932C13,9.313,14.313,8,15.932,8H22v56h-6.068
		C14.313,64,13,62.688,13,61.068z M59,61.068C59,62.688,57.688,64,56.068,64H24V8h11.993v17.432c0,0.344,0.18,0.663,0.471,0.847
		c0.291,0.183,0.658,0.205,0.968,0.055L43,23.666l5.568,2.667c0.137,0.067,0.285,0.099,0.432,0.099c0.186,0,0.368-0.052,0.529-0.153
		c0.289-0.184,0.464-0.503,0.464-0.847V8h6.075C57.688,8,59,9.313,59,10.932V61.068z"/>
	<path d="M56,51c-0.553,0-1,0.447-1,1v3.184C55,58.109,53.105,60,51.527,60H35.125c-0.553,0-1,0.447-1,1s0.447,1,1,1h16.402
		C54.32,62,57,59.325,57,55.184V52C57,51.447,56.553,51,56,51z"/>
	<path d="M55.245,47.951c0.26,0,0.521-0.102,0.71-0.29c0.18-0.19,0.29-0.44,0.29-0.71c0-0.262-0.111-0.521-0.302-0.71
		c-0.368-0.37-1.039-0.36-1.408,0c-0.182,0.188-0.29,0.448-0.29,0.71c0,0.27,0.108,0.529,0.29,0.71
		C54.725,47.85,54.975,47.951,55.245,47.951z"/>
</g>
</svg>
