<?xml version="1.0" encoding="utf-8"?>
<!-- Generator: Adobe Illustrator 16.0.0, SVG Export Plug-In . SVG Version: 6.00 Build 0)  -->
<!DOCTYPE svg PUBLIC "-//W3C//DTD SVG 1.1//EN" "http://www.w3.org/Graphics/SVG/1.1/DTD/svg11.dtd">
<svg version="1.1" id="Layer_1" xmlns="http://www.w3.org/2000/svg" xmlns:xlink="http://www.w3.org/1999/xlink" x="0px" y="0px"
	 width="72px" height="72px" viewBox="0 0 72 72" enable-background="new 0 0 72 72" xml:space="preserve">
<path d="M62,65.055h-5.229c-2.286-8.509-13.302-49.41-15.563-55.806c-0.956-2.706-2.567-6.303-5.508-6.303
	c-2.962,0-4.593,3.659-5.562,6.411c-2.095,5.952-13.106,47.155-15.384,55.698H10c-1.104,0-2,0.896-2,2c0,1.105,0.896,2,2,2h6.291
	h38.945c0.007,0,0.015,0,0.02,0H62c1.104,0,2-0.895,2-2C64,65.951,63.104,65.055,62,65.055z M25.352,41.055h11.647
	c0.553,0,1-0.447,1-1s-0.447-1-1-1H25.896c1.215-4.471,2.439-8.944,3.563-13h12.514c1.137,4.062,2.372,8.534,3.598,13H41
	c-0.553,0-1,0.447-1,1s0.447,1,1,1h5.118c1.251,4.569,2.47,9.051,3.539,13H21.842C22.904,50.104,24.113,45.622,25.352,41.055z
	 M33.913,10.685c0.812-2.309,1.466-3.236,1.787-3.586c0.314,0.344,0.948,1.251,1.737,3.482c0.666,1.885,2.159,7.019,3.975,13.474
	H30.014C31.82,17.569,33.292,12.447,33.913,10.685z M18.895,65.055c0.545-2.042,1.392-5.209,2.41-9h28.895
	c1.026,3.791,1.879,6.958,2.429,9H18.895z"/>
</svg>
