<?xml version="1.0" encoding="utf-8"?>
<!-- Generator: Adobe Illustrator 16.0.0, SVG Export Plug-In . SVG Version: 6.00 Build 0)  -->
<!DOCTYPE svg PUBLIC "-//W3C//DTD SVG 1.1//EN" "http://www.w3.org/Graphics/SVG/1.1/DTD/svg11.dtd">
<svg version="1.1" id="Layer_1" xmlns="http://www.w3.org/2000/svg" xmlns:xlink="http://www.w3.org/1999/xlink" x="0px" y="0px"
	 width="72px" height="72px" viewBox="0 0 72 72" enable-background="new 0 0 72 72" xml:space="preserve">
<g>
	<g>
		<g>
			<path d="M23,52.332c-0.387,0-0.756-0.227-0.919-0.605c-0.125-0.291-0.171-0.506-0.248-0.863
				c-0.036-0.168-0.083-0.387-0.154-0.687c-0.126-0.537,0.207-1.076,0.744-1.203c0.533-0.121,1.075,0.207,1.203,0.744
				c0.074,0.318,0.124,0.547,0.162,0.727c0.066,0.308,0.084,0.384,0.131,0.491c0.218,0.508-0.017,1.096-0.523,1.314
				C23.267,52.304,23.133,52.332,23,52.332z"/>
		</g>
		<g>
			<path d="M34.446,61.658c-0.045,0-0.09-0.002-0.136-0.008c-4.408-0.602-8.305-3.105-10.691-6.867
				c-0.296-0.467-0.157-1.084,0.31-1.381c0.465-0.295,1.083-0.158,1.38,0.311c2.069,3.264,5.449,5.434,9.271,5.955
				c0.548,0.074,0.931,0.578,0.856,1.125C35.368,61.294,34.938,61.658,34.446,61.658z"/>
		</g>
	</g>
	<g>
		<path d="M36,68.738c-11.84,0-21.473-9.633-21.473-21.474c0-7.639,11.108-32.485,13.946-38.144
			c1.895-3.777,4.532-5.857,7.429-5.857c1.671,0,4.858,0.76,7.44,5.849c2.992,5.898,14.13,30.43,14.13,38.153
			C57.473,59.105,47.84,68.738,36,68.738z M35.902,7.263c-1.267,0-2.707,1.364-3.853,3.65c-3.476,6.929-13.522,30.189-13.522,36.351
			c0,9.636,7.838,17.474,17.473,17.474S53.473,56.9,53.473,47.264c0-6.066-9.722-28.506-13.696-36.343
			C38.597,8.596,37.185,7.263,35.902,7.263z"/>
	</g>
</g>
</svg>
