<?xml version="1.0" encoding="utf-8"?>
<!-- Generator: Adobe Illustrator 16.0.0, SVG Export Plug-In . SVG Version: 6.00 Build 0)  -->
<!DOCTYPE svg PUBLIC "-//W3C//DTD SVG 1.1//EN" "http://www.w3.org/Graphics/SVG/1.1/DTD/svg11.dtd">
<svg version="1.1" id="Layer_1" xmlns="http://www.w3.org/2000/svg" xmlns:xlink="http://www.w3.org/1999/xlink" x="0px" y="0px"
	 width="72px" height="72px" viewBox="0 0 72 72" enable-background="new 0 0 72 72" xml:space="preserve">
<g>
	<path d="M44.593,33.037h-3.616c0.008-0.007,0.02-0.01,0.027-0.018c0.189-0.19,0.301-0.45,0.301-0.71
		c0-0.271-0.111-0.521-0.291-0.71c-0.369-0.37-1.049-0.37-1.42,0c-0.18,0.18-0.289,0.439-0.289,0.71c0,0.26,0.1,0.52,0.289,0.71
		c0.049,0.049,0.115,0.078,0.175,0.115c-0.342,0.159-0.583,0.5-0.583,0.903c0,0.553,0.448,1,1,1h4.407
		c0.638,0,1.093,0.291,1.285,0.686c0.239,0.49,0.074,1.268-0.448,1.936l-7.563,10.315c-0.996,1.272-2.689,1.123-3.718-0.19
		l-7.594-10.087c-0.506-0.645-0.67-1.433-0.418-1.952c0.198-0.407,0.65-0.708,1.274-0.708h3.773c0.552,0,1.197-0.295,1.197-0.848
		v-3.156c0-2.192,1.606-4.116,3.542-4.116c1.189,0,2.648,0.343,3.288,1.979c0.202,0.513,0.793,0.77,1.31,0.567
		c0.516-0.201,0.793-0.781,0.592-1.296c-0.807-2.065-2.668-3.25-5.194-3.25c-3.054,0-5.536,2.801-5.536,6.116v2.004h-2.972
		c-1.41,0-2.529,0.717-3.072,1.833c-0.594,1.22-0.348,2.839,0.631,4.085l7.594,10.066c0.937,1.194,2.245,1.879,3.59,1.879
		c1.268,0,2.436-0.615,3.308-1.726l7.563-10.34c0.979-1.25,1.229-2.8,0.651-3.986C47.141,33.746,46.016,33.037,44.593,33.037z"/>
	<path d="M36,3.518C18.09,3.518,3.518,18.089,3.518,36C3.518,53.91,18.09,68.482,36,68.482S68.482,53.91,68.482,36
		C68.482,18.089,53.91,3.518,36,3.518z M36,64.482C20.295,64.482,7.518,51.705,7.518,36S20.295,7.518,36,7.518
		S64.482,20.295,64.482,36S51.705,64.482,36,64.482z"/>
	<path d="M42.646,11.739c-0.533-0.144-1.082,0.168-1.229,0.701c-0.145,0.534,0.17,1.083,0.701,1.229
		C52.146,16.41,59.148,25.593,59.148,36c0,0.553,0.449,1,1,1c0.553,0,1-0.447,1-1C61.148,24.694,53.541,14.718,42.646,11.739z"/>
	<path d="M36.001,12.851c0.433,0,0.864,0.012,1.292,0.035c0.02,0.002,0.037,0.002,0.057,0.002c0.527,0,0.969-0.413,0.998-0.945
		c0.03-0.552-0.392-1.024-0.945-1.053c-0.465-0.025-0.931-0.039-1.401-0.039c-0.552,0-1,0.447-1,1
		C35.001,12.404,35.449,12.851,36.001,12.851z"/>
</g>
</svg>
