<?xml version="1.0" encoding="utf-8"?>
<!-- Generator: Adobe Illustrator 16.0.0, SVG Export Plug-In . SVG Version: 6.00 Build 0)  -->
<!DOCTYPE svg PUBLIC "-//W3C//DTD SVG 1.1//EN" "http://www.w3.org/Graphics/SVG/1.1/DTD/svg11.dtd">
<svg version="1.1" id="Layer_1" xmlns="http://www.w3.org/2000/svg" xmlns:xlink="http://www.w3.org/1999/xlink" x="0px" y="0px"
	 width="72px" height="72px" viewBox="0 0 72 72" enable-background="new 0 0 72 72" xml:space="preserve">
<g>
	<path d="M67.318,27.11L46.075,5.866c-0.543-0.55-1.984-2.011-3.888-2.011c-1.301,0-3.082,0.65-4.194,3.831
		c-1.642,5.453-4.306,14.191-4.968,16.082L4.865,49.949c-1.224,1.224-1.87,3.007-1.771,4.895c0.093,1.778,0.833,3.485,2.031,4.684
		l6.74,6.74c1.21,1.211,2.836,1.877,4.578,1.877c1.75,0,3.457-0.705,4.632-1.879l28.235-26.252
		c1.422-0.609,8.998-3.142,15.713-5.318c0.11-0.035,0.218-0.081,0.32-0.136c1.678-0.889,3.268-1.958,3.535-3.744
		C69.159,28.951,67.773,27.565,67.318,27.11z M18.299,63.384c-0.482,0.483-1.159,0.761-1.856,0.761c-0.674,0-1.295-0.252-1.75-0.707
		l-6.74-6.74c-0.5-0.5-0.823-1.27-0.865-2.063c-0.039-0.755,0.182-1.432,0.553-1.805l28.13-26.154l10.604,10.604L18.299,63.384z
		 M63.619,30.946c-9.872,3.199-13.829,4.579-15.499,5.25L36.842,24.917c0.62-1.72,1.881-5.779,4.954-15.993
		c0.205-0.586,0.39-0.882,0.497-1.019c0.162,0.081,0.452,0.282,0.936,0.77c0.002,0.004,0.068,0.071,0.072,0.074l21.188,21.189
		c0.119,0.117,0.207,0.216,0.271,0.296C64.566,30.386,64.223,30.619,63.619,30.946z"/>
	<path d="M46.137,14.412c-0.76-0.759-1.468-0.792-1.928-0.688c-0.764,0.175-1.35,0.827-1.738,1.936
		c-0.014,0.039-0.025,0.079-0.033,0.12c-0.535,2.476-1.154,5.232-1.299,5.703c-0.168,0.367-0.102,0.815,0.2,1.119
		c0.195,0.197,0.452,0.296,0.71,0.296c0.254,0,0.51-0.096,0.704-0.29c0.263-0.26,0.325-0.322,1.624-6.342
		c0.098-0.263,0.191-0.428,0.257-0.521c0.026,0.02,0.056,0.047,0.089,0.081l1.668,1.668c0.392,0.391,1.023,0.391,1.414,0
		s0.391-1.023,0-1.414L46.137,14.412z"/>
	<path d="M49.926,18.202c-0.391-0.391-1.023-0.391-1.414,0s-0.391,1.023,0,1.414l0.707,0.707c0.195,0.195,0.451,0.293,0.707,0.293
		s0.512-0.097,0.707-0.293c0.391-0.391,0.391-1.023,0-1.414L49.926,18.202z"/>
	<path d="M59.118,15.253c0.512,0,1.024-0.195,1.414-0.586l1.413-1.414c0.781-0.781,0.781-2.047,0-2.828
		c-0.779-0.781-2.047-0.781-2.827,0l-1.414,1.414c-0.781,0.781-0.781,2.047,0,2.828C58.094,15.058,58.605,15.253,59.118,15.253z"/>
	<path d="M53.461,9.597c0.512,0,1.023-0.196,1.414-0.586l1.414-1.415c0.781-0.781,0.779-2.048-0.001-2.829
		c-0.78-0.78-2.047-0.779-2.828,0.001l-1.414,1.415c-0.78,0.781-0.78,2.048,0.001,2.829C52.438,9.402,52.949,9.597,53.461,9.597z"/>
	<path d="M64.775,20.909c0.512,0,1.023-0.195,1.414-0.586l1.414-1.414c0.78-0.781,0.78-2.047,0-2.828
		c-0.78-0.781-2.049-0.781-2.828,0l-1.414,1.414c-0.781,0.781-0.781,2.047,0,2.828C63.751,20.714,64.264,20.909,64.775,20.909z"/>
	<path d="M36.867,35.981c-0.75-0.75-2.08-0.74-2.83,0c-0.369,0.37-0.579,0.889-0.579,1.41c0,0.529,0.21,1.051,0.579,1.42
		c0.381,0.371,0.891,0.58,1.421,0.58c0.52,0,1.039-0.209,1.409-0.58c0.369-0.379,0.591-0.891,0.591-1.42
		C37.458,36.871,37.236,36.351,36.867,35.981z"/>
</g>
</svg>
