<?xml version="1.0" encoding="utf-8"?>
<!-- Generator: Adobe Illustrator 16.0.0, SVG Export Plug-In . SVG Version: 6.00 Build 0)  -->
<!DOCTYPE svg PUBLIC "-//W3C//DTD SVG 1.1//EN" "http://www.w3.org/Graphics/SVG/1.1/DTD/svg11.dtd">
<svg version="1.1" id="Layer_1" xmlns="http://www.w3.org/2000/svg" xmlns:xlink="http://www.w3.org/1999/xlink" x="0px" y="0px"
	 width="72px" height="72px" viewBox="0 0 72 72" enable-background="new 0 0 72 72" xml:space="preserve">
<path d="M65.107,43.221c-0.025-0.025-0.055-0.044-0.08-0.068c0.414-1.969,0.636-4.008,0.636-6.098c0-3.016-0.456-5.927-1.3-8.67
	c0.099-0.078,0.194-0.162,0.279-0.26c2.399-2.794,3.721-6.362,3.721-10.05c0-8.511-6.924-15.435-15.434-15.435
	c-4.146,0-8.212,1.943-10.875,5.199c-0.061,0.073-0.105,0.153-0.153,0.232c-1.876-0.375-3.814-0.575-5.799-0.575
	c-2.274,0-4.485,0.267-6.613,0.755c-0.053-0.065-0.102-0.134-0.165-0.194c-3.149-3.037-7.061-4.641-11.314-4.641
	c-8.51,0-15.434,6.924-15.434,15.434c0,4.014,1.533,7.816,4.316,10.707c0.154,0.16,0.333,0.28,0.52,0.377
	c-0.566,2.282-0.873,4.666-0.873,7.121c0,2.043,0.208,4.037,0.605,5.965c-0.317,0.112-0.613,0.299-0.848,0.572
	c-2.4,2.793-3.721,6.362-3.721,10.051c0,8.51,6.924,15.435,15.434,15.435c3.658,0,7.133-1.286,9.91-3.62
	c0.799,0.23,1.61,0.433,2.435,0.596c0.173,0.143,0.386,0.239,0.628,0.239c0.118,0,0.228-0.029,0.333-0.067
	c1.56,0.255,3.157,0.394,4.788,0.394c2.69,0,5.293-0.368,7.772-1.044c0.023,0.021,0.041,0.047,0.065,0.068
	c2.793,2.399,6.363,3.719,10.052,3.719c8.511,0,15.434-6.924,15.433-15.434C69.424,49.914,67.891,46.111,65.107,43.221z
	 M44.982,61.024V47.292c0-0.263-0.106-0.497-0.271-0.675c0.769-0.693,1.462-1.468,2.046-2.325h13.856
	C58.327,52.021,52.483,58.236,44.982,61.024z M25.213,37.055c0-6.001,4.885-10.886,10.888-10.886
	c6.002,0,10.885,4.884,10.887,10.886c0,6.004-4.885,10.889-10.887,10.889C30.098,47.943,25.213,43.059,25.213,37.055z
	 M29.982,12.241v13.477c-1.642,0.889-3.058,2.133-4.174,3.615c-0.069-0.015-0.133-0.042-0.206-0.042H11.749
	C14.433,20.892,21.35,14.37,29.982,12.241z M10.539,37.055c0-1.982,0.234-3.91,0.664-5.764h13.388
	c-0.874,1.737-1.378,3.69-1.378,5.764c0,1.865,0.407,3.635,1.123,5.237H11.081C10.727,40.601,10.539,38.85,10.539,37.055z
	 M44.982,13.089c7.329,2.725,13.079,8.719,15.471,16.202h-5.852c-0.553,0-1,0.447-1,1s0.447,1,1,1h6.397
	c0.43,1.854,0.664,3.781,0.664,5.764c0,1.795-0.188,3.546-0.542,5.237H47.865c0.716-1.603,1.123-3.372,1.123-5.237
	c0-2.073-0.504-4.027-1.378-5.764h2.991c0.551,0,1-0.447,1-1s-0.447-1-1-1h-4c-0.074,0-0.139,0.027-0.208,0.042
	c-0.448-0.596-0.944-1.152-1.488-1.662c0.049-0.118,0.077-0.246,0.077-0.38V13.089z M64.361,18.074c0,2.132-0.604,4.206-1.709,6
	c-3.348-6.819-9.243-12.169-16.44-14.796c1.846-1.664,4.259-2.638,6.716-2.638C59.232,6.639,64.361,11.769,64.361,18.074z
	 M42.982,12.444v13.735c-1.993-1.266-4.35-2.01-6.881-2.01c-1.442,0-2.824,0.249-4.119,0.687V11.832
	c1.342-0.218,2.717-0.336,4.12-0.336C38.486,11.495,40.792,11.83,42.982,12.444z M6.576,18.849c0-6.305,5.129-11.434,11.434-11.434
	c2.582,0,4.924,0.764,6.997,2.249C17.72,12.625,11.872,18.406,8.83,25.65C7.375,23.689,6.576,21.327,6.576,18.849z M18.009,65.076
	c-6.305,0-11.434-5.129-11.434-11.434c0-2.218,0.655-4.373,1.848-6.213c2.696,7.168,8.097,13.021,14.956,16.306
	C21.742,64.608,19.909,65.076,18.009,65.076z M31.982,62.281v-1.989c0-0.554-0.448-1-1-1c-0.553,0-1,0.446-1,1v1.58
	c-8.811-2.173-15.833-8.926-18.393-17.58h13.855c1.161,1.704,2.717,3.116,4.538,4.103v7.897c0,0.554,0.447,1,1,1
	c0.552,0,1-0.448,1-1v-7.035c1.295,0.438,2.678,0.687,4.119,0.687c2.532,0,4.888-0.744,6.881-2.01V61.67
	c-2.19,0.613-4.496,0.948-6.88,0.948C34.699,62.618,33.324,62.5,31.982,62.281z M53.99,65.361c-1.959,0-3.868-0.511-5.557-1.449
	c6.926-3.193,12.41-8.985,15.203-16.122c1.161,1.82,1.787,3.936,1.787,6.138C65.424,60.232,60.295,65.361,53.99,65.361z"/>
</svg>
