<?xml version="1.0" encoding="utf-8"?>
<!-- Generator: Adobe Illustrator 16.0.0, SVG Export Plug-In . SVG Version: 6.00 Build 0)  -->
<!DOCTYPE svg PUBLIC "-//W3C//DTD SVG 1.1//EN" "http://www.w3.org/Graphics/SVG/1.1/DTD/svg11.dtd">
<svg version="1.1" id="Layer_1" xmlns="http://www.w3.org/2000/svg" xmlns:xlink="http://www.w3.org/1999/xlink" x="0px" y="0px"
	 width="72px" height="72px" viewBox="0 0 72 72" enable-background="new 0 0 72 72" xml:space="preserve">
<g>
	<path d="M23.091,11.843c-0.374,0.091-0.742,0.195-1.104,0.312c-0.526,0.17-0.815,0.734-0.645,1.259
		c0.138,0.422,0.529,0.692,0.952,0.692c0.102,0,0.205-0.015,0.308-0.049c0.313-0.102,0.633-0.192,0.957-0.269
		c0.537-0.13,0.868-0.67,0.738-1.207C24.168,12.045,23.629,11.718,23.091,11.843z"/>
	<path d="M18.615,13.725c-4.47,2.798-7.139,7.612-7.139,12.879c0,0.553,0.448,1,1,1c0.552,0,1-0.448,1.001-1
		c0-4.573,2.317-8.754,6.2-11.184c0.467-0.293,0.609-0.91,0.316-1.378S19.083,13.431,18.615,13.725z"/>
	<path d="M68.248,64.273l-0.864-8.476c-0.047-0.459-0.25-0.887-0.575-1.211l-19.279-19.28c1.191-2.811,1.796-5.773,1.796-8.826
		c0-12.568-10.226-22.793-22.794-22.793C13.964,3.688,3.74,13.913,3.74,26.481c0,12.567,10.224,22.792,22.791,22.792
		c3.204,0,6.397-0.688,9.32-1.998l8.064,8.063c0.694,0.695,1.789,0.781,2.585,0.207l0.783-0.565l0.267,0.229l-0.598,1.383
		c-0.324,0.752-0.157,1.627,0.423,2.207l3.807,3.805c0.346,0.349,0.807,0.556,1.295,0.582l2.584,0.154l1.248,3.621
		c0.282,0.823,1.053,1.35,1.89,1.35c0.147,0,0.296-0.016,0.444-0.052l8.06-1.834C67.688,66.201,68.352,65.277,68.248,64.273z
		 M59.506,63.962l-1.099-3.19c-0.265-0.767-0.964-1.297-1.773-1.344l-3.161-0.189l-2.309-2.309l0.645-1.49
		c0.349-0.805,0.129-1.744-0.537-2.313l-2.586-2.207c-0.699-0.597-1.721-0.642-2.469-0.101l-0.677,0.488l-7.868-7.869
		c-0.623-0.621-1.578-0.766-2.352-0.352c-2.736,1.452-5.693,2.188-8.789,2.188c-10.361,0-18.791-8.43-18.791-18.792
		S16.17,7.689,26.531,7.69c10.362,0,18.794,8.431,18.794,18.793c0,2.91-0.668,5.723-1.984,8.363
		c-0.384,0.769-0.231,1.698,0.376,2.306l19.762,19.761l0.611,6.006L59.506,63.962z"/>
</g>
</svg>
