<?xml version="1.0" encoding="utf-8"?>
<!-- Generator: Adobe Illustrator 16.0.0, SVG Export Plug-In . SVG Version: 6.00 Build 0)  -->
<!DOCTYPE svg PUBLIC "-//W3C//DTD SVG 1.1//EN" "http://www.w3.org/Graphics/SVG/1.1/DTD/svg11.dtd">
<svg version="1.1" id="Layer_1" xmlns="http://www.w3.org/2000/svg" xmlns:xlink="http://www.w3.org/1999/xlink" x="0px" y="0px"
	 width="72px" height="72px" viewBox="0 0 72 72" enable-background="new 0 0 72 72" xml:space="preserve">
<g>
	<path d="M18.257,34.464l-3.14,3.138C9.34,43.197,8.287,49.04,12.07,54.496c0.194,0.281,0.506,0.432,0.822,0.432
		c0.196,0,0.396-0.058,0.57-0.177c0.453-0.317,0.566-0.94,0.252-1.394c-3.195-4.608-2.255-9.428,2.807-14.33l3.15-3.149
		c0.391-0.391,0.391-1.023,0-1.414S18.648,34.073,18.257,34.464z"/>
	<path d="M15.519,55.676c-0.39-0.391-1.023-0.391-1.414,0c-0.39,0.391-0.39,1.023,0.001,1.414l0.467,0.465
		c0.194,0.195,0.45,0.293,0.706,0.293c0.256,0,0.513-0.098,0.708-0.293c0.39-0.391,0.39-1.023-0.001-1.414L15.519,55.676z"/>
	<path d="M40.611,29.927l-3.535,3.537c-0.391,0.391-0.391,1.023,0,1.414c0.195,0.195,0.451,0.293,0.707,0.293
		s0.512-0.098,0.707-0.293l3.535-3.537c0.392-0.391,0.392-1.023,0-1.414C41.635,29.536,41.003,29.536,40.611,29.927z"/>
	<path d="M66.878,3.068c-1.062-0.297-2.168,0.319-2.469,1.381c-0.015,0.054-1.558,5.349-6.2,7.632
		c-4.354,2.143-6.457,4.748-7.474,6.868c-3.616-3.077-8.149-4.765-12.951-4.765c-5.352,0-10.383,2.084-14.166,5.868L9.524,34.146
		c-7.812,7.812-7.812,20.522,0,28.333l0.658,0.658c3.784,3.785,8.815,5.869,14.167,5.869s10.382-2.084,14.167-5.869l14.094-14.094
		c7.371-7.371,7.778-19.1,1.237-26.963c0.202-1.146,1.203-3.985,6.128-6.409c6.224-3.062,8.203-9.847,8.284-10.134
		C68.559,4.473,67.941,3.369,66.878,3.068z M35.687,60.309c-3.028,3.029-7.055,4.697-11.338,4.697
		c-4.283,0-8.311-1.668-11.339-4.697l-0.658-0.658c-6.252-6.252-6.252-16.426,0-22.678L22.936,26.39
		c2.479,4.655,9.397,15.454,23.403,23.267L35.687,60.309z M49.779,46.215l-1.969,1.97c-14.34-7.841-21.252-19.2-23.381-23.288
		l2.017-2.017c3.028-3.028,7.055-4.696,11.337-4.696c4.283,0,8.311,1.668,11.339,4.696l0.657,0.658
		C56.032,29.79,56.032,39.963,49.779,46.215z"/>
</g>
</svg>
