<?xml version="1.0" encoding="utf-8"?>
<!-- Generator: Adobe Illustrator 16.0.0, SVG Export Plug-In . SVG Version: 6.00 Build 0)  -->
<!DOCTYPE svg PUBLIC "-//W3C//DTD SVG 1.1//EN" "http://www.w3.org/Graphics/SVG/1.1/DTD/svg11.dtd">
<svg version="1.1" id="Layer_1" xmlns="http://www.w3.org/2000/svg" xmlns:xlink="http://www.w3.org/1999/xlink" x="0px" y="0px"
	 width="72px" height="72px" viewBox="0 0 72 72" enable-background="new 0 0 72 72" xml:space="preserve">
<g>
	<g>
		<path d="M33,59.555c0,4.94-4.005,8.945-8.946,8.945h-0.107C19.005,68.5,15,64.495,15,59.555V12.445
			c0-4.94,4.005-8.945,8.946-8.945h0.107C28.995,3.5,33,7.505,33,12.445V59.555z M29,12.445C29,9.714,26.786,7.5,24.054,7.5h-0.107
			C21.214,7.5,19,9.714,19,12.445v47.109c0,2.731,2.214,4.945,4.946,4.945h0.107c2.732,0,4.946-2.214,4.946-4.945V12.445z"/>
	</g>
	<g>
		<path d="M22,20.5c-0.553,0-1-0.447-1-1v-4c0-0.553,0.447-1,1-1c0.552,0,1,0.447,1,1v4C23,20.053,22.552,20.5,22,20.5z"/>
	</g>
	<g>
		<path d="M22,23.5c-0.553,0-1-0.447-1-1v-0.414c0-0.553,0.447-1,1-1c0.552,0,1,0.447,1,1V22.5C23,23.053,22.552,23.5,22,23.5z"/>
	</g>
	<g>
		<path d="M57,59.555c0,4.94-4.006,8.945-8.946,8.945h-0.107c-4.94,0-8.946-4.005-8.946-8.945V12.445
			c0-4.94,4.006-8.945,8.946-8.945h0.107C52.994,3.5,57,7.505,57,12.445V59.555z M53,12.445C53,9.714,50.785,7.5,48.054,7.5h-0.107
			C45.215,7.5,43,9.714,43,12.445v47.109c0,2.731,2.215,4.945,4.946,4.945h0.107c2.731,0,4.946-2.214,4.946-4.945V12.445z"/>
	</g>
</g>
</svg>
