<?xml version="1.0" encoding="utf-8"?>
<!-- Generator: Adobe Illustrator 16.0.0, SVG Export Plug-In . SVG Version: 6.00 Build 0)  -->
<!DOCTYPE svg PUBLIC "-//W3C//DTD SVG 1.1//EN" "http://www.w3.org/Graphics/SVG/1.1/DTD/svg11.dtd">
<svg version="1.1" id="Layer_1" xmlns="http://www.w3.org/2000/svg" xmlns:xlink="http://www.w3.org/1999/xlink" x="0px" y="0px"
	 width="72px" height="72px" viewBox="0 0 72 72" enable-background="new 0 0 72 72" xml:space="preserve">
<g>
	<path d="M61.688,19H58V9.616C58,5.845,54.639,3,50.688,3H20.551C16.599,3,14,5.845,14,9.616V19H9.551C5.599,19,3,21.845,3,25.616
		v25.136C3,54.682,5.793,58,9.551,58H14v4.068C14,65.896,17.104,69,20.932,69h30.136C54.896,69,58,65.896,58,62.068V58h3.688
		C65.443,58,69,54.682,69,50.752V25.616C69,21.845,65.639,19,61.688,19z M18,9.616C18,7.898,19.094,7,20.551,7h30.137
		C52.145,7,54,7.898,54,9.616V19H18V9.616z M54,62.068C54,63.688,52.688,65,51.068,65H20.932C19.313,65,18,63.688,18,62.068V48.932
		C18,47.313,19.313,46,20.932,46h30.136C52.688,46,54,47.313,54,48.932V62.068z M65,50.752c0,1.7-1.777,3.248-3.313,3.248H58v-5.068
		C58,45.104,54.896,42,51.068,42H20.932C17.104,42,14,45.104,14,48.932V54H9.551C8.017,54,7,52.452,7,50.752V25.616
		C7,23.898,8.094,23,9.551,23h52.137C63.145,23,65,23.898,65,25.616V50.752z"/>
	<path d="M16.619,28c0-0.553-0.448-1-1-1h-3c-0.553,0-1,0.447-1,1s0.447,1,1,1h3C16.171,29,16.619,28.553,16.619,28z"/>
	<path d="M19.619,29h3c0.552,0,1-0.447,1-1s-0.448-1-1-1h-3c-0.553,0-1,0.447-1,1S19.066,29,19.619,29z"/>
	<path d="M55.619,36h-40c-0.553,0-1,0.447-1,1c0,0.553,0.447,1,1,1h40c0.552,0,1-0.447,1-1C56.619,36.447,56.171,36,55.619,36z"/>
</g>
</svg>
