<?xml version="1.0" encoding="utf-8"?>
<!-- Generator: Adobe Illustrator 16.0.0, SVG Export Plug-In . SVG Version: 6.00 Build 0)  -->
<!DOCTYPE svg PUBLIC "-//W3C//DTD SVG 1.1//EN" "http://www.w3.org/Graphics/SVG/1.1/DTD/svg11.dtd">
<svg version="1.1" id="Layer_1" xmlns="http://www.w3.org/2000/svg" xmlns:xlink="http://www.w3.org/1999/xlink" x="0px" y="0px"
	 width="72px" height="72px" viewBox="0 0 72 72" enable-background="new 0 0 72 72" xml:space="preserve">
<g>
	<path d="M67.084,18.804L49.398,4.453C49.04,4.16,48.593,4,48.13,4h-34C6.182,4,4,6.444,4,14.06v43.249C4,65.102,6.476,68,14.13,68
		h44C66.208,68,68,64.553,68,57.309V20.351C68,19.752,67.546,19.184,67.084,18.804z M51,10.874v13.785C51,27,50.63,27,48.932,27
		H23.331C20.966,27,21,26.501,21,24.659V8h26.415L51,10.874z M64,57.309C64,63.438,63.167,64,58.13,64h-44
		C8.662,64,8,62.938,8,57.311V14.06C8,8.736,8.42,8,14.13,8H19v16.659C19,28.475,20.89,29,23.331,29h25.601
		C52.458,29,53,27.432,53,24.659V12.478l11,8.819V57.309z"/>
	<path d="M43,21c1.104,0,2-0.896,2-2v-6c0-1.104-0.896-2-2-2s-2,0.896-2,2v6C41,20.104,41.896,21,43,21z"/>
	<path d="M20.63,43h8c0.553,0,1-0.447,1-1s-0.447-1-1-1h-8c-0.553,0-1,0.447-1,1S20.077,43,20.63,43z"/>
	<path d="M32.63,43h10c0.554,0,1-0.447,1-1s-0.446-1-1-1h-10c-0.553,0-1,0.447-1,1S32.077,43,32.63,43z"/>
	<path d="M50.63,41h-4c-0.553,0-1,0.447-1,1s0.447,1,1,1h4c0.554,0,1-0.447,1-1S51.184,41,50.63,41z"/>
	<path d="M20.63,48h4c0.553,0,1-0.447,1-1s-0.447-1-1-1h-4c-0.553,0-1,0.447-1,1S20.077,48,20.63,48z"/>
	<path d="M28.63,46c-0.553,0-1,0.447-1,1s0.447,1,1,1h8c0.554,0,1-0.447,1-1s-0.446-1-1-1H28.63z"/>
	<path d="M50.63,46h-10c-0.553,0-1,0.447-1,1s0.447,1,1,1h10c0.554,0,1-0.447,1-1S51.184,46,50.63,46z"/>
	<path d="M30.63,52h-10c-0.553,0-1,0.447-1,1s0.447,1,1,1h10c0.553,0,1-0.447,1-1S31.183,52,30.63,52z"/>
	<path d="M37.63,52h-3c-0.553,0-1,0.447-1,1s0.447,1,1,1h3c0.554,0,1-0.447,1-1S38.184,52,37.63,52z"/>
</g>
</svg>
