<?xml version="1.0" encoding="utf-8"?>
<!-- Generator: Adobe Illustrator 16.0.0, SVG Export Plug-In . SVG Version: 6.00 Build 0)  -->
<!DOCTYPE svg PUBLIC "-//W3C//DTD SVG 1.1//EN" "http://www.w3.org/Graphics/SVG/1.1/DTD/svg11.dtd">
<svg version="1.1" id="Layer_1" xmlns="http://www.w3.org/2000/svg" xmlns:xlink="http://www.w3.org/1999/xlink" x="0px" y="0px"
	 width="72px" height="72px" viewBox="0 0 72 72" enable-background="new 0 0 72 72" xml:space="preserve">
<g>
	<g>
		<path d="M68.5,61.568c0,3.828-3.104,6.932-6.932,6.932H10.432c-3.828,0-6.932-3.104-6.932-6.932V26.432
			c0-3.828,3.104-6.932,6.932-6.932h51.137c3.828,0,6.932,3.104,6.932,6.932V61.568z M64.5,26.432c0-1.619-1.313-2.932-2.932-2.932
			H10.432c-1.619,0-2.932,1.313-2.932,2.932v35.137c0,1.619,1.313,2.932,2.932,2.932h51.137c1.619,0,2.932-1.313,2.932-2.932V26.432
			z"/>
	</g>
	<g>
		<g>
			<path d="M12.5,37.5c-0.553,0-1-0.447-1-1v-3.802c0-2.721,2.313-5.198,4.903-5.198h18.051c0.552,0,1,0.447,1,1s-0.448,1-1,1
				H16.403c-1.461,0-2.903,1.614-2.903,3.198V36.5C13.5,37.053,13.052,37.5,12.5,37.5z"/>
		</g>
		<g>
			<path d="M12.5,42.5c-0.553,0-1-0.447-1-1v-2c0-0.553,0.447-1,1-1c0.552,0,1,0.447,1,1v2C13.5,42.053,13.052,42.5,12.5,42.5z"/>
		</g>
	</g>
	<g>
		<path d="M60.454,15.5h-49c-1.104,0-2-0.896-2-2s0.896-2,2-2h49c1.104,0,2,0.896,2,2S61.559,15.5,60.454,15.5z"/>
	</g>
	<g>
		<path d="M54.454,7.5h-37c-1.104,0-2-0.896-2-2s0.896-2,2-2h37c1.104,0,2,0.896,2,2S55.559,7.5,54.454,7.5z"/>
	</g>
</g>
</svg>
