<?xml version="1.0" encoding="utf-8"?>
<!-- Generator: Adobe Illustrator 16.0.0, SVG Export Plug-In . SVG Version: 6.00 Build 0)  -->
<!DOCTYPE svg PUBLIC "-//W3C//DTD SVG 1.1//EN" "http://www.w3.org/Graphics/SVG/1.1/DTD/svg11.dtd">
<svg version="1.1" id="Layer_1" xmlns="http://www.w3.org/2000/svg" xmlns:xlink="http://www.w3.org/1999/xlink" x="0px" y="0px"
	 width="72px" height="72px" viewBox="0 0 72 72" enable-background="new 0 0 72 72" xml:space="preserve">
<g>
	<g>
		<path d="M52.708,68.917c-1.102,0-2.197-0.273-3.17-0.795l-13.537-7.287L22.468,68.12c-2.194,1.17-4.944,1.012-6.964-0.373
			c-2.075-1.43-3.146-3.932-2.731-6.377l2.651-15.838L3.984,34.108c-1.758-1.75-2.353-4.288-1.551-6.623
			c0.798-2.314,2.817-3.978,5.271-4.342l15.562-2.313l6.759-14.033c1.089-2.256,3.435-3.713,5.976-3.713
			c2.543,0,4.888,1.458,5.974,3.713l6.761,14.033l15.56,2.314c2.452,0.363,4.473,2.025,5.272,4.338
			c0.801,2.34,0.207,4.877-1.549,6.627L56.575,45.532l2.654,15.84c0.411,2.445-0.66,4.947-2.729,6.373
			C55.376,68.512,54.066,68.917,52.708,68.917z M36.001,56.563c0.326,0,0.652,0.08,0.948,0.238l14.48,7.795
			c0.87,0.467,1.991,0.408,2.808-0.15c0.801-0.551,1.204-1.477,1.047-2.412L52.46,45.176c-0.106-0.639,0.102-1.289,0.56-1.746
			l12.174-12.153c0.665-0.663,0.892-1.619,0.591-2.495c-0.308-0.891-1.104-1.538-2.076-1.682L47.1,24.63
			c-0.655-0.097-1.221-0.513-1.508-1.11L38.371,8.533c-0.424-0.881-1.354-1.449-2.37-1.449s-1.947,0.569-2.374,1.45L26.41,23.52
			c-0.287,0.597-0.853,1.013-1.508,1.11L8.292,27.1c-0.958,0.143-1.772,0.804-2.077,1.687c-0.3,0.873-0.072,1.827,0.593,2.489
			L18.98,43.43c0.458,0.457,0.666,1.107,0.56,1.746l-2.822,16.857c-0.158,0.936,0.245,1.859,1.053,2.416
			c0.804,0.551,1.923,0.617,2.809,0.145l14.474-7.793C35.349,56.643,35.675,56.563,36.001,56.563z"/>
	</g>
	<g>
		<path d="M14.085,32.118c-0.481,0-0.906-0.349-0.986-0.84c-0.088-0.545,0.282-1.059,0.827-1.147l0.664-0.108
			c0.548-0.094,1.059,0.282,1.147,0.827c0.088,0.545-0.282,1.059-0.827,1.147l-0.664,0.108
			C14.193,32.114,14.138,32.118,14.085,32.118z M17.757,31.522c-0.47,0-0.889-0.332-0.98-0.811c-0.105-0.542,0.25-1.067,0.792-1.171
			l10.823-2.088l4.082-9.362c0.222-0.505,0.812-0.738,1.316-0.517c0.507,0.221,0.739,0.81,0.518,1.316l-4.293,9.845
			c-0.132,0.302-0.404,0.52-0.728,0.582l-11.34,2.188C17.883,31.517,17.82,31.522,17.757,31.522z"/>
	</g>
</g>
</svg>
