<?xml version="1.0" encoding="utf-8"?>
<!-- Generator: Adobe Illustrator 16.0.0, SVG Export Plug-In . SVG Version: 6.00 Build 0)  -->
<!DOCTYPE svg PUBLIC "-//W3C//DTD SVG 1.1//EN" "http://www.w3.org/Graphics/SVG/1.1/DTD/svg11.dtd">
<svg version="1.1" id="Layer_1" xmlns="http://www.w3.org/2000/svg" xmlns:xlink="http://www.w3.org/1999/xlink" x="0px" y="0px"
	 width="72px" height="72px" viewBox="0 0 72 72" enable-background="new 0 0 72 72" xml:space="preserve">
<g>
	<path d="M61.346,4.727c-0.902-0.916-2.121-1.4-3.522-1.4c-1.287,0-2.726,0.391-4.398,1.195l-0.09,0.046
		c-8.998,4.899-23.537,12.743-25.901,13.836H19.35c-5.375,0-10.385,4.968-10.385,10.422v16.458c0,5.114,4.626,9.12,10.385,9.12
		h8.185c2.278,0.865,16.869,8.447,25.783,13.156l0.348,0.143c1.895,0.582,3.426,0.971,4.742,0.971c1.988,0,3.014-0.925,3.57-1.701
		c0.713-0.988,0.985-2.332,0.985-4.229V10.991l0.062-0.232C63.044,9.502,63.148,6.559,61.346,4.727z M12.966,45.285V28.826
		c0-3.241,3.221-6.422,6.385-6.422h7.615v28h-7.615C16.269,50.404,12.966,48.488,12.966,45.285z M59.084,10.695l-0.003,52.049
		c0,1.516-0.278,1.879-0.271,1.881c-0.012,0.006-0.117,0.049-0.401,0.049c-0.827,0-2.159-0.365-3.388-0.738
		c-18.358-9.696-24.072-12.443-26.056-13.223V22.057c1.934-0.849,7.564-3.784,26.237-13.952c1.35-0.643,2.169-0.779,2.621-0.779
		c0.469,0,0.611,0.144,0.672,0.206C59.124,8.171,59.094,10.071,59.084,10.695z"/>
	<path d="M54.639,15.364c-1.377-0.865-3.242-0.117-4.609,0.539c-4.647,2.485-12.26,6.509-13.182,6.868
		c-0.443,0.105-0.771,0.501-0.771,0.974c0,0.553,0.446,1,1,1c0.312,0,0.634,0,13.827-7.059c1.945-0.934,2.529-0.716,2.67-0.63
		c0.135,0.085,0.392,0.43,0.392,1.793v3.555c0,0.553,0.447,1,1,1c0.552,0,1-0.447,1-1v-3.555
		C55.966,17.09,55.57,15.95,54.639,15.364z"/>
	<path d="M54.966,25.404c-0.553,0-1,0.447-1,1v1c0,0.553,0.447,1,1,1c0.552,0,1-0.447,1-1v-1
		C55.966,25.851,55.518,25.404,54.966,25.404z"/>
</g>
</svg>
