<?xml version="1.0" encoding="utf-8"?>
<!-- Generator: Adobe Illustrator 16.0.0, SVG Export Plug-In . SVG Version: 6.00 Build 0)  -->
<!DOCTYPE svg PUBLIC "-//W3C//DTD SVG 1.1//EN" "http://www.w3.org/Graphics/SVG/1.1/DTD/svg11.dtd">
<svg version="1.1" id="Layer_1" xmlns="http://www.w3.org/2000/svg" xmlns:xlink="http://www.w3.org/1999/xlink" x="0px" y="0px"
	 width="72px" height="72px" viewBox="0 0 72 72" enable-background="new 0 0 72 72" xml:space="preserve">
<g>
	<path d="M56.068,4H15.932C12.104,4,9,7.104,9,10.932v50.136C9,64.896,12.104,68,15.932,68h40.136C59.896,68,63,64.896,63,61.068
		V10.932C63,7.104,59.896,4,56.068,4z M15.932,8h40.136C57.688,8,59,9.313,59,10.932V19H13v-8.068C13,9.313,14.313,8,15.932,8z
		 M56.068,64H15.932C14.313,64,13,62.688,13,61.068V21h46v40.068C59,62.688,57.688,64,56.068,64z"/>
	<path d="M35.63,26.045c-9.029,0-16.375,7.346-16.375,16.375c0,9.029,7.346,16.375,16.375,16.375
		c9.029,0,16.375-7.346,16.375-16.375C52.005,33.391,44.659,26.045,35.63,26.045z M35.63,56.795
		c-7.927,0-14.375-6.447-14.375-14.375c0-7.927,6.448-14.375,14.375-14.375s14.375,6.448,14.375,14.375
		C50.005,50.348,43.557,56.795,35.63,56.795z"/>
	<path d="M31.572,50.316c-2.971-1.53-4.817-4.557-4.817-7.896c0-0.553-0.447-1-1-1c-0.553,0-1,0.447-1,1
		c0,4.094,2.261,7.801,5.901,9.674c0.146,0.076,0.303,0.111,0.457,0.111c0.363,0,0.713-0.197,0.89-0.542
		C32.256,51.171,32.063,50.568,31.572,50.316z"/>
	<path d="M37.419,51.115c-0.581,0.119-1.184,0.18-1.789,0.18c-0.553,0-1,0.447-1,1s0.447,1,1,1c0.74,0,1.478-0.074,2.192-0.221
		c0.541-0.112,0.889-0.641,0.777-1.182C38.488,51.354,37.966,51.006,37.419,51.115z"/>
	<path d="M22.63,15h2c0.553,0,1-0.447,1-1s-0.447-1-1-1h-2c-0.553,0-1,0.447-1,1S22.077,15,22.63,15z"/>
	<path d="M16.63,15h2c0.553,0,1-0.447,1-1s-0.447-1-1-1h-2c-0.553,0-1,0.447-1,1S16.077,15,16.63,15z"/>
</g>
</svg>
