<?xml version="1.0" encoding="utf-8"?>
<!-- Generator: Adobe Illustrator 16.0.0, SVG Export Plug-In . SVG Version: 6.00 Build 0)  -->
<!DOCTYPE svg PUBLIC "-//W3C//DTD SVG 1.1//EN" "http://www.w3.org/Graphics/SVG/1.1/DTD/svg11.dtd">
<svg version="1.1" id="Layer_1" xmlns="http://www.w3.org/2000/svg" xmlns:xlink="http://www.w3.org/1999/xlink" x="0px" y="0px"
	 width="72px" height="72px" viewBox="0 0 72 72" enable-background="new 0 0 72 72" xml:space="preserve">
<g>
	<path d="M35.821,39.428c-7.88,0-14.291,6.411-14.291,14.291c0,7.881,6.411,14.293,14.291,14.293c7.88,0,14.291-6.412,14.291-14.293
		C50.111,45.839,43.701,39.428,35.821,39.428z M35.821,64.012c-5.675,0-10.291-4.617-10.291-10.293
		c0-5.675,4.616-10.291,10.291-10.291c5.675,0,10.291,4.616,10.291,10.291C46.111,59.395,41.496,64.012,35.821,64.012z"/>
	<path d="M35.821,46.064c-2.715,0-5.251,1.457-6.618,3.807c-0.278,0.477-0.117,1.089,0.361,1.367
		c0.158,0.092,0.331,0.136,0.502,0.136c0.345,0,0.68-0.179,0.865-0.497c1.011-1.734,2.884-2.813,4.89-2.813c0.553,0,1-0.447,1-1
		S36.374,46.064,35.821,46.064z"/>
	<path d="M30.167,53.719c0-0.553-0.447-1-1-1s-1,0.447-1,1c0,0.665,0.086,1.328,0.256,1.971c0.118,0.449,0.524,0.744,0.966,0.744
		c0.085,0,0.171-0.011,0.256-0.033c0.533-0.141,0.853-0.688,0.711-1.223C30.23,54.702,30.167,54.211,30.167,53.719z"/>
	<path d="M24.749,35.687c3.321-2.043,7.149-3.123,11.071-3.123c3.97,0,7.837,1.104,11.185,3.195c0.33,0.206,0.697,0.304,1.058,0.304
		c0.668,0,1.32-0.334,1.699-0.94c0.584-0.938,0.299-2.171-0.638-2.756c-3.985-2.489-8.585-3.803-13.304-3.803
		c-4.662,0-9.215,1.285-13.167,3.717c-0.941,0.578-1.234,1.811-0.655,2.751C22.576,35.972,23.81,36.266,24.749,35.687z"/>
	<path d="M55.798,22.043c-5.972-3.774-12.879-5.768-19.976-5.768c-6.816,0-13.487,1.85-19.296,5.35
		c-0.947,0.57-1.251,1.799-0.681,2.745c0.569,0.946,1.798,1.248,2.745,0.681c5.185-3.124,11.143-4.775,17.231-4.775
		c6.339,0,12.508,1.78,17.839,5.148c0.332,0.21,0.701,0.31,1.066,0.31c0.662,0,1.312-0.329,1.693-0.932
		C57.012,23.868,56.732,22.633,55.798,22.043z"/>
	<path d="M61.656,11.218c-7.764-4.729-16.697-7.229-25.837-7.229c-8.984,0-17.789,2.423-25.461,7.006
		c-0.948,0.566-1.257,1.794-0.691,2.742c0.565,0.947,1.794,1.258,2.742,0.691c7.053-4.212,15.147-6.439,23.41-6.439
		c8.406,0,16.621,2.298,23.757,6.646c0.324,0.198,0.684,0.292,1.037,0.292c0.676,0,1.334-0.341,1.711-0.961
		C62.898,13.024,62.6,11.792,61.656,11.218z"/>
</g>
</svg>
