<?xml version="1.0" standalone="no"?>
<!DOCTYPE svg PUBLIC "-//W3C//DTD SVG 1.1//EN" "http://www.w3.org/Graphics/SVG/1.1/DTD/svg11.dtd" >
<svg xmlns="http://www.w3.org/2000/svg" xmlns:xlink="http://www.w3.org/1999/xlink" version="1.1">
<metadata>
Created by FontForge 20150318 at Sat Jul 25 17:23:12 2015
 By uniteet7
Olga Zakharova
</metadata>
<defs>
<font id="Marshmallow-Regular" horiz-adv-x="582" >
  <font-face 
    font-family="Marshmallow"
    font-weight="400"
    font-stretch="normal"
    units-per-em="1000"
    panose-1="0 0 5 0 0 0 0 0 0 0"
    ascent="800"
    descent="-200"
    x-height="354"
    cap-height="750"
    bbox="0 -357 1029.21 1020"
    underline-thickness="50"
    underline-position="-50"
    unicode-range="U+0020-0153"
  />
<missing-glyph horiz-adv-x="500" 
d="M500 700v-700h-500v700h500zM80 650l170 -255l170 255h-340zM220 350l-170 255v-510zM450 605l-170 -255l170 -255v510zM250 305l-170 -255h340z" />
    <glyph glyph-name=".notdef" horiz-adv-x="500" 
d="M500 700v-700h-500v700h500zM80 650l170 -255l170 255h-340zM220 350l-170 255v-510zM450 605l-170 -255l170 -255v510zM250 305l-170 -255h340z" />
    <glyph glyph-name="A" unicode="A" 
d="M284 209c-13 0 -23 -6 -28 -19c-7 -20 -7 -40 -7 -61c2 -37 5 -75 7 -112c0 -24 -6 -29 -30 -30c-48 -2 -97 2 -145 2c-23 -1 -25 2 -27 25c-2 63 -6 102 -5 140c-6 132 -8 260 6 387c5 48 19 95 51 134c14 17 32 30 52 42c75 44 152 42 229 6c44 -20 67 -59 82 -102
c25 -68 42 -139 46 -211c9 -186 12 -232 20 -344c2 -37 9 -77 -36 -76c-46 0 -90 -2 -137 2c-23 2 -24 -2 -33 20c-13 35 1 194 -45 197zM228 459v-13c2 -22 13 -36 30 -37c19 -2 35 9 42 29c10 26 1 49 -13 69c-8 12 -25 13 -37 4c-16 -14 -23 -32 -22 -52z" />
    <glyph glyph-name="Aacute" unicode="&#xc1;" 
d="M288 808c-9 0 -9 -9 -19 -9c-9 9 -18 9 -28 19c-9 9 0 19 10 28c9 28 37 56 56 94c0 0 9 9 19 0c0 -10 18 -10 18 -19c-9 -19 -18 -28 -18 -38c-19 -18 -29 -46 -38 -75zM284 209c-13 0 -23 -6 -28 -19c-7 -20 -7 -40 -7 -61c2 -37 5 -75 7 -112c0 -24 -6 -29 -30 -30
c-48 -2 -97 2 -145 2c-23 -1 -25 2 -27 25c-2 63 -6 102 -5 140c-6 132 -8 260 6 387c5 48 19 95 51 134c14 17 32 30 52 42c75 44 152 42 229 6c44 -20 67 -59 82 -102c25 -68 42 -139 46 -211c9 -186 12 -232 20 -344c2 -37 9 -77 -36 -76c-46 0 -90 -2 -137 2
c-23 2 -24 -2 -33 20c-13 35 1 194 -45 197zM228 459v-13c2 -22 13 -36 30 -37c19 -2 35 9 42 29c10 26 1 49 -13 69c-8 12 -25 13 -37 4c-16 -14 -23 -32 -22 -52z" />
    <glyph glyph-name="Acircumflex" unicode="&#xc2;" 
d="M278 898c0 0 0 9 -9 0c-9 0 -9 0 -9 -9c-9 -19 -18 -46 -27 -64c0 -9 0 -18 -10 -18c-9 0 -27 0 -36 9v9c27 45 46 100 64 154c0 0 0 9 9 9s9 0 18 -9c27 -36 45 -81 72 -127c9 -9 9 -18 18 -27v-9c-9 -9 -27 -9 -36 -9c-9 -9 -9 0 -18 9c-9 27 -27 54 -36 82zM284 209
c-13 0 -23 -6 -28 -19c-7 -20 -7 -40 -7 -61c2 -37 5 -75 7 -112c0 -24 -6 -29 -30 -30c-48 -2 -97 2 -145 2c-23 -1 -25 2 -27 25c-2 63 -6 102 -5 140c-6 132 -8 260 6 387c5 48 19 95 51 134c14 17 32 30 52 42c75 44 152 42 229 6c44 -20 67 -59 82 -102
c25 -68 42 -139 46 -211c9 -186 12 -232 20 -344c2 -37 9 -77 -36 -76c-46 0 -90 -2 -137 2c-23 2 -24 -2 -33 20c-13 35 1 194 -45 197zM228 459v-13c2 -22 13 -36 30 -37c19 -2 35 9 42 29c10 26 1 49 -13 69c-8 12 -25 13 -37 4c-16 -14 -23 -32 -22 -52z" />
    <glyph glyph-name="Adieresis" unicode="&#xc4;" 
d="M377 864c0 -28 -18 -46 -46 -46c-27 0 -46 18 -46 37c0 18 19 46 37 46c19 0 55 -28 55 -37zM258 846c-10 -19 -28 -28 -56 -28c-18 0 -37 9 -46 28c-9 27 19 55 55 46h10c27 -9 37 -28 37 -46zM284 209c-13 0 -23 -6 -28 -19c-7 -20 -7 -40 -7 -61c2 -37 5 -75 7 -112
c0 -24 -6 -29 -30 -30c-48 -2 -97 2 -145 2c-23 -1 -25 2 -27 25c-2 63 -6 102 -5 140c-6 132 -8 260 6 387c5 48 19 95 51 134c14 17 32 30 52 42c75 44 152 42 229 6c44 -20 67 -59 82 -102c25 -68 42 -139 46 -211c9 -186 12 -232 20 -344c2 -37 9 -77 -36 -76
c-46 0 -90 -2 -137 2c-23 2 -24 -2 -33 20c-13 35 1 194 -45 197zM228 459v-13c2 -22 13 -36 30 -37c19 -2 35 9 42 29c10 26 1 49 -13 69c-8 12 -25 13 -37 4c-16 -14 -23 -32 -22 -52z" />
    <glyph glyph-name="Agrave" unicode="&#xc0;" 
d="M318 823c9 18 17 27 9 45c-27 26 -36 53 -54 79c0 9 -8 9 -17 18c-9 -9 -27 -18 -36 -18c-9 -8 0 -17 9 -26c27 -27 44 -53 62 -80c0 -9 9 -26 27 -18zM284 209c-13 0 -23 -6 -28 -19c-7 -20 -7 -40 -7 -61c2 -37 5 -75 7 -112c0 -24 -6 -29 -30 -30c-48 -2 -97 2 -145 2
c-23 -1 -25 2 -27 25c-2 63 -6 102 -5 140c-6 132 -8 260 6 387c5 48 19 95 51 134c14 17 32 30 52 42c75 44 152 42 229 6c44 -20 67 -59 82 -102c25 -68 42 -139 46 -211c9 -186 12 -232 20 -344c2 -37 9 -77 -36 -76c-46 0 -90 -2 -137 2c-23 2 -24 -2 -33 20
c-13 35 1 194 -45 197zM228 459v-13c2 -22 13 -36 30 -37c19 -2 35 9 42 29c10 26 1 49 -13 69c-8 12 -25 13 -37 4c-16 -14 -23 -32 -22 -52z" />
    <glyph glyph-name="Aring" unicode="&#xc5;" 
d="M318 817c-29 -24 -59 -29 -82 -18c-29 18 -47 47 -35 82c11 23 35 41 64 41c53 -6 88 -53 64 -88c-6 -5 -11 -12 -11 -17zM242 864c-6 -12 0 -30 11 -35c0 0 12 0 29 17l7 6s0 6 5 6c0 6 0 11 -5 17c-7 6 -12 11 -24 11c-6 0 -18 -5 -23 -22zM284 209
c-13 0 -23 -6 -28 -19c-7 -20 -7 -40 -7 -61c2 -37 5 -75 7 -112c0 -24 -6 -29 -30 -30c-48 -2 -97 2 -145 2c-23 -1 -25 2 -27 25c-2 63 -6 102 -5 140c-6 132 -8 260 6 387c5 48 19 95 51 134c14 17 32 30 52 42c75 44 152 42 229 6c44 -20 67 -59 82 -102
c25 -68 42 -139 46 -211c9 -186 12 -232 20 -344c2 -37 9 -77 -36 -76c-46 0 -90 -2 -137 2c-23 2 -24 -2 -33 20c-13 35 1 194 -45 197zM228 459v-13c2 -22 13 -36 30 -37c19 -2 35 9 42 29c10 26 1 49 -13 69c-8 12 -25 13 -37 4c-16 -14 -23 -32 -22 -52z" />
    <glyph glyph-name="Atilde" unicode="&#xc3;" 
d="M286 842c9 -18 19 -18 36 -18c18 0 28 10 28 26c0 10 -10 19 18 19c8 0 16 0 16 -19v-8c0 -27 -16 -45 -53 -54c-26 0 -54 9 -63 36c-9 10 -18 18 -18 26c-18 19 -44 19 -55 0c-8 -8 -8 -8 -8 -16c-9 -19 -9 -19 -26 -10c-20 10 -20 10 -10 26c10 10 18 29 27 37
c28 36 72 28 99 -8c0 -10 9 -29 9 -37zM284 209c-13 0 -23 -6 -28 -19c-7 -20 -7 -40 -7 -61c2 -37 5 -75 7 -112c0 -24 -6 -29 -30 -30c-48 -2 -97 2 -145 2c-23 -1 -25 2 -27 25c-2 63 -6 102 -5 140c-6 132 -8 260 6 387c5 48 19 95 51 134c14 17 32 30 52 42
c75 44 152 42 229 6c44 -20 67 -59 82 -102c25 -68 42 -139 46 -211c9 -186 12 -232 20 -344c2 -37 9 -77 -36 -76c-46 0 -90 -2 -137 2c-23 2 -24 -2 -33 20c-13 35 1 194 -45 197zM228 459v-13c2 -22 13 -36 30 -37c19 -2 35 9 42 29c10 26 1 49 -13 69
c-8 12 -25 13 -37 4c-16 -14 -23 -32 -22 -52z" />
    <glyph glyph-name="AE" unicode="&#xc6;" horiz-adv-x="936" 
d="M906 27c1 -12 -1 -19 -17 -23c-18 -3 -35 -4 -53 -3c-77 4 -154 -4 -231 -4c-25 0 -50 2 -74 7c-6 -9 -15 -14 -32 -14c-46 0 -90 -2 -137 2c-23 2 -24 -2 -33 20c-13 35 1 194 -45 197c-13 0 -23 -6 -28 -19c-7 -20 -7 -40 -7 -61c2 -37 5 -75 7 -112
c0 -24 -6 -29 -30 -30c-48 -2 -97 2 -145 2c-23 -1 -25 2 -27 25c-2 63 -6 102 -5 140c-6 132 -8 260 6 387c5 48 19 95 51 134c14 17 32 30 52 42c75 44 152 42 229 6c29 -13 49 -35 63 -60v20c0 12 -4 24 -1 36c4 19 12 27 32 27c95 -1 190 -2 285 6c24 1 47 0 70 -1
c12 0 19 -6 24 -15c3 -3 4 -7 4 -11c-1 -14 7 -26 2 -38c-4 -9 -14 -15 -23 -18c-18 -8 -40 -5 -59 -8c-43 -6 -86 -14 -129 -15c-15 0 -20 -9 -19 -20c2 -48 0 -96 6 -144c3 -16 13 -20 26 -20c28 0 56 0 84 1c33 1 36 -3 40 -35c3 -21 -2 -41 -2 -61c0 -11 -7 -15 -16 -16
c-32 -5 -63 -7 -95 -7c-24 -1 -26 -4 -24 -28c1 -16 -1 -32 3 -48c5 -23 10 -29 33 -25c40 7 80 9 120 13c18 1 36 0 53 -3c29 -5 37 -18 34 -48c-5 -37 4 -75 4 -112c0 -22 3 -44 4 -66zM300 438c10 26 1 49 -13 69c-8 12 -25 13 -37 4c-16 -14 -23 -32 -22 -52v-13
c2 -22 13 -36 30 -37c19 -2 35 9 42 29z" />
    <glyph glyph-name="B" unicode="B" horiz-adv-x="631" 
d="M56 522c0 67 0 135 -11 201c-2 14 3 19 16 21c81 9 161 8 238 -25c49 -22 83 -77 82 -138c0 -14 0 -28 -2 -42c-4 -33 -4 -32 24 -48c83 -45 139 -111 162 -204c15 -64 13 -130 -11 -191c-17 -43 -61 -83 -107 -92c-34 -7 -67 -11 -101 -12c-58 -1 -115 -5 -173 -3
c-24 1 -47 5 -71 5c-10 1 -24 -1 -33 3c-13 7 -10 19 -11 32c-1 34 -3 69 -3 103c1 141 2 265 1 390zM194 615c-8 0 -9 -6 -9 -11c0 -23 1 -45 1 -67c1 -6 2 -11 9 -13c23 -7 60 18 61 43c0 1 0 5 -1 8c-6 16 -45 40 -61 40zM340 322c-29 43 -65 73 -118 82
c-13 2 -19 -4 -19 -17c0 -25 -1 -49 -2 -74c-2 -50 1 -100 7 -150c1 -10 2 -19 14 -19c34 0 66 2 94 24c39 30 64 95 24 154z" />
    <glyph glyph-name="C" unicode="C" horiz-adv-x="765" 
d="M199 35c-68 46 -112 110 -132 191c-15 62 -14 124 1 186c8 32 13 66 24 97c34 98 81 187 188 225c41 15 83 12 124 8c113 -11 194 -73 247 -170c21 -38 30 -81 33 -124c1 -26 -29 -28 -48 -28c-29 -1 -58 0 -88 -3c-19 -3 -43 -3 -52 17c-28 67 -127 83 -166 18
c-41 -66 -43 -203 53 -219c49 -8 102 10 117 61c7 21 0 51 27 55c49 9 97 8 146 5c17 -2 31 -8 33 -27c10 -116 -6 -244 -122 -301c-56 -27 -127 -36 -188 -41c-69 -5 -139 12 -197 50z" />
    <glyph glyph-name="Ccedilla" unicode="&#xc7;" horiz-adv-x="765" 
d="M706 327c10 -116 -6 -244 -122 -301c-51 -25 -114 -34 -171 -40v-48c43 -12 69 -54 50 -87c-4 -6 -9 -11 -14 -16c-28 -26 -59 -33 -85 -20c-14 7 -36 25 -13 39c12 7 31 -9 45 -8c16 1 32 15 31 31c0 19 -21 23 -36 24c-25 2 -24 13 -24 36v47c-59 1 -118 18 -168 51
c-68 46 -112 110 -132 191c-15 62 -14 124 1 186c8 32 13 66 24 97c34 98 81 187 188 225c41 15 83 12 124 8c113 -11 194 -73 247 -170c21 -38 30 -81 33 -124c1 -26 -29 -28 -48 -28c-29 -1 -58 0 -88 -3c-19 -3 -43 -3 -52 17c-28 67 -127 83 -166 18
c-41 -66 -43 -203 53 -219c49 -8 102 10 117 61c7 21 0 51 27 55c49 9 97 8 146 5c17 -2 31 -8 33 -27z" />
    <glyph glyph-name="D" unicode="D" horiz-adv-x="617" 
d="M55 581c-4 49 -7 98 -10 147c-1 20 3 24 23 22c24 -3 49 -3 73 -3c60 -4 120 -7 177 -29c93 -35 165 -93 211 -182c47 -89 34 -208 7 -301c-24 -84 -79 -145 -156 -189c-44 -26 -95 -43 -146 -50c-47 -7 -110 -14 -155 4c-19 8 -19 21 -19 39c0 29 1 58 1 87
c-1 152 5 303 -6 455zM397 398c-7 94 -45 180 -149 188c-21 2 -25 -2 -24 -24c4 -81 5 -161 4 -252c1 -16 -5 -42 -1 -69c6 -30 16 -37 45 -28c78 23 131 102 125 185z" />
    <glyph glyph-name="Eth" unicode="&#xd0;" horiz-adv-x="617" 
d="M529 536c47 -89 34 -208 7 -301c-24 -84 -79 -145 -156 -189c-44 -26 -95 -43 -146 -50c-47 -7 -110 -14 -155 4c-19 8 -19 21 -19 39c0 29 1 58 1 87c-1 79 1 157 1 236c-13 0 -25 -4 -29 5c-8 12 -8 29 -8 42c0 4 12 4 17 4h19c0 56 -2 112 -6 168c-4 49 -7 98 -10 147
c-1 20 3 24 23 22c24 -3 49 -3 73 -3c60 -4 120 -7 177 -29c93 -35 165 -93 211 -182zM272 213c78 23 131 102 125 185c-7 94 -45 180 -149 188c-21 2 -25 -2 -24 -24c2 -48 4 -96 4 -147l32 2c17 0 22 -8 22 -21v-13c-5 -25 -5 -25 -38 -25h-16v-48c1 -16 -5 -42 -1 -69
c6 -30 16 -37 45 -28z" />
    <glyph glyph-name="E" unicode="E" horiz-adv-x="548" 
d="M56 215v27c3 80 -4 160 -5 240c-1 67 -3 134 -4 201c0 12 -4 24 -1 36c4 19 12 27 32 27c95 -1 190 -2 285 6c24 1 47 0 70 -1c12 0 19 -6 24 -15c3 -3 4 -7 4 -11c-1 -14 7 -26 2 -38c-4 -9 -14 -15 -23 -18c-18 -8 -40 -5 -59 -8c-43 -6 -86 -14 -129 -15
c-15 0 -20 -9 -19 -20c2 -48 0 -96 6 -144c3 -16 13 -20 26 -20c28 0 56 0 84 1c33 1 36 -3 40 -35c3 -21 -2 -41 -2 -61c0 -11 -7 -15 -16 -16c-32 -5 -63 -7 -95 -7c-24 -1 -26 -4 -24 -28c1 -16 -1 -32 3 -48c5 -23 10 -29 33 -25c40 7 80 9 120 13c18 1 36 0 53 -3
c29 -5 37 -18 34 -48c-5 -37 4 -75 4 -112c0 -22 3 -44 4 -66c1 -12 -1 -19 -17 -23c-18 -3 -35 -4 -53 -3c-77 4 -154 -4 -231 -4c-37 0 -73 4 -108 15c-15 5 -24 13 -27 30c-11 57 -10 115 -11 173z" />
    <glyph glyph-name="Eacute" unicode="&#xc9;" horiz-adv-x="548" 
d="M288 808c-9 0 -9 -9 -19 -9c-9 9 -18 9 -28 19c-9 9 0 19 10 28c9 28 37 56 56 94c0 0 9 9 19 0c0 -10 18 -10 18 -19c-9 -19 -18 -28 -18 -38c-19 -18 -29 -46 -38 -75zM56 215v27c3 80 -4 160 -5 240c-1 67 -3 134 -4 201c0 12 -4 24 -1 36c4 19 12 27 32 27
c95 -1 190 -2 285 6c24 1 47 0 70 -1c12 0 19 -6 24 -15c3 -3 4 -7 4 -11c-1 -14 7 -26 2 -38c-4 -9 -14 -15 -23 -18c-18 -8 -40 -5 -59 -8c-43 -6 -86 -14 -129 -15c-15 0 -20 -9 -19 -20c2 -48 0 -96 6 -144c3 -16 13 -20 26 -20c28 0 56 0 84 1c33 1 36 -3 40 -35
c3 -21 -2 -41 -2 -61c0 -11 -7 -15 -16 -16c-32 -5 -63 -7 -95 -7c-24 -1 -26 -4 -24 -28c1 -16 -1 -32 3 -48c5 -23 10 -29 33 -25c40 7 80 9 120 13c18 1 36 0 53 -3c29 -5 37 -18 34 -48c-5 -37 4 -75 4 -112c0 -22 3 -44 4 -66c1 -12 -1 -19 -17 -23
c-18 -3 -35 -4 -53 -3c-77 4 -154 -4 -231 -4c-37 0 -73 4 -108 15c-15 5 -24 13 -27 30c-11 57 -10 115 -11 173z" />
    <glyph glyph-name="Ecircumflex" unicode="&#xca;" horiz-adv-x="548" 
d="M242 898c0 0 0 9 -9 0c-9 0 -9 0 -9 -9c-9 -19 -18 -46 -27 -64c0 -9 0 -18 -10 -18c-9 0 -27 0 -36 9v9c27 45 46 100 64 154c0 0 0 9 9 9s9 0 18 -9c27 -36 45 -81 72 -127c9 -9 9 -18 18 -27v-9c-9 -9 -27 -9 -36 -9c-9 -9 -9 0 -18 9c-9 27 -27 54 -36 82zM56 215v27
c3 80 -4 160 -5 240c-1 67 -3 134 -4 201c0 12 -4 24 -1 36c4 19 12 27 32 27c95 -1 190 -2 285 6c24 1 47 0 70 -1c12 0 19 -6 24 -15c3 -3 4 -7 4 -11c-1 -14 7 -26 2 -38c-4 -9 -14 -15 -23 -18c-18 -8 -40 -5 -59 -8c-43 -6 -86 -14 -129 -15c-15 0 -20 -9 -19 -20
c2 -48 0 -96 6 -144c3 -16 13 -20 26 -20c28 0 56 0 84 1c33 1 36 -3 40 -35c3 -21 -2 -41 -2 -61c0 -11 -7 -15 -16 -16c-32 -5 -63 -7 -95 -7c-24 -1 -26 -4 -24 -28c1 -16 -1 -32 3 -48c5 -23 10 -29 33 -25c40 7 80 9 120 13c18 1 36 0 53 -3c29 -5 37 -18 34 -48
c-5 -37 4 -75 4 -112c0 -22 3 -44 4 -66c1 -12 -1 -19 -17 -23c-18 -3 -35 -4 -53 -3c-77 4 -154 -4 -231 -4c-37 0 -73 4 -108 15c-15 5 -24 13 -27 30c-11 57 -10 115 -11 173z" />
    <glyph glyph-name="Edieresis" unicode="&#xcb;" horiz-adv-x="548" 
d="M377 864c0 -28 -18 -46 -46 -46c-27 0 -46 18 -46 37c0 18 19 46 37 46c19 0 55 -28 55 -37zM258 846c-10 -19 -28 -28 -56 -28c-18 0 -37 9 -46 28c-9 27 19 55 55 46h10c27 -9 37 -28 37 -46zM56 215v27c3 80 -4 160 -5 240c-1 67 -3 134 -4 201c0 12 -4 24 -1 36
c4 19 12 27 32 27c95 -1 190 -2 285 6c24 1 47 0 70 -1c12 0 19 -6 24 -15c3 -3 4 -7 4 -11c-1 -14 7 -26 2 -38c-4 -9 -14 -15 -23 -18c-18 -8 -40 -5 -59 -8c-43 -6 -86 -14 -129 -15c-15 0 -20 -9 -19 -20c2 -48 0 -96 6 -144c3 -16 13 -20 26 -20c28 0 56 0 84 1
c33 1 36 -3 40 -35c3 -21 -2 -41 -2 -61c0 -11 -7 -15 -16 -16c-32 -5 -63 -7 -95 -7c-24 -1 -26 -4 -24 -28c1 -16 -1 -32 3 -48c5 -23 10 -29 33 -25c40 7 80 9 120 13c18 1 36 0 53 -3c29 -5 37 -18 34 -48c-5 -37 4 -75 4 -112c0 -22 3 -44 4 -66c1 -12 -1 -19 -17 -23
c-18 -3 -35 -4 -53 -3c-77 4 -154 -4 -231 -4c-37 0 -73 4 -108 15c-15 5 -24 13 -27 30c-11 57 -10 115 -11 173z" />
    <glyph glyph-name="Egrave" unicode="&#xc8;" horiz-adv-x="548" 
d="M282 814c9 18 17 27 9 45c-27 26 -36 53 -54 79c0 9 -8 9 -17 18c-9 -9 -27 -18 -36 -18c-9 -8 0 -17 9 -26c27 -27 44 -53 62 -80c0 -9 9 -26 27 -18zM56 215v27c3 80 -4 160 -5 240c-1 67 -3 134 -4 201c0 12 -4 24 -1 36c4 19 12 27 32 27c95 -1 190 -2 285 6
c24 1 47 0 70 -1c12 0 19 -6 24 -15c3 -3 4 -7 4 -11c-1 -14 7 -26 2 -38c-4 -9 -14 -15 -23 -18c-18 -8 -40 -5 -59 -8c-43 -6 -86 -14 -129 -15c-15 0 -20 -9 -19 -20c2 -48 0 -96 6 -144c3 -16 13 -20 26 -20c28 0 56 0 84 1c33 1 36 -3 40 -35c3 -21 -2 -41 -2 -61
c0 -11 -7 -15 -16 -16c-32 -5 -63 -7 -95 -7c-24 -1 -26 -4 -24 -28c1 -16 -1 -32 3 -48c5 -23 10 -29 33 -25c40 7 80 9 120 13c18 1 36 0 53 -3c29 -5 37 -18 34 -48c-5 -37 4 -75 4 -112c0 -22 3 -44 4 -66c1 -12 -1 -19 -17 -23c-18 -3 -35 -4 -53 -3
c-77 4 -154 -4 -231 -4c-37 0 -73 4 -108 15c-15 5 -24 13 -27 30c-11 57 -10 115 -11 173z" />
    <glyph glyph-name="F" unicode="F" horiz-adv-x="431" 
d="M51 432c4 65 -2 130 -5 195c-3 34 0 69 -1 104c0 14 7 19 19 18c46 -1 91 -1 137 -2c44 -2 89 -9 133 -7c18 1 40 3 48 -17c7 -21 3 -52 2 -75c0 -19 -1 -39 -2 -58c0 -14 6 -40 0 -53c-10 -24 -52 -16 -72 -16l-44 3c-14 1 -32 6 -44 -4c-12 -9 -11 -28 -7 -42
c8 -24 38 -15 56 -15c27 -1 30 -30 34 -51c3 -16 10 -44 -4 -57c-9 -8 -23 -5 -34 -5c-16 1 -39 6 -47 -12c-8 -16 -7 -38 -7 -56c1 -22 2 -45 4 -68c4 -42 9 -83 10 -126c0 -20 10 -73 -12 -87c-18 -11 -47 -4 -68 -6c-18 -1 -36 -1 -54 -1c-30 0 -36 8 -35 38
c1 22 -3 46 -3 68c1 111 -5 222 -4 332z" />
    <glyph glyph-name="G" unicode="G" horiz-adv-x="820" 
d="M289 10c-53 19 -99 52 -139 98c-45 53 -78 114 -89 184c-8 46 -5 93 6 138c27 111 89 198 186 258c91 57 191 79 295 50c64 -18 113 -63 153 -117c29 -41 39 -89 54 -135c6 -17 -1 -26 -20 -30c-55 -12 -115 -2 -172 -2c-32 0 -72 -10 -104 -1c-17 5 -23 23 -38 29
c-15 7 -37 0 -49 -11c-36 -31 -61 -70 -62 -120c-2 -37 -1 -72 26 -102c26 -30 53 -52 95 -37c7 3 14 5 20 9c13 8 16 22 13 35c-3 12 -16 8 -25 8c-27 -1 -29 1 -34 28c-3 23 -1 46 -1 69c-1 19 9 29 27 30c22 2 44 1 60 1c58 5 108 -7 159 -5c23 0 46 -2 69 1
c29 3 44 -9 44 -38c2 -84 -6 -165 -53 -238c-19 -31 -45 -55 -78 -73c-68 -37 -156 -55 -233 -51c-39 2 -76 9 -110 22z" />
    <glyph glyph-name="H" unicode="H" horiz-adv-x="581" 
d="M55 486c-3 74 -7 148 -10 223c-1 30 2 33 32 33c45 1 90 3 135 3c28 0 29 -2 31 -31c3 -51 -1 -103 5 -154c2 -22 4 -55 22 -70c17 -15 46 -5 53 16c13 36 7 73 5 111c-2 33 -5 66 -11 99c-5 27 30 21 47 22c34 0 67 -1 101 -1c26 0 49 3 49 -30c1 -25 1 -50 1 -75
c5 -124 3 -249 4 -374c0 -59 4 -118 10 -177c2 -20 12 -54 4 -73c-8 -17 -24 -9 -39 -9c-36 1 -72 -4 -108 -7c-22 -1 -55 -10 -56 23c-1 34 -3 67 -4 100c0 34 12 158 -47 151c-20 -3 -30 -13 -35 -37c-11 -67 10 -132 16 -198c5 -50 -54 -39 -89 -39
c-31 1 -97 -21 -102 29c-5 52 -4 104 -7 155c-2 40 -2 81 -2 121c0 63 -2 126 -5 189z" />
    <glyph glyph-name="I" unicode="I" horiz-adv-x="320" 
d="M52 368c-1 52 -6 105 -2 157c5 60 -2 118 -5 177c-1 8 0 16 0 25c0 15 9 23 23 23c55 1 109 1 164 -2c21 -1 29 -12 32 -31c6 -36 1 -72 1 -108v-19c2 -77 5 -158 8 -240c2 -47 2 -95 1 -142c0 -38 0 -75 -1 -113c-1 -26 9 -56 -7 -80c-13 -21 -33 -26 -57 -27
c-35 -2 -70 -1 -105 -1c-26 0 -48 10 -48 40c0 49 0 98 -1 147c0 65 -2 129 -3 194z" />
    <glyph glyph-name="Iacute" unicode="&#xcd;" horiz-adv-x="320" 
d="M171 834c-9 0 -9 -9 -19 -9c-9 9 -18 9 -28 19c-9 9 0 19 10 28c9 28 37 56 56 94c0 0 9 9 19 0c0 -10 18 -10 18 -19c-9 -19 -18 -28 -18 -38c-19 -18 -29 -46 -38 -75zM52 368c-1 52 -6 105 -2 157c5 60 -2 118 -5 177c-1 8 0 16 0 25c0 15 9 23 23 23
c55 1 109 1 164 -2c21 -1 29 -12 32 -31c6 -36 1 -72 1 -108v-19c2 -77 5 -158 8 -240c2 -47 2 -95 1 -142c0 -38 0 -75 -1 -113c-1 -26 9 -56 -7 -80c-13 -21 -33 -26 -57 -27c-35 -2 -70 -1 -105 -1c-26 0 -48 10 -48 40c0 49 0 98 -1 147c0 65 -2 129 -3 194z" />
    <glyph glyph-name="Icircumflex" unicode="&#xce;" horiz-adv-x="320" 
d="M152 907c0 0 0 9 -9 0c-9 0 -9 0 -9 -9c-9 -19 -18 -46 -27 -64c0 -9 0 -18 -10 -18c-9 0 -27 0 -36 9v9c27 45 46 100 64 154c0 0 0 9 9 9s9 0 18 -9c27 -36 45 -81 72 -127c9 -9 9 -18 18 -27v-9c-9 -9 -27 -9 -36 -9c-9 -9 -9 0 -18 9c-9 27 -27 54 -36 82zM52 368
c-1 52 -6 105 -2 157c5 60 -2 118 -5 177c-1 8 0 16 0 25c0 15 9 23 23 23c55 1 109 1 164 -2c21 -1 29 -12 32 -31c6 -36 1 -72 1 -108v-19c2 -77 5 -158 8 -240c2 -47 2 -95 1 -142c0 -38 0 -75 -1 -113c-1 -26 9 -56 -7 -80c-13 -21 -33 -26 -57 -27
c-35 -2 -70 -1 -105 -1c-26 0 -48 10 -48 40c0 49 0 98 -1 147c0 65 -2 129 -3 194z" />
    <glyph glyph-name="Idieresis" unicode="&#xcf;" horiz-adv-x="320" 
d="M263 864c0 -28 -18 -46 -46 -46c-27 0 -46 18 -46 37c0 18 19 46 37 46c19 0 55 -28 55 -37zM144 846c-10 -19 -28 -28 -56 -28c-18 0 -37 9 -46 28c-9 27 19 55 55 46h10c27 -9 37 -28 37 -46zM52 368c-1 52 -6 105 -2 157c5 60 -2 118 -5 177c-1 8 0 16 0 25
c0 15 9 23 23 23c55 1 109 1 164 -2c21 -1 29 -12 32 -31c6 -36 1 -72 1 -108v-19c2 -77 5 -158 8 -240c2 -47 2 -95 1 -142c0 -38 0 -75 -1 -113c-1 -26 9 -56 -7 -80c-13 -21 -33 -26 -57 -27c-35 -2 -70 -1 -105 -1c-26 0 -48 10 -48 40c0 49 0 98 -1 147
c0 65 -2 129 -3 194z" />
    <glyph glyph-name="Igrave" unicode="&#xcc;" horiz-adv-x="320" 
d="M178 823c9 18 17 27 9 45c-27 26 -36 53 -54 79c0 9 -8 9 -17 18c-9 -9 -27 -18 -36 -18c-9 -8 0 -17 9 -26c27 -27 44 -53 62 -80c0 -9 9 -26 27 -18zM52 368c-1 52 -6 105 -2 157c5 60 -2 118 -5 177c-1 8 0 16 0 25c0 15 9 23 23 23c55 1 109 1 164 -2
c21 -1 29 -12 32 -31c6 -36 1 -72 1 -108v-19c2 -77 5 -158 8 -240c2 -47 2 -95 1 -142c0 -38 0 -75 -1 -113c-1 -26 9 -56 -7 -80c-13 -21 -33 -26 -57 -27c-35 -2 -70 -1 -105 -1c-26 0 -48 10 -48 40c0 49 0 98 -1 147c0 65 -2 129 -3 194z" />
    <glyph glyph-name="J" unicode="J" horiz-adv-x="434" 
d="M54 499c-4 16 -2 38 -2 52c-1 55 -2 111 -7 165c-5 50 87 29 116 28c56 -1 112 -5 168 -4c18 0 26 -6 28 -24c8 -94 19 -187 22 -282c3 -63 13 -127 10 -191c-4 -88 -21 -173 -91 -235c-31 -28 -70 -30 -109 -19c-73 19 -107 73 -120 144c-5 29 -12 58 -17 88
c-5 24 -1 28 22 29s47 1 70 1c19 1 18 -14 19 -28c2 -15 6 -27 14 -41c15 -26 42 -39 60 -7c10 19 14 39 15 60c3 73 -10 146 -17 218c-1 18 -10 26 -29 26c-28 -1 -57 0 -86 0c-18 1 -48 -8 -60 9c-3 3 -4 7 -6 11z" />
    <glyph glyph-name="K" unicode="K" horiz-adv-x="592" 
d="M50 521c-6 65 -2 131 -5 197c-1 31 -1 32 31 32c36 1 72 1 108 -3c17 -1 23 -10 24 -26c1 -40 4 -79 7 -128c3 -20 2 -42 3 -63c0 -9 -3 -41 6 -47c14 -9 32 25 37 35c19 32 29 68 31 104c3 38 0 76 -10 113c-3 13 1 18 14 20c44 5 88 4 133 3c12 0 16 -7 20 -17
c14 -45 12 -90 8 -136c-6 -64 -19 -126 -53 -181c-6 -9 -2 -13 4 -19c25 -21 47 -45 67 -71c42 -57 56 -123 64 -191c3 -30 10 -64 7 -94c-3 -28 -11 -44 -39 -51c-20 -6 -42 -3 -63 -4c-27 0 -95 -12 -97 29c-3 49 -8 95 -48 129c-7 7 -60 49 -57 20c3 -36 10 -71 18 -107
c4 -15 8 -60 -10 -67c-17 -6 -40 -4 -58 -5c-31 -1 -62 -5 -93 -3c-19 1 -40 -3 -46 19c-7 30 -1 64 -2 95c-3 61 -4 123 -4 184c-1 62 3 124 4 185c1 16 1 32 -1 48z" />
    <glyph glyph-name="L" unicode="L" horiz-adv-x="571" 
d="M494 -6c-18 -5 -41 -3 -58 -2c-55 2 -111 7 -167 4c-63 -2 -127 0 -191 0c-13 0 -18 6 -20 18c-5 25 -2 51 -2 76c-1 34 0 69 -2 103c-4 53 -4 107 -5 159c-1 112 -8 224 -1 336c1 13 -2 27 2 40c3 13 10 20 24 20c50 -1 101 0 152 2c21 1 36 -20 37 -46
c6 -120 9 -241 9 -361c0 -31 4 -63 6 -94c1 -13 6 -20 20 -22s28 -4 42 -4c15 1 29 0 31 21c0 8 7 12 15 10c36 -6 73 -1 109 -6c25 -3 28 -8 28 -33c0 -38 0 -76 1 -113c0 -28 11 -79 -14 -99c-5 -4 -10 -7 -16 -9z" />
    <glyph glyph-name="M" unicode="M" horiz-adv-x="729" 
d="M491 14c-5 9 -5 21 -6 35c-4 55 -5 110 -8 164c-1 31 1 79 -18 105c-7 10 -14 21 -29 17c-17 -4 -31 -13 -31 -32c-6 -117 10 -142 -16 -138c-72 11 -95 -16 -100 18c-6 41 -5 84 -16 125c-4 14 -8 30 -31 32c-20 2 -29 -36 -30 -55c-2 -59 -2 -118 0 -176
c2 -30 20 -109 -28 -114c-15 -1 -32 0 -47 -1c-21 0 -46 -4 -66 2c-13 4 -20 20 -20 34c2 72 1 146 1 219c1 89 3 179 14 269c8 63 17 142 58 194c58 75 207 57 235 -54c1 -6 3 -15 9 -16c5 -1 6 8 8 13c38 76 136 129 209 62c73 -68 91 -258 95 -357l1 -7
c3 -70 5 -140 7 -210c0 -27 1 -53 2 -80c0 -10 0 -20 -1 -30c-1 -8 -3 -16 -7 -23c-5 -7 -11 -7 -20 -8c-26 -3 -53 -5 -79 -5c-21 0 -41 -3 -62 1c-13 3 -20 8 -24 16z" />
    <glyph glyph-name="N" unicode="N" horiz-adv-x="620" 
d="M202 192l3 -99c3 -50 11 -71 -2 -86c-6 -7 -16 -8 -24 -8c-16 -2 -92 -6 -105 2c-5 3 -6 16 -6 23c-1 5 0 103 0 107v144c0 67 1 316 -21 432c-4 24 -5 24 21 24c41 -1 57 9 65 -12c3 -9 11 -1 15 2c67 45 141 43 213 24c96 -24 156 -88 182 -185c25 -90 32 -183 32 -277
c0 -47 -2 -95 -4 -143c-1 -37 -2 -75 -4 -112c0 -11 -1 -28 -14 -29c-21 -3 -42 -3 -63 -4c-37 -1 -75 -1 -112 0c-61 3 -80 -10 -80 36l-8 198c-2 37 -7 74 -27 107c-6 9 -13 20 -26 18c-36 -5 -40 -44 -35 -162z" />
    <glyph glyph-name="Ntilde" unicode="&#xd1;" horiz-adv-x="620" 
d="M336 860c9 -18 19 -18 36 -18c18 0 28 10 28 26c0 10 -10 19 18 19c8 0 16 0 16 -19v-8c0 -27 -16 -45 -53 -54c-26 0 -54 9 -63 36c-9 10 -18 18 -18 26c-18 19 -44 19 -55 0c-8 -8 -8 -8 -8 -16c-9 -19 -9 -19 -26 -10c-20 10 -20 10 -10 26c10 10 18 29 27 37
c28 36 72 28 99 -8c0 -10 9 -29 9 -37zM202 192l3 -99c3 -50 11 -71 -2 -86c-6 -7 -16 -8 -24 -8c-16 -2 -92 -6 -105 2c-5 3 -6 16 -6 23c-1 5 0 103 0 107v144c0 67 1 316 -21 432c-4 24 -5 24 21 24c41 -1 57 9 65 -12c3 -9 11 -1 15 2c67 45 141 43 213 24
c96 -24 156 -88 182 -185c25 -90 32 -183 32 -277c0 -47 -2 -95 -4 -143c-1 -37 -2 -75 -4 -112c0 -11 -1 -28 -14 -29c-21 -3 -42 -3 -63 -4c-37 -1 -75 -1 -112 0c-61 3 -80 -10 -80 36l-8 198c-2 37 -7 74 -27 107c-6 9 -13 20 -26 18c-36 -5 -40 -44 -35 -162z" />
    <glyph glyph-name="O" unicode="O" horiz-adv-x="751" 
d="M660 163c-87 -186 -386 -256 -545 -22c-100 147 -45 383 -29 425c34 85 87 154 180 177c148 37 323 11 378 -132c51 -135 75 -321 16 -448zM314 324c54 -51 140 -12 149 54c10 78 -35 116 -108 115c-39 -1 -60 -21 -64 -61c-1 -8 -1 -17 -1 -25c1 -30 0 -60 24 -83z" />
    <glyph glyph-name="Oacute" unicode="&#xd3;" horiz-adv-x="751" 
d="M374 831c-9 0 -9 -9 -19 -9c-9 9 -18 9 -28 19c-9 9 0 19 10 28c9 28 37 56 56 94c0 0 9 9 19 0c0 -10 18 -10 18 -19c-9 -19 -18 -28 -18 -38c-19 -18 -29 -46 -38 -75zM660 163c-87 -186 -386 -256 -545 -22c-100 147 -45 383 -29 425c34 85 87 154 180 177
c148 37 323 11 378 -132c51 -135 75 -321 16 -448zM314 324c54 -51 140 -12 149 54c10 78 -35 116 -108 115c-39 -1 -60 -21 -64 -61c-1 -8 -1 -17 -1 -25c1 -30 0 -60 24 -83z" />
    <glyph glyph-name="Ocircumflex" unicode="&#xd4;" horiz-adv-x="751" 
d="M382 898c0 0 0 9 -9 0c-9 0 -9 0 -9 -9c-9 -19 -18 -46 -27 -64c0 -9 0 -18 -10 -18c-9 0 -27 0 -36 9v9c27 45 46 100 64 154c0 0 0 9 9 9s9 0 18 -9c27 -36 45 -81 72 -127c9 -9 9 -18 18 -27v-9c-9 -9 -27 -9 -36 -9c-9 -9 -9 0 -18 9c-9 27 -27 54 -36 82zM660 163
c-87 -186 -386 -256 -545 -22c-100 147 -45 383 -29 425c34 85 87 154 180 177c148 37 323 11 378 -132c51 -135 75 -321 16 -448zM314 324c54 -51 140 -12 149 54c10 78 -35 116 -108 115c-39 -1 -60 -21 -64 -61c-1 -8 -1 -17 -1 -25c1 -30 0 -60 24 -83z" />
    <glyph glyph-name="Odieresis" unicode="&#xd6;" horiz-adv-x="751" 
d="M484 864c0 -28 -18 -46 -46 -46c-27 0 -46 18 -46 37c0 18 19 46 37 46c19 0 55 -28 55 -37zM365 846c-10 -19 -28 -28 -56 -28c-18 0 -37 9 -46 28c-9 27 19 55 55 46h10c27 -9 37 -28 37 -46zM660 163c-87 -186 -386 -256 -545 -22c-100 147 -45 383 -29 425
c34 85 87 154 180 177c148 37 323 11 378 -132c51 -135 75 -321 16 -448zM314 324c54 -51 140 -12 149 54c10 78 -35 116 -108 115c-39 -1 -60 -21 -64 -61c-1 -8 -1 -17 -1 -25c1 -30 0 -60 24 -83z" />
    <glyph glyph-name="Ograve" unicode="&#xd2;" horiz-adv-x="751" 
d="M375 814c9 18 17 27 9 45c-27 26 -36 53 -54 79c0 9 -8 9 -17 18c-9 -9 -27 -18 -36 -18c-9 -8 0 -17 9 -26c27 -27 44 -53 62 -80c0 -9 9 -26 27 -18zM660 163c-87 -186 -386 -256 -545 -22c-100 147 -45 383 -29 425c34 85 87 154 180 177c148 37 323 11 378 -132
c51 -135 75 -321 16 -448zM314 324c54 -51 140 -12 149 54c10 78 -35 116 -108 115c-39 -1 -60 -21 -64 -61c-1 -8 -1 -17 -1 -25c1 -30 0 -60 24 -83z" />
    <glyph glyph-name="Oslash" unicode="&#xd8;" horiz-adv-x="751" 
d="M644 611c51 -135 75 -321 16 -448c-56 -120 -201 -192 -339 -164l-2 -9c-5 -21 -7 -39 -29 -47l-1 -1c-14 -5 -54 -9 -64 4c-6 9 11 55 19 79c-47 23 -92 62 -129 116c-100 147 -45 383 -29 425c34 85 87 154 180 177c51 13 105 18 157 14l17 68c4 16 11 20 28 20
c55 -1 56 -1 39 -54l-13 -48c67 -20 123 -62 150 -132zM291 432c-1 -8 -1 -17 -1 -25c1 -30 0 -60 24 -83l7 -6c13 58 25 117 38 175h-4c-39 -1 -60 -21 -64 -61zM463 378c5 43 -6 73 -29 92c-12 -55 -24 -110 -37 -166c33 10 61 38 66 74z" />
    <glyph glyph-name="Otilde" unicode="&#xd5;" horiz-adv-x="751" 
d="M400 842c9 -18 19 -18 36 -18c18 0 28 10 28 26c0 10 -10 19 18 19c8 0 16 0 16 -19v-8c0 -27 -16 -45 -53 -54c-26 0 -54 9 -63 36c-9 10 -18 18 -18 26c-18 19 -44 19 -55 0c-8 -8 -8 -8 -8 -16c-9 -19 -9 -19 -26 -10c-20 10 -20 10 -10 26c10 10 18 29 27 37
c28 36 72 28 99 -8c0 -10 9 -29 9 -37zM660 163c-87 -186 -386 -256 -545 -22c-100 147 -45 383 -29 425c34 85 87 154 180 177c148 37 323 11 378 -132c51 -135 75 -321 16 -448zM314 324c54 -51 140 -12 149 54c10 78 -35 116 -108 115c-39 -1 -60 -21 -64 -61
c-1 -8 -1 -17 -1 -25c1 -30 0 -60 24 -83z" />
    <glyph glyph-name="OE" unicode="&#x152;" horiz-adv-x="1059" 
d="M1029 27c1 -12 -1 -19 -17 -23c-18 -3 -35 -4 -53 -3c-77 4 -154 -4 -231 -4c-37 0 -73 4 -108 15c-15 5 -24 13 -27 30l-4 28c-126 -109 -346 -118 -474 71c-100 147 -45 383 -29 425c34 85 87 154 180 177c106 26 225 21 305 -37c0 4 0 9 1 13c4 19 12 27 32 27
c95 -1 190 -2 285 6c24 1 47 0 70 -1c12 0 19 -6 24 -15c3 -3 4 -7 4 -11c-1 -14 7 -26 2 -38c-4 -9 -14 -15 -23 -18c-18 -8 -40 -5 -59 -8c-43 -6 -86 -14 -129 -15c-15 0 -20 -9 -19 -20c2 -48 0 -96 6 -144c3 -16 13 -20 26 -20c28 0 56 0 84 1c33 1 36 -3 40 -35
c3 -21 -2 -41 -2 -61c0 -11 -7 -15 -16 -16c-32 -5 -63 -7 -95 -7c-24 -1 -26 -4 -24 -28c1 -16 -1 -32 3 -48c5 -23 10 -29 33 -25c40 7 80 9 120 13c18 1 36 0 53 -3c29 -5 37 -18 34 -48c-5 -37 4 -75 4 -112c0 -22 3 -44 4 -66zM463 378c10 78 -35 116 -108 115
c-39 -1 -60 -21 -64 -61c-1 -8 -1 -17 -1 -25c1 -30 0 -60 24 -83c54 -51 140 -12 149 54z" />
    <glyph glyph-name="P" unicode="P" horiz-adv-x="568" 
d="M378 730c154 -53 161 -236 91 -334c-61 -83 -170 -94 -183 -93c-10 0 -12 -24 -11 -31c22 -238 30 -248 23 -265c-8 -20 -36 -15 -57 -14c-12 1 -23 1 -35 1c-145 -7 -130 -15 -131 45c-10 349 -3 231 -4 334c-3 196 -4 91 -17 278c-2 22 -12 58 -8 78c7 28 47 21 68 22
c29 1 59 5 88 3c60 -2 120 -5 176 -24zM327 512c14 21 7 77 -81 78c-44 1 -52 3 -63 -3c-16 -7 -11 -18 -12 -33c-2 -22 -4 -53 8 -71c20 -30 131 3 148 29z" />
    <glyph glyph-name="Q" unicode="Q" horiz-adv-x="759" 
d="M456 694c97 -88 174 -200 113 -503c-3 -15 1 -20 14 -20c26 -1 53 -6 78 6c14 6 16 -6 17 -14c12 -82 10 -106 22 -129c6 -12 3 -19 -9 -26c-45 -27 -91 -19 -137 -8c-26 6 -49 18 -70 34c-6 5 -11 10 -19 3c-39 -31 -85 -39 -132 -46c-66 -10 -117 19 -163 60
c-67 60 -100 137 -108 226c-16 174 -3 344 139 447c65 46 176 41 255 -30zM398 252c32 90 24 174 -9 242c-27 53 -84 68 -131 43c-68 -35 -77 -208 -50 -280c13 -36 33 -66 72 -75c45 -10 101 23 118 70z" />
    <glyph glyph-name="R" unicode="R" horiz-adv-x="651" 
d="M253 223c-14 -9 5 -104 -3 -187c-2 -24 -2 -34 -27 -35c-35 -1 -69 -3 -104 -3c-23 0 -55 -3 -62 24c-3 11 -1 23 0 33c1 31 2 61 0 92c-2 78 -5 156 -7 234c-3 99 -9 197 -3 296c1 27 -7 59 22 73c33 15 71 2 106 4c181 12 285 -13 367 -176c41 -82 1 -187 -65 -229
c-5 -3 -14 -6 -2 -14c35 -24 58 -59 77 -96c30 -60 44 -123 42 -189c-1 -33 -9 -44 -41 -50c-43 -7 -90 -2 -134 -1c-30 1 -38 2 -40 32c-3 68 -23 129 -78 175c-14 11 -34 26 -48 17zM284 584c-65 1 -63 -110 6 -109c27 0 47 20 47 48c1 31 -29 66 -53 61z" />
    <glyph glyph-name="S" unicode="S" horiz-adv-x="628" 
d="M395 -15c-122 -21 -256 29 -320 139c-30 53 -35 109 -27 169c7 45 19 51 56 55c33 3 66 8 100 6c21 -1 42 0 64 -5c11 -2 17 -8 19 -20c2 -15 6 -30 15 -43c14 -17 34 -18 48 -2c14 17 16 35 11 55c-7 28 -26 49 -48 66s-47 30 -70 45c-32 23 -54 43 -76 70
c-33 41 -21 93 6 131c32 43 73 76 125 92c49 15 99 15 148 3c18 -5 29 -18 31 -38c1 -18 3 -36 4 -54c2 -27 -3 -33 -30 -36c-23 -3 -47 -6 -69 -14c-26 -9 -34 -29 -19 -54c10 -17 26 -28 43 -38c42 -25 84 -52 114 -92c77 -103 86 -232 12 -339c-33 -48 -77 -85 -137 -96z
" />
    <glyph glyph-name="T" unicode="T" horiz-adv-x="628" 
d="M529 462c-8 1 -17 1 -26 2c-14 1 -28 3 -42 3c-25 0 -36 -9 -35 -35c0 -39 -2 -78 -3 -117c-1 -35 -3 -71 -4 -107c-1 -33 0 -67 3 -99c3 -27 3 -52 1 -78c-1 -14 3 -24 -11 -28c-27 -6 -190 -2 -196 1c-13 8 -6 28 -5 41c0 23 -1 42 -2 64c-1 43 -2 85 -2 128l-3 199
c-1 37 -9 47 -46 49c-29 1 -57 1 -85 1c-16 0 -23 6 -24 24c-4 75 -5 137 -3 212c1 28 8 37 35 33c93 -13 170 -2 281 -4c32 0 64 1 97 1c28 0 56 -2 84 -5c26 -2 41 0 40 -32c-1 -38 1 -76 0 -114c-1 -36 2 -72 -7 -107c-9 -31 -16 -34 -47 -32z" />
    <glyph glyph-name="U" unicode="U" horiz-adv-x="578" 
d="M61 456c-3 31 -4 61 -4 92c0 59 -22 124 -7 182c11 44 103 33 139 33c31 1 55 -7 62 -39c8 -37 9 -82 8 -119c-1 -77 -8 -155 3 -232c1 -4 1 -8 2 -12c4 -11 10 -21 22 -22c13 0 15 12 18 21c13 37 8 75 9 113c1 46 0 92 1 139c0 29 -4 93 14 118s52 19 80 20
c23 1 48 1 72 3c74 3 50 -51 49 -103c-3 -88 -4 -176 -4 -264c0 -42 0 -83 -5 -125c-8 -76 -30 -147 -83 -208c-48 -55 -129 -74 -202 -53c-72 20 -108 68 -130 130c-20 59 -23 120 -30 180c-3 31 -7 62 -10 93c-1 18 -3 35 -4 53z" />
    <glyph glyph-name="Uacute" unicode="&#xda;" horiz-adv-x="578" 
d="M317 821c-9 0 -9 -9 -19 -9c-9 9 -18 9 -28 19c-9 9 0 19 10 28c9 28 37 56 56 94c0 0 9 9 19 0c0 -10 18 -10 18 -19c-9 -19 -18 -28 -18 -38c-19 -18 -29 -46 -38 -75zM61 456c-3 31 -4 61 -4 92c0 59 -22 124 -7 182c11 44 103 33 139 33c31 1 55 -7 62 -39
c8 -37 9 -82 8 -119c-1 -77 -8 -155 3 -232c1 -4 1 -8 2 -12c4 -11 10 -21 22 -22c13 0 15 12 18 21c13 37 8 75 9 113c1 46 0 92 1 139c0 29 -4 93 14 118s52 19 80 20c23 1 48 1 72 3c74 3 50 -51 49 -103c-3 -88 -4 -176 -4 -264c0 -42 0 -83 -5 -125
c-8 -76 -30 -147 -83 -208c-48 -55 -129 -74 -202 -53c-72 20 -108 68 -130 130c-20 59 -23 120 -30 180c-3 31 -7 62 -10 93c-1 18 -3 35 -4 53z" />
    <glyph glyph-name="Ucircumflex" unicode="&#xdb;" horiz-adv-x="578" 
d="M308 930c0 0 0 9 -9 0c-9 0 -9 0 -9 -9c-9 -19 -18 -46 -27 -64c0 -9 0 -18 -10 -18c-9 0 -27 0 -36 9v9c27 45 46 100 64 154c0 0 0 9 9 9s9 0 18 -9c27 -36 45 -81 72 -127c9 -9 9 -18 18 -27v-9c-9 -9 -27 -9 -36 -9c-9 -9 -9 0 -18 9c-9 27 -27 54 -36 82zM61 456
c-3 31 -4 61 -4 92c0 59 -22 124 -7 182c11 44 103 33 139 33c31 1 55 -7 62 -39c8 -37 9 -82 8 -119c-1 -77 -8 -155 3 -232c1 -4 1 -8 2 -12c4 -11 10 -21 22 -22c13 0 15 12 18 21c13 37 8 75 9 113c1 46 0 92 1 139c0 29 -4 93 14 118s52 19 80 20c23 1 48 1 72 3
c74 3 50 -51 49 -103c-3 -88 -4 -176 -4 -264c0 -42 0 -83 -5 -125c-8 -76 -30 -147 -83 -208c-48 -55 -129 -74 -202 -53c-72 20 -108 68 -130 130c-20 59 -23 120 -30 180c-3 31 -7 62 -10 93c-1 18 -3 35 -4 53z" />
    <glyph glyph-name="Udieresis" unicode="&#xdc;" horiz-adv-x="578" 
d="M401 896c0 -28 -18 -46 -46 -46c-27 0 -46 18 -46 37c0 18 19 46 37 46c19 0 55 -28 55 -37zM282 878c-10 -19 -28 -28 -56 -28c-18 0 -37 9 -46 28c-9 27 19 55 55 46h10c27 -9 37 -28 37 -46zM61 456c-3 31 -4 61 -4 92c0 59 -22 124 -7 182c11 44 103 33 139 33
c31 1 55 -7 62 -39c8 -37 9 -82 8 -119c-1 -77 -8 -155 3 -232c1 -4 1 -8 2 -12c4 -11 10 -21 22 -22c13 0 15 12 18 21c13 37 8 75 9 113c1 46 0 92 1 139c0 29 -4 93 14 118s52 19 80 20c23 1 48 1 72 3c74 3 50 -51 49 -103c-3 -88 -4 -176 -4 -264c0 -42 0 -83 -5 -125
c-8 -76 -30 -147 -83 -208c-48 -55 -129 -74 -202 -53c-72 20 -108 68 -130 130c-20 59 -23 120 -30 180c-3 31 -7 62 -10 93c-1 18 -3 35 -4 53z" />
    <glyph glyph-name="Ugrave" unicode="&#xd9;" horiz-adv-x="578" 
d="M310 841c9 18 17 27 9 45c-27 26 -36 53 -54 79c0 9 -8 9 -17 18c-9 -9 -27 -18 -36 -18c-9 -8 0 -17 9 -26c27 -27 44 -53 62 -80c0 -9 9 -26 27 -18zM61 456c-3 31 -4 61 -4 92c0 59 -22 124 -7 182c11 44 103 33 139 33c31 1 55 -7 62 -39c8 -37 9 -82 8 -119
c-1 -77 -8 -155 3 -232c1 -4 1 -8 2 -12c4 -11 10 -21 22 -22c13 0 15 12 18 21c13 37 8 75 9 113c1 46 0 92 1 139c0 29 -4 93 14 118s52 19 80 20c23 1 48 1 72 3c74 3 50 -51 49 -103c-3 -88 -4 -176 -4 -264c0 -42 0 -83 -5 -125c-8 -76 -30 -147 -83 -208
c-48 -55 -129 -74 -202 -53c-72 20 -108 68 -130 130c-20 59 -23 120 -30 180c-3 31 -7 62 -10 93c-1 18 -3 35 -4 53z" />
    <glyph glyph-name="V" unicode="V" horiz-adv-x="639" 
d="M99 512c-10 68 -35 131 -51 197c-8 33 -4 40 30 43l51 3c15 1 29 0 44 0c21 0 42 2 64 2c21 0 33 -10 37 -30c8 -35 18 -69 24 -105c11 -63 22 -127 39 -189c2 -4 0 -12 5 -12c7 0 7 8 8 13c4 38 9 76 12 114c6 55 11 111 15 167c3 25 5 29 30 31c57 4 114 2 171 -8
c13 -3 18 -9 16 -22c-3 -17 -5 -34 -9 -51c-34 -121 -63 -244 -90 -366c-9 -43 -20 -86 -29 -129c-7 -33 -6 -71 -16 -103c-19 -57 -87 -72 -140 -72c-102 0 -129 109 -142 193c-14 96 -36 190 -60 284c-3 13 -7 27 -9 40z" />
    <glyph glyph-name="W" unicode="W" horiz-adv-x="744" 
d="M507 -21c-8 1 -16 2 -23 4c-56 14 -77 48 -95 100c-2 6 -1 15 -7 15s-6 -9 -9 -14c-11 -23 -25 -43 -44 -60c-55 -49 -95 -46 -157 -15c-33 16 -47 46 -60 76c-23 48 -36 99 -45 152c-12 75 -23 150 -22 226c1 65 5 130 9 195c1 20 3 39 0 58c-2 12 4 15 12 15
c14 1 29 1 43 2c33 1 66 2 99 5c18 1 25 -6 25 -24c0 -67 6 -133 6 -200c-1 -60 5 -120 16 -179c2 -11 5 -21 9 -31c9 -19 22 -20 33 -2c12 21 15 43 13 67c-1 17 -6 33 -6 51c1 12 5 16 17 16c27 0 53 0 79 2c18 0 24 -7 24 -24c-2 -44 0 -88 9 -131c4 -16 10 -35 26 -39
c18 -4 29 14 39 29c14 23 19 49 18 76c-1 90 -9 179 -23 267c-4 31 -28 75 -10 105c12 22 52 19 73 20c28 1 62 7 90 2c37 -5 34 -39 36 -70c4 -55 10 -111 14 -166c4 -36 -1 -73 1 -92c4 -84 0 -151 -8 -217c-8 -57 -16 -115 -51 -164c-33 -45 -78 -63 -131 -55z" />
    <glyph glyph-name="X" unicode="X" horiz-adv-x="623" 
d="M540 8c-25 -4 -56 3 -77 2c-36 -2 -69 -15 -79 30s-10 96 -17 142c-5 31 -18 60 -33 88c-5 9 -12 17 -19 25c-25 26 -36 26 -57 -3c-45 -62 -66 -135 -63 -211c1 -40 19 -93 -43 -90c-29 2 -89 6 -98 39c-10 34 -2 89 -2 125c1 54 2 107 16 160c11 40 26 78 48 113
c5 8 9 15 2 25c-27 38 -37 82 -47 127c-9 48 -19 97 -24 146c-1 6 -1 12 -2 17c-1 13 4 18 17 17c45 -4 90 -1 135 2c19 1 29 -7 34 -26c12 -50 27 -100 46 -148l3 -7c4 -5 5 -14 12 -14c6 0 8 8 11 13c21 42 30 86 35 131c5 51 -8 43 48 43c37 0 74 -4 111 -4
c16 0 22 -7 26 -21c6 -22 5 -44 3 -67c-7 -68 -27 -134 -56 -196c-4 -9 -6 -15 1 -23c68 -83 92 -183 98 -288c2 -32 20 -107 -2 -132c-7 -8 -16 -13 -27 -15z" />
    <glyph glyph-name="Y" unicode="Y" horiz-adv-x="601" 
d="M234 725l3 -3c15 -20 10 -53 10 -76c0 -36 5 -72 16 -106c9 -26 17 -32 38 -32c23 0 37 10 45 33c7 19 12 39 10 60c-3 38 1 75 -6 112c-3 18 8 22 22 24c29 5 58 0 87 1c23 1 63 6 83 -11c21 -17 12 -66 12 -90v-155c-1 -77 -3 -153 -9 -229c-4 -62 -16 -122 -50 -177
c-29 -48 -74 -68 -126 -78c-62 -12 -125 -17 -188 -14c-5 0 -11 0 -16 1c-44 7 -50 14 -51 58c-2 46 -6 92 -14 138c-1 7 -2 14 -2 20c-2 30 2 32 30 27c40 -6 78 -19 119 -11c26 5 52 11 73 27c20 16 25 37 22 62c-1 10 -5 9 -12 5c-84 -41 -156 -17 -217 45
c-31 32 -42 81 -50 123c-8 51 -9 102 -11 153c-1 31 -21 85 12 104c22 13 58 8 82 8c26 0 67 2 88 -19z" />
    <glyph glyph-name="Yacute" unicode="&#xdd;" horiz-adv-x="601" 
d="M327 840c-9 0 -9 -9 -19 -9c-9 9 -18 9 -28 19c-9 9 0 19 10 28c9 28 37 56 56 94c0 0 9 9 19 0c0 -10 18 -10 18 -19c-9 -19 -18 -28 -18 -38c-19 -18 -29 -46 -38 -75zM234 725l3 -3c15 -20 10 -53 10 -76c0 -36 5 -72 16 -106c9 -26 17 -32 38 -32c23 0 37 10 45 33
c7 19 12 39 10 60c-3 38 1 75 -6 112c-3 18 8 22 22 24c29 5 58 0 87 1c23 1 63 6 83 -11c21 -17 12 -66 12 -90v-155c-1 -77 -3 -153 -9 -229c-4 -62 -16 -122 -50 -177c-29 -48 -74 -68 -126 -78c-62 -12 -125 -17 -188 -14c-5 0 -11 0 -16 1c-44 7 -50 14 -51 58
c-2 46 -6 92 -14 138c-1 7 -2 14 -2 20c-2 30 2 32 30 27c40 -6 78 -19 119 -11c26 5 52 11 73 27c20 16 25 37 22 62c-1 10 -5 9 -12 5c-84 -41 -156 -17 -217 45c-31 32 -42 81 -50 123c-8 51 -9 102 -11 153c-1 31 -21 85 12 104c22 13 58 8 82 8c26 0 67 2 88 -19z" />
    <glyph glyph-name="Z" unicode="Z" horiz-adv-x="530" 
d="M386 436c-26 -56 -52 -113 -74 -170c-9 -22 -6 -28 17 -28c36 -1 71 0 107 -1c28 -1 31 -3 31 -31c1 -25 1 -51 1 -77c-1 -30 1 -59 4 -89c2 -19 9 -41 -9 -55c-28 -20 -89 -8 -122 -8c-45 0 -91 0 -137 -2l-90 -3c-31 -1 -63 -9 -66 32c-5 51 -4 101 2 152
c2 15 11 27 20 40c48 66 85 139 121 213c14 30 28 59 44 88c11 20 10 23 -13 23c-38 -1 -77 0 -115 -1c-21 -1 -30 8 -33 27c-6 25 -6 50 -8 75c-4 33 -5 67 -8 100c-1 15 4 22 20 23c44 4 88 -5 132 -7c76 -5 152 -13 229 -9c44 2 54 -14 41 -56c-24 -82 -58 -160 -94 -236
z" />
    <glyph glyph-name="a" unicode="a" horiz-adv-x="419" 
d="M376 117c4 0 8 -1 12 -5c29 -29 -9 -103 -42 -113c-29 -8 -55 18 -71 39c-15 21 -16 39 -38 15c-35 -38 -76 -63 -131 -48c-31 8 -53 28 -66 58c-14 33 -20 69 -21 105c2 50 9 99 32 144c19 37 46 60 87 67c26 5 51 4 77 1c13 -2 26 -7 37 -17c9 -9 13 -10 11 5
c-1 8 4 10 11 8c10 -1 20 -3 30 -5c20 -2 21 -3 15 -22c-16 -50 -24 -101 -27 -153c-1 -29 -4 -68 21 -88c28 -24 45 9 63 9zM188 110c36 40 58 86 64 141c2 23 -4 41 -23 51c-38 19 -86 19 -115 -23c-16 -22 -24 -48 -27 -75c-2 -27 -2 -60 8 -86c17 -45 64 -39 93 -8z" />
    <glyph glyph-name="aacute" unicode="&#xe1;" horiz-adv-x="419" 
d="M218 476c-8 0 -8 -8 -16 -8c-8 8 -15 8 -24 16c-7 8 0 16 9 24c7 24 31 47 47 79c0 0 8 8 16 0c0 -8 15 -8 15 -16c-7 -16 -15 -23 -15 -32c-16 -15 -24 -39 -32 -63zM376 117c4 0 8 -1 12 -5c29 -29 -9 -103 -42 -113c-29 -8 -55 18 -71 39c-15 21 -16 39 -38 15
c-35 -38 -76 -63 -131 -48c-31 8 -53 28 -66 58c-14 33 -20 69 -21 105c2 50 9 99 32 144c19 37 46 60 87 67c26 5 51 4 77 1c13 -2 26 -7 37 -17c9 -9 13 -10 11 5c-1 8 4 10 11 8c10 -1 20 -3 30 -5c20 -2 21 -3 15 -22c-16 -50 -24 -101 -27 -153c-1 -29 -4 -68 21 -88
c28 -24 45 9 63 9zM188 110c36 40 58 86 64 141c2 23 -4 41 -23 51c-38 19 -86 19 -115 -23c-16 -22 -24 -48 -27 -75c-2 -27 -2 -60 8 -86c17 -45 64 -39 93 -8z" />
    <glyph glyph-name="acircumflex" unicode="&#xe2;" horiz-adv-x="419" 
d="M207 536c0 0 0 7 -7 0c-7 0 -7 0 -7 -7c-7 -15 -14 -36 -21 -50c0 -7 0 -14 -8 -14c-7 0 -21 0 -28 7v7c21 35 36 78 50 120c0 0 0 7 7 7s7 0 14 -7c21 -28 35 -63 56 -99c7 -7 7 -14 14 -21v-7c-7 -7 -21 -7 -28 -7c-7 -7 -7 0 -14 7c-7 21 -21 42 -28 64zM376 117
c4 0 8 -1 12 -5c29 -29 -9 -103 -42 -113c-29 -8 -55 18 -71 39c-15 21 -16 39 -38 15c-35 -38 -76 -63 -131 -48c-31 8 -53 28 -66 58c-14 33 -20 69 -21 105c2 50 9 99 32 144c19 37 46 60 87 67c26 5 51 4 77 1c13 -2 26 -7 37 -17c9 -9 13 -10 11 5c-1 8 4 10 11 8
c10 -1 20 -3 30 -5c20 -2 21 -3 15 -22c-16 -50 -24 -101 -27 -153c-1 -29 -4 -68 21 -88c28 -24 45 9 63 9zM188 110c36 40 58 86 64 141c2 23 -4 41 -23 51c-38 19 -86 19 -115 -23c-16 -22 -24 -48 -27 -75c-2 -27 -2 -60 8 -86c17 -45 64 -39 93 -8z" />
    <glyph glyph-name="adieresis" unicode="&#xe4;" horiz-adv-x="419" 
d="M294 497c0 -23 -15 -38 -38 -38c-22 0 -38 15 -38 30s16 38 31 38s45 -23 45 -30zM196 482c-8 -16 -23 -23 -46 -23c-15 0 -31 7 -38 23c-8 22 15 45 45 38h8c23 -8 31 -23 31 -38zM376 117c4 0 8 -1 12 -5c29 -29 -9 -103 -42 -113c-29 -8 -55 18 -71 39
c-15 21 -16 39 -38 15c-35 -38 -76 -63 -131 -48c-31 8 -53 28 -66 58c-14 33 -20 69 -21 105c2 50 9 99 32 144c19 37 46 60 87 67c26 5 51 4 77 1c13 -2 26 -7 37 -17c9 -9 13 -10 11 5c-1 8 4 10 11 8c10 -1 20 -3 30 -5c20 -2 21 -3 15 -22c-16 -50 -24 -101 -27 -153
c-1 -29 -4 -68 21 -88c28 -24 45 9 63 9zM188 110c36 40 58 86 64 141c2 23 -4 41 -23 51c-38 19 -86 19 -115 -23c-16 -22 -24 -48 -27 -75c-2 -27 -2 -60 8 -86c17 -45 64 -39 93 -8z" />
    <glyph glyph-name="agrave" unicode="&#xe0;" horiz-adv-x="419" 
d="M227 470c8 16 16 24 8 40c-24 24 -32 48 -48 71c0 8 -7 8 -15 16c-8 -8 -25 -16 -33 -16c-8 -7 0 -15 8 -23c25 -24 40 -48 56 -72c0 -8 8 -23 24 -16zM376 117c4 0 8 -1 12 -5c29 -29 -9 -103 -42 -113c-29 -8 -55 18 -71 39c-15 21 -16 39 -38 15
c-35 -38 -76 -63 -131 -48c-31 8 -53 28 -66 58c-14 33 -20 69 -21 105c2 50 9 99 32 144c19 37 46 60 87 67c26 5 51 4 77 1c13 -2 26 -7 37 -17c9 -9 13 -10 11 5c-1 8 4 10 11 8c10 -1 20 -3 30 -5c20 -2 21 -3 15 -22c-16 -50 -24 -101 -27 -153c-1 -29 -4 -68 21 -88
c28 -24 45 9 63 9zM188 110c36 40 58 86 64 141c2 23 -4 41 -23 51c-38 19 -86 19 -115 -23c-16 -22 -24 -48 -27 -75c-2 -27 -2 -60 8 -86c17 -45 64 -39 93 -8z" />
    <glyph glyph-name="aring" unicode="&#xe5;" horiz-adv-x="419" 
d="M240 473c-22 -19 -46 -23 -63 -14c-23 14 -36 36 -27 63c8 18 27 31 49 31c41 -4 68 -40 49 -67c-4 -4 -8 -9 -8 -13zM181 509c-4 -9 0 -23 9 -27c0 0 9 0 22 13l6 5s0 4 3 4c0 5 0 9 -3 13c-6 5 -10 9 -19 9c-5 0 -14 -4 -18 -17zM376 117c4 0 8 -1 12 -5
c29 -29 -9 -103 -42 -113c-29 -8 -55 18 -71 39c-15 21 -16 39 -38 15c-35 -38 -76 -63 -131 -48c-31 8 -53 28 -66 58c-14 33 -20 69 -21 105c2 50 9 99 32 144c19 37 46 60 87 67c26 5 51 4 77 1c13 -2 26 -7 37 -17c9 -9 13 -10 11 5c-1 8 4 10 11 8c10 -1 20 -3 30 -5
c20 -2 21 -3 15 -22c-16 -50 -24 -101 -27 -153c-1 -29 -4 -68 21 -88c28 -24 45 9 63 9zM188 110c36 40 58 86 64 141c2 23 -4 41 -23 51c-38 19 -86 19 -115 -23c-16 -22 -24 -48 -27 -75c-2 -27 -2 -60 8 -86c17 -45 64 -39 93 -8z" />
    <glyph glyph-name="atilde" unicode="&#xe3;" horiz-adv-x="419" 
d="M210 493c7 -14 15 -14 28 -14c14 0 21 8 21 20c0 8 -7 15 14 15c6 0 12 0 12 -15v-6c0 -21 -12 -34 -40 -41c-20 0 -42 7 -49 27c-7 8 -14 14 -14 20c-13 15 -33 15 -42 0c-6 -6 -6 -6 -6 -12c-7 -15 -7 -15 -20 -8c-15 8 -15 8 -8 20c8 8 14 23 21 29c22 27 55 21 76 -6
c0 -8 7 -23 7 -29zM376 117c4 0 8 -1 12 -5c29 -29 -9 -103 -42 -113c-29 -8 -55 18 -71 39c-15 21 -16 39 -38 15c-35 -38 -76 -63 -131 -48c-31 8 -53 28 -66 58c-14 33 -20 69 -21 105c2 50 9 99 32 144c19 37 46 60 87 67c26 5 51 4 77 1c13 -2 26 -7 37 -17
c9 -9 13 -10 11 5c-1 8 4 10 11 8c10 -1 20 -3 30 -5c20 -2 21 -3 15 -22c-16 -50 -24 -101 -27 -153c-1 -29 -4 -68 21 -88c28 -24 45 9 63 9zM188 110c36 40 58 86 64 141c2 23 -4 41 -23 51c-38 19 -86 19 -115 -23c-16 -22 -24 -48 -27 -75c-2 -27 -2 -60 8 -86
c17 -45 64 -39 93 -8z" />
    <glyph glyph-name="ae" unicode="&#xe6;" horiz-adv-x="561" 
d="M530 176l18 -25c2 -3 4 -6 3 -10c-19 -49 -37 -98 -91 -120c-32 -14 -64 -16 -92 -7c-7 -7 -15 -13 -22 -15c-29 -8 -55 18 -71 39c-15 21 -16 39 -38 15c-35 -38 -76 -63 -131 -48c-31 8 -53 28 -66 58c-14 33 -20 69 -21 105c2 50 9 99 32 144c19 37 46 60 87 67
c26 5 51 4 77 1c13 -2 26 -7 37 -17c9 -9 13 -10 11 5c-1 8 4 10 11 8c10 -1 20 -3 30 -5c20 -2 21 -3 15 -22l-8 -27c2 2 3 5 5 7c34 48 108 70 166 29c26 -18 33 -49 18 -77c-12 -25 -31 -45 -54 -61c-29 -21 -58 -40 -88 -59c-9 -6 -8 -11 -4 -19c6 -11 16 -19 27 -26
c1 0 3 -1 5 -2c29 -13 66 -11 87 12c14 15 26 31 35 49c8 16 12 16 22 1zM366 243c-2 -4 1 -7 5 -5c27 12 55 24 72 50c9 14 -1 28 -19 29c-6 -1 -13 -3 -20 -8c-21 -17 -28 -42 -38 -66zM252 251c2 23 -4 41 -23 51c-38 19 -86 19 -115 -23c-16 -22 -24 -48 -27 -75
c-2 -27 -2 -60 8 -86c17 -45 64 -39 93 -8c36 40 58 86 64 141z" />
    <glyph glyph-name="b" unicode="b" horiz-adv-x="353" 
d="M71 289c-8 6 -18 -5 -27 -9c-13 -6 -18 -1 -20 11c-1 8 -2 17 -4 25c-3 13 4 21 15 27c7 3 15 6 22 10c13 7 20 17 21 33c3 56 13 111 37 162c7 16 14 31 26 43c19 19 49 26 73 16c22 -9 43 -43 42 -67c-3 -53 -28 -96 -60 -136c-19 -24 -39 -46 -63 -65
c-5 -4 -14 -8 -8 -14c4 -4 9 4 12 8c25 26 57 33 91 30c49 -4 77 -37 91 -80c17 -54 19 -110 2 -166c-9 -29 -11 -61 -32 -86c-41 -48 -96 -46 -140 -10c-26 23 -40 53 -51 85c-6 19 -9 40 -13 60c-5 26 -10 52 -10 79v12c0 11 4 25 -4 32zM132 428c-1 -2 0 -6 1 -7
c3 -2 5 1 7 3c22 25 40 53 55 82c3 5 3 11 4 15c1 8 -1 14 -8 17c-7 4 -13 0 -18 -6c-26 -30 -34 -67 -41 -104zM171 293c-24 -20 -43 -44 -43 -77c-1 -32 11 -62 24 -90c17 -37 55 -42 84 -14c7 8 14 17 18 28c15 42 24 90 3 133c-16 32 -58 43 -86 20z" />
    <glyph glyph-name="c" unicode="c" horiz-adv-x="294" 
d="M269 120c6 -4 6 -9 4 -16c-19 -80 -98 -116 -164 -98c-26 7 -45 26 -60 49c-30 47 -33 99 -27 152c3 20 6 40 10 59c5 18 16 34 26 50s23 30 39 40c33 19 72 19 108 9c24 -7 26 -12 23 -38c0 -5 -1 -10 -2 -14c-5 -31 -7 -32 -36 -22c-28 10 -47 3 -72 -28
c-32 -38 -32 -101 0 -133c28 -28 65 -23 85 11c10 20 12 20 30 7c12 -9 24 -18 36 -28z" />
    <glyph glyph-name="ccedilla" unicode="&#xe7;" horiz-adv-x="294" 
d="M269 120c6 -4 6 -9 4 -16c-15 -64 -69 -100 -124 -102v-27c17 -5 27 -22 20 -34c0 -3 -3 -5 -5 -8c-12 -9 -24 -12 -34 -7c-5 3 -15 10 -5 15c5 5 12 -3 17 -3c7 0 15 8 12 12c0 8 -7 10 -14 10c-10 0 -8 5 -8 15c0 9 -2 19 0 27c-8 1 -15 2 -23 4c-26 7 -45 26 -60 49
c-30 47 -33 99 -27 152c3 20 6 40 10 59c5 18 16 34 26 50s23 30 39 40c33 19 72 19 108 9c24 -7 26 -12 23 -38c0 -5 -1 -10 -2 -14c-5 -31 -7 -32 -36 -22c-28 10 -47 3 -72 -28c-32 -38 -32 -101 0 -133c28 -28 65 -23 85 11c10 20 12 20 30 7c12 -9 24 -18 36 -28z" />
    <glyph glyph-name="d" unicode="d" horiz-adv-x="429" 
d="M167 519c-7 33 11 73 38 87c30 15 66 9 88 -15c18 -19 19 -44 17 -69c-1 -15 -4 -38 19 -30c17 6 37 6 51 22c2 2 5 3 9 2c16 -6 27 -45 14 -56c-26 -22 -55 -39 -89 -41c-9 -1 -16 -3 -17 -14c-14 -81 -30 -162 -31 -244c0 -20 2 -39 7 -58c8 -25 25 -41 50 -44
c16 -3 18 -9 17 -22v-16c0 -11 -3 -17 -16 -15c-32 2 -62 10 -80 39c-9 14 -14 12 -21 -1c-35 -61 -99 -65 -150 -32c-24 16 -34 46 -42 70c-24 74 -9 169 33 233c34 51 101 57 142 31c30 -20 31 -19 39 17c4 15 5 31 10 46c3 13 -1 17 -12 22c-37 19 -67 44 -76 88z
M232 543c-3 -15 0 -28 12 -37c7 -5 14 -13 22 -9c8 3 3 13 4 19c1 12 0 23 -7 33c-5 6 -11 10 -19 8c-8 -1 -11 -7 -12 -14zM223 254c1 7 2 14 -3 21c-24 37 -87 37 -110 0c-19 -31 -29 -65 -26 -101c-2 -32 1 -61 15 -88c12 -24 29 -35 48 -32c34 5 70 46 69 80
c-1 40 -1 80 7 120z" />
    <glyph glyph-name="e" unicode="e" horiz-adv-x="315" 
d="M274 167l18 -25c2 -3 4 -6 3 -10c-19 -49 -37 -98 -91 -120c-81 -35 -158 7 -175 95c-4 26 -10 51 -9 70c-3 58 12 104 40 143c34 48 108 70 166 29c26 -18 33 -49 18 -77c-12 -25 -31 -45 -54 -61c-29 -21 -58 -40 -88 -59c-9 -6 -8 -11 -4 -19c23 -40 88 -49 119 -16
c14 15 26 31 35 49c8 16 12 16 22 1zM110 234c-2 -4 1 -7 5 -5c27 12 55 24 72 50c9 14 -1 28 -19 29c-6 -1 -13 -3 -20 -8c-21 -17 -28 -42 -38 -66z" />
    <glyph glyph-name="eacute" unicode="&#xe9;" horiz-adv-x="315" 
d="M174 418c-8 0 -8 -8 -16 -8c-8 8 -15 8 -24 16c-7 8 0 16 9 24c7 24 31 47 47 79c0 0 8 8 16 0c0 -8 15 -8 15 -16c-7 -16 -15 -23 -15 -32c-16 -15 -24 -39 -32 -63zM274 167l18 -25c2 -3 4 -6 3 -10c-19 -49 -37 -98 -91 -120c-81 -35 -158 7 -175 95
c-4 26 -10 51 -9 70c-3 58 12 104 40 143c34 48 108 70 166 29c26 -18 33 -49 18 -77c-12 -25 -31 -45 -54 -61c-29 -21 -58 -40 -88 -59c-9 -6 -8 -11 -4 -19c23 -40 88 -49 119 -16c14 15 26 31 35 49c8 16 12 16 22 1zM110 234c-2 -4 1 -7 5 -5c27 12 55 24 72 50
c9 14 -1 28 -19 29c-6 -1 -13 -3 -20 -8c-21 -17 -28 -42 -38 -66z" />
    <glyph glyph-name="ecircumflex" unicode="&#xea;" horiz-adv-x="315" 
d="M163 474c0 0 0 7 -7 0c-7 0 -7 0 -7 -7c-7 -15 -14 -36 -21 -50c0 -7 0 -14 -8 -14c-7 0 -21 0 -28 7v7c21 35 36 78 50 120c0 0 0 7 7 7s7 0 14 -7c21 -28 35 -63 56 -99c7 -7 7 -14 14 -21v-7c-7 -7 -21 -7 -28 -7c-7 -7 -7 0 -14 7c-7 21 -21 42 -28 64zM274 167
l18 -25c2 -3 4 -6 3 -10c-19 -49 -37 -98 -91 -120c-81 -35 -158 7 -175 95c-4 26 -10 51 -9 70c-3 58 12 104 40 143c34 48 108 70 166 29c26 -18 33 -49 18 -77c-12 -25 -31 -45 -54 -61c-29 -21 -58 -40 -88 -59c-9 -6 -8 -11 -4 -19c23 -40 88 -49 119 -16
c14 15 26 31 35 49c8 16 12 16 22 1zM110 234c-2 -4 1 -7 5 -5c27 12 55 24 72 50c9 14 -1 28 -19 29c-6 -1 -13 -3 -20 -8c-21 -17 -28 -42 -38 -66z" />
    <glyph glyph-name="edieresis" unicode="&#xeb;" horiz-adv-x="315" 
d="M226 437c0 -17 -11 -28 -28 -28c-16 0 -28 11 -28 22s12 28 23 28s33 -17 33 -22zM154 426c-6 -12 -17 -17 -34 -17c-11 0 -23 5 -28 17c-6 16 11 33 33 28h6c17 -6 23 -17 23 -28zM274 167l18 -25c2 -3 4 -6 3 -10c-19 -49 -37 -98 -91 -120c-81 -35 -158 7 -175 95
c-4 26 -10 51 -9 70c-3 58 12 104 40 143c34 48 108 70 166 29c26 -18 33 -49 18 -77c-12 -25 -31 -45 -54 -61c-29 -21 -58 -40 -88 -59c-9 -6 -8 -11 -4 -19c23 -40 88 -49 119 -16c14 15 26 31 35 49c8 16 12 16 22 1zM110 234c-2 -4 1 -7 5 -5c27 12 55 24 72 50
c9 14 -1 28 -19 29c-6 -1 -13 -3 -20 -8c-21 -17 -28 -42 -38 -66z" />
    <glyph glyph-name="egrave" unicode="&#xe8;" horiz-adv-x="315" 
d="M179 417c8 16 16 24 8 40c-24 24 -32 48 -48 71c0 8 -7 8 -15 16c-8 -8 -25 -16 -33 -16c-8 -7 0 -15 8 -23c25 -24 40 -48 56 -72c0 -8 8 -23 24 -16zM274 167l18 -25c2 -3 4 -6 3 -10c-19 -49 -37 -98 -91 -120c-81 -35 -158 7 -175 95c-4 26 -10 51 -9 70
c-3 58 12 104 40 143c34 48 108 70 166 29c26 -18 33 -49 18 -77c-12 -25 -31 -45 -54 -61c-29 -21 -58 -40 -88 -59c-9 -6 -8 -11 -4 -19c23 -40 88 -49 119 -16c14 15 26 31 35 49c8 16 12 16 22 1zM110 234c-2 -4 1 -7 5 -5c27 12 55 24 72 50c9 14 -1 28 -19 29
c-6 -1 -13 -3 -20 -8c-21 -17 -28 -42 -38 -66z" />
    <glyph glyph-name="f" unicode="f" horiz-adv-x="270" 
d="M75 300c12 -3 18 -1 17 14c-1 22 -2 44 0 64c1 50 5 97 12 145c5 34 22 60 57 72c36 13 83 -14 89 -52c2 -9 -13 -41 -21 -45c-7 -3 -9 1 -10 7c-2 14 -7 26 -24 26c-16 1 -24 -11 -30 -24c-3 -7 -5 -13 -6 -20c-8 -56 -5 -112 -7 -167c0 -18 7 -19 21 -14
c10 4 18 21 30 10c8 -7 9 -20 12 -30c13 -38 8 -50 -27 -69l-6 -3c-29 -12 -30 -12 -27 -43c3 -46 8 -91 12 -136c0 -11 7 -26 -5 -31c-14 -7 -32 -10 -48 -7c-11 2 -9 15 -10 23c-3 37 -5 75 -7 112c-1 21 -1 43 -1 64c0 10 -4 16 -14 18h-2c-70 26 -63 26 -56 91
c2 19 4 20 21 9c9 -7 19 -11 30 -14z" />
    <glyph glyph-name="g" unicode="g" horiz-adv-x="486" 
d="M451 -8c11 -4 16 -9 15 -21c-2 -16 -2 -33 -3 -50c0 -4 0 -9 -5 -9c-6 -1 -7 4 -9 7c-12 32 -41 35 -68 37c-17 2 -15 -12 -14 -22c2 -41 -2 -81 -11 -121c-7 -31 -17 -61 -38 -87c-48 -61 -151 -63 -202 2c-21 26 -31 55 -31 88c0 103 70 164 158 190c8 3 15 4 23 6
c24 7 23 7 20 33c-2 22 -11 43 -15 64c-1 4 -2 10 -6 10c-6 1 -6 -5 -7 -9c-10 -24 -20 -48 -37 -69c-47 -56 -119 -56 -159 -4c-32 41 -47 87 -41 132c0 46 6 84 22 120c17 35 46 63 84 73c18 5 37 6 55 3c9 -1 18 -3 27 -6c8 -2 15 -11 23 -12c7 0 5 10 7 15
c8 16 35 6 47 6c7 0 9 -11 12 -18c17 -56 29 -112 40 -169c10 -50 21 -99 24 -150c0 -11 7 -14 16 -16c25 -5 49 -12 73 -23zM228 221c10 48 -23 87 -74 73c-34 -10 -57 -48 -54 -93c0 -19 4 -40 13 -60c7 -16 18 -28 36 -30c20 -2 32 9 41 24c17 27 32 55 38 86zM294 -145
c4 26 3 55 3 81c1 10 -4 12 -13 9c-16 -7 -34 -12 -49 -21c-32 -18 -57 -41 -61 -81c-2 -27 5 -48 24 -59c20 -11 44 -7 64 12c17 16 29 36 32 59z" />
    <glyph glyph-name="h" unicode="h" horiz-adv-x="366" 
d="M250 556c19 -83 -9 -151 -60 -214c-8 -10 -18 -20 -27 -31c14 1 25 10 37 16c43 21 73 -3 75 -48c2 -41 -5 -81 -5 -121c0 -16 1 -33 5 -49c6 -27 19 -34 43 -21c11 5 15 3 17 -8c3 -19 7 -38 10 -57c2 -8 1 -14 -8 -16c-12 -3 -24 -8 -36 -9c-48 -4 -79 25 -80 76
c-1 31 0 61 1 92c0 20 0 43 -22 51c-19 7 -50 3 -60 -15c-24 -39 -21 -88 -19 -131c1 -18 7 -56 -15 -65c-12 -6 -32 8 -33 21c-2 24 -3 48 -5 79c-4 34 4 75 0 116c-1 20 -1 20 -20 14c-19 -7 -27 -2 -28 19v2c-1 35 -1 35 30 48c15 6 24 14 27 32c9 62 16 124 31 184
c6 22 14 42 27 60c14 19 32 30 56 24c27 -7 52 -16 59 -49zM134 363c43 36 71 80 77 135c2 17 -3 34 -19 38c-15 5 -24 -11 -32 -24c-23 -42 -29 -89 -35 -136c1 -5 -2 -11 2 -15c3 -3 5 0 7 2z" />
    <glyph glyph-name="i" unicode="i" horiz-adv-x="298" 
d="M141 384c-26 1 -46 16 -50 38c-3 22 12 58 30 61c23 4 45 -3 63 -19c15 -13 16 -30 8 -47c-10 -20 -26 -34 -51 -33zM249 153c7 -18 12 -38 28 -52c1 -1 1 -4 1 -6c1 -28 -32 -80 -59 -91c-11 -4 -23 -7 -34 -5c-39 0 -57 14 -70 49c-10 24 -16 50 -20 76
c-2 14 -1 27 -2 40c0 3 -4 29 -3 30c-11 -6 -21 -15 -33 -19c-6 -2 -26 -10 -30 -3c-9 13 -8 29 -5 44c2 10 10 10 19 11c20 0 43 15 49 35c6 27 7 61 4 89c-1 9 4 8 9 9c19 2 39 3 58 5c14 1 17 -7 14 -18c-16 -61 -1 -121 -3 -182c0 -11 3 -22 7 -32c7 -19 20 -22 35 -8
c8 8 14 17 18 27c2 4 3 10 9 10c5 -1 7 -5 8 -9z" />
    <glyph glyph-name="iacute" unicode="&#xed;" horiz-adv-x="298" 
d="M167 429c-10 0 -10 -11 -21 -11c-10 11 -19 11 -30 21c-9 10 0 20 11 30c9 31 40 60 60 101c0 0 10 10 21 0c0 -10 19 -10 19 -20c-9 -21 -19 -30 -19 -41c-21 -19 -31 -50 -41 -80zM249 153c7 -18 12 -38 28 -52c1 -1 1 -4 1 -6c1 -28 -32 -80 -59 -91
c-11 -4 -23 -7 -34 -5c-39 0 -57 14 -70 49c-10 24 -16 50 -20 76c-2 14 -1 27 -2 40c0 3 -4 29 -3 30c-11 -6 -21 -15 -33 -19c-6 -2 -26 -10 -30 -3c-9 13 -8 29 -5 44c2 10 10 10 19 11c20 0 43 15 49 35c6 27 7 61 4 89c-1 9 4 8 9 9c19 2 39 3 58 5c14 1 17 -7 14 -18
c-16 -61 -1 -121 -3 -182c0 -11 3 -22 7 -32c7 -19 20 -22 35 -8c8 8 14 17 18 27c2 4 3 10 9 10c5 -1 7 -5 8 -9z" />
    <glyph glyph-name="icircumflex" unicode="&#xee;" horiz-adv-x="298" 
d="M140 478c0 0 0 6 -6 0c-6 0 -6 0 -6 -6c-6 -12 -12 -30 -18 -42c0 -6 0 -12 -7 -12c-5 0 -17 0 -23 6v6c18 30 30 66 42 101c0 0 0 6 6 6s6 0 12 -6c18 -23 29 -53 47 -83c6 -6 6 -12 12 -18v-6c-6 -6 -18 -6 -24 -6c-6 -6 -6 0 -11 6c-6 18 -18 36 -24 54zM249 153
c7 -18 12 -38 28 -52c1 -1 1 -4 1 -6c1 -28 -32 -80 -59 -91c-11 -4 -23 -7 -34 -5c-39 0 -57 14 -70 49c-10 24 -16 50 -20 76c-2 14 -1 27 -2 40c0 3 -4 29 -3 30c-11 -6 -21 -15 -33 -19c-6 -2 -26 -10 -30 -3c-9 13 -8 29 -5 44c2 10 10 10 19 11c20 0 43 15 49 35
c6 27 7 61 4 89c-1 9 4 8 9 9c19 2 39 3 58 5c14 1 17 -7 14 -18c-16 -61 -1 -121 -3 -182c0 -11 3 -22 7 -32c7 -19 20 -22 35 -8c8 8 14 17 18 27c2 4 3 10 9 10c5 -1 7 -5 8 -9z" />
    <glyph glyph-name="idieresis" unicode="&#xef;" horiz-adv-x="298" 
d="M229 469c0 -23 -15 -38 -38 -38c-22 0 -38 15 -38 30s16 38 31 38s45 -23 45 -30zM131 454c-8 -16 -23 -23 -46 -23c-15 0 -31 7 -38 23c-8 22 15 45 45 38h8c23 -8 31 -23 31 -38zM249 153c7 -18 12 -38 28 -52c1 -1 1 -4 1 -6c1 -28 -32 -80 -59 -91
c-11 -4 -23 -7 -34 -5c-39 0 -57 14 -70 49c-10 24 -16 50 -20 76c-2 14 -1 27 -2 40c0 3 -4 29 -3 30c-11 -6 -21 -15 -33 -19c-6 -2 -26 -10 -30 -3c-9 13 -8 29 -5 44c2 10 10 10 19 11c20 0 43 15 49 35c6 27 7 61 4 89c-1 9 4 8 9 9c19 2 39 3 58 5c14 1 17 -7 14 -18
c-16 -61 -1 -121 -3 -182c0 -11 3 -22 7 -32c7 -19 20 -22 35 -8c8 8 14 17 18 27c2 4 3 10 9 10c5 -1 7 -5 8 -9z" />
    <glyph glyph-name="igrave" unicode="&#xec;" horiz-adv-x="298" 
d="M159 416c8 16 16 24 8 40c-24 24 -32 48 -48 71c0 8 -7 8 -15 16c-8 -8 -25 -16 -33 -16c-8 -7 0 -15 8 -23c25 -24 40 -48 56 -72c0 -8 8 -23 24 -16zM249 153c7 -18 12 -38 28 -52c1 -1 1 -4 1 -6c1 -28 -32 -80 -59 -91c-11 -4 -23 -7 -34 -5c-39 0 -57 14 -70 49
c-10 24 -16 50 -20 76c-2 14 -1 27 -2 40c0 3 -4 29 -3 30c-11 -6 -21 -15 -33 -19c-6 -2 -26 -10 -30 -3c-9 13 -8 29 -5 44c2 10 10 10 19 11c20 0 43 15 49 35c6 27 7 61 4 89c-1 9 4 8 9 9c19 2 39 3 58 5c14 1 17 -7 14 -18c-16 -61 -1 -121 -3 -182c0 -11 3 -22 7 -32
c7 -19 20 -22 35 -8c8 8 14 17 18 27c2 4 3 10 9 10c5 -1 7 -5 8 -9z" />
    <glyph glyph-name="j" unicode="j" horiz-adv-x="287" 
d="M192 393c-13 -8 -31 -3 -40 8c-18 23 -9 73 16 88c12 7 35 0 43 -13c7 -11 10 -24 9 -39c2 -20 -11 -34 -28 -44zM200 349c17 -82 35 -163 51 -245c11 -55 17 -110 15 -148c-1 -79 -5 -140 -27 -199c-12 -33 -37 -59 -68 -75c-26 -13 -53 -4 -75 11
c-63 43 -81 106 -76 179c0 12 5 15 17 14c10 0 21 1 31 3c14 2 19 -1 19 -17c1 -28 -1 -57 15 -83c13 -21 33 -25 51 -8c6 6 10 12 14 19c33 75 45 153 36 235c-5 50 -8 102 -17 152c-4 21 -9 42 -14 63c-2 9 -5 15 -14 4c-27 -33 -63 -55 -97 -81c-16 -12 -19 -10 -24 10
c-1 1 -1 2 -1 4c-3 10 -12 21 -8 31s18 4 28 8c47 17 89 75 90 125c0 3 -1 7 1 8c12 8 26 3 40 3c8 0 11 -4 13 -13z" />
    <glyph glyph-name="k" unicode="k" horiz-adv-x="401" 
d="M237 401c17 9 34 11 49 1s23 -26 20 -45c-6 -37 -21 -70 -43 -100c-5 -8 -15 -15 6 -17c20 -2 32 -18 35 -41c2 -21 -2 -43 -8 -63c-4 -18 -5 -36 -5 -54c0 -9 1 -18 12 -22c10 -3 18 0 26 8c9 10 16 20 22 32c5 11 11 8 14 0c6 -18 11 -37 16 -56c1 -4 0 -8 -4 -11
c-19 -18 -38 -38 -64 -48c-35 -15 -64 4 -65 42c-1 26 3 52 7 78c2 13 3 25 1 37c-3 24 -18 34 -41 29c-38 -8 -59 -33 -57 -72c1 -27 2 -53 4 -79c1 -11 -2 -18 -14 -18c0 0 -1 -1 -2 -1c-41 -12 -49 -6 -48 36c0 48 -3 97 1 146c4 35 2 70 2 105v118c0 5 2 11 -4 13
c-4 1 -7 -4 -10 -7c-37 -36 -27 -28 -59 3c-11 10 -11 16 0 28c37 38 58 84 59 138c0 14 5 19 19 18c13 0 25 -1 37 1c17 2 23 -5 23 -21c-2 -46 -2 -93 -6 -139c-2 -39 0 -79 -1 -118c0 -3 0 -7 1 -7c5 -1 5 3 7 6c16 33 38 61 70 80zM246 308c0 5 1 10 -5 12
c-6 3 -11 0 -15 -3c-30 -25 -52 -56 -67 -91c-1 -3 -1 -8 1 -9c3 -3 6 0 9 2c26 17 48 39 66 64c6 7 9 16 11 25z" />
    <glyph glyph-name="l" unicode="l" horiz-adv-x="240" 
d="M120 291c-10 -8 -16 -18 -17 -31c-4 -50 0 -98 5 -147c1 -6 2 -11 4 -16c3 -11 6 -23 19 -24c14 -1 22 8 29 18c11 19 12 40 9 60c-2 15 3 14 13 11c35 -13 39 -18 37 -56c-2 -30 -7 -60 -30 -84c-34 -35 -96 -29 -111 24c-13 48 -22 97 -21 147v27c0 15 2 32 -22 20
c-2 -1 -6 0 -8 1c-11 7 -10 48 2 52c26 8 32 26 34 52c6 65 18 130 47 190c5 11 11 20 18 30c10 18 26 26 45 22c19 -3 29 -18 34 -34c12 -44 13 -88 0 -133c-16 -52 -46 -94 -87 -129zM118 380c0 -5 -1 -10 0 -14c0 -5 11 7 12 7l10 15c8 11 14 22 19 35c10 25 14 53 16 80
c-1 6 2 20 -8 23c-11 3 -16 -10 -20 -20c-4 -8 -8 -17 -10 -27c-6 -19 -9 -38 -12 -58c-2 -13 -6 -27 -7 -41z" />
    <glyph glyph-name="m" unicode="m" horiz-adv-x="478" 
d="M268 305c9 15 23 27 36 39c16 15 36 25 57 14c19 -10 30 -29 32 -52c3 -48 -2 -95 -7 -143c-3 -28 -7 -57 -9 -85c-1 -8 -3 -19 6 -23c11 -5 18 4 24 10c5 5 9 10 12 15c3 4 3 12 9 10c3 0 5 -7 8 -12c1 -1 1 -3 2 -5c20 -46 10 -69 -39 -85c-36 -13 -57 -1 -64 37
c-6 34 -3 68 -1 103c1 28 3 57 2 85v7c-3 15 -4 34 -21 39c-18 5 -23 -14 -32 -26c-29 -40 -21 -86 -25 -130c-2 -30 -1 -59 0 -88c0 -13 -5 -18 -18 -17c-6 0 -12 2 -19 1c-25 0 -24 -1 -23 25c3 64 7 128 5 193c-1 15 -2 30 -9 44c-5 12 -15 15 -25 6
c-13 -11 -22 -22 -22 -40c-2 -37 -2 -74 -3 -120c1 -26 -1 -61 4 -96c2 -11 -4 -15 -14 -17c-5 0 -11 -1 -17 -1c-24 -1 -24 1 -26 25c-5 66 -4 132 -4 198c0 6 3 13 -4 16c-5 2 -8 -4 -12 -7c-31 -23 -31 -23 -39 15c-4 19 -3 31 17 43c29 18 49 46 52 82c3 26 22 15 34 17
c14 2 13 -11 14 -21c1 -12 -4 -25 3 -37c8 7 16 15 25 22c35 32 61 25 77 -19c2 -7 3 -14 5 -21c0 -2 -1 -6 3 -6c2 0 5 3 6 5z" />
    <glyph glyph-name="n" unicode="n" horiz-adv-x="379" 
d="M345 106c8 -14 12 -40 13 -50c4 -28 -22 -44 -48 -47c-108 -16 -84 162 -86 223c0 13 -3 24 -10 33c-14 19 -35 20 -50 3c-19 -21 -29 -46 -30 -75c-3 -46 4 -91 6 -136c0 -6 1 -11 2 -17c1 -31 -3 -36 -34 -36c-36 -1 -36 -1 -37 35c-1 50 -5 100 -5 149c0 4 2 8 -3 9
c-4 1 -5 -3 -7 -6l-5 -6c-6 -6 -13 -14 -20 -6c-6 6 -10 21 -11 29c-2 20 7 40 20 56c21 26 18 57 15 87c0 13 1 17 14 16c13 -2 27 -1 39 3c16 5 20 -3 22 -16c0 -4 -2 -11 3 -13c6 -2 8 6 11 10c24 31 63 43 96 30c19 -8 31 -21 37 -41c14 -44 6 -88 5 -132
c-1 -25 -25 -96 11 -108c17 -5 29 21 45 14c3 -1 5 -4 7 -8z" />
    <glyph glyph-name="ntilde" unicode="&#xf1;" horiz-adv-x="379" 
d="M187 476c7 -14 15 -14 28 -14c14 0 21 8 21 20c0 8 -7 15 14 15c6 0 12 0 12 -15v-6c0 -21 -12 -34 -40 -41c-20 0 -42 7 -49 27c-7 8 -14 14 -14 20c-13 15 -33 15 -42 0c-6 -6 -6 -6 -6 -12c-7 -15 -7 -15 -20 -8c-15 8 -15 8 -8 20c8 8 14 23 21 29c22 27 55 21 76 -6
c0 -8 7 -23 7 -29zM345 106c8 -14 12 -40 13 -50c4 -28 -22 -44 -48 -47c-108 -16 -84 162 -86 223c0 13 -3 24 -10 33c-14 19 -35 20 -50 3c-19 -21 -29 -46 -30 -75c-3 -46 4 -91 6 -136c0 -6 1 -11 2 -17c1 -31 -3 -36 -34 -36c-36 -1 -36 -1 -37 35c-1 50 -5 100 -5 149
c0 4 2 8 -3 9c-4 1 -5 -3 -7 -6l-5 -6c-6 -6 -13 -14 -20 -6c-6 6 -10 21 -11 29c-2 20 7 40 20 56c21 26 18 57 15 87c0 13 1 17 14 16c13 -2 27 -1 39 3c16 5 20 -3 22 -16c0 -4 -2 -11 3 -13c6 -2 8 6 11 10c24 31 63 43 96 30c19 -8 31 -21 37 -41c14 -44 6 -88 5 -132
c-1 -25 -25 -96 11 -108c17 -5 29 21 45 14c3 -1 5 -4 7 -8z" />
    <glyph glyph-name="o" unicode="o" horiz-adv-x="355" 
d="M291 357l7 -3c11 -7 40 -12 37 -28c-4 -27 -24 -45 -35 -68c-9 -18 -6 -37 -3 -56c10 -58 -4 -110 -41 -157c-29 -36 -77 -51 -122 -45c-35 5 -68 23 -88 52c-11 17 -15 37 -21 56c-7 26 -6 54 -3 81c5 36 13 73 32 105c44 72 121 81 186 49c9 -4 17 -18 24 -17
c9 1 11 16 15 25c3 6 7 7 12 6zM150 290c-2 -15 33 -20 42 -19c7 1 14 6 11 14s-14 10 -20 13c-3 2 -8 3 -12 3c-9 0 -19 -1 -21 -11zM220 101c8 23 16 45 15 69v23c0 11 -3 16 -16 14c-40 -6 -77 5 -110 28c-9 6 -12 3 -15 -5c-18 -46 -23 -93 4 -138c15 -26 41 -34 69 -33
c27 1 45 16 53 42z" />
    <glyph glyph-name="oacute" unicode="&#xf3;" horiz-adv-x="355" 
d="M194 426c-8 0 -8 -8 -16 -8c-8 8 -15 8 -24 16c-7 8 0 16 9 24c7 24 31 47 47 79c0 0 8 8 16 0c0 -8 15 -8 15 -16c-7 -16 -15 -23 -15 -32c-16 -15 -24 -39 -32 -63zM291 357l7 -3c11 -7 40 -12 37 -28c-4 -27 -24 -45 -35 -68c-9 -18 -6 -37 -3 -56
c10 -58 -4 -110 -41 -157c-29 -36 -77 -51 -122 -45c-35 5 -68 23 -88 52c-11 17 -15 37 -21 56c-7 26 -6 54 -3 81c5 36 13 73 32 105c44 72 121 81 186 49c9 -4 17 -18 24 -17c9 1 11 16 15 25c3 6 7 7 12 6zM150 290c-2 -15 33 -20 42 -19c7 1 14 6 11 14s-14 10 -20 13
c-3 2 -8 3 -12 3c-9 0 -19 -1 -21 -11zM220 101c8 23 16 45 15 69v23c0 11 -3 16 -16 14c-40 -6 -77 5 -110 28c-9 6 -12 3 -15 -5c-18 -46 -23 -93 4 -138c15 -26 41 -34 69 -33c27 1 45 16 53 42z" />
    <glyph glyph-name="ocircumflex" unicode="&#xf4;" horiz-adv-x="355" 
d="M182 479c0 0 0 7 -7 0c-7 0 -7 0 -7 -7c-7 -15 -14 -36 -21 -50c0 -7 0 -14 -8 -14c-7 0 -21 0 -28 7v7c21 35 36 78 50 120c0 0 0 7 7 7s7 0 14 -7c21 -28 35 -63 56 -99c7 -7 7 -14 14 -21v-7c-7 -7 -21 -7 -28 -7c-7 -7 -7 0 -14 7c-7 21 -21 42 -28 64zM291 357l7 -3
c11 -7 40 -12 37 -28c-4 -27 -24 -45 -35 -68c-9 -18 -6 -37 -3 -56c10 -58 -4 -110 -41 -157c-29 -36 -77 -51 -122 -45c-35 5 -68 23 -88 52c-11 17 -15 37 -21 56c-7 26 -6 54 -3 81c5 36 13 73 32 105c44 72 121 81 186 49c9 -4 17 -18 24 -17c9 1 11 16 15 25
c3 6 7 7 12 6zM150 290c-2 -15 33 -20 42 -19c7 1 14 6 11 14s-14 10 -20 13c-3 2 -8 3 -12 3c-9 0 -19 -1 -21 -11zM220 101c8 23 16 45 15 69v23c0 11 -3 16 -16 14c-40 -6 -77 5 -110 28c-9 6 -12 3 -15 -5c-18 -46 -23 -93 4 -138c15 -26 41 -34 69 -33
c27 1 45 16 53 42z" />
    <glyph glyph-name="odieresis" unicode="&#xf6;" horiz-adv-x="355" 
d="M271 462c0 -23 -15 -38 -38 -38c-22 0 -38 15 -38 30s16 38 31 38s45 -23 45 -30zM173 447c-8 -16 -23 -23 -46 -23c-15 0 -31 7 -38 23c-8 22 15 45 45 38h8c23 -8 31 -23 31 -38zM291 357l7 -3c11 -7 40 -12 37 -28c-4 -27 -24 -45 -35 -68c-9 -18 -6 -37 -3 -56
c10 -58 -4 -110 -41 -157c-29 -36 -77 -51 -122 -45c-35 5 -68 23 -88 52c-11 17 -15 37 -21 56c-7 26 -6 54 -3 81c5 36 13 73 32 105c44 72 121 81 186 49c9 -4 17 -18 24 -17c9 1 11 16 15 25c3 6 7 7 12 6zM150 290c-2 -15 33 -20 42 -19c7 1 14 6 11 14s-14 10 -20 13
c-3 2 -8 3 -12 3c-9 0 -19 -1 -21 -11zM220 101c8 23 16 45 15 69v23c0 11 -3 16 -16 14c-40 -6 -77 5 -110 28c-9 6 -12 3 -15 -5c-18 -46 -23 -93 4 -138c15 -26 41 -34 69 -33c27 1 45 16 53 42z" />
    <glyph glyph-name="ograve" unicode="&#xf2;" horiz-adv-x="355" 
d="M227 416c8 16 16 24 8 40c-24 24 -32 48 -48 71c0 8 -7 8 -15 16c-8 -8 -25 -16 -33 -16c-8 -7 0 -15 8 -23c25 -24 40 -48 56 -72c0 -8 8 -23 24 -16zM291 357l7 -3c11 -7 40 -12 37 -28c-4 -27 -24 -45 -35 -68c-9 -18 -6 -37 -3 -56c10 -58 -4 -110 -41 -157
c-29 -36 -77 -51 -122 -45c-35 5 -68 23 -88 52c-11 17 -15 37 -21 56c-7 26 -6 54 -3 81c5 36 13 73 32 105c44 72 121 81 186 49c9 -4 17 -18 24 -17c9 1 11 16 15 25c3 6 7 7 12 6zM150 290c-2 -15 33 -20 42 -19c7 1 14 6 11 14s-14 10 -20 13c-3 2 -8 3 -12 3
c-9 0 -19 -1 -21 -11zM220 101c8 23 16 45 15 69v23c0 11 -3 16 -16 14c-40 -6 -77 5 -110 28c-9 6 -12 3 -15 -5c-18 -46 -23 -93 4 -138c15 -26 41 -34 69 -33c27 1 45 16 53 42z" />
    <glyph glyph-name="oslash" unicode="&#xf8;" horiz-adv-x="355" 
d="M335 326c-4 -27 -24 -45 -35 -68c-9 -18 -6 -37 -3 -56c10 -58 -4 -110 -41 -157c-27 -34 -71 -49 -114 -46v-2c-6 -7 -6 -20 -13 -20c-6 -7 -26 -7 -33 0c-5 4 0 19 6 31c-22 9 -42 24 -56 44c-11 17 -15 37 -21 56c-7 26 -6 54 -3 81c5 36 13 73 32 105
c33 53 84 72 134 65c4 15 8 29 14 43c0 7 0 7 13 7c27 0 27 0 20 -27l-10 -32c5 -2 10 -5 15 -7c9 -4 17 -18 24 -17c9 1 11 16 15 25c3 6 7 7 12 6l7 -3c11 -7 40 -12 37 -28zM150 290c-1 -8 9 -13 19 -16l7 27h-5c-9 0 -19 -1 -21 -11zM94 230c-18 -46 -23 -93 4 -138
c6 -11 14 -18 23 -23c6 18 11 36 15 54l19 89c-16 5 -31 13 -46 23c-9 6 -12 3 -15 -5zM220 101c8 23 16 45 15 69v23c0 11 -3 16 -16 14c-10 -1 -19 -2 -28 -1c-8 -37 -15 -73 -29 -110l-7 -37h12c27 1 45 16 53 42z" />
    <glyph glyph-name="otilde" unicode="&#xf5;" horiz-adv-x="355" 
d="M210 449c7 -14 15 -14 28 -14c14 0 21 8 21 20c0 8 -7 15 14 15c6 0 12 0 12 -15v-6c0 -21 -12 -34 -40 -41c-20 0 -42 7 -49 27c-7 8 -14 14 -14 20c-13 15 -33 15 -42 0c-6 -6 -6 -6 -6 -12c-7 -15 -7 -15 -20 -8c-15 8 -15 8 -8 20c8 8 14 23 21 29c22 27 55 21 76 -6
c0 -8 7 -23 7 -29zM291 357l7 -3c11 -7 40 -12 37 -28c-4 -27 -24 -45 -35 -68c-9 -18 -6 -37 -3 -56c10 -58 -4 -110 -41 -157c-29 -36 -77 -51 -122 -45c-35 5 -68 23 -88 52c-11 17 -15 37 -21 56c-7 26 -6 54 -3 81c5 36 13 73 32 105c44 72 121 81 186 49
c9 -4 17 -18 24 -17c9 1 11 16 15 25c3 6 7 7 12 6zM150 290c-2 -15 33 -20 42 -19c7 1 14 6 11 14s-14 10 -20 13c-3 2 -8 3 -12 3c-9 0 -19 -1 -21 -11zM220 101c8 23 16 45 15 69v23c0 11 -3 16 -16 14c-40 -6 -77 5 -110 28c-9 6 -12 3 -15 -5c-18 -46 -23 -93 4 -138
c15 -26 41 -34 69 -33c27 1 45 16 53 42z" />
    <glyph glyph-name="oe" unicode="&#x153;" horiz-adv-x="559" 
d="M518 167l18 -25c2 -3 4 -6 3 -10c-19 -49 -37 -98 -91 -120c-73 -32 -143 -1 -168 70c-7 -13 -15 -25 -24 -37c-29 -36 -77 -51 -122 -45c-35 5 -68 23 -88 52c-11 17 -15 37 -21 56c-7 26 -6 54 -3 81c5 36 13 73 32 105c44 72 121 81 186 49c9 -4 17 -18 24 -17
c9 1 11 16 15 25c3 6 7 7 12 6l7 -3c6 -4 18 -7 26 -12c39 32 98 41 146 7c26 -18 33 -49 18 -77c-12 -25 -31 -45 -54 -61c-29 -21 -58 -40 -88 -59c-9 -6 -8 -11 -4 -19c23 -40 88 -49 119 -16c14 15 26 31 35 49c8 16 12 16 22 1zM354 234c-2 -4 1 -7 5 -5
c27 12 55 24 72 50c9 14 -1 28 -19 29c-6 -1 -13 -3 -20 -8c-21 -17 -28 -42 -38 -66zM150 290c-2 -15 33 -20 42 -19c7 1 14 6 11 14s-14 10 -20 13c-3 2 -8 3 -12 3c-9 0 -19 -1 -21 -11zM220 101c8 23 16 45 15 69v23c0 11 -3 16 -16 14c-40 -6 -77 5 -110 28
c-9 6 -12 3 -15 -5c-18 -46 -23 -93 4 -138c15 -26 41 -34 69 -33c27 1 45 16 53 42z" />
    <glyph glyph-name="p" unicode="p" horiz-adv-x="406" 
d="M376 272c5 -6 9 -16 10 -21c2 -10 -2 -21 -6 -30c-9 -24 -25 -42 -43 -60c-16 -15 -28 -25 -30 -48c-2 -20 -8 -38 -17 -55c-11 -22 -18 -38 -40 -49c-15 -7 -28 -7 -43 -5c-23 3 -36 17 -41 39c-3 11 -1 25 2 35c7 18 25 39 41 49c5 2 10 5 15 7c27 13 27 13 25 43
c-2 31 -9 60 -20 89c-14 34 -50 45 -74 25c-10 -9 -14 -22 -18 -35c-6 -21 -8 -43 -6 -65l12 -192l9 -161c2 -44 -2 -89 -15 -133l-3 -10c-3 -20 -22 -52 -40 -50c-19 1 -38 7 -54 17c-4 3 -34 30 -13 29c37 -1 40 1 51 37c12 40 10 82 11 130c-2 46 -5 93 -9 141
c-3 45 -7 92 -11 138c-5 68 -13 135 -23 202c-1 6 -2 12 -4 19c-5 18 -3 21 17 18c13 -2 26 -4 39 2c8 3 13 0 14 -9c1 -2 1 -4 1 -6c2 -8 -2 -21 4 -23c7 -3 11 9 16 15c42 39 107 30 140 -16c17 -24 27 -52 32 -80c3 -14 5 -28 5 -42c1 -7 -2 -30 6 -33c8 -2 12 8 17 14
c14 20 23 42 26 66c0 5 -1 11 5 13c4 2 9 -1 12 -5zM222 89c-5 -4 -9 -9 -10 -13c-3 -7 3 -19 11 -22c15 -4 25 24 24 36c-1 15 -15 8 -25 -1z" />
    <glyph glyph-name="q" unicode="q" horiz-adv-x="429" 
d="M403 -183c0 -2 0 -3 1 -4c8 -28 8 -26 -16 -43c-28 -20 -57 -41 -78 -70c-4 -5 -7 -10 -13 -12c-5 -10 -9 -19 -14 -28c-4 -6 -5 -11 -11 -14c-7 -3 -13 -3 -20 -3c-25 2 -23 27 -18 46c-2 2 -1 6 -2 9c-2 46 -5 92 -5 138c0 13 -1 26 -3 38c-4 30 -1 60 -1 89
c0 13 -3 26 -3 39v44c0 6 2 14 -3 16c-6 2 -10 -6 -13 -11c-19 -30 -47 -39 -81 -38c-43 3 -78 29 -91 70c-25 83 -11 161 26 235c23 46 97 67 147 44c7 -3 16 -12 15 7c0 9 7 9 13 8l37 -3c16 0 23 -8 22 -23c-3 -38 -7 -75 -9 -112c-6 -120 -4 -241 -5 -361
c0 -27 2 -54 2 -81c0 -18 7 -17 18 -9c17 13 36 23 56 32c9 4 19 6 30 8c9 2 16 -2 19 -11zM210 210c1 5 2 10 2 15c1 23 -12 44 -25 60c-10 13 -28 15 -44 7c-13 -6 -24 -16 -32 -28c-20 -26 -24 -57 -24 -91l3 -33c4 -25 21 -39 43 -45c21 -6 32 11 44 25
c9 10 15 23 19 36c5 18 12 36 14 54z" />
    <glyph glyph-name="r" unicode="r" horiz-adv-x="276" 
d="M121 349c51 45 108 19 130 -19c4 -6 7 -11 3 -19c-10 -17 -15 -37 -19 -56c-1 -5 -2 -10 -8 -11c-5 0 -6 5 -9 8c-23 33 -57 35 -84 3c-24 -29 -33 -63 -33 -100c0 -36 7 -71 12 -107c2 -19 12 -52 -16 -55c-18 -1 -59 -6 -63 19c-5 34 -2 67 -1 101
c-4 82 -8 163 -13 245c-1 13 2 17 14 18s24 2 35 4c15 2 20 -6 21 -19c1 -12 -3 -29 6 -33c9 -3 17 13 25 21z" />
    <glyph glyph-name="s" unicode="s" horiz-adv-x="325" 
d="M243 229c94 -62 69 -162 3 -213c-19 -15 -41 -20 -65 -20c-43 7 -84 16 -120 43c-26 19 -33 50 -38 80c-7 44 -7 44 38 50c5 0 10 2 14 2c13 1 21 -1 25 -17c6 -33 31 -52 61 -63c19 -6 38 5 49 26c13 26 8 59 -12 81s-47 36 -73 50c-15 9 -30 19 -45 30
c-38 29 -28 78 10 100c39 23 104 15 133 -31c4 -6 7 -13 8 -21c3 -10 0 -15 -12 -15c-8 1 -17 0 -25 0c-11 -1 -19 2 -22 14c-3 15 -13 18 -26 14c-15 -5 -22 -21 -16 -33c9 -19 25 -32 43 -41c23 -13 48 -21 70 -36z" />
    <glyph glyph-name="t" unicode="t" horiz-adv-x="293" 
d="M82 597c-2 25 -2 25 23 27c46 4 46 14 40 -41c-8 -76 -6 -153 -8 -229c0 -12 5 -16 17 -12c12 3 24 5 35 12c14 11 18 2 20 -10v-4c6 -51 2 -58 -49 -65c-20 -3 -24 -10 -23 -28c1 -45 1 -90 17 -133c5 -16 10 -34 28 -35c21 -1 26 19 32 34c11 28 7 57 6 86
c-1 15 3 19 18 18c37 -3 36 -2 35 -39c-1 -40 -5 -79 -22 -115c-2 -6 -5 -13 -9 -18c-19 -26 -41 -47 -76 -41c-33 6 -47 33 -55 61c-10 34 -13 70 -16 105c-1 16 -2 32 -1 48c1 15 3 31 -3 45c-8 18 -28 25 -45 30c-28 6 -27 10 -26 40c1 14 1 29 1 43c1 7 0 15 9 17
c8 3 10 -5 14 -9c9 -10 18 -20 28 -30c4 -4 9 -7 15 -4c5 2 4 8 4 13c4 41 -3 81 -4 122c-1 37 -3 75 -5 112z" />
    <glyph glyph-name="u" unicode="u" horiz-adv-x="346" 
d="M156 331c-2 11 -1 15 10 18c17 5 34 4 52 4c13 1 11 -13 11 -22c-1 -34 -4 -68 -5 -102c-1 -40 -2 -81 6 -122l3 -12c4 -13 7 -28 24 -30c16 -1 26 11 35 23c4 5 3 18 10 18c10 -1 14 -13 17 -22c15 -34 4 -64 -30 -82c-35 -18 -67 -10 -86 23c-8 13 -12 17 -24 3
c-17 -19 -41 -25 -66 -28c-20 -2 -37 7 -51 23c-26 30 -35 67 -37 105c-1 35 -6 69 -5 87c0 52 1 88 0 123c0 13 6 17 18 16c33 0 33 0 33 -33c-1 -66 -3 -132 4 -197c2 -13 3 -26 9 -38c10 -20 27 -24 45 -11c31 21 40 53 40 87c0 57 -4 113 -13 169z" />
    <glyph glyph-name="uacute" unicode="&#xfa;" horiz-adv-x="346" 
d="M139 420c-8 0 -8 -8 -16 -8c-8 8 -15 8 -24 16c-7 8 0 16 9 24c7 24 31 47 47 79c0 0 8 8 16 0c0 -8 15 -8 15 -16c-7 -16 -15 -23 -15 -32c-16 -15 -24 -39 -32 -63zM156 331c-2 11 -1 15 10 18c17 5 34 4 52 4c13 1 11 -13 11 -22c-1 -34 -4 -68 -5 -102
c-1 -40 -2 -81 6 -122l3 -12c4 -13 7 -28 24 -30c16 -1 26 11 35 23c4 5 3 18 10 18c10 -1 14 -13 17 -22c15 -34 4 -64 -30 -82c-35 -18 -67 -10 -86 23c-8 13 -12 17 -24 3c-17 -19 -41 -25 -66 -28c-20 -2 -37 7 -51 23c-26 30 -35 67 -37 105c-1 35 -6 69 -5 87
c0 52 1 88 0 123c0 13 6 17 18 16c33 0 33 0 33 -33c-1 -66 -3 -132 4 -197c2 -13 3 -26 9 -38c10 -20 27 -24 45 -11c31 21 40 53 40 87c0 57 -4 113 -13 169z" />
    <glyph glyph-name="ucircumflex" unicode="&#xfb;" horiz-adv-x="346" 
d="M124 484c0 0 0 7 -7 0c-7 0 -7 0 -7 -7c-7 -15 -14 -36 -21 -50c0 -7 0 -14 -8 -14c-7 0 -21 0 -28 7v7c21 35 36 78 50 120c0 0 0 7 7 7s7 0 14 -7c21 -28 35 -63 56 -99c7 -7 7 -14 14 -21v-7c-7 -7 -21 -7 -28 -7c-7 -7 -7 0 -14 7c-7 21 -21 42 -28 64zM156 331
c-2 11 -1 15 10 18c17 5 34 4 52 4c13 1 11 -13 11 -22c-1 -34 -4 -68 -5 -102c-1 -40 -2 -81 6 -122l3 -12c4 -13 7 -28 24 -30c16 -1 26 11 35 23c4 5 3 18 10 18c10 -1 14 -13 17 -22c15 -34 4 -64 -30 -82c-35 -18 -67 -10 -86 23c-8 13 -12 17 -24 3
c-17 -19 -41 -25 -66 -28c-20 -2 -37 7 -51 23c-26 30 -35 67 -37 105c-1 35 -6 69 -5 87c0 52 1 88 0 123c0 13 6 17 18 16c33 0 33 0 33 -33c-1 -66 -3 -132 4 -197c2 -13 3 -26 9 -38c10 -20 27 -24 45 -11c31 21 40 53 40 87c0 57 -4 113 -13 169z" />
    <glyph glyph-name="udieresis" unicode="&#xfc;" horiz-adv-x="346" 
d="M213 471c0 -23 -15 -38 -38 -38c-22 0 -38 15 -38 30s16 38 31 38s45 -23 45 -30zM115 456c-8 -16 -23 -23 -46 -23c-15 0 -31 7 -38 23c-8 22 15 45 45 38h8c23 -8 31 -23 31 -38zM156 331c-2 11 -1 15 10 18c17 5 34 4 52 4c13 1 11 -13 11 -22c-1 -34 -4 -68 -5 -102
c-1 -40 -2 -81 6 -122l3 -12c4 -13 7 -28 24 -30c16 -1 26 11 35 23c4 5 3 18 10 18c10 -1 14 -13 17 -22c15 -34 4 -64 -30 -82c-35 -18 -67 -10 -86 23c-8 13 -12 17 -24 3c-17 -19 -41 -25 -66 -28c-20 -2 -37 7 -51 23c-26 30 -35 67 -37 105c-1 35 -6 69 -5 87
c0 52 1 88 0 123c0 13 6 17 18 16c33 0 33 0 33 -33c-1 -66 -3 -132 4 -197c2 -13 3 -26 9 -38c10 -20 27 -24 45 -11c31 21 40 53 40 87c0 57 -4 113 -13 169z" />
    <glyph glyph-name="ugrave" unicode="&#xf9;" horiz-adv-x="346" 
d="M147 409c8 16 16 24 8 40c-24 24 -32 48 -48 71c0 8 -7 8 -15 16c-8 -8 -25 -16 -33 -16c-8 -7 0 -15 8 -23c25 -24 40 -48 56 -72c0 -8 8 -23 24 -16zM156 331c-2 11 -1 15 10 18c17 5 34 4 52 4c13 1 11 -13 11 -22c-1 -34 -4 -68 -5 -102c-1 -40 -2 -81 6 -122l3 -12
c4 -13 7 -28 24 -30c16 -1 26 11 35 23c4 5 3 18 10 18c10 -1 14 -13 17 -22c15 -34 4 -64 -30 -82c-35 -18 -67 -10 -86 23c-8 13 -12 17 -24 3c-17 -19 -41 -25 -66 -28c-20 -2 -37 7 -51 23c-26 30 -35 67 -37 105c-1 35 -6 69 -5 87c0 52 1 88 0 123c0 13 6 17 18 16
c33 0 33 0 33 -33c-1 -66 -3 -132 4 -197c2 -13 3 -26 9 -38c10 -20 27 -24 45 -11c31 21 40 53 40 87c0 57 -4 113 -13 169z" />
    <glyph glyph-name="v" unicode="v" horiz-adv-x="363" 
d="M337 267c1 -17 1 -34 5 -50c4 -14 -1 -22 -17 -20c-12 2 -24 1 -35 5c-16 4 -21 0 -23 -16c-5 -43 -18 -84 -38 -122c-8 -15 -15 -31 -26 -44c-28 -31 -64 -33 -93 -4c-38 39 -63 85 -69 139c-5 54 -23 107 -21 162c0 47 0 46 45 46c16 0 22 -6 22 -21
c1 -46 7 -92 18 -136c6 -23 13 -45 25 -66c16 -28 38 -30 58 -5s35 52 43 83c3 9 1 15 -7 21c-22 19 -36 43 -42 71c-8 38 19 72 56 73c22 0 34 -8 41 -28c6 -17 6 -34 7 -52c1 -20 3 -21 22 -16c24 7 27 5 29 -20zM248 300c5 -2 4 5 5 10c-3 5 1 16 -10 18
c-4 1 -5 -5 -5 -9c0 -8 2 -16 10 -19z" />
    <glyph glyph-name="w" unicode="w" horiz-adv-x="381" 
d="M93 339c4 -12 0 -24 0 -37c-2 -56 -1 -112 6 -168c1 -10 4 -20 12 -28c12 -11 23 -9 29 6c8 22 9 44 3 66c-4 18 3 20 18 18c12 -2 25 -4 37 -3s15 -4 13 -14c-3 -18 -4 -36 -3 -54c1 -7 1 -14 3 -21c5 -15 16 -24 31 -27c14 -3 24 6 31 16c17 23 27 50 28 78
c2 65 -9 127 -53 179c-10 12 -21 24 -35 31c-11 6 -13 11 -5 21c8 11 16 24 24 36c12 15 16 15 29 0c21 -24 40 -50 52 -81c34 -88 47 -179 32 -273c-4 -20 -12 -38 -22 -56c-26 -43 -70 -50 -109 -17c-10 9 -18 19 -28 28c-7 -10 -14 -21 -22 -31c-22 -25 -53 -26 -77 -3
c-29 28 -37 65 -42 104c-6 42 -10 83 -8 115c-1 45 -1 80 -6 114c-2 11 3 13 11 13c13 0 26 -1 39 0c9 0 10 -5 12 -12z" />
    <glyph glyph-name="x" unicode="x" horiz-adv-x="263" 
d="M35 338c-9 10 -8 16 6 20c57 16 50 28 93 -26c2 -4 5 -7 7 -10c5 -10 10 -10 17 -2c13 15 28 29 43 42c11 8 18 7 24 -6c14 -34 15 -33 -15 -56c-9 -7 -16 -15 -24 -22s-9 -15 -5 -24c35 -76 48 -158 61 -239c3 -15 -1 -21 -17 -21c-48 -3 -49 -4 -59 43
c-10 45 -25 88 -41 131c-1 4 -2 9 -7 9c-4 0 -5 -5 -7 -9c-21 -43 -34 -95 -34 -141c-2 -8 6 -21 -5 -26c-13 -6 -29 -9 -44 -9c-12 0 -7 13 -6 20c6 44 12 88 30 129c13 30 21 62 38 90c6 9 3 17 -2 25c-17 28 -31 57 -53 82z" />
    <glyph glyph-name="y" unicode="y" horiz-adv-x="413" 
d="M316 365c12 -62 18 -125 32 -186c10 -46 27 -90 35 -137c6 -40 10 -79 9 -118c-1 -57 -12 -113 -40 -167c-35 -70 -95 -95 -169 -92c-24 1 -48 6 -72 11c-56 13 -95 57 -91 105c5 61 33 108 88 137l12 6c23 10 46 16 71 22c19 4 20 -10 23 -22c2 -12 2 -21 -14 -23
c-41 -5 -73 -28 -98 -58c-27 -31 -21 -78 9 -106c57 -53 161 -25 192 34c25 49 36 100 37 153c0 21 -1 42 -3 63c-4 37 -12 72 -19 108c-1 5 -2 12 -6 13c-6 0 -5 -7 -6 -11c-8 -22 -12 -44 -27 -63c-14 -19 -33 -32 -54 -40c-26 -10 -49 -4 -69 15c-22 21 -34 46 -41 75
c-18 76 -21 152 -12 229l6 45c2 10 6 16 17 14c3 -1 5 0 8 0c30 -1 33 -5 29 -35c-6 -48 -7 -95 -1 -143c2 -23 11 -44 20 -65c6 -13 17 -17 30 -12c18 8 30 21 37 39c12 28 10 57 11 78c3 42 1 75 -13 106c-4 10 -3 16 9 20c15 3 29 9 43 15c12 5 15 2 17 -10z" />
    <glyph glyph-name="yacute" unicode="&#xfd;" horiz-adv-x="413" 
d="M229 457c-8 0 -8 -8 -16 -8c-8 8 -15 8 -24 16c-7 8 0 16 9 24c7 24 31 47 47 79c0 0 8 8 16 0c0 -8 15 -8 15 -16c-7 -16 -15 -23 -15 -32c-16 -15 -24 -39 -32 -63zM316 365c12 -62 18 -125 32 -186c10 -46 27 -90 35 -137c6 -40 10 -79 9 -118
c-1 -57 -12 -113 -40 -167c-35 -70 -95 -95 -169 -92c-24 1 -48 6 -72 11c-56 13 -95 57 -91 105c5 61 33 108 88 137l12 6c23 10 46 16 71 22c19 4 20 -10 23 -22c2 -12 2 -21 -14 -23c-41 -5 -73 -28 -98 -58c-27 -31 -21 -78 9 -106c57 -53 161 -25 192 34
c25 49 36 100 37 153c0 21 -1 42 -3 63c-4 37 -12 72 -19 108c-1 5 -2 12 -6 13c-6 0 -5 -7 -6 -11c-8 -22 -12 -44 -27 -63c-14 -19 -33 -32 -54 -40c-26 -10 -49 -4 -69 15c-22 21 -34 46 -41 75c-18 76 -21 152 -12 229l6 45c2 10 6 16 17 14c3 -1 5 0 8 0
c30 -1 33 -5 29 -35c-6 -48 -7 -95 -1 -143c2 -23 11 -44 20 -65c6 -13 17 -17 30 -12c18 8 30 21 37 39c12 28 10 57 11 78c3 42 1 75 -13 106c-4 10 -3 16 9 20c15 3 29 9 43 15c12 5 15 2 17 -10z" />
    <glyph glyph-name="ydieresis" unicode="&#xff;" horiz-adv-x="413" 
d="M307 490c0 -23 -15 -38 -38 -38c-22 0 -38 15 -38 30s16 38 31 38s45 -23 45 -30zM209 475c-8 -16 -23 -23 -46 -23c-15 0 -31 7 -38 23c-8 22 15 45 45 38h8c23 -8 31 -23 31 -38zM316 365c12 -62 18 -125 32 -186c10 -46 27 -90 35 -137c6 -40 10 -79 9 -118
c-1 -57 -12 -113 -40 -167c-35 -70 -95 -95 -169 -92c-24 1 -48 6 -72 11c-56 13 -95 57 -91 105c5 61 33 108 88 137l12 6c23 10 46 16 71 22c19 4 20 -10 23 -22c2 -12 2 -21 -14 -23c-41 -5 -73 -28 -98 -58c-27 -31 -21 -78 9 -106c57 -53 161 -25 192 34
c25 49 36 100 37 153c0 21 -1 42 -3 63c-4 37 -12 72 -19 108c-1 5 -2 12 -6 13c-6 0 -5 -7 -6 -11c-8 -22 -12 -44 -27 -63c-14 -19 -33 -32 -54 -40c-26 -10 -49 -4 -69 15c-22 21 -34 46 -41 75c-18 76 -21 152 -12 229l6 45c2 10 6 16 17 14c3 -1 5 0 8 0
c30 -1 33 -5 29 -35c-6 -48 -7 -95 -1 -143c2 -23 11 -44 20 -65c6 -13 17 -17 30 -12c18 8 30 21 37 39c12 28 10 57 11 78c3 42 1 75 -13 106c-4 10 -3 16 9 20c15 3 29 9 43 15c12 5 15 2 17 -10z" />
    <glyph glyph-name="z" unicode="z" horiz-adv-x="302" 
d="M273 62c3 -4 5 -8 7 -12c11 -23 -29 -33 -43 -39c-24 -10 -47 -10 -73 -9c-10 0 -20 1 -29 3c-8 2 -17 4 -25 1c-52 -16 -67 30 -55 68c9 32 27 72 40 103c12 32 28 59 38 92c-3 3 -5 7 -8 10c-23 27 -53 26 -73 -3c-2 -2 -3 -6 -7 -6c-6 0 -6 5 -7 9c-3 17 -8 33 -16 49
c-4 6 -1 11 2 16c19 32 68 55 112 16c6 -6 13 -18 19 -18c5 10 12 18 22 14s19 -7 29 -10s12 -8 8 -19c-12 -39 -26 -78 -40 -117l-21 -59c-6 -17 -16 -34 -17 -53c-3 -26 35 -30 53 -26c19 5 36 20 48 37c2 3 3 7 7 7c6 -1 6 -5 7 -9c3 -17 14 -31 22 -45z" />
    <glyph glyph-name="zero" unicode="0" horiz-adv-x="344" 
d="M304 317c-2 -63 -1 -140 -13 -216c-4 -25 -13 -47 -27 -67c-46 -68 -115 -41 -146 0c-18 23 -29 50 -38 78c-33 93 -46 189 -37 288c4 52 12 103 18 154c3 26 10 50 19 75c13 39 42 61 81 64c41 3 76 -12 101 -49c30 -43 30 -93 36 -141c7 -57 1 -115 6 -186zM147 132
c14 -27 36 -29 52 -3c16 25 28 53 32 83c10 58 16 116 15 175c-1 44 1 89 -6 132c-4 29 -6 58 -23 84c-27 40 -54 38 -76 -4c-21 -40 -26 -83 -29 -127c-6 -95 2 -189 18 -283c4 -20 8 -39 17 -57z" />
    <glyph glyph-name="one" unicode="1" horiz-adv-x="284" 
d="M230 690c3 -41 0 -83 -1 -124c-1 -34 -2 -67 -1 -103c-3 -93 8 -189 11 -285c2 -47 3 -93 5 -139v-11c-4 -29 -4 -29 -35 -29c-14 0 -27 0 -41 1c-12 2 -17 7 -17 19c-1 104 -6 207 -4 311c1 22 -1 43 -1 64c-1 10 -4 12 -13 8c-17 -9 -35 -18 -54 -22
c-12 -3 -20 -1 -24 12c-3 14 -11 27 -14 41s1 21 15 24c26 5 46 20 61 40c23 33 36 70 38 110c0 19 3 38 4 56c0 13 -6 35 2 46s30 6 42 6c25 0 25 0 27 -25z" />
    <glyph glyph-name="two" unicode="2" horiz-adv-x="454" 
d="M178 306c10 63 18 126 21 190c1 23 -2 45 -11 67c-5 14 -14 23 -30 24c-15 1 -27 -5 -35 -17c-14 -20 -14 -21 -29 -1c-10 12 -18 26 -30 37c-12 10 -10 20 -5 31c4 7 9 14 15 21c18 20 42 36 67 46c51 21 118 -16 134 -73c6 -20 8 -40 8 -61c-3 -67 -16 -132 -32 -197
c-7 -30 -15 -60 -23 -90c-2 -7 -4 -13 3 -18c23 -18 35 -43 44 -69c9 -23 18 -45 33 -65c16 -21 33 -24 55 -9c13 9 19 4 23 -8c10 -30 19 -59 27 -89c5 -15 -6 -20 -17 -24c-45 -19 -86 -5 -123 21c-28 19 -44 46 -49 79c-3 17 -7 34 -16 49c-3 6 -5 16 -12 15
c-7 0 -7 -10 -9 -16c-8 -30 -16 -59 -25 -88c-3 -11 -6 -21 -10 -32c-13 -30 -48 -36 -71 -13c-42 43 -45 96 -38 151c1 11 4 21 7 31c16 55 51 85 108 90c13 1 18 6 20 18zM148 173c1 5 4 11 -1 14s-10 0 -15 -3c-21 -16 -30 -37 -33 -63c1 -5 1 -12 3 -18
c2 -5 4 -13 11 -13c8 0 9 7 11 13c10 23 19 46 24 70z" />
    <glyph glyph-name="three" unicode="3" horiz-adv-x="389" 
d="M182 521l-9 -27c-3 -8 -2 -13 9 -13c65 3 103 -35 130 -88c52 -102 47 -204 -2 -305c-10 -23 -23 -44 -40 -63c-40 -45 -112 -40 -147 -8c-46 42 -77 93 -70 159c1 12 5 18 16 19c5 0 8 2 13 3c40 8 40 8 53 -31c8 -22 22 -39 42 -49s33 -7 45 11c26 39 36 83 36 121
c0 47 -8 83 -26 117c-19 33 -65 48 -93 13c-16 -19 -19 -17 -27 7c-7 27 -34 56 -10 82c19 21 43 46 40 77c-3 32 -32 45 -60 30c-21 -11 -21 -11 -29 12c-3 9 -4 18 -8 26c-10 16 -4 27 10 35c32 19 65 31 103 23c34 -7 47 -24 46 -58c0 -33 -12 -62 -22 -93z" />
    <glyph glyph-name="four" unicode="4" horiz-adv-x="340" 
d="M127 583v-22c3 -36 0 -72 -1 -107c0 -8 2 -16 2 -25c0 -10 5 -12 14 -12c19 1 39 4 58 1c10 -1 12 5 12 13c-1 15 0 30 -3 45c-12 69 -13 139 -29 208c-2 11 2 15 12 17l78 12c13 2 13 -7 13 -16c-1 -28 -1 -55 -2 -83c-5 -104 -7 -209 -4 -313c3 -80 8 -159 15 -239
c1 -17 7 -33 8 -51c1 -13 -2 -19 -16 -18l-60 3c-14 1 -12 11 -12 20c4 58 5 117 6 176c0 42 -6 84 -11 126c-1 12 -7 17 -19 19c-34 6 -68 4 -101 -3c-27 -5 -29 -4 -29 23c1 92 2 185 -9 278c-2 17 -5 34 -9 51c-2 13 3 19 16 20c18 2 35 3 52 5c12 1 12 -6 13 -14
c5 -38 4 -76 6 -114z" />
    <glyph glyph-name="five" unicode="5" horiz-adv-x="343" 
d="M146 114c27 -3 46 11 59 32c46 80 23 164 -22 219c-23 27 -56 37 -92 37c-27 0 -28 0 -27 25c2 80 -9 159 -12 238c0 11 -6 25 -2 36c5 16 16 9 30 10c44 1 87 8 131 10c16 1 21 -6 22 -20c0 -16 1 -32 3 -48c2 -15 -5 -20 -19 -19c-23 1 -47 3 -70 2
c-17 0 -23 -7 -21 -24l3 -47c1 -28 3 -55 2 -84c0 -12 3 -19 17 -21c24 -3 47 -13 68 -23c40 -19 61 -56 74 -96c19 -64 15 -130 3 -194c-8 -47 -28 -92 -62 -129c-26 -27 -54 -32 -89 -17c-51 23 -81 63 -93 117c-3 14 -6 28 -8 43c-2 11 3 18 15 19c6 0 11 1 17 1
c28 2 28 1 35 -25c6 -20 14 -38 38 -42z" />
    <glyph glyph-name="six" unicode="6" horiz-adv-x="383" 
d="M332 349c8 -67 18 -135 2 -200c-13 -56 -35 -111 -91 -142c-49 -27 -89 -16 -122 28c-60 80 -77 172 -79 268c-2 50 -3 100 1 149c7 88 41 160 125 201c20 9 41 17 62 23c24 7 31 1 29 -24c-2 -24 -5 -35 -36 -40c-43 -7 -77 -36 -99 -78c-13 -26 -23 -54 -30 -83
c-3 -14 -5 -28 -6 -43c-1 -8 -6 -48 10 -30c12 14 23 29 38 40c32 21 73 27 110 19c19 -3 38 -11 53 -22c21 -17 30 -41 33 -66zM267 122c29 60 32 125 24 190c-4 37 -49 74 -86 75c-58 2 -117 -59 -116 -129c3 -35 7 -79 22 -121c12 -33 46 -64 72 -65c38 0 68 18 84 50z
" />
    <glyph glyph-name="seven" unicode="7" horiz-adv-x="359" 
d="M58 702c26 2 53 3 79 4c12 1 24 3 36 1c10 -2 21 0 31 0h36c16 0 22 -9 25 -22c5 -21 1 -40 -2 -60c-10 -79 -17 -158 -19 -238c0 -17 5 -24 22 -22c6 1 11 0 17 0c29 0 41 -14 34 -44c-2 -9 -7 -14 -17 -14c-15 -1 -30 -3 -45 -3c-14 0 -18 -6 -20 -18
c-9 -69 -18 -137 -24 -206c-1 -20 -3 -39 -7 -58c-4 -26 -22 -36 -47 -26c-12 5 -18 13 -18 27c3 46 10 91 15 136c3 40 9 80 14 120c3 14 0 23 -17 20h-2c-43 1 -43 1 -46 43c0 9 2 13 11 14c14 3 29 3 43 2c14 0 21 5 22 19l9 105c4 47 8 94 5 141c-1 12 -4 18 -16 18
c-38 -1 -76 -1 -114 -9c-8 -2 -9 0 -11 7l-10 40c-5 15 -1 22 16 23z" />
    <glyph glyph-name="eight" unicode="8" horiz-adv-x="412" 
d="M41 164c-1 11 0 22 0 33c-2 63 19 120 44 175c18 39 38 76 63 110c7 10 5 18 -2 28c-20 30 -37 61 -44 97c-8 38 1 71 30 94c31 25 70 27 106 11c27 -12 32 -41 36 -67c5 -31 -4 -61 -18 -88c-17 -31 -17 -54 3 -86c50 -82 89 -169 108 -264c8 -40 6 -79 -4 -119
c-14 -54 -51 -89 -107 -94c-37 -3 -74 -2 -108 14c-66 31 -99 85 -107 156zM215 614c-1 12 -7 21 -19 21c-13 0 -17 -10 -17 -21c0 -15 7 -28 13 -41c2 -5 6 -7 9 -1c6 13 14 27 14 42zM197 435c-7 -9 -16 -16 -22 -26c-39 -62 -56 -129 -56 -193c-4 -35 1 -61 12 -86
c14 -32 39 -53 75 -58c34 -6 57 13 77 39c25 33 28 71 23 110c-7 48 -29 91 -50 134c-14 25 -30 50 -46 74c-2 4 -7 14 -13 6z" />
    <glyph glyph-name="nine" unicode="9" horiz-adv-x="381" 
d="M175 77c32 6 57 24 72 54c28 53 36 110 35 169c0 23 -3 47 -5 70c0 3 0 9 -2 9c-4 2 -5 -3 -6 -6c-29 -51 -91 -64 -143 -38c-56 29 -78 75 -82 135c-4 55 5 107 24 158c17 49 48 69 100 65c26 -1 51 -5 75 -15c12 -5 14 1 13 11c0 5 1 11 1 16c1 3 3 7 5 9
c19 11 54 -8 57 -32c9 -105 22 -209 21 -302c3 -88 -5 -163 -23 -237c-6 -27 -15 -54 -29 -79c-33 -62 -152 -102 -214 -16c-16 22 -26 46 -33 71c-3 11 0 19 11 23l8 3c35 14 35 14 50 -20c4 -10 9 -19 15 -28c12 -18 29 -25 50 -20zM263 583c-1 6 -4 10 -9 14
c-16 11 -31 23 -50 28c-26 8 -46 2 -64 -20c-29 -34 -36 -74 -36 -117v-25c1 -31 21 -62 46 -71c27 -9 59 -1 77 21c40 51 48 108 36 170z" />
    <glyph glyph-name="asterisk" unicode="*" horiz-adv-x="243" 
d="M87 566c10 4 5 18 6 28c2 12 -4 25 14 30c16 5 28 4 33 -12c3 -13 -8 -44 5 -51c6 -4 18 13 27 21c8 7 19 23 30 22c11 -2 17 -21 20 -30c3 -8 -3 -14 -10 -20c-19 -14 -36 -30 -54 -45c-10 -8 -11 -14 -1 -23c17 -16 33 -33 52 -48c8 -7 9 -12 2 -20
c-14 -18 -29 -31 -49 -10c-1 1 -26 28 -27 26c-2 -18 12 -60 -10 -65c-19 -5 -29 6 -33 24c-2 10 4 45 -6 49c-8 4 -14 -10 -20 -17c-3 -3 -7 -6 -11 -3c-12 8 -18 22 -23 36c-4 10 4 16 12 22c29 23 29 23 4 52c-7 8 -14 16 -21 23c-8 8 -9 15 -4 24c13 23 20 24 40 7
c1 -1 3 -3 5 -4c7 -5 12 -19 19 -16z" />
    <glyph glyph-name="backslash" unicode="\" horiz-adv-x="502" 
d="M27 623c15 5 31 9 43 12c17 0 24 -11 30 -21c26 -41 51 -84 77 -125c49 -80 95 -163 140 -245c44 -79 85 -160 132 -237c9 -14 17 -27 26 -40c10 -14 9 -24 -6 -32c-17 -10 -31 -10 -40 3c-5 8 -7 17 -11 25c-84 152 -164 306 -256 453c-40 65 -85 126 -129 188
c-2 3 -4 6 -7 7c-9 5 -7 10 1 12z" />
    <glyph glyph-name="colon" unicode=":" horiz-adv-x="132" 
d="M61 449c22 2 42 -22 44 -53c1 -21 -19 -45 -40 -47c-21 -1 -44 22 -45 46c-1 16 27 53 41 54zM76 247c21 -5 36 -28 36 -54c-1 -24 -13 -44 -31 -49c-31 -9 -61 19 -55 52c1 5 3 11 5 16c11 25 28 39 45 35z" />
    <glyph glyph-name="comma" unicode="," horiz-adv-x="141" 
d="M24 -5c-11 30 2 61 30 73c9 5 17 4 26 -3c27 -17 38 -61 41 -97c-1 -24 -4 -45 -17 -65c-2 -4 -4 -10 -10 -8c-7 3 -4 9 -2 14c7 19 7 38 1 57c-3 10 -5 16 -18 9c-22 -13 -43 -3 -51 20z" />
    <glyph glyph-name="exclam" unicode="!" horiz-adv-x="141" 
d="M92 148c-33 -1 -33 -1 -39 33c-23 122 -28 246 -31 369c-1 12 -1 24 -2 36c0 21 -1 43 1 64c1 12 5 17 17 18c17 1 33 1 50 4c15 3 22 -5 22 -21l3 -149c2 -111 0 -223 -2 -334c-1 -14 -5 -20 -19 -20zM83 -38c-15 3 -27 11 -31 27c-2 10 -3 20 -4 31c2 8 3 16 5 24
c9 25 32 31 51 13c17 -17 23 -55 11 -76c-7 -12 -17 -21 -32 -19z" />
    <glyph glyph-name="numbersign" unicode="#" horiz-adv-x="442" 
d="M276 500c0 8 3 10 12 9c20 -2 28 -9 27 -29c-1 -31 5 -62 4 -93c-1 -16 7 -21 21 -20c19 1 38 0 56 0c13 0 19 -5 19 -19c1 -37 1 -36 -35 -39c-9 0 -18 -1 -26 -4c-9 -2 -23 4 -26 -8c-4 -13 -2 -27 1 -41c3 -8 10 -6 16 -6c18 1 36 3 54 3c12 1 27 -27 22 -37
c-2 -5 -8 -4 -12 -5c-21 -1 -42 -3 -62 -4c-11 -1 -14 -5 -14 -16c3 -35 5 -71 8 -106c1 -12 1 -20 -17 -19c-35 0 -35 -2 -36 35c-1 28 -2 55 -2 83c0 12 -4 17 -17 17c-21 -1 -43 -2 -64 -2c-12 0 -16 -4 -15 -16c1 -24 2 -47 4 -71c1 -22 2 -45 4 -68
c2 -24 -17 -17 -28 -20c-16 -5 -13 8 -13 17c-3 44 -6 88 -8 132c-1 15 -6 20 -21 19c-22 -1 -44 -3 -66 -6c-17 -3 -22 3 -24 24c-2 18 10 15 20 15c24 2 48 5 72 6c12 1 16 6 15 17c-1 13 -2 27 -2 40c1 13 -6 17 -17 16c-25 -2 -49 -3 -73 1c-27 5 -39 25 -31 51
c3 7 7 4 12 4c29 -3 57 0 85 3c16 2 23 7 21 25c-4 31 -6 62 -9 93c-2 19 3 22 26 23c21 0 23 -2 23 -23c0 -31 -2 -63 0 -95c2 -15 7 -19 21 -19c21 1 41 1 62 1c13 0 17 7 17 18c1 16 2 32 -1 48c-4 22 -1 44 -3 66zM282 300c-1 5 -6 7 -11 7c-25 0 -50 1 -75 -2
c-7 -1 -11 -4 -11 -12c1 -6 0 -12 0 -19v-12c1 -24 1 -24 25 -21c20 2 40 3 60 5c5 0 12 -1 13 6c2 16 2 32 -1 48z" />
    <glyph glyph-name="period" unicode="." horiz-adv-x="124" 
d="M55 -23c-20 1 -36 22 -35 44c0 20 24 43 43 42c26 0 42 -15 41 -39c-1 -26 -24 -48 -49 -47z" />
    <glyph glyph-name="question" unicode="?" horiz-adv-x="206" 
d="M44 650c22 36 69 44 102 16c38 -31 44 -73 38 -118c-5 -36 -17 -71 -33 -105c-23 -49 -45 -98 -50 -153c-3 -32 -2 -64 1 -97c2 -19 -4 -22 -31 -25c-17 -1 -13 14 -14 22c-2 18 -1 37 -1 56c-3 70 10 137 48 198c20 32 37 66 35 107c0 16 -7 30 -16 43
c-7 9 -15 13 -25 11s-15 -9 -18 -19c0 -2 -1 -5 -1 -8c-3 -9 4 -24 -8 -28c-14 -4 -30 -1 -45 3c-5 2 -7 7 -6 12c4 29 8 59 24 85zM90 -19c-11 -10 -24 -8 -35 3c-10 11 -13 24 -12 36c-1 28 16 55 33 56c12 1 33 -27 35 -48c2 -20 -7 -36 -21 -47z" />
    <glyph glyph-name="quotedbl" unicode="&#x22;" horiz-adv-x="209" 
d="M160 413c-5 2 -3 7 -3 11c0 9 2 18 2 27c-1 17 -1 35 -27 33c-7 0 -13 5 -17 11c-11 18 -1 58 17 68c13 7 25 6 35 -5c16 -18 22 -40 22 -64c1 -26 -6 -51 -20 -74c-2 -4 -4 -9 -9 -7zM30 555c5 6 10 6 17 5c30 -7 49 -32 48 -71c-3 -27 -6 -56 -20 -83
c-2 -4 -4 -10 -11 -8c-6 2 -3 9 -1 13c7 18 8 36 3 54c-3 9 -6 15 -17 16c-31 1 -37 55 -19 74z" />
    <glyph glyph-name="quotesingle" unicode="'" horiz-adv-x="133" 
d="M57 553c6 0 9 -6 11 -11c15 -40 31 -80 45 -120c4 -10 -23 -38 -34 -36c-5 0 -6 5 -7 9c-9 42 -28 81 -47 119c-3 8 -8 16 -1 23c9 9 20 14 33 16z" />
    <glyph glyph-name="semicolon" unicode=";" horiz-adv-x="132" 
d="M73 237c23 0 39 -21 39 -52c0 -27 -16 -43 -45 -43c-22 0 -39 16 -39 39c0 22 27 55 45 56zM70 -95c-5 3 -3 8 -1 11c9 16 11 32 6 50c-2 8 -5 12 -15 13c-29 2 -37 10 -40 33c-3 25 10 47 31 55c10 4 18 3 26 -5c19 -18 30 -45 29 -81c4 -24 -13 -47 -26 -71
c-2 -4 -6 -7 -10 -5z" />
    <glyph glyph-name="slash" unicode="/" horiz-adv-x="254" 
d="M69 -80c-1 0 -1 -1 -2 -1c-10 -3 -39 -7 -46 4c-5 7 13 53 16 64c14 52 31 103 43 156c20 91 39 181 60 271c11 50 26 99 38 149c3 12 8 15 20 15c40 -1 41 -1 29 -40c-19 -64 -31 -130 -46 -195c-17 -81 -34 -163 -55 -243c-13 -48 -28 -96 -37 -145
c-3 -16 -5 -29 -20 -35z" />
    <glyph glyph-name="underscore" unicode="_" horiz-adv-x="447" 
d="M70 32c51 -2 101 3 151 2c56 -2 111 2 166 4h25c10 0 15 -6 15 -16c1 -10 -5 -15 -15 -14c-14 0 -28 1 -47 1c-103 -2 -212 -3 -320 -10c-6 -1 -12 -1 -17 0c-6 3 -8 9 -8 16c1 8 6 14 15 15c12 1 23 2 35 2z" />
    <glyph glyph-name="braceleft" unicode="{" horiz-adv-x="173" 
d="M49 484c-1 27 1 54 1 81c0 39 15 72 40 101c11 13 25 17 39 23h4c14 -9 11 -26 18 -38c5 -6 1 -11 -6 -15c-29 -16 -38 -44 -41 -76c-5 -42 -3 -85 -7 -127c-1 -20 -4 -39 -10 -58c-4 -13 -13 -30 -4 -43c5 -6 12 -10 16 -17c29 -47 13 -116 7 -167
c-3 -35 -5 -70 -2 -105c2 -18 7 -33 27 -38c7 -2 9 -7 10 -14c1 -11 0 -22 8 -33c4 -7 -1 -15 -13 -15c-40 -1 -75 26 -83 66c-4 17 -3 34 -1 52c5 64 15 129 10 194c-2 28 -2 57 -37 66c-7 2 -5 8 -3 12c32 47 29 99 27 151z" />
    <glyph glyph-name="braceright" unicode="}" horiz-adv-x="188" 
d="M167 366c3 -3 0 -6 -2 -9c-37 -33 -34 -76 -29 -119c5 -49 18 -97 22 -146c2 -31 4 -62 -4 -92c-9 -31 -37 -51 -69 -51c-7 0 -10 3 -10 10c0 10 1 21 0 31c-2 17 2 28 20 35c16 6 18 22 22 37c8 41 -4 80 -13 119c-9 37 -20 75 -13 114c4 20 3 31 -17 42
c-20 12 -22 37 -23 59c-2 29 6 57 10 85c4 29 12 58 10 88c-2 18 -10 33 -21 47c-2 3 -6 5 -9 8c-6 5 -19 -3 -20 9c-1 15 -1 29 1 44c2 8 11 6 18 4c19 -6 33 -19 44 -36c23 -37 27 -77 25 -120c1 -29 -3 -58 -7 -86c0 -4 -1 -7 -1 -11c-2 -47 7 -57 55 -59c4 0 8 1 11 -3z
" />
    <glyph glyph-name="bracketleft" unicode="[" horiz-adv-x="141" 
d="M22 629c-2 52 -11 53 51 52c18 0 23 -6 24 -23c0 -10 2 -22 4 -32c2 -11 -1 -18 -12 -16c-20 4 -22 -8 -21 -23c10 -122 0 -245 8 -367c4 -52 4 -104 4 -156c0 -16 4 -25 22 -23c13 2 18 -7 19 -19c1 -19 0 -38 -2 -58c-1 -11 -9 -13 -18 -13c-16 0 -33 2 -49 4
c-17 1 -16 15 -17 26c-2 33 -3 67 -5 100c-4 88 -10 177 -6 265c5 95 1 189 -2 283z" />
    <glyph glyph-name="bracketright" unicode="]" horiz-adv-x="132" 
d="M31 2c-1 7 0 14 0 21c-2 15 -1 27 20 26c12 -1 11 10 11 18v73c1 122 3 245 4 367c0 27 -3 54 -6 81c-2 20 -4 22 -23 15c-14 -5 -19 -4 -16 12c2 16 1 32 2 48c1 13 6 23 23 17c2 -1 5 -1 8 -2c34 -2 33 -3 35 -36c4 -88 11 -177 14 -265c3 -65 7 -129 6 -193v-171
c0 -10 1 -20 2 -31c3 -26 -2 -33 -28 -31c-60 3 -48 -9 -52 51z" />
    <glyph glyph-name="parenleft" unicode="(" horiz-adv-x="173" 
d="M146 556c-39 -72 -72 -147 -76 -231c-2 -60 -6 -120 5 -180c9 -50 31 -94 64 -133c10 -10 8 -17 -2 -25c-9 -8 -18 -18 -31 -4c-14 14 -25 30 -34 47c-37 72 -58 148 -51 231c1 96 24 188 68 274c7 14 18 27 27 40c9 15 20 11 31 4c13 -8 2 -16 -1 -23z" />
    <glyph glyph-name="parenright" unicode=")" horiz-adv-x="147" 
d="M126 285c5 -92 -5 -186 -31 -278c-6 -23 -16 -45 -25 -68c-4 -12 -9 -10 -18 -3c-13 12 -19 23 -10 43c20 41 23 88 30 133c13 86 13 172 -3 258c-8 43 -27 83 -45 122c-3 7 -8 14 1 22c18 16 17 17 28 -4c20 -40 45 -77 57 -120c10 -33 17 -67 16 -105z" />
    <glyph glyph-name="hyphen" unicode="-" horiz-adv-x="296" 
d="M37 227c-11 2 -16 6 -16 17c0 60 -10 51 48 51c48 0 97 7 145 5l10 1c45 2 54 -7 51 -52c-1 -6 -2 -11 -11 -12c-55 -5 -109 -15 -168 -11c-17 3 -38 -2 -59 1z" />
    <glyph glyph-name="space" unicode=" " horiz-adv-x="270" 
 />
    <glyph glyph-name="dollar" unicode="$" horiz-adv-x="314" 
d="M229 32c-12 -5 -16 -13 -16 -25c-1 -23 4 -46 4 -69c1 -10 0 -19 -14 -19c-13 0 -18 6 -19 17c-1 20 -4 40 -4 60c0 12 -3 16 -16 16c-38 0 -75 5 -109 22c-43 20 -46 48 -11 80c7 6 10 2 16 -1c36 -19 72 -36 114 -36c13 1 26 3 38 8c31 13 45 37 36 70
c-11 40 -30 74 -63 100c-34 26 -67 53 -98 84s-47 65 -26 116c10 24 29 39 52 47c17 6 27 13 22 33c-2 12 0 24 -1 36c-2 11 4 15 14 14c9 0 21 1 20 -13c0 -13 0 -26 2 -40c1 -10 6 -13 16 -13c17 0 33 -2 50 -2c10 -1 16 -5 13 -16c-1 -4 -2 -7 -2 -10
c-2 -32 -2 -31 -29 -19c-26 11 -52 12 -79 0c-34 -15 -42 -56 -18 -90c22 -32 52 -55 84 -76c16 -11 32 -22 46 -35c28 -27 39 -57 43 -113c0 -23 -5 -51 -17 -77c-9 -23 -25 -40 -48 -49z" />
    <glyph glyph-name="asciitilde" unicode="~" horiz-adv-x="387" 
d="M358 456c-18 -40 -52 -51 -86 -53c-42 1 -73 19 -103 40c-19 14 -41 23 -64 27c-19 3 -36 0 -52 -9c-19 -11 -21 -10 -26 11l-3 10c-8 30 -6 34 24 45c56 19 106 8 153 -26c19 -13 37 -31 61 -38c25 -8 50 1 60 25c6 14 11 15 23 9c27 -15 26 -14 13 -41z" />
    <glyph glyph-name="equal" unicode="=" horiz-adv-x="348" 
d="M23 278c0 5 -1 10 -1 15c-4 28 -2 31 26 31c34 1 68 2 105 -2c40 6 84 -3 127 2c32 4 36 -2 33 -34c-1 -5 -2 -11 0 -14c11 -22 -3 -22 -18 -22c-81 -2 -162 -9 -242 -5c-28 1 -30 2 -30 29zM30 189c-1 4 -1 9 -2 14c-4 16 5 22 18 22c28 2 56 6 83 4c59 -4 117 2 176 -1
c13 -1 20 -4 20 -17c0 -3 1 -5 1 -8c4 -31 2 -33 -29 -32c-10 0 -19 -1 -29 -1s-19 -1 -29 -2c-59 -4 -119 -7 -178 -7c-26 0 -27 2 -31 28z" />
    <glyph glyph-name="greater" unicode="&#x3e;" horiz-adv-x="199" 
d="M34 428c11 12 19 5 26 -3c26 -32 60 -57 82 -93c6 -9 15 -17 22 -25c19 -18 19 -22 4 -44l-76 -111c-7 -11 -14 -22 -22 -33c-8 -12 -16 -12 -23 1c0 0 -1 1 -1 2c-23 24 -18 44 3 68c21 23 36 51 53 77c5 6 10 13 10 23c1 7 -5 12 -10 17c-25 28 -51 56 -76 85
c-10 12 -7 21 8 36z" />
    <glyph glyph-name="less" unicode="&#x3c;" horiz-adv-x="199" 
d="M169 362c-23 -26 -46 -52 -70 -77c-13 -13 -11 -20 3 -29c22 -17 43 -35 65 -52c12 -10 15 -21 6 -34c0 -1 0 -1 -1 -2c-24 -48 -27 -38 -54 -9c-29 32 -59 63 -90 94c-10 10 -11 17 0 27c43 36 81 77 115 122c8 11 15 11 22 0c5 -8 13 -13 14 -23c-1 -7 -6 -12 -10 -17z
" />
    <glyph glyph-name="percent" unicode="%" horiz-adv-x="338" 
d="M67 -28c-10 4 -5 12 -3 18c16 46 23 95 33 143c24 112 50 224 71 337c11 61 29 122 44 183c5 19 21 6 29 11c6 0 10 1 15 0c17 -1 20 -5 15 -22c-18 -57 -31 -115 -46 -173c-17 -65 -28 -132 -40 -199c-12 -64 -29 -128 -47 -191c-7 -26 -13 -52 -19 -78
c-4 -13 -40 -33 -52 -29zM78 503c-32 0 -58 28 -58 61c-1 34 29 66 59 65c18 0 61 -44 60 -62c-1 -37 -29 -64 -61 -64zM70 578c-9 0 -15 -4 -15 -13c0 -12 12 -24 24 -24c10 1 13 6 13 10c0 20 -9 26 -22 27zM302 36c-23 -28 -76 -27 -105 4c-17 18 -29 40 -18 66
c11 29 37 37 68 38c25 -3 52 -11 65 -38c11 -23 7 -49 -10 -70zM244 109c-13 -1 -21 -9 -22 -22c-1 -14 18 -30 32 -30c14 1 25 11 25 23c0 17 -15 29 -35 29z" />
    <glyph glyph-name="plus" unicode="+" horiz-adv-x="269" 
d="M153 349v-33c0 -22 1 -23 24 -23c15 1 30 1 46 3c14 1 20 -6 21 -19c2 -15 9 -33 3 -45c-8 -17 -100 24 -93 -19c4 -23 3 -47 4 -70c1 -12 -2 -19 -15 -18h-5c-41 -5 -41 -5 -43 37c0 15 -1 30 -1 45c-1 11 -6 15 -17 12c-1 0 -2 0 -4 -1c-51 -10 -39 -12 -49 37
c-8 39 -6 39 33 38c5 -1 10 0 15 -1c11 -1 15 5 15 16c0 27 -5 54 -8 81c-2 23 0 25 23 25c51 1 51 1 51 -50v-15z" />
    <glyph glyph-name="bar" unicode="|" horiz-adv-x="110" 
d="M83 566c2 -46 5 -92 7 -137c1 -23 0 -46 -1 -63c-4 -98 -9 -191 -16 -283c-3 -49 1 -99 1 -148c0 -19 -6 -25 -25 -28c-9 -1 -13 2 -14 10c-1 13 -1 25 -1 38c0 119 3 239 2 359c-1 62 -2 124 -11 186c-4 27 -4 55 -5 83c0 6 0 12 8 11c13 0 27 0 40 -2
c15 -2 14 -16 15 -26z" />
    <glyph glyph-name="at" unicode="@" horiz-adv-x="514" 
d="M274 496c18 -2 37 -1 55 -4c64 -11 104 -50 134 -105c34 -63 38 -130 23 -197c-10 -42 -38 -74 -84 -83c-24 -5 -44 1 -56 21c-10 15 -15 12 -25 1c-16 -19 -34 -35 -59 -40c-32 -8 -61 3 -79 31c-40 63 -46 129 -14 197c9 18 22 29 42 30c32 3 63 2 91 -17
c8 -5 15 -13 22 3c4 12 21 9 32 7c11 -1 8 -13 7 -21c-4 -42 -4 -85 1 -128c2 -16 4 -33 23 -38c14 -4 31 7 41 25c12 20 15 43 16 66c4 72 -16 135 -81 172c-81 46 -159 41 -228 -21c-18 -16 -27 -38 -34 -61c-6 -17 -9 -35 -12 -52s-3 -33 -2 -50c-2 -71 25 -132 63 -190
c39 -57 128 -86 201 -65c25 7 51 14 72 30c9 7 16 5 21 -3c5 -6 9 -14 14 -21c8 -11 5 -18 -8 -23c-35 -14 -70 -25 -107 -32l-49 -6c-103 -18 -179 47 -218 116c-33 61 -52 126 -56 196c-3 49 10 94 31 138c39 81 133 133 223 124zM321 237c3 19 3 42 -22 55
c-20 10 -42 17 -66 13c-15 -3 -26 -11 -34 -25c-22 -41 -14 -81 7 -120c8 -14 21 -19 38 -17c46 4 77 39 77 94z" />
    <glyph glyph-name="ampersand" unicode="&#x26;" horiz-adv-x="611" 
d="M260 -79c-38 -1 -74 4 -109 19c-82 36 -130 95 -131 187c0 34 2 68 11 101c15 60 51 101 109 121c14 5 13 7 4 17c-41 46 -46 130 -13 183c7 10 16 19 27 24c24 10 49 19 76 22c41 5 74 -11 104 -38c8 -7 8 -12 1 -23c-13 -19 -21 -20 -42 -9c-28 14 -61 10 -91 -5
c-11 -6 -15 -15 -20 -25c-23 -53 4 -104 60 -113c24 -4 24 -4 18 -28c-2 -11 1 -24 -7 -32s-21 0 -31 -2c-98 -21 -136 -73 -137 -163c-1 -45 12 -87 48 -115c60 -47 132 -57 197 -14c50 34 67 88 41 151c-9 20 -8 19 11 27c55 23 107 49 139 104c0 1 1 2 2 3
c8 6 2 25 15 23c17 -3 32 -11 46 -22c5 -4 2 -10 0 -16c-11 -41 -34 -75 -69 -99c-24 -15 -30 -30 -23 -58c19 -74 -32 -152 -86 -185c-47 -28 -98 -34 -150 -35z" />
    <glyph glyph-name="asciicircum" unicode="^" horiz-adv-x="243" 
d="M118 421c-2 3 -3 9 -7 9c-6 -1 -7 -7 -9 -11l-28 -76c-3 -7 -4 -19 -14 -19c-13 0 -26 3 -38 9c-4 2 -2 5 0 8c29 55 46 114 70 171c3 6 2 15 11 16c7 0 9 -8 13 -12c34 -44 56 -95 86 -142l17 -26l4 -6c-1 -2 0 -3 -1 -3c-13 -11 -30 -13 -45 -19c-9 -4 -10 8 -13 15
c-16 28 -31 57 -46 86z" />
    <glyph glyph-name="grave" unicode="`" horiz-adv-x="167" 
d="M127 463c21 14 27 36 12 52c-27 29 -44 65 -64 99c-4 7 -8 15 -18 18c-11 -6 -24 -12 -34 -21c-8 -9 2 -17 7 -24c24 -35 43 -72 65 -108c7 -11 12 -30 32 -16z" />
    </font>
</defs>
</svg>
