<?xml version="1.0" encoding="UTF-8"?>
<svg width="48px" height="48px" viewBox="0 0 48 48" version="1.1" xmlns="http://www.w3.org/2000/svg" xmlns:xlink="http://www.w3.org/1999/xlink">
    <!-- Generator: Sketch 40.1 (33804) - http://www.bohemiancoding.com/sketch -->
    <title>theicons.co/svg/ui-04</title>
    <desc>Created with Sketch.</desc>
    <defs></defs>
    <g id="The-Icons" stroke="none" stroke-width="1" fill="none" fill-rule="evenodd">
        <g id="v-1.0" transform="translate(-336.000000, -2096.000000)" fill="#4D4D4D">
            <g id="UI" transform="translate(96.000000, 2096.000000)">
                <g id="Broken-Heart" transform="translate(240.000000, 0.000000)">
                    <path d="M18.8905996,20.6641006 C17.9852523,20.0605357 17.7285275,18.8439333 18.3128174,17.9260284 L21.797192,12.452163 L21.3323449,12.0361135 C19.8738909,10.7307619 17.9990751,10 16,10 C11.581722,10 8,13.581722 8,18 C8,24.1751266 13.6619207,31.2623594 22.9160877,37.5517215 L26.6358887,25.8368068 L18.8905996,20.6641006 Z M16,6 C19.0734177,6 21.876974,7.15541427 24,9.05557397 C26.123026,7.15541427 28.9265823,6 32,6 C38.627417,6 44,11.372583 44,18 C44,27.1922957 35.2130888,35.7528155 26.0478292,41.7138782 C25.3661592,42.1572348 24.8492397,42.4726905 24.8492397,42.4726905 C24.3847857,42.7617649 23.6224165,42.7656904 23.1566435,42.4766549 C23.1566435,42.4766549 22.6753261,42.1832485 22.0142159,41.7541888 C12.8266082,35.7914429 4,27.2130366 4,18 C4,11.372583 9.372583,6 16,6 L16,6 Z M27.7092634,35.6735485 C35.3992084,29.8749529 40,23.5667186 40,18 C40,13.581722 36.418278,10 32,10 C30.1343118,10 28.3768539,10.6364962 26.9650725,11.7825383 L22.7464283,18.409923 L30.1094004,23.3358994 C30.851004,23.8303018 31.1759511,24.7557736 30.9062119,25.6052736 L27.7092634,35.6735485 L27.7092634,35.6735485 Z" id="Combined-Shape"></path>
                </g>
            </g>
        </g>
    </g>
</svg>