<?xml version="1.0" encoding="UTF-8"?>
<svg width="48px" height="48px" viewBox="0 0 48 48" version="1.1" xmlns="http://www.w3.org/2000/svg" xmlns:xlink="http://www.w3.org/1999/xlink">
    <!-- Generator: Sketch 40.1 (33804) - http://www.bohemiancoding.com/sketch -->
    <title>theicons.co/svg/ui-05</title>
    <desc>Created with Sketch.</desc>
    <defs></defs>
    <g id="The-Icons" stroke="none" stroke-width="1" fill="none" fill-rule="evenodd">
        <g id="v-1.0" transform="translate(-416.000000, -2096.000000)" fill="#4D4D4D">
            <g id="UI" transform="translate(96.000000, 2096.000000)">
                <g id="Like" transform="translate(320.000000, 0.000000)">
                    <path d="M39.0094027,33 C39.1745814,32.3657775 39.3514898,31.6844042 39.5288492,31 L38.0059191,31 C36.8980806,31 36,30.1122704 36,29 C36,27.8954305 36.8865548,27 38.0059191,27 L40.5623499,27 C40.7949262,26.0974385 40.9490604,25.4975239 40.9566742,25.4665637 C41.1462981,24.5885487 40.6646013,23.999389 39.724584,23.9993891 L32.5066483,23.9989105 C29.4329045,23.9987067 27.166756,21.257517 27.7739221,18.226587 C27.7946558,18.1236339 28.3708329,15.2135811 28.4087263,14.9989874 C28.8221094,12.6579612 29.0161904,10.9853527 29.0002793,10.0334246 L29.0003713,9.89443307 C29.0111424,9.29731696 28.6478571,8.66087464 27.6914837,7.91558515 C27.5839836,7.83181168 26.8807441,7.40618019 26.8807441,7.40618019 L21.1145789,19.8696164 C19.9967278,22.2858262 17.3134666,24 14.6479082,24 L6.99922997,24 C6.99857729,24 7,40.009947 7,40.009947 C7,40.0034491 28.7409387,40.0061402 30.0529811,40.0002092 C34.493924,40.0481626 36.6943832,39.151211 37.8153793,37 L37.0059191,37 C35.8980806,37 35,36.1122704 35,35 C35,33.8954305 35.8865548,33 37.0059191,33 L39.0094027,33 Z M6.99922997,44 C4.79051625,44 3,42.2157067 3,40.009947 L3,23.990053 C3,21.7864076 4.79246765,20 6.99922997,20 L14.6479082,20 C15.7565766,20 17.0068158,19.1439301 17.4842734,18.1900682 C17.961731,17.2362063 23.7048898,4.74434605 23.7048898,4.74434605 C24.4087724,3.22291963 26.2253173,2.562395 27.7417626,3.32719732 C27.7417626,3.32719732 29.1979808,4.01842374 30.1502123,4.76048552 C31.918263,6.13830469 33.0372747,7.88469559 32.9997207,9.96657544 C33.0217443,11.2841996 32.7837735,13.2255137 32.3477854,15.6945543 C32.2312735,16.3543717 31.6951941,19.0162866 31.6951941,19.0162866 C31.586292,19.55992 31.9497943,19.9988736 32.5069135,19.9989105 L39.7248492,19.9993891 C43.205051,19.9993889 45.5915377,22.930021 44.8738382,26.2853403 C44.8520027,26.3985187 42.3316315,36.5185015 41.8760724,37.6930747 C40.1791206,42.2865253 36.2448072,44.0673019 30.0097915,43.999976 C27.1483038,44.0139853 6.99922997,44 6.99922997,44 Z M11,24 L15,24 L15,40 L11,40 L11,24 Z" id="Combined-Shape"></path>
                </g>
            </g>
        </g>
    </g>
</svg>