<?xml version="1.0" encoding="UTF-8"?>
<svg width="48px" height="48px" viewBox="0 0 48 48" version="1.1" xmlns="http://www.w3.org/2000/svg" xmlns:xlink="http://www.w3.org/1999/xlink">
    <!-- Generator: Sketch 40.1 (33804) - http://www.bohemiancoding.com/sketch -->
    <title>theicons.co/svg/ui-07</title>
    <desc>Created with Sketch.</desc>
    <defs></defs>
    <g id="The-Icons" stroke="none" stroke-width="1" fill="none" fill-rule="evenodd">
        <g id="v-1.0" transform="translate(-576.000000, -2096.000000)" fill="#4D4D4D">
            <g id="UI" transform="translate(96.000000, 2096.000000)">
                <g id="Eye" transform="translate(480.000000, 0.000000)">
                    <path d="M24,40 C29.9925391,40 35.4943607,37.7410675 39.83549,34.0044589 C43.5136018,30.8385397 46,26.8367098 46,24 C46,21.1627946 43.5175192,17.1607933 39.8432405,13.9959871 C35.5043145,10.2586929 30.0010391,8 24,8 C17.99976,8 12.4969785,10.2621861 8.15610513,14.0044245 C4.48411314,17.1700245 2,21.1720273 2,24 C2,26.8274787 4.48803142,30.8293072 8.16385557,33.9960218 C12.5069355,37.7375757 18.0082591,40 24,40 Z M24,36 C19.0198904,36 14.425061,34.1103722 10.774621,30.9655261 C7.89417932,28.4840318 6,25.4373739 6,24 C6,22.560513 7.89079843,19.5143632 10.7679061,17.0340277 C14.4157372,13.8892565 19.0113652,12 24,12 C28.9906222,12 33.5869811,13.8864699 37.2327482,17.026718 C40.1113808,19.5062017 42,22.5508402 42,24 C42,25.4470464 40.1080046,28.4921916 37.2260335,30.9728361 C33.5776597,34.1131583 28.9820968,36 24,36 Z M24,32 C28.418278,32 32,28.418278 32,24 C32,19.581722 28.418278,16 24,16 C19.581722,16 16,19.581722 16,24 C16,28.418278 19.581722,32 24,32 Z M24.1694624,20.0035248 C24.1132667,20.0011827 24.0567715,20 24,20 C21.790861,20 20,21.790861 20,24 C20,26.209139 21.790861,28 24,28 C26.209139,28 28,26.209139 28,24 C28,23.9432285 27.9988173,23.8867333 27.9964752,23.8305376 C27.6846929,23.9402967 27.3493187,24 27,24 C25.3431458,24 24,22.6568542 24,21 C24,20.6506813 24.0597033,20.3153071 24.1694624,20.0035248 L24.1694624,20.0035248 Z" id="Combined-Shape"></path>
                </g>
            </g>
        </g>
    </g>
</svg>