<?xml version="1.0" encoding="UTF-8"?>
<svg width="48px" height="48px" viewBox="0 0 48 48" version="1.1" xmlns="http://www.w3.org/2000/svg" xmlns:xlink="http://www.w3.org/1999/xlink">
    <!-- Generator: Sketch 40.1 (33804) - http://www.bohemiancoding.com/sketch -->
    <title>theicons.co/svg/ui-09</title>
    <desc>Created with Sketch.</desc>
    <defs></defs>
    <g id="The-Icons" stroke="none" stroke-width="1" fill="none" fill-rule="evenodd">
        <g id="v-1.0" transform="translate(-736.000000, -2096.000000)" fill="#4D4D4D">
            <g id="UI" transform="translate(96.000000, 2096.000000)">
                <g id="Locked" transform="translate(640.000000, 0.000000)">
                    <path d="M26,34.4648712 C27.1956027,33.7732524 28,32.4805647 28,31 C28,28.790861 26.209139,27 24,27 C21.790861,27 20,28.790861 20,31 C20,32.4805647 20.8043973,33.7732524 22,34.4648712 L22,36.0018986 C22,37.1132936 22.8954305,38 24,38 C25.1122704,38 26,37.1054196 26,36.0018986 L26,34.4648712 Z M12,21.0000022 C9.78673561,21.0022988 8,22.7950968 8,25.0062943 L8,39.9937057 C8,42.2143671 9.79276724,44 12.0042577,44 L35.9957423,44 C38.2109725,44 40,42.206321 40,39.9937057 L40,25.0062943 C40,22.7870582 38.2095333,21.0022923 36,21.0000022 L36,16.0005127 C36,9.37555373 30.6261936,4 24,4 C17.3717364,4 12,9.37235683 12,16.0003162 L12,21.000002 Z M16,21 L32,21 L32,16.0005127 C32,11.5844017 28.4167634,8 24,8 C19.5809788,8 16,11.5813924 16,16.0003162 L16,21 Z M12,25 L36,25 L36,40 L12,40 L12,25 Z" id="Combined-Shape"></path>
                </g>
            </g>
        </g>
    </g>
</svg>