<?xml version="1.0" encoding="UTF-8"?>
<svg width="48px" height="48px" viewBox="0 0 48 48" version="1.1" xmlns="http://www.w3.org/2000/svg" xmlns:xlink="http://www.w3.org/1999/xlink">
    <!-- Generator: Sketch 40.1 (33804) - http://www.bohemiancoding.com/sketch -->
    <title>theicons.co/svg/ui-08</title>
    <desc>Created with Sketch.</desc>
    <defs></defs>
    <g id="The-Icons" stroke="none" stroke-width="1" fill="none" fill-rule="evenodd">
        <g id="v-1.0" transform="translate(-656.000000, -2096.000000)" fill="#4D4D4D">
            <g id="UI" transform="translate(96.000000, 2096.000000)">
                <g id="No-Eye" transform="translate(560.000000, 0.000000)">
                    <path d="M38.1629972,12.6654299 C38.7404008,13.0848338 39.3009158,13.5288606 39.8432405,13.9959871 C43.5175192,17.1607933 46,21.1627946 46,24 C46,26.8367098 43.5136018,30.8385397 39.83549,34.0044589 C35.4943607,37.7410675 29.9925391,40 24,40 C20.1990764,40 16.5955032,39.0895706 13.3597598,37.4686673 L9.85884674,40.9695804 C9.07725561,41.7511715 7.81593116,41.7570567 7.02943725,40.9705627 C6.24838867,40.1895142 6.24804073,38.9235321 7.03041961,38.1411533 L9.84424435,35.3273285 C9.26691106,34.9076553 8.70634763,34.4633775 8.16385557,33.9960218 C4.48803142,30.8293072 2,26.8274787 2,24 C2,21.1720273 4.48411314,17.1700245 8.15610513,14.0044245 C12.4969785,10.2621861 17.99976,8 24,8 C27.8053959,8 31.4106351,8.90824697 34.6457462,10.5258267 L38.1411533,7.03041961 C38.9227444,6.24882849 40.1840688,6.24294334 40.9705627,7.02943725 C41.7516113,7.81048583 41.7519593,9.07646785 40.9695804,9.85884674 L38.1629972,12.6654299 Z M16.3743842,34.454043 C18.7461736,35.4516208 21.3171817,36 24,36 C28.9820968,36 33.5776597,34.1131583 37.2260335,30.9728361 C40.1080046,28.4921916 42,25.4470464 42,24 C42,22.5508402 40.1113808,19.5062017 37.2327482,17.026718 C36.6125475,16.4925138 35.9648375,15.994593 35.2923569,15.5360703 L29.415258,21.4131691 C29.7900957,22.1964396 30,23.0737069 30,24 C30,27.3137085 27.3137085,30 24,30 C23.0737069,30 22.1964396,29.7900957 21.4131691,29.415258 L16.3743842,34.454043 Z M12.7146702,32.4569026 C12.0425452,31.9980993 11.3949476,31.4999361 10.774621,30.9655261 C7.89417932,28.4840318 6,25.4373739 6,24 C6,22.560513 7.89079843,19.5143632 10.7679061,17.0340277 C14.4157372,13.8892565 19.0113652,12 24,12 C26.6865866,12 29.2589172,12.5466913 31.630202,13.5413709 L26.5868309,18.584742 C25.8035604,18.2099043 24.9262931,18 24,18 C20.6862915,18 18,20.6862915 18,24 C18,24.9262931 18.2099043,25.8035604 18.584742,26.5868309 L12.7146702,32.4569026 Z" id="Combined-Shape"></path>
                </g>
            </g>
        </g>
    </g>
</svg>