<?xml version="1.0" encoding="UTF-8"?>
<svg width="48px" height="48px" viewBox="0 0 48 48" version="1.1" xmlns="http://www.w3.org/2000/svg" xmlns:xlink="http://www.w3.org/1999/xlink">
    <!-- Generator: Sketch 40.1 (33804) - http://www.bohemiancoding.com/sketch -->
    <title>theicons.co/svg/ui-17</title>
    <desc>Created with Sketch.</desc>
    <defs></defs>
    <g id="The-Icons" stroke="none" stroke-width="1" fill="none" fill-rule="evenodd">
        <g id="v-1.0" transform="translate(-96.000000, -2176.000000)" fill="#4D4D4D">
            <g id="UI" transform="translate(96.000000, 2096.000000)">
                <g id="RSS" transform="translate(0.000000, 80.000000)">
                    <path d="M9,43 C11.209139,43 13,41.209139 13,39 C13,36.790861 11.209139,35 9,35 C6.790861,35 5,36.790861 5,39 C5,41.209139 6.790861,43 9,43 Z M23,39 C23,31.2680135 16.7319865,25 9,25 L9,29 C14.5228475,29 19,33.4771525 19,39 L23,39 Z M19,39 L23,39 L23,41 C23,42.1045695 22.1122704,43 21,43 C19.8954305,43 19,42.1122704 19,41 L19,39 Z M29,39 L33,39 L33,41 C33,42.1045695 32.1122704,43 31,43 C29.8954305,43 29,42.1122704 29,41 L29,39 Z M39,39 L43,39 L43,41 C43,42.1045695 42.1122704,43 41,43 C39.8954305,43 39,42.1122704 39,41 L39,39 Z M5,27 C5,25.8954305 5.88772964,25 7,25 L9,25 L9,29 L7,29 C5.8954305,29 5,28.1122704 5,27 Z M5,17 C5,15.8954305 5.88772964,15 7,15 L9,15 L9,19 L7,19 C5.8954305,19 5,18.1122704 5,17 Z M5,7 C5,5.8954305 5.88772964,5 7,5 L9,5 L9,9 L7,9 C5.8954305,9 5,8.11227036 5,7 Z M33,39 C33,25.745166 22.254834,15 9,15 L9,19 C20.045695,19 29,27.954305 29,39 L33,39 Z M43,39 C43,20.2223185 27.7776815,5 9,5 L9,9 C25.5685425,9 39,22.4314575 39,39 L43,39 Z" id="Combined-Shape"></path>
                </g>
            </g>
        </g>
    </g>
</svg>