<?xml version="1.0" encoding="UTF-8"?>
<svg width="48px" height="48px" viewBox="0 0 48 48" version="1.1" xmlns="http://www.w3.org/2000/svg" xmlns:xlink="http://www.w3.org/1999/xlink">
    <!-- Generator: Sketch 40.1 (33804) - http://www.bohemiancoding.com/sketch -->
    <title>theicons.co/svg/ui-18</title>
    <desc>Created with Sketch.</desc>
    <defs></defs>
    <g id="The-Icons" stroke="none" stroke-width="1" fill="none" fill-rule="evenodd">
        <g id="v-1.0" transform="translate(-176.000000, -2176.000000)" fill="#4D4D4D">
            <g id="UI" transform="translate(96.000000, 2096.000000)">
                <g id="Warning" transform="translate(80.000000, 80.000000)">
                    <path d="M19.3123409,8.24293221 L4.95421413,33.7832102 C2.57542196,38.0146126 4.90657772,42.0000004 9.75328454,42.0000002 L38.2669801,41.9999991 C43.1091673,41.9999989 45.4393075,38.0058123 43.0625776,33.78244 L28.6896228,8.24216313 C26.2932292,3.98384911 21.7038669,3.98887869 19.3123409,8.24293221 L19.3123409,8.24293221 Z M25.2037026,10.2038871 L39.5766575,35.7441639 C40.4539173,37.3030264 39.5766566,37.9999998 38.2669799,37.9999991 L9.75328439,38.0000002 C7.96559053,38.0000003 7.75915528,37.0821531 8.44099917,35.7433964 L22.7991259,10.2031185 C23.4696048,8.96453857 24.3380648,8.66567649 25.2037026,10.2038871 Z M24,36 C25.1045695,36 26,35.1045695 26,34 C26,32.8954305 25.1045695,32 24,32 C22.8954305,32 22,32.8954305 22,34 C22,35.1045695 22.8954305,36 24,36 Z M22,18.0058587 C22,16.8980535 22.8877296,16 24,16 C25.1045695,16 26,16.8970601 26,18.0058587 L26,27.9941413 C26,29.1019465 25.1122704,30 24,30 C22.8954305,30 22,29.1029399 22,27.9941413 L22,18.0058587 Z" id="Combined-Shape"></path>
                </g>
            </g>
        </g>
    </g>
</svg>