<?xml version="1.0" encoding="UTF-8"?>
<svg width="48px" height="48px" viewBox="0 0 48 48" version="1.1" xmlns="http://www.w3.org/2000/svg" xmlns:xlink="http://www.w3.org/1999/xlink">
    <!-- Generator: Sketch 40.1 (33804) - http://www.bohemiancoding.com/sketch -->
    <title>theicons.co/svg/ui-13</title>
    <desc>Created with Sketch.</desc>
    <defs></defs>
    <g id="The-Icons" stroke="none" stroke-width="1" fill="none" fill-rule="evenodd">
        <g id="v-1.0" transform="translate(-1056.000000, -2096.000000)" fill="#4D4D4D">
            <g id="UI" transform="translate(96.000000, 2096.000000)">
                <g id="Mic" transform="translate(960.000000, 0.000000)">
                    <path d="M35.6291277,28.9773017 C34.4676831,33.5335538 30.696563,37.046901 26,37.8342164 L26,42 L22,42 L22,37.8338782 C17.3062541,37.0455384 13.5342545,33.5299656 12.3716238,28.9772089 C12.2498594,28.9922526 12.1258344,29 12,29 C10.3431458,29 9,27.6568542 9,26 C9,24.3431458 10.3431458,23 12,23 L12,13.9933717 C12,7.36893686 17.3720473,2 24,2 C30.6242988,2 36,7.37546956 36,13.9933717 L36,23 C37.6568542,23 39,24.3431458 39,26 C39,27.6568542 37.6568542,29 36,29 C35.8744244,29 35.7506509,28.9922845 35.6291277,28.9773017 Z M30.9294717,10 C29.5456452,7.61042082 26.9593526,6 24,6 C21.0367655,6 18.4505879,7.60890821 17.0680686,10 L20.0018986,10 C21.1054196,10 22,10.8877296 22,12 C22,13.1045695 21.1132936,14 20.0018986,14 L16,14 L16,16 L20.0018986,16 C21.1054196,16 22,16.8877296 22,18 C22,19.1045695 21.1132936,20 20.0018986,20 L16,20 L16,24 L32,24 L32,20 L27.9981014,20 C26.8867064,20 26,19.1045695 26,18 C26,16.8877296 26.8945804,16 27.9981014,16 L32,16 L32,14 L27.9981014,14 C26.8867064,14 26,13.1045695 26,12 C26,10.8877296 26.8945804,10 27.9981014,10 L30.9294717,10 Z M31.7493224,28 C30.8631996,31.4502053 27.7303793,34 24,34 C20.2738367,34 17.1391111,31.4468888 16.2514511,28 L31.7493224,28 Z M14,44 C14,42.8954305 14.8982124,42 15.9907951,42 L32.0092049,42 C33.1086907,42 34,42.8877296 34,44 C34,45.1045695 33.1017876,46 32.0092049,46 L15.9907951,46 C14.8913093,46 14,45.1122704 14,44 Z" id="Combined-Shape"></path>
                </g>
            </g>
        </g>
    </g>
</svg>