<?xml version="1.0" encoding="UTF-8"?>
<svg width="48px" height="48px" viewBox="0 0 48 48" version="1.1" xmlns="http://www.w3.org/2000/svg" xmlns:xlink="http://www.w3.org/1999/xlink">
    <!-- Generator: Sketch 40.1 (33804) - http://www.bohemiancoding.com/sketch -->
    <title>theicons.co/svg/ui-14</title>
    <desc>Created with Sketch.</desc>
    <defs></defs>
    <g id="The-Icons" stroke="none" stroke-width="1" fill="none" fill-rule="evenodd">
        <g id="v-1.0" transform="translate(-1136.000000, -2096.000000)" fill="#4D4D4D">
            <g id="UI" transform="translate(96.000000, 2096.000000)">
                <g id="Mic-Off" transform="translate(1040.000000, 0.000000)">
                    <path d="M15.9397473,34.8886798 C17.602269,36.3968782 19.6894557,37.4458099 22,37.8338782 L22,42 L26,42 L26,37.8342164 C30.696563,37.046901 34.4676831,33.5335538 35.6291277,28.9773017 C35.7506509,28.9922845 35.8744244,29 36,29 C37.6568542,29 39,27.6568542 39,26 C39,24.3431458 37.6568542,23 36,23 L36,14.8284271 L41.4142136,9.41421356 C42.1952621,8.63316498 42.1952621,7.36683502 41.4142136,6.58578644 C40.633165,5.80473785 39.366835,5.80473785 38.5857864,6.58578644 L35.2790122,9.89256068 C33.6015564,5.29072823 29.1829584,2 24,2 C17.3720473,2 12,7.36893686 12,13.9933717 L12,23 C10.3431458,23 9,24.3431458 9,26 C9,27.6568542 10.3431458,29 12,29 C12.1258344,29 12.2498594,28.9922526 12.3716238,28.9772089 C12.6185964,29.9443311 12.9833158,30.8646508 13.4496052,31.7219677 L6.58578644,38.5857864 C5.80473785,39.366835 5.80473785,40.633165 6.58578644,41.4142136 C7.36683502,42.1952621 8.63316498,42.1952621 9.41421356,41.4142136 L15.9397473,34.8886798 Z M16.4679711,28.7036018 C16.1650619,27.8607388 16,26.9526559 16,26.0066283 L16,20 L20.0018986,20 C21.1132936,20 22,19.1045695 22,18 C22,16.8877296 21.1054196,16 20.0018986,16 L16,16 L16,14 L20.0018986,14 C21.1132936,14 22,13.1045695 22,12 C22,10.8877296 21.1054196,10 20.0018986,10 L17.0680686,10 C18.4505879,7.60890821 21.0367655,6 24,6 C26.9593526,6 29.5456452,7.61042082 30.9294717,10 L27.9981014,10 C26.8945804,10 26,10.8877296 26,12 C26,13.1045695 26.8867064,14 27.9981014,14 L31.1715729,14 L16.4679711,28.7036018 Z M18.7732309,32.0551963 C20.1756419,33.2665701 22.0028701,34 24,34 C28.4193321,34 32,30.4214054 32,26.0066283 L32,18.8284271 L18.7732309,32.0551963 Z M14,44 C14,42.8954305 14.8982124,42 15.9907951,42 L32.0092049,42 C33.1086907,42 34,42.8877296 34,44 C34,45.1045695 33.1017876,46 32.0092049,46 L15.9907951,46 C14.8913093,46 14,45.1122704 14,44 Z" id="Combined-Shape"></path>
                </g>
            </g>
        </g>
    </g>
</svg>