<?xml version="1.0" encoding="UTF-8"?>
<svg width="48px" height="48px" viewBox="0 0 48 48" version="1.1" xmlns="http://www.w3.org/2000/svg" xmlns:xlink="http://www.w3.org/1999/xlink">
    <!-- Generator: Sketch 40.1 (33804) - http://www.bohemiancoding.com/sketch -->
    <title>theicons.co/svg/ui-12</title>
    <desc>Created with Sketch.</desc>
    <defs></defs>
    <g id="The-Icons" stroke="none" stroke-width="1" fill="none" fill-rule="evenodd">
        <g id="v-1.0" transform="translate(-976.000000, -2096.000000)" fill="#4D4D4D">
            <g id="UI" transform="translate(96.000000, 2096.000000)">
                <g id="Bell-Off" transform="translate(880.000000, 0.000000)">
                    <path d="M37.7889843,15.0862006 C38.5684123,16.9024636 39,18.9041401 39,21.0075959 L39,28.815212 C40.8207419,29.8662158 42,31.8167018 42,34 C42,37.315187 39.314063,40 35.9957423,40 L29.9999968,40 C29.9966158,43.3142875 27.304888,46 24,46 C20.6862915,46 18,43.3164546 18,40.0042999 L18,40 L12.8739883,40 L7.47220291,45.4015259 C6.67755763,46.196133 5.39538995,46.2023396 4.59603997,45.4030281 C3.80222432,44.6092505 3.79991507,43.324592 4.59754217,42.5270033 L8.35845186,38.7662742 C6.92497868,37.6692494 6,35.9415332 6,34 C6,31.8024742 7.18983536,29.8438302 9.00844297,28.7977476 C9.00844288,28.1907787 9,20.9971755 9,20.9971755 C9,14.0862012 13.6741243,8.26772191 20.0347314,6.52945872 C20.0118225,6.3562246 20,6.17949295 20,6 C20,3.790861 21.790861,2 24,2 C26.209139,2 28,3.790861 28,6 C28,6.17939159 27.9881908,6.35602499 27.9653074,6.52916523 C31.0128838,7.36167039 33.6728288,9.13073425 35.6171892,11.5088461 L40.5277971,6.59847408 C41.3224424,5.80386695 42.6046101,5.79766036 43.40396,6.59697195 C44.1977757,7.39074947 44.2000849,8.67540796 43.4024578,9.47299675 L37.7889843,15.0862006 Z M16.8741804,36 L35.9957423,36 C37.1052987,36 38,35.1056731 38,34 C38,33.0858917 37.374453,32.2896743 36.4994183,32.063461 L35.9749946,31.9278873 C35.4417651,31.7900372 35,31.2264866 35,30.6721906 L35,21.0075959 C35,20.0471159 34.877433,19.1156424 34.6470927,18.2279414 L16.8741804,36 Z M11.2656686,35.8591971 C10.5248219,35.5649025 10,34.8417199 10,34 C10,33.0818983 10.6230089,32.288779 11.4986148,32.0633665 L12.0406493,31.9238273 C12.5704841,31.7874287 13,31.23156 13,30.6721374 L13,20.9971755 C13,14.9231178 17.9237746,10 24,10 C27.581403,10 30.7610442,11.708359 32.7691459,14.3567526 L11.2656686,35.8591971 Z M25.9999904,40 L22,40 L22,40.0042999 C22,41.1063051 22.8944204,42 24,42 C25.0978445,42 25.9966061,41.1030697 25.9999904,40 Z" id="Combined-Shape"></path>
                </g>
            </g>
        </g>
    </g>
</svg>