<?xml version="1.0" encoding="UTF-8"?>
<svg width="48px" height="48px" viewBox="0 0 48 48" version="1.1" xmlns="http://www.w3.org/2000/svg" xmlns:xlink="http://www.w3.org/1999/xlink">
    <!-- Generator: Sketch 40.1 (33804) - http://www.bohemiancoding.com/sketch -->
    <title>theicons.co/svg/ui-16</title>
    <desc>Created with Sketch.</desc>
    <defs></defs>
    <g id="The-Icons" stroke="none" stroke-width="1" fill="none" fill-rule="evenodd">
        <g id="v-1.0" transform="translate(-1296.000000, -2096.000000)" fill="#4D4D4D">
            <g id="UI" transform="translate(96.000000, 2096.000000)">
                <g id="Full-Trash" transform="translate(1200.000000, 0.000000)">
                    <path d="M14,20 L14,40.0007252 C14,40.0027408 34.0031611,40 34.0031611,40 C33.9993935,40 33.9996651,25.4225254 33.9998964,20 L14,20 Z M38,19 L38,40.0007252 C38,42.2094637 36.2058797,44 34.0031611,44 L13.9968389,44 C11.7894457,44 10,42.2132053 10,40.0007252 L10,19 L10,18 C10,16.8954305 10.8998975,16 11.9912443,16 L13.0432129,16 L14.5908836,14.4297104 C15.3691171,13.6401031 16.8874333,13.1774867 17.9518398,13.390368 L26,15 L29.164617,13.8526764 C30.2015301,13.4767463 31.7680515,13.6906945 32.6747885,14.33858 L35,16 L36.0087557,16 C37.1084896,16 38,16.8877296 38,18 L38,19 Z M28,8 C28,5.790861 26.209139,4 24,4 C21.790861,4 20,5.790861 20,8 L10.0017433,8 C8.88926172,8 8,8.8954305 8,10 C8,11.1122704 8.89621101,12 10.0017433,12 L37.9982567,12 C39.1107383,12 40,11.1045695 40,10 C40,8.88772964 39.103789,8 37.9982567,8 L28,8 Z M18,26.0085302 C18,24.8992496 18.8877296,24 20,24 C21.1045695,24 22,24.9019504 22,26.0085302 L22,33.9914698 C22,35.1007504 21.1122704,36 20,36 C18.8954305,36 18,35.0980496 18,33.9914698 L18,26.0085302 Z M26,26.0085302 C26,24.8992496 26.8877296,24 28,24 C29.1045695,24 30,24.9019504 30,26.0085302 L30,33.9914698 C30,35.1007504 29.1122704,36 28,36 C26.8954305,36 26,35.0980496 26,33.9914698 L26,26.0085302 Z" id="Combined-Shape"></path>
                </g>
            </g>
        </g>
    </g>
</svg>