<?xml version="1.0" encoding="UTF-8"?>
<svg width="48px" height="48px" viewBox="0 0 48 48" version="1.1" xmlns="http://www.w3.org/2000/svg" xmlns:xlink="http://www.w3.org/1999/xlink">
    <!-- Generator: Sketch 40.1 (33804) - http://www.bohemiancoding.com/sketch -->
    <title>theicons.co/svg/ui-11</title>
    <desc>Created with Sketch.</desc>
    <defs></defs>
    <g id="The-Icons" stroke="none" stroke-width="1" fill="none" fill-rule="evenodd">
        <g id="v-1.0" transform="translate(-896.000000, -2096.000000)" fill="#4D4D4D">
            <g id="UI" transform="translate(96.000000, 2096.000000)">
                <g id="Bell" transform="translate(800.000000, 0.000000)">
                    <path d="M29.9999968,40 L35.9957423,40 C39.314063,40 42,37.315187 42,34 C42,31.8167018 40.8207419,29.8662158 39,28.815212 L39,21.0075959 C39,14.086356 34.3272767,8.26706169 27.9653074,6.52916523 C27.9881908,6.35602499 28,6.17939159 28,6 C28,3.790861 26.209139,2 24,2 C21.790861,2 20,3.790861 20,6 C20,6.17949295 20.0118225,6.3562246 20.0347314,6.52945872 C13.6741243,8.26772191 9,14.0862012 9,20.9971755 C9,20.9971755 9.00844288,28.1907787 9.00844297,28.7977476 C7.18983536,29.8438302 6,31.8024742 6,34 C6,37.3108948 8.68987957,40 12.0042577,40 L18,40 L18,40.0042999 C18,43.3164546 20.6862915,46 24,46 C27.304888,46 29.9966158,43.3142875 29.9999968,40 Z M25.9999904,40 L22,40 L22,40.0042999 C22,41.1063051 22.8944204,42 24,42 C25.0978445,42 25.9966061,41.1030697 25.9999904,40 Z M35,30.6721906 C35,31.2264866 35.4417651,31.7900372 35.9749946,31.9278873 L36.4994183,32.063461 C37.374453,32.2896743 38,33.0858917 38,34 C38,35.1056731 37.1052987,36 35.9957423,36 L12.0042577,36 C10.8987608,36 10,35.1014979 10,34 C10,33.0818983 10.6230089,32.288779 11.4986148,32.0633665 L12.0406493,31.9238273 C12.5704841,31.7874287 13,31.23156 13,30.6721374 L13,20.9971755 C13,14.9231178 17.9237746,10 24,10 C30.0787001,10 35,14.9214627 35,21.0075959 L35,30.6721906 Z" id="Combined-Shape"></path>
                </g>
            </g>
        </g>
    </g>
</svg>