<?xml version="1.0" encoding="UTF-8"?>
<svg width="48px" height="48px" viewBox="0 0 48 48" version="1.1" xmlns="http://www.w3.org/2000/svg" xmlns:xlink="http://www.w3.org/1999/xlink">
    <!-- Generator: Sketch 40.1 (33804) - http://www.bohemiancoding.com/sketch -->
    <title>theicons.co/svg/ui-10</title>
    <desc>Created with Sketch.</desc>
    <defs></defs>
    <g id="The-Icons" stroke="none" stroke-width="1" fill="none" fill-rule="evenodd">
        <g id="v-1.0" transform="translate(-816.000000, -2096.000000)" fill="#4D4D4D">
            <g id="UI" transform="translate(96.000000, 2096.000000)">
                <g id="Unlocked" transform="translate(720.000000, 0.000000)">
                    <path d="M32,34.4648712 C33.1956027,33.7732524 34,32.4805647 34,31 C34,28.790861 32.209139,27 30,27 C27.790861,27 26,28.790861 26,31 C26,32.4805647 26.8043973,33.7732524 28,34.4648712 L28,36.0018986 C28,37.1132936 28.8954305,38 30,38 C31.1122704,38 32,37.1054196 32,36.0018986 L32,34.4648712 Z M22,21 L18.0042577,21 C15.7890275,21 14,22.793679 14,25.0062943 L14,39.9937057 C14,42.2143671 15.7927672,44 18.0042577,44 L41.9957423,44 C44.2109725,44 46,42.206321 46,39.9937057 L46,25.0062943 C46,22.7856329 44.2072328,21 41.9957423,21 L26,21 L26,16.0005127 C26,9.37555373 20.6261936,4 14,4 C7.37173636,4 2,9.37235683 2,16.0003162 L2,18.9977315 C2,20.105846 2.88772964,21.0041504 4,21.0041504 C5.1045695,21.0041504 6,20.1095651 6,18.9977315 L6,16.0003162 C6,11.5813924 9.58097879,8 14,8 C18.4167634,8 22,11.5844017 22,16.0005127 L22,21 Z M18,25 L42,25 L42,40 L18,40 L18,25 Z" id="Combined-Shape"></path>
                </g>
            </g>
        </g>
    </g>
</svg>