<?xml version="1.0" encoding="UTF-8"?>
<svg width="48px" height="48px" viewBox="0 0 48 48" version="1.1" xmlns="http://www.w3.org/2000/svg" xmlns:xlink="http://www.w3.org/1999/xlink">
    <!-- Generator: Sketch 40.1 (33804) - http://www.bohemiancoding.com/sketch -->
    <title>theicons.co/svg/ui-21</title>
    <desc>Created with Sketch.</desc>
    <defs></defs>
    <g id="The-Icons" stroke="none" stroke-width="1" fill="none" fill-rule="evenodd">
        <g id="v-1.0" transform="translate(-416.000000, -2176.000000)" fill="#4D4D4D">
            <g id="UI" transform="translate(96.000000, 2096.000000)">
                <g id="Check-1" transform="translate(320.000000, 80.000000)">
                    <path d="M24,44 C35.045695,44 44,35.045695 44,24 C44,12.954305 35.045695,4 24,4 C12.954305,4 4,12.954305 4,24 C4,35.045695 12.954305,44 24,44 Z M24,40 C15.163444,40 8,32.836556 8,24 C8,15.163444 15.163444,8 24,8 C32.836556,8 40,15.163444 40,24 C40,32.836556 32.836556,40 24,40 Z M19.5857864,31.4142136 C20.366835,32.1952621 21.633165,32.1952621 22.4142136,31.4142136 L33.4142136,20.4142136 C34.1952621,19.633165 34.1952621,18.366835 33.4142136,17.5857864 C32.633165,16.8047379 31.366835,16.8047379 30.5857864,17.5857864 L21,27.1997391 L16.4142136,22.5857864 C15.633165,21.8047379 14.366835,21.8047379 13.5857864,22.5857864 C12.8047379,23.366835 12.8047379,24.633165 13.5857864,25.4142136 L19.5857864,31.4142136 Z" id="Combined-Shape"></path>
                </g>
            </g>
        </g>
    </g>
</svg>