<?xml version="1.0" encoding="UTF-8"?>
<svg width="48px" height="48px" viewBox="0 0 48 48" version="1.1" xmlns="http://www.w3.org/2000/svg" xmlns:xlink="http://www.w3.org/1999/xlink">
    <!-- Generator: Sketch 40.1 (33804) - http://www.bohemiancoding.com/sketch -->
    <title>theicons.co/svg/ui-26</title>
    <desc>Created with Sketch.</desc>
    <defs></defs>
    <g id="The-Icons" stroke="none" stroke-width="1" fill="none" fill-rule="evenodd">
        <g id="v-1.0" transform="translate(-816.000000, -2176.000000)" fill="#4D4D4D">
            <g id="UI" transform="translate(96.000000, 2096.000000)">
                <g id="Horizontal-Sort" transform="translate(720.000000, 80.000000)">
                    <path d="M12.8568665,18 L15.0934754,20.2366089 C15.8759455,21.019079 15.8805557,22.2900192 15.0995071,23.0710678 C14.3130132,23.8575617 13.0494281,23.8494159 12.2650483,23.065036 C12.2650483,23.065036 6.61824729,17.418233 6.61422577,17.4142136 C6.22198558,17.0219734 6.02738944,16.5110703 6.03091576,15.9985269 C6.03059073,15.4866724 6.22470494,14.9753073 6.62025753,14.5797547 L12.2650483,8.93496395 C13.0475184,8.15249384 14.3184586,8.1478836 15.0995071,8.92893219 C15.8860011,9.7154261 15.8778552,10.9790112 15.0934754,11.7633911 L12.8568665,14 L37.9993336,14 C39.1045647,14 40,14.8954305 40,16 C40,17.1122704 39.1042712,18 37.9993336,18 L12.8568665,18 Z M35.2137329,30 L10.0017433,30 C8.88926172,30 8,30.8954305 8,32 C8,33.1122704 8.89621101,34 10.0017433,34 L35.2137329,34 L32.977124,36.2366089 C32.1946539,37.019079 32.1900436,38.2900192 32.9710922,39.0710678 C33.7575861,39.8575617 35.0211713,39.8494159 35.8055511,39.065036 C35.8055511,39.065036 41.4523521,33.418233 41.4563736,33.4142136 C41.8486138,33.0219734 42.0432099,32.5110703 42.0396836,31.9985269 C42.0400086,31.4866724 41.8458944,30.9753073 41.4503418,30.5797547 L35.8055511,24.934964 C35.023081,24.1524938 33.7521408,24.1478836 32.9710922,24.9289322 C32.1845983,25.7154261 32.1927442,26.9790112 32.977124,27.7633911 L35.2137329,30 Z" id="Rectangle-586"></path>
                </g>
            </g>
        </g>
    </g>
</svg>