<?xml version="1.0" encoding="UTF-8"?>
<svg width="48px" height="48px" viewBox="0 0 48 48" version="1.1" xmlns="http://www.w3.org/2000/svg" xmlns:xlink="http://www.w3.org/1999/xlink">
    <!-- Generator: Sketch 40.1 (33804) - http://www.bohemiancoding.com/sketch -->
    <title>theicons.co/svg/ui-27</title>
    <desc>Created with Sketch.</desc>
    <defs></defs>
    <g id="The-Icons" stroke="none" stroke-width="1" fill="none" fill-rule="evenodd">
        <g id="v-1.0" transform="translate(-896.000000, -2176.000000)" fill="#4D4D4D">
            <g id="UI" transform="translate(96.000000, 2096.000000)">
                <g id="Vertical-Sort" transform="translate(800.000000, 80.000000)">
                    <path d="M30.0366814,12.8229484 L27.8000724,15.0595574 C27.0176023,15.8420275 25.7466621,15.8466377 24.9656135,15.0655891 C24.1791196,14.2790952 24.1872655,13.0155101 24.9716453,12.2311302 C24.9716453,12.2311302 30.6184484,6.58432928 30.6224678,6.58030776 C31.014708,6.18806757 31.5256111,5.99347143 32.0381544,5.99699775 C32.550009,5.99667272 33.0613741,6.19078693 33.4569267,6.58633952 L39.1017174,12.2311302 C39.8841875,13.0136004 39.8887978,14.2845406 39.1077492,15.0655891 C38.3212553,15.852083 37.0576701,15.8439372 36.2732903,15.0595574 L34.0366814,12.8229484 L34.0366814,37.9654156 C34.0366814,39.0706467 33.1412509,39.966082 32.0366814,39.966082 C30.924411,39.966082 30.0366814,39.0703532 30.0366814,37.9654156 L30.0366814,12.8229484 L30.0366814,12.8229484 Z M18.0366814,35.1798149 L18.0366814,9.96782531 C18.0366814,8.85534371 17.1412509,7.96608199 16.0366814,7.96608199 C14.924411,7.96608199 14.0366814,8.862293 14.0366814,9.96782531 L14.0366814,35.1798149 L11.8000724,32.943206 C11.0176023,32.1607359 9.74666213,32.1561256 8.96561355,32.9371742 C8.17911964,33.7236681 8.18726548,34.9872533 8.97164531,35.7716331 C8.97164531,35.7716331 14.6184484,41.4184341 14.6224678,41.4224556 C15.014708,41.8146958 15.5256111,42.0092919 16.0381544,42.0057656 C16.550009,42.0060906 17.0613741,41.8119764 17.4569267,41.4164238 L23.1017174,35.7716331 C23.8841875,34.989163 23.8887978,33.7182228 23.1077492,32.9371742 C22.3212553,32.1506803 21.0576701,32.1588261 20.2732903,32.943206 L18.0366814,35.1798149 L18.0366814,35.1798149 Z" id="Rectangle-586"></path>
                </g>
            </g>
        </g>
    </g>
</svg>