<?xml version="1.0" encoding="UTF-8"?>
<svg width="48px" height="48px" viewBox="0 0 48 48" version="1.1" xmlns="http://www.w3.org/2000/svg" xmlns:xlink="http://www.w3.org/1999/xlink">
    <!-- Generator: Sketch 40.1 (33804) - http://www.bohemiancoding.com/sketch -->
    <title>theicons.co/svg/ui-20</title>
    <desc>Created with Sketch.</desc>
    <defs></defs>
    <g id="The-Icons" stroke="none" stroke-width="1" fill="none" fill-rule="evenodd">
        <g id="v-1.0" transform="translate(-336.000000, -2176.000000)" fill="#4D4D4D">
            <g id="UI" transform="translate(96.000000, 2096.000000)">
                <g id="Check-2" transform="translate(240.000000, 80.000000)">
                    <path d="M4,7.99970728 L4,40.0002927 C4,42.2136474 5.78969516,44 7.99970728,44 L40.0002927,44 C42.2136474,44 44,42.2103048 44,40.0002927 L44,7.99970728 C44,5.78635264 42.2103048,4 40.0002927,4 L7.99970728,4 C5.78635264,4 4,5.78969516 4,7.99970728 Z M8,7.99970728 C8,7.99716198 7.99716728,8 7.99970728,8 L40.0002927,8 C40.002838,8 40,7.99716728 40,7.99970728 L40,40.0002927 C40,40.002838 40.0028327,40 40.0002927,40 L7.99970728,40 C7.99716198,40 8,40.0028327 8,40.0002927 L8,7.99970728 Z M19.5857864,31.4142136 C20.366835,32.1952621 21.633165,32.1952621 22.4142136,31.4142136 L33.4142136,20.4142136 C34.1952621,19.633165 34.1952621,18.366835 33.4142136,17.5857864 C32.633165,16.8047379 31.366835,16.8047379 30.5857864,17.5857864 L21,27.1997391 L16.4142136,22.5857864 C15.633165,21.8047379 14.366835,21.8047379 13.5857864,22.5857864 C12.8047379,23.366835 12.8047379,24.633165 13.5857864,25.4142136 L19.5857864,31.4142136 Z" id="Combined-Shape"></path>
                </g>
            </g>
        </g>
    </g>
</svg>