<?xml version="1.0" encoding="UTF-8"?>
<svg width="48px" height="48px" viewBox="0 0 48 48" version="1.1" xmlns="http://www.w3.org/2000/svg" xmlns:xlink="http://www.w3.org/1999/xlink">
    <!-- Generator: Sketch 40.1 (33804) - http://www.bohemiancoding.com/sketch -->
    <title>theicons.co/svg/ui-28</title>
    <desc>Created with Sketch.</desc>
    <defs></defs>
    <g id="The-Icons" stroke="none" stroke-width="1" fill="none" fill-rule="evenodd">
        <g id="v-1.0" transform="translate(-976.000000, -2176.000000)" fill="#4D4D4D">
            <g id="UI" transform="translate(96.000000, 2096.000000)">
                <g id="Repeat" transform="translate(880.000000, 80.000000)">
                    <path d="M19.1590537,16 L16.5858008,18.5857721 C15.8047443,19.3668127 15.8047314,20.6331426 16.5857721,21.4141992 C17.3668127,22.1952557 18.6331426,22.1952686 19.4141992,21.4142279 L25.4141992,15.41435 C26.1952557,14.6333094 26.1952686,13.3669794 25.4142279,12.5859229 L19.4142279,6.58580082 C18.6331873,5.8047443 17.3668574,5.80473141 16.5858008,6.58577205 C15.8047443,7.36681269 15.8047314,8.63314265 16.5857721,9.41419918 L19.1590536,12 L17.0770142,12 C9.90354302,12 4.08021471,17.8225626 4.08021471,25 C4.08021471,31.8419279 10.0252909,38 16.0748083,38 C17.1793778,38 18.0748083,37.1045695 18.0748083,36 C18.0748083,34.8954305 17.1793778,34 16.0748083,34 C12.2665488,34 8.08021471,29.6636809 8.08021471,25 C8.08021471,20.0318194 12.1125643,16 17.0770142,16 L19.1590537,16 Z M28.8409463,34 L31.4141992,31.4142279 C32.1952557,30.6331873 32.1952686,29.3668574 31.4142279,28.5858008 C30.6331873,27.8047443 29.3668574,27.8047314 28.5858008,28.5857721 L22.5858008,34.58565 C21.8047443,35.3666906 21.8047314,36.6330206 22.5857721,37.4140771 L28.5857721,43.4141992 C29.3668127,44.1952557 30.6331426,44.1952686 31.4141992,43.4142279 C32.1952557,42.6331873 32.1952686,41.3668574 31.4142279,40.5858008 L28.8409464,38 L31.0032005,38 C38.1766717,38 44,32.1774374 44,25 C44,18.1580721 38.0549238,12 32.0054065,12 C30.900837,12 30.0054065,12.8954305 30.0054065,14 C30.0054065,15.1045695 30.900837,16 32.0054065,16 C35.8136659,16 40,20.3363191 40,25 C40,29.9681806 35.9676504,34 31.0032005,34 L28.8409463,34 Z" id="Combined-Shape"></path>
                </g>
            </g>
        </g>
    </g>
</svg>