<?xml version="1.0" encoding="UTF-8"?>
<svg width="48px" height="48px" viewBox="0 0 48 48" version="1.1" xmlns="http://www.w3.org/2000/svg" xmlns:xlink="http://www.w3.org/1999/xlink">
    <!-- Generator: Sketch 40.1 (33804) - http://www.bohemiancoding.com/sketch -->
    <title>theicons.co/svg/ui-22</title>
    <desc>Created with Sketch.</desc>
    <defs></defs>
    <g id="The-Icons" stroke="none" stroke-width="1" fill="none" fill-rule="evenodd">
        <g id="v-1.0" transform="translate(-496.000000, -2176.000000)" fill="#4D4D4D">
            <g id="UI" transform="translate(96.000000, 2096.000000)">
                <g id="Plus" transform="translate(400.000000, 80.000000)">
                    <path d="M22,22 L15.9907951,22 C14.8982124,22 14,22.8954305 14,24 C14,25.1122704 14.8913093,26 15.9907951,26 L22,26 L22,32.0092049 C22,33.1017876 22.8954305,34 24,34 C25.1122704,34 26,33.1086907 26,32.0092049 L26,26 L32.0092049,26 C33.1017876,26 34,25.1045695 34,24 C34,22.8877296 33.1086907,22 32.0092049,22 L26,22 L26,15.9907951 C26,14.8982124 25.1045695,14 24,14 C22.8877296,14 22,14.8913093 22,15.9907951 L22,22 Z M24,44 C35.045695,44 44,35.045695 44,24 C44,12.954305 35.045695,4 24,4 C12.954305,4 4,12.954305 4,24 C4,35.045695 12.954305,44 24,44 Z M24,40 C15.163444,40 8,32.836556 8,24 C8,15.163444 15.163444,8 24,8 C32.836556,8 40,15.163444 40,24 C40,32.836556 32.836556,40 24,40 Z" id="Combined-Shape"></path>
                </g>
            </g>
        </g>
    </g>
</svg>