<?xml version="1.0" encoding="UTF-8"?>
<svg width="48px" height="48px" viewBox="0 0 48 48" version="1.1" xmlns="http://www.w3.org/2000/svg" xmlns:xlink="http://www.w3.org/1999/xlink">
    <!-- Generator: Sketch 40.1 (33804) - http://www.bohemiancoding.com/sketch -->
    <title>theicons.co/svg/ui-24</title>
    <desc>Created with Sketch.</desc>
    <defs></defs>
    <g id="The-Icons" stroke="none" stroke-width="1" fill="none" fill-rule="evenodd">
        <g id="v-1.0" transform="translate(-656.000000, -2176.000000)" fill="#4D4D4D">
            <g id="UI" transform="translate(96.000000, 2096.000000)">
                <g id="Delete" transform="translate(560.000000, 80.000000)">
                    <path d="M24,21.1715729 L19.0439982,16.215571 C18.2651335,15.4367063 17.002874,15.4407768 16.2218254,16.2218254 C15.4353315,17.0083193 15.4379767,18.2664038 16.215571,19.0439982 L21.1715729,24 L16.215571,28.9560018 C15.4379767,29.7335962 15.4353315,30.9916807 16.2218254,31.7781746 C17.002874,32.5592232 18.2651335,32.5632937 19.0439982,31.784429 L24,26.8284271 L28.9560018,31.784429 C29.7348665,32.5632937 30.997126,32.5592232 31.7781746,31.7781746 C32.5646685,30.9916807 32.5620233,29.7335962 31.784429,28.9560018 L26.8284271,24 L31.784429,19.0439982 C32.5620233,18.2664038 32.5646685,17.0083193 31.7781746,16.2218254 C30.997126,15.4407768 29.7348665,15.4367063 28.9560018,16.215571 L24,21.1715729 Z M24,44 C35.045695,44 44,35.045695 44,24 C44,12.954305 35.045695,4 24,4 C12.954305,4 4,12.954305 4,24 C4,35.045695 12.954305,44 24,44 Z M24,40 C15.163444,40 8,32.836556 8,24 C8,15.163444 15.163444,8 24,8 C32.836556,8 40,15.163444 40,24 C40,32.836556 32.836556,40 24,40 Z" id="Combined-Shape-Copy-5"></path>
                </g>
            </g>
        </g>
    </g>
</svg>