<?xml version="1.0" encoding="UTF-8"?>
<svg width="48px" height="48px" viewBox="0 0 48 48" version="1.1" xmlns="http://www.w3.org/2000/svg" xmlns:xlink="http://www.w3.org/1999/xlink">
    <!-- Generator: Sketch 40.1 (33804) - http://www.bohemiancoding.com/sketch -->
    <title>theicons.co/svg/ui-33</title>
    <desc>Created with Sketch.</desc>
    <defs></defs>
    <g id="The-Icons" stroke="none" stroke-width="1" fill="none" fill-rule="evenodd">
        <g id="v-1.0" transform="translate(-96.000000, -2256.000000)" fill="#4D4D4D">
            <g id="UI" transform="translate(96.000000, 2096.000000)">
                <g id="Bookmark" transform="translate(0.000000, 160.000000)">
                    <path d="M12.0836559,36.7307245 L21.0310715,31.1385898 C22.797355,30.0346625 25.202991,30.0348788 26.9689285,31.1385898 L36,36.7929688 L36,8.00002553 C36,8.00373491 12.0042577,8 12.0042577,8 C11.9990891,8 12.0836559,36.7307245 12.0836559,36.7307245 Z M8,8.00002553 C8,5.79087243 9.78902751,4 12.0042577,4 L35.9957423,4 C38.2072328,4 40,5.79642476 40,8.00002553 L40,39.9999745 C40,42.2091276 38.4803341,43.0502088 36.6068115,41.8792572 L24.8489328,34.530583 C24.3800801,34.2375501 23.6202734,34.2373292 23.1510672,34.530583 L11.3931885,41.8792572 C9.51918223,43.0505111 8,42.2035752 8,39.9999745 L8,8.00002553 L8,8.00002553 Z" id="Rectangle-1143"></path>
                </g>
            </g>
        </g>
    </g>
</svg>