<?xml version="1.0" encoding="UTF-8"?>
<svg width="48px" height="48px" viewBox="0 0 48 48" version="1.1" xmlns="http://www.w3.org/2000/svg" xmlns:xlink="http://www.w3.org/1999/xlink">
    <!-- Generator: Sketch 40.1 (33804) - http://www.bohemiancoding.com/sketch -->
    <title>theicons.co/svg/ui-35</title>
    <desc>Created with Sketch.</desc>
    <defs></defs>
    <g id="The-Icons" stroke="none" stroke-width="1" fill="none" fill-rule="evenodd">
        <g id="v-1.0" transform="translate(-256.000000, -2256.000000)" fill="#4D4D4D">
            <g id="UI" transform="translate(96.000000, 2096.000000)">
                <g id="Share-1" transform="translate(160.000000, 160.000000)">
                    <path d="M36.0020869,22 C35.9996668,22 36,39.9950534 36,39.9950534 C36,39.9966429 11.9912443,40 11.9912443,40 C11.9988533,40 12,22.0049466 12,22.0049466 C12,22.0025278 16,22 16,22 C17.1045695,22 18,21.1045695 18,20 C18,18.8954305 17.1045695,18 16,18 L11.9979131,18 C9.79139872,18 8,19.7953685 8,22.0049466 L8,39.9950534 C8,42.2043657 9.7837429,44 11.9912443,44 L36.0087557,44 C38.2093421,44 40,42.2022505 40,39.9950534 L40,22.0049466 C40,19.7941457 38.211767,18 36.0020869,18 L32,18 C30.8954305,18 30,18.8954305 30,20 C30,21.1045695 30.8954305,22 32,22 L36.0020869,22 Z M19.7710954,13.0779405 C18.9886253,13.8604106 17.7176851,13.8650208 16.9366366,13.0839722 C16.1501426,12.2974783 16.1582885,11.0338932 16.9426683,10.2495134 C16.9426683,10.2495134 22.5894714,4.60271239 22.5934908,4.59869087 C22.985731,4.20645068 23.4966341,4.01185454 24.0091774,4.01538086 C24.521032,4.01505583 25.0323971,4.20917005 25.4279497,4.60472263 L31.0727404,10.2495134 C31.8552105,11.0319835 31.8598208,12.3029237 31.0787722,13.0839722 C30.2922783,13.8704662 29.0286931,13.8623203 28.2443133,13.0779405 L26.0077044,10.8413316 L26.0077044,33.9837987 C26.0077044,35.0890298 25.1122739,35.9844651 24.0077044,35.9844651 C22.895434,35.9844651 22.0077044,35.0887363 22.0077044,33.9837987 L22.0077044,10.8413316 L19.7710954,13.0779405 Z" id="Combined-Shape"></path>
                </g>
            </g>
        </g>
    </g>
</svg>