<?xml version="1.0" encoding="UTF-8"?>
<svg width="48px" height="48px" viewBox="0 0 48 48" version="1.1" xmlns="http://www.w3.org/2000/svg" xmlns:xlink="http://www.w3.org/1999/xlink">
    <!-- Generator: Sketch 40.1 (33804) - http://www.bohemiancoding.com/sketch -->
    <title>theicons.co/svg/ui-34</title>
    <desc>Created with Sketch.</desc>
    <defs></defs>
    <g id="The-Icons" stroke="none" stroke-width="1" fill="none" fill-rule="evenodd">
        <g id="v-1.0" transform="translate(-176.000000, -2256.000000)" fill="#4D4D4D">
            <g id="UI" transform="translate(96.000000, 2096.000000)">
                <g id="History" transform="translate(80.000000, 160.000000)">
                    <path d="M22.7844666,41.5892389 C22.6880978,41.5211141 22.5043559,41.3993096 22.2424758,41.2401155 C21.730066,40.928627 21.1430372,40.6146855 20.4954541,40.321278 C18.7097553,39.512212 16.8341834,39.0220422 15.0241161,38.9998546 C13.187463,39.0220026 11.3149731,39.5124529 9.52071163,40.3224155 C8.86907877,40.6165745 8.27667817,40.931438 7.75820448,41.2439735 C7.45839064,41.4247011 7.25873039,41.5578097 7.17312098,41.6198108 C5.85074931,42.5775165 4,41.6327483 4,40 L4,12 C4,11.5738253 4.13613418,11.1587931 4.3885544,10.8154144 C4.88420972,10.141152 5.78463224,9.22941432 7.1144378,8.33845439 C9.29589774,6.87689229 11.9331042,6 15,6 C18.2398181,6 20.977001,7.36520287 23.190067,9.58930975 C23.4822661,9.88296666 23.7520916,10.1765329 24,10.4657872 C24.2479084,10.1765329 24.5177339,9.88296666 24.809933,9.58930975 C27.022999,7.36520287 29.7601819,6 33,6 C36.0668958,6 38.7041023,6.87689229 40.8855622,8.33845439 C42.2153678,9.22941432 43.1157903,10.141152 43.6114456,10.8154144 C43.8638658,11.1587931 44,11.5738253 44,12 L44,40 C44,41.6327483 42.1492507,42.5775165 40.826879,41.6198108 C40.7412696,41.5578097 40.5416094,41.4247011 40.2417955,41.2439735 C39.7233218,40.931438 39.1309212,40.6165745 38.4792884,40.3224155 C36.6850269,39.5124529 34.812537,39.0220026 32.9758839,38.9998546 C31.1658166,39.0220422 29.2902447,39.512212 27.5045459,40.321278 C26.8569628,40.6146855 26.269934,40.928627 25.7575242,41.2401155 C25.4956441,41.3993096 25.3119022,41.5211141 25.2155334,41.5892389 C25.1716412,41.6225272 25.1264348,41.6540034 25.0800555,41.6835959 C24.7378167,41.9049825 24.3646722,42.0049875 24,42.0035685 C23.6353278,42.0049875 23.2621833,41.9049825 22.9199445,41.6835959 C22.8735652,41.6540034 22.8283588,41.6225272 22.7844666,41.5892389 L22.7844666,41.5892389 Z M8,12.7803558 C8.34913985,12.4036803 8.80431746,12.0210416 9.34088446,11.6615456 C10.8908088,10.6231077 12.7647718,10 15,10 C17.0623059,10 18.8362925,10.8847971 20.3546107,12.4106902 C20.9068406,12.9656752 22,14.5307617 22,14.5307617 C22,14.5307617 21.9999995,35.7508279 21.9999995,36.6766663 C19.7463959,35.6556016 17.4930599,35.0296239 15.0238777,35.0001425 C12.5280664,35.0296634 10.2599171,35.559727 8,36.579895 C8,35.8424683 7.99999999,13.1845856 8,12.7803558 Z M40,12.7803558 C39.6508601,12.4036803 39.1956825,12.0210416 38.6591155,11.6615456 C37.1091912,10.6231077 35.2352282,10 33,10 C30.9376941,10 29.1637075,10.8847971 27.6453892,12.4106902 C27.0931593,12.9656752 26,14.5307617 26,14.5307617 C26,14.5307617 26.0000005,35.7508279 26.0000005,36.6766663 C28.2536041,35.6556016 30.5069401,35.0296239 32.9761223,35.0001425 C35.4719336,35.0296634 37.7400829,35.559727 40,36.579895 C40,35.8424683 40,13.1845856 40,12.7803558 Z" id="Combined-Shape"></path>
                </g>
            </g>
        </g>
    </g>
</svg>