<?xml version="1.0" encoding="UTF-8"?>
<svg width="48px" height="48px" viewBox="0 0 48 48" version="1.1" xmlns="http://www.w3.org/2000/svg" xmlns:xlink="http://www.w3.org/1999/xlink">
    <!-- Generator: Sketch 40.1 (33804) - http://www.bohemiancoding.com/sketch -->
    <title>theicons.co/svg/ui-32</title>
    <desc>Created with Sketch.</desc>
    <defs></defs>
    <g id="The-Icons" stroke="none" stroke-width="1" fill="none" fill-rule="evenodd">
        <g id="v-1.0" transform="translate(-1296.000000, -2176.000000)" fill="#4D4D4D">
            <g id="UI" transform="translate(96.000000, 2096.000000)">
                <g id="Shield-Broken" transform="translate(1200.000000, 80.000000)">
                    <path d="M24,42.3252734 L24,43.9998307 C21.7583376,44.0293393 17.2525759,41.9442674 13.7351847,39.0463366 C8.96499061,35.1162387 6.0362295,30.0080155 6.00001126,23.993289 C6.02224021,17.3686544 6.00058931,6.09583718 6.00004354,6.01319731 C5.99134639,4.69520758 7.2376599,3.72931505 8.51179371,4.06659182 C8.55915357,4.07912848 11.2239992,4.73651125 13.1681137,5.02822719 C16.7478813,5.56537418 20.428806,6 24,6 L24,8.5770862 L24,8.5770862 L24,6 C27.5972154,6 31.2781401,5.56537418 34.8579076,5.02822719 C36.8020222,4.73651125 39.4668678,4.07912848 39.5142277,4.06659182 C40.7883615,3.72931505 42.034675,4.69520758 42.0259778,6.01319731 C42.0254321,6.09583718 42.0037812,17.3686544 42.0260101,23.993289 C41.9897919,30.0080155 39.0610308,35.1162387 34.2908367,39.0463366 C30.7734455,41.9442674 26.2676838,44.0293393 23.9999983,43.9998307 L23.999999,42.325273 L24,42.3252734 Z M23.0367249,9.99090761 C19.5273405,9.92548984 15.957936,9.51499251 12.4583132,9.01727273 C11.5857956,8.89318242 10.8016024,8.66862689 10,8.51093476 C10.0000002,9.27429177 10.0222476,17.3731533 9.99996356,23.9879277 C10.028218,28.6687168 12.3544621,32.7260548 16.2786703,35.9591565 C17.8298994,37.237193 19.553725,38.3079707 21.2024077,39.0709099 C21.4414768,39.1815407 21.6748501,39.2832162 21.8988607,39.3754312 L26.6483211,25.6809261 L18.7722329,19.5787932 C17.9388153,18.9306762 17.7527087,17.7463818 18.3471678,16.8738803 L23.0367249,9.99090761 Z M27.9669782,9.85870002 C30.5094402,9.68664517 33.056539,9.37441368 35.5677082,9.01727273 C36.4402258,8.89318242 37.224419,8.66862689 38.0260214,8.51093476 C38.0260212,9.27429177 38.0037738,17.3731533 38.0260578,23.9879277 C37.9978034,28.6687168 35.6715593,32.7260548 31.7473511,35.9591565 C30.196122,37.237193 28.4722964,38.3079707 26.8236137,39.0709099 C26.5868649,39.180467 26.3557018,39.2812417 26.1335253,39.3727435 L30.8909284,25.6553367 C31.1717067,24.8457457 30.9055422,23.9472423 30.2291099,23.4212068 L22.7131038,17.5699343 L27.9669782,9.85870002 Z" id="Combined-Shape"></path>
                </g>
            </g>
        </g>
    </g>
</svg>