<?xml version="1.0" encoding="UTF-8"?>
<svg width="48px" height="48px" viewBox="0 0 48 48" version="1.1" xmlns="http://www.w3.org/2000/svg" xmlns:xlink="http://www.w3.org/1999/xlink">
    <!-- Generator: Sketch 40.1 (33804) - http://www.bohemiancoding.com/sketch -->
    <title>theicons.co/svg/ui-37</title>
    <desc>Created with Sketch.</desc>
    <defs></defs>
    <g id="The-Icons" stroke="none" stroke-width="1" fill="none" fill-rule="evenodd">
        <g id="v-1.0" transform="translate(-416.000000, -2256.000000)" fill="#4D4D4D">
            <g id="UI" transform="translate(96.000000, 2096.000000)">
                <g id="Search" transform="translate(320.000000, 160.000000)">
                    <path d="M31.9266726,29.0982455 L42.784429,39.9560018 C43.5620233,40.7335962 43.5646685,41.9916807 42.7781746,42.7781746 C41.997126,43.5592232 40.7348665,43.5632937 39.9560018,42.784429 L29.0982455,31.9266726 C26.5746478,33.8547284 23.4210701,35 20,35 C11.7157288,35 5,28.2842712 5,20 C5,11.7157288 11.7157288,5 20,5 C28.2842712,5 35,11.7157288 35,20 C35,23.4210701 33.8547284,26.5746478 31.9266726,29.0982455 Z M20,31 C13.9248678,31 9,26.0751322 9,20 C9,13.9248678 13.9248678,9 20,9 C26.0751322,9 31,13.9248678 31,20 C31,26.0751322 26.0751322,31 20,31 Z" id="Combined-Shape"></path>
                </g>
            </g>
        </g>
    </g>
</svg>