<?xml version="1.0" encoding="UTF-8"?>
<svg width="48px" height="48px" viewBox="0 0 48 48" version="1.1" xmlns="http://www.w3.org/2000/svg" xmlns:xlink="http://www.w3.org/1999/xlink">
    <!-- Generator: Sketch 40.1 (33804) - http://www.bohemiancoding.com/sketch -->
    <title>theicons.co/svg/ui-38</title>
    <desc>Created with Sketch.</desc>
    <defs></defs>
    <g id="The-Icons" stroke="none" stroke-width="1" fill="none" fill-rule="evenodd">
        <g id="v-1.0" transform="translate(-496.000000, -2256.000000)" fill="#4D4D4D">
            <g id="UI" transform="translate(96.000000, 2096.000000)">
                <g id="Globe" transform="translate(400.000000, 160.000000)">
                    <path d="M39.8762125,26 C39.165164,31.7021534 35.4535991,36.4724843 30.3713785,38.6811321 C32.2571607,35.3168455 33.6250487,30.7235079 33.9339921,26 L39.8762125,26 Z M39.8762125,22 C39.1676541,16.3178153 35.4795579,11.5609382 30.4247212,9.34216595 C32.2922284,12.6963634 33.6334089,17.2711321 33.9355852,22 L39.8762125,22 Z M8.12378751,22 C8.83234591,16.3178153 12.5204421,11.5609382 17.5752788,9.34216595 C15.7077716,12.6963634 14.3665911,17.2711321 14.0644148,22 L8.12378751,22 Z M8.12378751,26 C8.83483598,31.7021534 12.5464009,36.4724843 17.6286215,38.6811321 C15.7428393,35.3168455 14.3749513,30.7235079 14.0660079,26 L8.12378751,26 Z M18.0716629,26 C18.3284593,29.5963321 19.2618213,33.043262 20.651594,35.8371819 C21.9496786,38.446777 23.471419,40 24,40 C24.528581,40 26.0503214,38.446777 27.348406,35.8371819 C28.7381787,33.043262 29.6715407,29.5963321 29.9283371,26 L18.0716629,26 Z M18.0701895,22 C18.3227527,18.3904677 19.2436374,14.9392941 20.616796,12.1572913 C21.910184,9.53690266 23.423852,8 24,8 C24.576148,8 26.089816,9.53690266 27.383204,12.1572913 C28.7563626,14.9392941 29.6772473,18.3904677 29.9298105,22 L18.0701895,22 Z M24,44 C35.045695,44 44,35.045695 44,24 C44,12.954305 35.045695,4 24,4 C12.954305,4 4,12.954305 4,24 C4,35.045695 12.954305,44 24,44 Z" id="Combined-Shape"></path>
                </g>
            </g>
        </g>
    </g>
</svg>