<?xml version="1.0" encoding="UTF-8"?>
<svg width="48px" height="48px" viewBox="0 0 48 48" version="1.1" xmlns="http://www.w3.org/2000/svg" xmlns:xlink="http://www.w3.org/1999/xlink">
    <!-- Generator: Sketch 40.1 (33804) - http://www.bohemiancoding.com/sketch -->
    <title>theicons.co/svg/ui-49</title>
    <desc>Created with Sketch.</desc>
    <defs></defs>
    <g id="The-Icons" stroke="none" stroke-width="1" fill="none" fill-rule="evenodd">
        <g id="v-1.0" transform="translate(-96.000000, -2336.000000)" fill="#4D4D4D">
            <g id="UI" transform="translate(96.000000, 2096.000000)">
                <g id="New-Note" transform="translate(0.000000, 240.000000)">
                    <path d="M36,26.0014648 L36,39.993882 C36,40.0017191 36.0017112,40 35.9982567,40 L8.00174332,40 C7.99730117,40 8,40.0026924 8,39.9982567 L8,12.0017433 C8,12.0001785 8.00017889,12 8.00983882,12 L22.0297852,12 C23.1343547,12 24.0297852,11.1045695 24.0297852,10 C24.0297852,8.8954305 23.1343547,8 22.0297852,8 L8.00983882,8 C5.79316198,8 4,9.7889118 4,12.0017433 L4,39.9982567 C4,42.213984 5.79030913,44 8.00174332,44 L35.9982567,44 C38.2149652,44 40,42.2067639 40,39.993882 L40,26.0014648 C40,24.8968953 39.1045695,24.0014648 38,24.0014648 C36.8954305,24.0014648 36,24.8968953 36,26.0014648 Z M39.7270134,5.44154559 L42.5613431,8.2758753 C44.1218103,9.83634251 44.1217854,12.3663846 42.5553811,13.9327889 L22.7594019,33.7287681 L15.3142109,35.5969588 C13.1699649,36.1350055 11.8696075,34.8260517 12.4059298,32.6886778 L14.2741205,25.2434868 L34.0700998,5.44750753 C35.6338597,3.88374763 38.1718699,3.88640211 39.7270134,5.44154559 Z M22.0522951,28.7790207 L20.6964748,30.1348409 L16.9476647,31.055224 L17.886334,27.2900428 C17.886334,27.2900428 18.3955771,26.780918 19.2249452,25.9516707 L22.0522951,28.7790207 Z M24.8807222,25.9505935 L35.4843133,15.3470025 C35.4886324,15.3426834 32.6559456,12.5126134 32.6559456,12.5126134 C32.6596014,12.5162693 26.422609,18.7543722 22.0534955,23.1233667 L24.8807222,25.9505935 L24.8807222,25.9505935 Z" id="Combined-Shape"></path>
                </g>
            </g>
        </g>
    </g>
</svg>