<?xml version="1.0" encoding="UTF-8"?>
<svg width="48px" height="48px" viewBox="0 0 48 48" version="1.1" xmlns="http://www.w3.org/2000/svg" xmlns:xlink="http://www.w3.org/1999/xlink">
    <!-- Generator: Sketch 40.1 (33804) - http://www.bohemiancoding.com/sketch -->
    <title>theicons.co/svg/ui-40</title>
    <desc>Created with Sketch.</desc>
    <defs></defs>
    <g id="The-Icons" stroke="none" stroke-width="1" fill="none" fill-rule="evenodd">
        <g id="v-1.0" transform="translate(-656.000000, -2256.000000)" fill="#4D4D4D">
            <g id="UI" transform="translate(96.000000, 2096.000000)">
                <g id="Filter-2" transform="translate(560.000000, 160.000000)">
                    <path d="M25,32 L5.99729162,32 C4.89153983,32 4,32.8954305 4,34 C4,35.1122704 4.89421792,36 5.99729162,36 L25,36 L25,38.0037973 C25,40.2111696 26.7889923,42 28.9958262,42 L33.0041738,42 C35.2034788,42 37,40.2108391 37,38.0037973 L37,36 L42.0027084,36 C43.1084602,36 44,35.1045695 44,34 C44,32.8877296 43.1057821,32 42.0027084,32 L37,32 L37,29.9962027 C37,27.7888304 35.2110077,26 33.0041738,26 L28.9958262,26 C26.7965212,26 25,27.7891609 25,29.9962027 L25,32 Z M11,12 L5.99729162,12 C4.89153983,12 4,12.8954305 4,14 C4,15.1122704 4.89421792,16 5.99729162,16 L11,16 L11,18.0037973 C11,20.2111696 12.7889923,22 14.9958262,22 L19.0041738,22 C21.2034788,22 23,20.2108391 23,18.0037973 L23,16 L42.0027084,16 C43.1084602,16 44,15.1045695 44,14 C44,12.8877296 43.1057821,12 42.0027084,12 L23,12 L23,9.99620271 C23,7.78883037 21.2110077,6 19.0041738,6 L14.9958262,6 C12.7965212,6 11,7.78916089 11,9.99620271 L11,12 Z M15,10 L19,10 L19,18 L15,18 L15,10 Z M29,30 L33,30 L33,38 L29,38 L29,30 Z" id="Combined-Shape"></path>
                </g>
            </g>
        </g>
    </g>
</svg>