<?xml version="1.0" encoding="UTF-8"?>
<svg width="48px" height="48px" viewBox="0 0 48 48" version="1.1" xmlns="http://www.w3.org/2000/svg" xmlns:xlink="http://www.w3.org/1999/xlink">
    <!-- Generator: Sketch 40.1 (33804) - http://www.bohemiancoding.com/sketch -->
    <title>theicons.co/svg/ui-46</title>
    <desc>Created with Sketch.</desc>
    <defs></defs>
    <g id="The-Icons" stroke="none" stroke-width="1" fill="none" fill-rule="evenodd">
        <g id="v-1.0" transform="translate(-1136.000000, -2256.000000)" fill="#4D4D4D">
            <g id="UI" transform="translate(96.000000, 2096.000000)">
                <g id="Settings-1" transform="translate(1040.000000, 160.000000)">
                    <path d="M29.6876272,7.5870068 C29.4130903,6.88059748 29.1961229,6.37058166 29.0652375,6.08481883 C28.5707472,4.89341147 27.2178767,4 25.8617902,4 L22.1382098,4 C20.7878092,4 19.4407109,4.89149752 18.9121848,6.13624019 C18.8038297,6.3710255 18.5869348,6.88100369 18.3124774,7.58734385 C17.8609884,8.74929071 17.2697274,10.5914844 17.2697274,10.5914844 L15.8017478,11.4641533 C15.8017478,11.4641533 13.6169576,11.0200562 12.6307721,10.8680321 C11.8812686,10.7524934 11.3307424,10.6853358 11.0176168,10.655785 C9.73858254,10.4883226 8.28843029,11.213237 7.61038705,12.3876423 L5.7485968,15.6123577 C5.07339654,16.7818388 5.17190687,18.3942089 5.98562261,19.4742973 C6.1348693,19.6856609 6.46824995,20.1287104 6.94297556,20.719851 C7.72391489,21.692297 9.02406835,23.1440553 9.02406835,23.1440553 C9.02406835,23.1440553 9,23.7137165 9,24 C9,24.6060829 9.02122722,24.8579474 9.02122722,24.8579474 C9.02122722,24.8579474 7.5614299,26.5100335 6.94297556,27.280149 C6.46824995,27.8712896 6.1348693,28.3143391 5.95273464,28.5706452 C5.16798653,29.5946648 5.07049019,31.2131272 5.7485968,32.3876423 L7.61038705,35.6123577 C8.28552181,36.7817254 9.73090656,37.502712 11.0730279,37.3382055 C11.3307424,37.3146642 11.8812686,37.2475066 12.6307721,37.1319679 C13.8637139,36.9419054 15.7579303,36.5344294 15.7579303,36.5344294 L17.2483097,37.3842262 C17.2483097,37.3842262 17.9528355,39.4870861 18.3124774,40.4126561 C18.5869348,41.1189963 18.8038297,41.6289745 18.9346622,41.9147129 C19.4291151,43.1063345 20.7819965,44 22.1382098,44 L25.8617902,44 C27.2120598,44 28.5591449,43.1087534 29.0877388,41.864189 C29.1961229,41.6294183 29.4130903,41.1194025 29.6876272,40.4129932 C30.1392406,39.2509495 30.7473745,37.3999032 30.7473745,37.3999032 L32.2092582,36.5379326 C32.2092582,36.5379326 34.386085,36.9801253 35.3689881,37.1317086 C35.8038431,37.1987719 36.1938338,37.2524018 36.5341638,37.2939504 C36.6555318,37.3087674 36.7626547,37.3210651 36.8549315,37.331011 C36.9584563,37.3417859 36.9584563,37.3417859 36.9691343,37.3428347 C38.2611286,37.5116696 39.7115063,36.7868728 40.389613,35.6123577 L42.2514032,32.3876423 C42.926538,31.2182746 42.8282383,29.6060414 42.0147109,28.5259835 C41.8654914,28.3146021 41.5321144,27.8714709 41.0573686,27.2802267 C40.2764075,26.3076246 38.9749641,24.8729382 38.9749641,24.8729382 C38.9749641,24.8729382 39,24.2919886 39,24 C39,23.3940891 38.9819809,23.1390312 38.9819809,23.1390312 C38.9819809,23.1390312 40.4397199,21.4889876 41.0573686,20.7197733 C41.5321144,20.1285291 41.8654914,19.6853979 42.0476208,19.4290338 C42.8321646,18.4050889 42.9294464,16.786763 42.2514032,15.6123577 L40.389613,12.3876423 C39.7144127,11.2181612 38.268804,10.4972886 36.9265622,10.6619429 C36.6688494,10.6855166 36.1183921,10.7527183 35.3689881,10.8682914 C34.1361921,11.0584131 32.2331124,11.4596749 32.2331124,11.4596749 L30.7473739,10.5925903 C30.7473739,10.5925903 30.1392406,8.7490505 29.6876272,7.5870068 Z M27.449496,13.5087792 L28.3122658,13.8768598 C29.1275752,14.2246925 29.8976001,14.6705504 30.6060904,15.2036279 L31.3567552,15.7684379 L32.2707454,15.5513437 C33.5983525,15.2360058 34.8475937,14.9959889 35.9786604,14.8215558 C36.3711574,14.7610249 36.719552,14.7131152 37.0188984,14.67657 C37.1924285,14.6553849 38.6890117,17.247368 38.5839335,17.3870399 C38.4026623,17.6279892 38.1870248,17.9057351 37.9384027,18.2153668 C37.2219346,19.10765 36.3895334,20.0695045 35.4526463,21.0615944 L34.8093481,21.7427966 L34.9209828,22.673069 C34.9734976,23.1106842 35,23.5534677 35,24 C35,24.4465323 34.9734976,24.8893158 34.9209828,25.326931 L34.8093481,26.2572034 L35.4526463,26.9384056 C36.3895334,27.9304955 37.2219346,28.89235 37.9384027,29.7846332 C38.1870248,30.0942649 38.4026623,30.3720108 38.5839335,30.6129601 C38.6890117,30.752632 37.1214171,33.3359458 37.0188984,33.32343 C36.719552,33.2868848 36.3711574,33.2389751 35.9786604,33.1784442 C34.8475937,33.0040111 33.5983525,32.7639942 32.2707454,32.4486563 L31.3567552,32.2315621 L30.6060904,32.7963721 C29.8976001,33.3294496 29.1275752,33.7753075 28.3122658,34.1231402 L27.449496,34.4912208 L27.1808569,35.3899356 C26.7902346,36.6967376 26.3736063,37.8979527 25.9592916,38.9640235 C25.8155206,39.3339598 25.68287,39.6594071 25.5648989,39.9367166 C25.4965149,40.0974638 22.5035908,40.0974004 22.4352187,39.9366393 C22.3172725,39.659316 22.1846494,39.3338619 22.0409069,38.963928 C21.626679,37.897876 21.2101239,36.6967437 20.8195492,35.3901068 L20.5508975,34.4913538 L19.688078,34.1232869 C18.8727566,33.775482 18.1027168,33.3296504 17.3942086,32.7965971 L16.6435565,32.2318364 L15.7296053,32.4489225 C14.4018314,32.7643018 13.1524821,33.0042967 12.0213559,33.178664 C11.6288426,33.2391713 11.2804402,33.2870538 10.9810934,33.3235706 C10.8075695,33.3447384 9.31109609,30.7526919 9.41619225,30.6130234 C9.59748792,30.3720887 9.81314501,30.0943632 10.0617792,29.7847574 C10.7782744,28.8925589 11.6106405,27.9308091 12.5474081,26.9388433 L13.1907329,26.2576112 L13.0790618,25.327303 C13.0265174,24.8895667 13,24.4466588 13,24 C13,23.5533412 13.0265174,23.1104333 13.0790618,22.672697 L13.1907329,21.7423888 L12.5474081,21.0611567 C11.6106405,20.0691909 10.7782744,19.1074411 10.0617792,18.2152426 C9.81314501,17.9056368 9.59748792,17.6279113 9.41619225,17.3869766 C9.31109609,17.2473081 10.8075695,14.6552616 10.9810934,14.6764294 C11.2804402,14.7129462 11.6288426,14.7608287 12.0213559,14.821336 C13.1524821,14.9957033 14.4018314,15.2356982 15.7296053,15.5510775 L16.6435565,15.7681636 L17.3942086,15.2034029 C18.1027168,14.6703496 18.8727566,14.224518 19.688078,13.8767131 L20.5508975,13.5086462 L20.8195492,12.6098932 C21.2101239,11.3032563 21.626679,10.102124 22.0409069,9.03607203 C22.1846494,8.66613807 22.3172725,8.34068395 22.4352187,8.0633607 C22.5035908,7.90259957 25.4965149,7.90253622 25.5648989,8.06328342 C25.68287,8.34059286 25.8155206,8.66604016 25.9592916,9.03597654 C26.3736063,10.1020473 26.7902346,11.3032624 27.1808569,12.6100644 L27.449496,13.5087792 Z M24,30 C20.6862915,30 18,27.3137085 18,24 C18,20.6862915 20.6862915,18 24,18 C27.3137085,18 30,20.6862915 30,24 C30,27.3137085 27.3137085,30 24,30 Z M24,26 C25.1045695,26 26,25.1045695 26,24 C26,22.8954305 25.1045695,22 24,22 C22.8954305,22 22,22.8954305 22,24 C22,25.1045695 22.8954305,26 24,26 Z" id="Combined-Shape"></path>
                </g>
            </g>
        </g>
    </g>
</svg>