<?xml version="1.0" encoding="UTF-8"?>
<svg width="48px" height="48px" viewBox="0 0 48 48" version="1.1" xmlns="http://www.w3.org/2000/svg" xmlns:xlink="http://www.w3.org/1999/xlink">
    <!-- Generator: Sketch 40.1 (33804) - http://www.bohemiancoding.com/sketch -->
    <title>theicons.co/svg/ui-47</title>
    <desc>Created with Sketch.</desc>
    <defs></defs>
    <g id="The-Icons" stroke="none" stroke-width="1" fill="none" fill-rule="evenodd">
        <g id="v-1.0" transform="translate(-1216.000000, -2256.000000)" fill="#4D4D4D">
            <g id="UI" transform="translate(96.000000, 2096.000000)">
                <g id="Settings-2" transform="translate(1120.000000, 160.000000)">
                    <path d="M26,26.3414114 L26,7.99970728 C26,6.88989258 25.1045695,6 24,6 C22.8877296,6 22,6.89529944 22,7.99970728 L22,26.3414114 C19.6696153,27.1650842 18,29.3875623 18,32 C18,34.6124377 19.6696153,36.8349158 22,37.6585886 L22,40.0002927 C22,41.1101074 22.8954305,42 24,42 C25.1122704,42 26,41.1047006 26,40.0002927 L26,37.6585886 C28.3303847,36.8349158 30,34.6124377 30,32 C30,29.3875623 28.3303847,27.1650842 26,26.3414114 Z M40,14.3414114 L40,7.99970728 C40,6.88989258 39.1045695,6 38,6 C36.8877296,6 36,6.89529944 36,7.99970728 L36,14.3414114 C33.6696153,15.1650842 32,17.3875623 32,20 C32,22.6124377 33.6696153,24.8349158 36,25.6585886 L36,40.0002927 C36,41.1101074 36.8954305,42 38,42 C39.1122704,42 40,41.1047006 40,40.0002927 L40,25.6585886 C42.3303847,24.8349158 44,22.6124377 44,20 C44,17.3875623 42.3303847,15.1650842 40,14.3414114 Z M12,10.3414114 L12,7.99970728 C12,6.88989258 11.1045695,6 10,6 C8.88772964,6 8,6.89529944 8,7.99970728 L8,10.3414114 C5.66961525,11.1650842 4,13.3875623 4,16 C4,18.6124377 5.66961525,20.8349158 8,21.6585886 L8,40.0002927 C8,41.1101074 8.8954305,42 10,42 C11.1122704,42 12,41.1047006 12,40.0002927 L12,21.6585886 C14.3303847,20.8349158 16,18.6124377 16,16 C16,13.3875623 14.3303847,11.1650842 12,10.3414114 Z M10,18 C11.1045695,18 12,17.1045695 12,16 C12,14.8954305 11.1045695,14 10,14 C8.8954305,14 8,14.8954305 8,16 C8,17.1045695 8.8954305,18 10,18 Z M24,34 C25.1045695,34 26,33.1045695 26,32 C26,30.8954305 25.1045695,30 24,30 C22.8954305,30 22,30.8954305 22,32 C22,33.1045695 22.8954305,34 24,34 Z M38,22 C39.1045695,22 40,21.1045695 40,20 C40,18.8954305 39.1045695,18 38,18 C36.8954305,18 36,18.8954305 36,20 C36,21.1045695 36.8954305,22 38,22 Z" id="Combined-Shape"></path>
                </g>
            </g>
        </g>
    </g>
</svg>