<?xml version="1.0" encoding="UTF-8"?>
<svg width="48px" height="48px" viewBox="0 0 48 48" version="1.1" xmlns="http://www.w3.org/2000/svg" xmlns:xlink="http://www.w3.org/1999/xlink">
    <!-- Generator: Sketch 40.1 (33804) - http://www.bohemiancoding.com/sketch -->
    <title>theicons.co/svg/ui-41</title>
    <desc>Created with Sketch.</desc>
    <defs></defs>
    <g id="The-Icons" stroke="none" stroke-width="1" fill="none" fill-rule="evenodd">
        <g id="v-1.0" transform="translate(-736.000000, -2256.000000)" fill="#4D4D4D">
            <g id="UI" transform="translate(96.000000, 2096.000000)">
                <g id="Sort" transform="translate(640.000000, 160.000000)">
                    <path d="M20.0059397,6 C21.1072288,6 22,6.89451376 22,7.99406028 L22,20.0059397 C22,21.1072288 21.1054862,22 20.0059397,22 L7.99406028,22 C6.8927712,22 6,21.1054862 6,20.0059397 L6,7.99406028 C6,6.8927712 6.89451376,6 7.99406028,6 L20.0059397,6 Z M18,10 L18,18 L10,18 L10,10 L18,10 Z M6,27.9940603 C6,26.8927712 6.89451376,26 7.99406028,26 L20.0059397,26 C21.1072288,26 22,26.8945138 22,27.9940603 L22,40.0059397 C22,41.1072288 21.1054862,42 20.0059397,42 L7.99406028,42 C6.8927712,42 6,41.1054862 6,40.0059397 L6,27.9940603 Z M10,30 L18,30 L18,38 L10,38 L10,30 Z M38.0366814,7.96782531 C38.0366814,6.85534371 37.1412509,5.96608199 36.0366814,5.96608199 C34.924411,5.96608199 34.0366814,6.862293 34.0366814,7.96782531 L34.0366814,35.1798149 L31.8000724,32.943206 C31.0176023,32.1607359 29.7466621,32.1561256 28.9656135,32.9371742 C28.1791196,33.7236681 28.1872655,34.9872533 28.9716453,35.7716331 C28.9716453,35.7716331 34.6184484,41.4184341 34.6224678,41.4224556 C35.014708,41.8146958 35.5256111,42.0092919 36.0381544,42.0057656 C36.550009,42.0060906 37.0613741,41.8119764 37.4569267,41.4164238 L43.1017174,35.7716331 C43.8841875,34.989163 43.8887978,33.7182228 43.1077492,32.9371742 C42.3212553,32.1506803 41.0576701,32.1588261 40.2732903,32.943206 L38.0366814,35.1798149 L38.0366814,7.96782531 Z" id="Rectangle-560"></path>
                </g>
            </g>
        </g>
    </g>
</svg>