<?xml version="1.0" encoding="UTF-8"?>
<svg width="48px" height="48px" viewBox="0 0 48 48" version="1.1" xmlns="http://www.w3.org/2000/svg" xmlns:xlink="http://www.w3.org/1999/xlink">
    <!-- Generator: Sketch 40.1 (33804) - http://www.bohemiancoding.com/sketch -->
    <title>theicons.co/svg/ui-48</title>
    <desc>Created with Sketch.</desc>
    <defs></defs>
    <g id="The-Icons" stroke="none" stroke-width="1" fill="none" fill-rule="evenodd">
        <g id="v-1.0" transform="translate(-1296.000000, -2256.000000)" fill="#4D4D4D">
            <g id="UI" transform="translate(96.000000, 2096.000000)">
                <g id="Settings-3" transform="translate(1197.000000, 159.000000)">
                    <path d="M30.1657413,25.0929828 C29.4553514,25.4190274 29.0000005,26.1290382 29.0000005,26.9106768 L29,40.9943259 C29,42.6517387 27.6531263,43.9987615 26,43.9987615 C24.3393892,43.9987615 23,42.6600706 23,40.994326 L23,26.9106796 C23,26.1290413 22.5446496,25.4190308 21.8342601,25.092986 C18.3079815,23.4745429 16,19.9467568 16,15.9987615 C16,12.49723 17.5795898,10.8481267 18,10.2897161 L18,14.991916 C18,16.2165139 18.7068819,17.5403836 19.7248739,18.219045 L24.0563253,21.1066792 C25.1873692,21.8607085 26.8114151,21.861519 27.9436747,21.1066792 L32.2751261,18.219045 C33.2915402,17.5414356 34,16.2154021 34,14.991916 C34,14.991916 34.0112991,11.5406316 34.0112995,10.2863712 C35.301369,11.8868186 36,13.8275497 36,15.9987615 C36,19.9467569 33.6920184,23.4745426 30.1657413,25.0929828 Z M33.0014519,4.29062107 C31.6681193,3.51932979 30,4.48148669 30,6.0218328 L30,14.991916 L26,17.6058857 L22,14.991916 L22,6.0218328 C22,4.48148669 20.3318807,3.51932979 18.9985481,4.29062107 C14.6226938,6.82191609 12,11.0108068 12,15.9987615 C12,21.5244358 15.4254761,26.4805117 19,28.1361517 L19,40.994326 C19,44.8696767 22.1307171,47.9987615 26,47.9987615 C29.8623645,47.9987615 33,44.8607785 33,40.994326 C33,40.994326 33.0016899,28.6213808 33.0016905,28.1249476 C37.2720453,25.6577288 40,21.0757801 40,15.9987615 C40,11.0108068 37.3773062,6.82191609 33.0014519,4.29062107 Z" id="Combined-Shape-Copy-2" transform="translate(26.000000, 26.008803) rotate(-315.000000) translate(-26.000000, -26.008803) "></path>
                </g>
            </g>
        </g>
    </g>
</svg>