<?xml version="1.0" encoding="UTF-8"?>
<svg width="48px" height="48px" viewBox="0 0 48 48" version="1.1" xmlns="http://www.w3.org/2000/svg" xmlns:xlink="http://www.w3.org/1999/xlink">
    <!-- Generator: Sketch 40.1 (33804) - http://www.bohemiancoding.com/sketch -->
    <title>theicons.co/svg/ui-43</title>
    <desc>Created with Sketch.</desc>
    <defs></defs>
    <g id="The-Icons" stroke="none" stroke-width="1" fill="none" fill-rule="evenodd">
        <g id="v-1.0" transform="translate(-896.000000, -2256.000000)" fill="#4D4D4D">
            <g id="UI" transform="translate(96.000000, 2096.000000)">
                <g id="Upload" transform="translate(800.000000, 160.000000)">
                    <path d="M19.7710954,26.9153091 C18.9886253,26.1325389 17.7176851,26.1279269 16.9366366,26.909275 C16.1501426,27.6960705 16.1582885,28.9601402 16.9426683,29.7448209 C16.9426683,29.7448209 22.5894714,35.3937874 22.5934908,35.3978104 C22.985731,35.790201 23.4966341,35.9848718 24.0091774,35.9813441 C24.521032,35.9816693 25.0323971,35.7874806 25.4279497,35.3917763 L31.0727404,29.7448209 C31.8552105,28.9620507 31.8598208,27.6906231 31.0787722,26.909275 C30.2922783,26.1224795 29.0286931,26.1306284 28.2443133,26.9153091 L26.0077044,29.1527757 L26.0077044,6.0014336 C26.0077044,4.89577872 25.1122739,4 24.0077044,4 C22.895434,4 22.0077044,4.89607234 22.0077044,6.0014336 L22.0077044,29.1527757 L19.7710954,26.9153091 Z M36,39.9988512 C36,39.9963142 11.9912443,39.998466 11.9912443,39.998466 C11.9940484,39.998466 12,33.9961651 12,33.9961651 C12,32.891172 11.1045695,31.9953981 10,31.9953981 C8.8954305,31.9953981 8,32.891172 8,33.9961651 L8,39.9988512 C8,42.213083 9.78357562,44 11.9912443,44 L36.0087557,44 C38.2081465,44 40,42.2051459 40,39.9988512 L40,33.9961651 C40,32.891172 39.1045695,31.9953981 38,31.9953981 C36.8954305,31.9953981 36,32.891172 36,33.9961651 L36,39.9988512 Z" id="Combined-Shape"></path>
                </g>
            </g>
        </g>
    </g>
</svg>