<?xml version="1.0" encoding="UTF-8"?>
<svg width="48px" height="48px" viewBox="0 0 48 48" version="1.1" xmlns="http://www.w3.org/2000/svg" xmlns:xlink="http://www.w3.org/1999/xlink">
    <!-- Generator: Sketch 40.1 (33804) - http://www.bohemiancoding.com/sketch -->
    <title>theicons.co/svg/ui-42</title>
    <desc>Created with Sketch.</desc>
    <defs></defs>
    <g id="The-Icons" stroke="none" stroke-width="1" fill="none" fill-rule="evenodd">
        <g id="v-1.0" transform="translate(-816.000000, -2256.000000)" fill="#4D4D4D">
            <g id="UI" transform="translate(96.000000, 2096.000000)">
                <g id="Image" transform="translate(720.000000, 160.000000)">
                    <path d="M28.1590536,28 L20,28 L20,20 L40,20 L40,40 L20,40 L20,32 L28.1590537,32 L25.5858008,34.5857721 C24.8047443,35.3668127 24.8047314,36.6331426 25.5857721,37.4141992 C26.3668127,38.1952557 27.6331426,38.1952686 28.4141992,37.4142279 L34.4141992,31.41435 C35.1952557,30.6333094 35.1952686,29.3669794 34.4142279,28.5859229 L28.4142279,22.5858008 C27.6331873,21.8047443 26.3668574,21.8047314 25.5858008,22.5857721 C24.8047443,23.3668127 24.8047314,24.6331426 25.5857721,25.4141992 L28.1590536,28 Z M32,16 L32,7.99683887 C32,5.79412025 30.2105543,4 28.0031611,4 L7.99683887,4 C5.79412025,4 4,5.78944571 4,7.99683887 L4,28.0031611 C4,30.2058797 5.78944571,32 7.99683887,32 L16,32 L16,40.0031611 C16,42.2058797 17.7894457,44 19.9968389,44 L40.0031611,44 C42.2058797,44 44,42.2105543 44,40.0031611 L44,19.9968389 C44,17.7941203 42.2105543,16 40.0031611,16 L32,16 Z M28,16 L28,8 L8,8 L8,28 L16,28 L16,19.9968389 C16,17.7894457 17.7941203,16 19.9968389,16 L28,16 Z" id="Combined-Shape"></path>
                </g>
            </g>
        </g>
    </g>
</svg>