<?xml version="1.0" encoding="UTF-8"?>
<svg width="48px" height="48px" viewBox="0 0 48 48" version="1.1" xmlns="http://www.w3.org/2000/svg" xmlns:xlink="http://www.w3.org/1999/xlink">
    <!-- Generator: Sketch 40.1 (33804) - http://www.bohemiancoding.com/sketch -->
    <title>theicons.co/svg/ui-44</title>
    <desc>Created with Sketch.</desc>
    <defs></defs>
    <g id="The-Icons" stroke="none" stroke-width="1" fill="none" fill-rule="evenodd">
        <g id="v-1.0" transform="translate(-976.000000, -2256.000000)" fill="#4D4D4D">
            <g id="UI" transform="translate(96.000000, 2096.000000)">
                <g id="Archive-1" transform="translate(880.000000, 160.000000)">
                    <path d="M42,18 L42,38.0031611 C42,40.2105543 40.2147544,42 38.0098214,42 L9.99017859,42 C7.7864638,42 6,40.2058797 6,38.0031611 L6,18 C4.89421792,18 4,17.0980496 4,15.9914698 L4,9.99582624 C4,7.78899235 5.79642476,6 8.00002553,6 L39.9999745,6 C42.2091276,6 44,7.79652125 44,9.99582624 L44,15.9914698 C44,17.1007504 43.1084602,18 42.0027084,18 Z M10,18 L38,18 L38,38 L10,38 L10,18 Z M8,10 L40,10 L40,14 L8,14 L8,10 Z M16,24 C16,22.8954305 16.8945138,22 17.9940603,22 L30.0059397,22 C31.1072288,22 32,22.8877296 32,24 C32,25.1045695 31.1054862,26 30.0059397,26 L17.9940603,26 C16.8927712,26 16,25.1122704 16,24 Z" id="Combined-Shape"></path>
                </g>
            </g>
        </g>
    </g>
</svg>