<?xml version="1.0" encoding="UTF-8"?>
<svg width="48px" height="48px" viewBox="0 0 48 48" version="1.1" xmlns="http://www.w3.org/2000/svg" xmlns:xlink="http://www.w3.org/1999/xlink">
    <!-- Generator: Sketch 40.1 (33804) - http://www.bohemiancoding.com/sketch -->
    <title>theicons.co/svg/ui-57</title>
    <desc>Created with Sketch.</desc>
    <defs></defs>
    <g id="The-Icons" stroke="none" stroke-width="1" fill="none" fill-rule="evenodd">
        <g id="v-1.0" transform="translate(-736.000000, -2336.000000)" fill="#4D4D4D">
            <g id="UI" transform="translate(96.000000, 2096.000000)">
                <g id="Slideshow-2" transform="translate(640.000000, 240.000000)">
                    <path d="M12,11.9910608 C12,10.8914283 12.8970262,10 14.0049466,10 L33.9950534,10 C35.1023548,10 36,10.8998146 36,11.9910608 L36,36.0063588 C36,37.1059913 35.1029738,37.9974196 33.9950534,37.9974196 L14.0049466,37.9974196 C12.8976452,37.9974196 12,37.097605 12,36.0063588 L12,11.9910608 Z M16,14 L32,14 L32,33.9974196 L16,33.9974196 L16,14 Z M4.89442719,6.21114562 C3.56462501,5.54624453 2,6.51323596 2,8 L2,40 C2,41.486764 3.56462501,42.4537555 4.89442719,41.7888544 L8.89442719,39.7888544 C9.88238419,39.2948759 10.2828329,38.0935298 9.78885438,37.1055728 C9.29487588,36.1176158 8.0935298,35.7171671 7.10557281,36.2111456 L6,36.7376709 L6,11.2453974 L7.10557281,11.7888544 C8.0935298,12.2828329 9.29487588,11.8823842 9.78885438,10.8944272 C10.2828329,9.9064702 9.88238419,8.70512412 8.89442719,8.21114562 L4.89442719,6.21114562 Z M43.1060109,6.21114562 C44.4358131,5.54624453 46.0004381,6.51323596 46.0004381,8 L46.0004381,40 C46.0004381,41.486764 44.4358131,42.4537555 43.1060109,41.7888544 L39.1060109,39.7888544 C38.1180539,39.2948759 37.7176052,38.0935298 38.2115837,37.1055728 C38.7055622,36.1176158 39.9069083,35.7171671 40.8948653,36.2111456 L42.0004381,36.7376709 L42.0004381,11.2453974 L40.8948653,11.7888544 C39.9069083,12.2828329 38.7055622,11.8823842 38.2115837,10.8944272 C37.7176052,9.9064702 38.1180539,8.70512412 39.1060109,8.21114562 L43.1060109,6.21114562 Z" id="Combined-Shape"></path>
                </g>
            </g>
        </g>
    </g>
</svg>