<?xml version="1.0" encoding="UTF-8"?>
<svg width="48px" height="48px" viewBox="0 0 48 48" version="1.1" xmlns="http://www.w3.org/2000/svg" xmlns:xlink="http://www.w3.org/1999/xlink">
    <!-- Generator: Sketch 40.1 (33804) - http://www.bohemiancoding.com/sketch -->
    <title>theicons.co/svg/ui-54</title>
    <desc>Created with Sketch.</desc>
    <defs></defs>
    <g id="The-Icons" stroke="none" stroke-width="1" fill="none" fill-rule="evenodd">
        <g id="v-1.0" transform="translate(-496.000000, -2336.000000)" fill="#4D4D4D">
            <g id="UI" transform="translate(96.000000, 2096.000000)">
                <g id="Tag" transform="translate(400.000000, 240.000000)">
                    <path d="M10.2058349,37.5290989 C11.2238642,38.9543401 13.2448463,40 14.991617,40 L42.008383,40 C44.2078192,40 46,38.2119765 46,36.0087557 L46,11.9912443 C46,9.79364642 44.2112221,8 42.008383,8 L14.991617,8 C13.2487159,8 11.2237312,9.04584624 10.2058349,10.4709011 L2.87524412,21.1745277 C1.73509919,22.7707305 1.73448314,25.16917 2.87524412,26.7662354 L10.2058349,37.5290989 Z M6.10412597,23.5718697 L13.4607688,12.7958539 C13.7290832,12.4202137 14.5427078,12 14.991617,12 L42.008383,12 C41.9996457,12 42,36.0087557 42,36.0087557 C42,36.0007553 14.991617,36 14.991617,36 C14.5399402,36 13.7298476,35.5808565 13.4607688,35.2041461 L6.10412597,24.5136719 C5.95702651,24.3077326 5.95716268,23.7776183 6.10412597,23.5718697 Z M18,30 C14.6862915,30 12,27.3137085 12,24 C12,20.6862915 14.6862915,18 18,18 C21.3137085,18 24,20.6862915 24,24 C24,27.3137085 21.3137085,30 18,30 Z M18,26 C19.1045695,26 20,25.1045695 20,24 C20,22.8954305 19.1045695,22 18,22 C16.8954305,22 16,22.8954305 16,24 C16,25.1045695 16.8954305,26 18,26 Z" id="Combined-Shape"></path>
                </g>
            </g>
        </g>
    </g>
</svg>