<?xml version="1.0" encoding="UTF-8"?>
<svg width="48px" height="48px" viewBox="0 0 48 48" version="1.1" xmlns="http://www.w3.org/2000/svg" xmlns:xlink="http://www.w3.org/1999/xlink">
    <!-- Generator: Sketch 40.1 (33804) - http://www.bohemiancoding.com/sketch -->
    <title>theicons.co/svg/ui-56</title>
    <desc>Created with Sketch.</desc>
    <defs></defs>
    <g id="The-Icons" stroke="none" stroke-width="1" fill="none" fill-rule="evenodd">
        <g id="v-1.0" transform="translate(-656.000000, -2336.000000)" fill="#4D4D4D">
            <g id="UI" transform="translate(96.000000, 2096.000000)">
                <g id="Slideshow-1" transform="translate(560.000000, 240.000000)">
                    <path d="M4,5.99124431 C4,4.89151044 4.89153983,4 5.99729162,4 L42.0027084,4 C43.1057821,4 44,4.89989752 44,5.99124431 L44,30.0087557 C44,31.1084896 43.1084602,32 42.0027084,32 L5.99729162,32 C4.89421792,32 4,31.1001025 4,30.0087557 L4,5.99124431 Z M8,8 L40,8 L40,28 L8,28 L8,8 Z M24,44 C26.209139,44 28,42.209139 28,40 C28,37.790861 26.209139,36 24,36 C21.790861,36 20,37.790861 20,40 C20,42.209139 21.790861,44 24,44 Z M35,43 C36.6568542,43 38,41.6568542 38,40 C38,38.3431458 36.6568542,37 35,37 C33.3431458,37 32,38.3431458 32,40 C32,41.6568542 33.3431458,43 35,43 Z M13,43 C14.6568542,43 16,41.6568542 16,40 C16,38.3431458 14.6568542,37 13,37 C11.3431458,37 10,38.3431458 10,40 C10,41.6568542 11.3431458,43 13,43 Z" id="Combined-Shape"></path>
                </g>
            </g>
        </g>
    </g>
</svg>