<?xml version="1.0" encoding="UTF-8"?>
<svg width="48px" height="48px" viewBox="0 0 48 48" version="1.1" xmlns="http://www.w3.org/2000/svg" xmlns:xlink="http://www.w3.org/1999/xlink">
    <!-- Generator: Sketch 40.1 (33804) - http://www.bohemiancoding.com/sketch -->
    <title>theicons.co/svg/ui-50</title>
    <desc>Created with Sketch.</desc>
    <defs></defs>
    <g id="The-Icons" stroke="none" stroke-width="1" fill="none" fill-rule="evenodd">
        <g id="v-1.0" transform="translate(-176.000000, -2336.000000)" fill="#4D4D4D">
            <g id="UI" transform="translate(96.000000, 2096.000000)">
                <g id="Edit-Note" transform="translate(80.000000, 240.000000)">
                    <path d="M4,42 C4,40.8954305 4.89153983,40 5.99729162,40 L42.0027084,40 C43.1057821,40 44,40.8877296 44,42 C44,43.1045695 43.1084602,44 42.0027084,44 L5.99729162,44 C4.89421792,44 4,43.1122704 4,42 Z M39.7270134,5.44154559 L42.5613431,8.2758753 C44.1218103,9.83634251 44.1217854,12.3663846 42.5553811,13.9327889 L22.7594019,33.7287681 L15.3142109,35.5969588 C13.1699649,36.1350055 11.8696075,34.8260517 12.4059298,32.6886778 L14.2741205,25.2434868 L34.0700998,5.44750753 C35.6338597,3.88374763 38.1718699,3.88640211 39.7270134,5.44154559 Z M22.0522951,28.7790207 L20.6964748,30.1348409 L16.9476647,31.055224 L17.886334,27.2900428 C17.886334,27.2900428 18.3955771,26.780918 19.2249452,25.9516707 L22.0522951,28.7790207 Z M24.8807222,25.9505935 L35.4843133,15.3470025 C35.4886324,15.3426834 32.6559456,12.5126134 32.6559456,12.5126134 C32.6596014,12.5162693 26.422609,18.7543722 22.0534955,23.1233667 L24.8807222,25.9505935 L24.8807222,25.9505935 Z" id="Combined-Shape"></path>
                </g>
            </g>
        </g>
    </g>
</svg>