<?xml version="1.0" encoding="UTF-8"?>
<svg width="48px" height="48px" viewBox="0 0 48 48" version="1.1" xmlns="http://www.w3.org/2000/svg" xmlns:xlink="http://www.w3.org/1999/xlink">
    <!-- Generator: Sketch 40.1 (33804) - http://www.bohemiancoding.com/sketch -->
    <title>theicons.co/svg/ui-58</title>
    <desc>Created with Sketch.</desc>
    <defs></defs>
    <g id="The-Icons" stroke="none" stroke-width="1" fill="none" fill-rule="evenodd">
        <g id="v-1.0" transform="translate(-816.000000, -2336.000000)" fill="#4D4D4D">
            <g id="UI" transform="translate(96.000000, 2096.000000)">
                <g id="Slideshow-3" transform="translate(720.000000, 240.000000)">
                    <path d="M4.89442719,6.21114562 C3.56462501,5.54624453 2,6.51323596 2,8 L2,40 C2,41.486764 3.56462501,42.4537555 4.89442719,41.7888544 L8.89442719,39.7888544 C9.88238419,39.2948759 10.2828329,38.0935298 9.78885438,37.1055728 C9.29487588,36.1176158 8.0935298,35.7171671 7.10557281,36.2111456 L6,36.7376709 L6,11.2453974 L7.10557281,11.7888544 C8.0935298,12.2828329 9.29487588,11.8823842 9.78885438,10.8944272 C10.2828329,9.9064702 9.88238419,8.70512412 8.89442719,8.21114562 L4.89442719,6.21114562 Z M14.8944272,6.21114562 C13.564625,5.54624453 12,6.51323596 12,8 L12,40 C12,41.486764 13.564625,42.4537555 14.8944272,41.7888544 L18.8944272,39.7888544 C19.8823842,39.2948759 20.2828329,38.0935298 19.7888544,37.1055728 C19.2948759,36.1176158 18.0935298,35.7171671 17.1055728,36.2111456 L16,36.7376709 L16,11.2453974 L17.1055728,11.7888544 C18.0935298,12.2828329 19.2948759,11.8823842 19.7888544,10.8944272 C20.2828329,9.9064702 19.8823842,8.70512412 18.8944272,8.21114562 L14.8944272,6.21114562 Z M22,40 C22,41.2620928 23.1546484,42.2086781 24.3922323,41.9611614 L44.3922323,37.9611614 C45.3270807,37.7741917 46,36.953362 46,36 L46,12 C46,11.046638 45.3270807,10.2258083 44.3922323,10.0388386 L24.3922323,6.03883865 C23.1546484,5.79132188 22,6.73790715 22,8 L22,40 Z M42,13.6401367 L42,34.3570008 L26,37.5917969 L26,10.4581299 L42,13.6401367 Z" id="Combined-Shape"></path>
                </g>
            </g>
        </g>
    </g>
</svg>