<?xml version="1.0" encoding="UTF-8"?>
<svg width="48px" height="48px" viewBox="0 0 48 48" version="1.1" xmlns="http://www.w3.org/2000/svg" xmlns:xlink="http://www.w3.org/1999/xlink">
    <!-- Generator: Sketch 40.1 (33804) - http://www.bohemiancoding.com/sketch -->
    <title>theicons.co/svg/ui-55</title>
    <desc>Created with Sketch.</desc>
    <defs></defs>
    <g id="The-Icons" stroke="none" stroke-width="1" fill="none" fill-rule="evenodd">
        <g id="v-1.0" transform="translate(-576.000000, -2336.000000)" fill="#4D4D4D">
            <g id="UI" transform="translate(96.000000, 2096.000000)">
                <g id="Sidebar" transform="translate(480.000000, 240.000000)">
                    <path d="M8,30 L8,26 L14.000385,26 C15.1125667,26 16,25.1045695 16,24 C16,22.8877296 15.1047419,22 14.000385,22 L8,22 L8,18 L14.000385,18 C15.1125667,18 16,17.1045695 16,16 C16,14.8877296 15.1047419,14 14.000385,14 L8,14 L8,10 L20,10 L20,38 L8,38 L8,34 L14.000385,34 C15.1125667,34 16,33.1045695 16,32 C16,30.8877296 15.1047419,30 14.000385,30 L8,30 Z M24,10 L40,10 L40,38 L24,38 L24,10 Z M4,9.99017859 C4,7.7864638 5.79642476,6 8.00002553,6 L39.9999745,6 C42.2091276,6 44,7.7852456 44,9.99017859 L44,38.0098214 C44,40.2135362 42.2035752,42 39.9999745,42 L8.00002553,42 C5.79087243,42 4,40.2147544 4,38.0098214 L4,9.99017859 Z" id="Combined-Shape"></path>
                </g>
            </g>
        </g>
    </g>
</svg>