<?xml version="1.0" encoding="UTF-8"?>
<svg width="48px" height="48px" viewBox="0 0 48 48" version="1.1" xmlns="http://www.w3.org/2000/svg" xmlns:xlink="http://www.w3.org/1999/xlink">
    <!-- Generator: Sketch 40.1 (33804) - http://www.bohemiancoding.com/sketch -->
    <title>theicons.co/svg/ui-51</title>
    <desc>Created with Sketch.</desc>
    <defs></defs>
    <g id="The-Icons" stroke="none" stroke-width="1" fill="none" fill-rule="evenodd">
        <g id="v-1.0" transform="translate(-256.000000, -2336.000000)" fill="#4D4D4D">
            <g id="UI" transform="translate(96.000000, 2096.000000)">
                <g id="Attachment" transform="translate(160.000000, 240.000000)">
                    <path d="M28.2842712,24.755893 L21.2109682,31.829196 C20.4333125,32.6068517 19.164678,32.6068624 18.3847763,31.8269608 C17.605313,31.0474974 17.6043194,29.7789905 18.3825411,29.0007689 L28.2842712,19.0990387 C29.0653198,18.3179901 29.0653198,17.0516602 28.2842712,16.2706116 C27.5032227,15.489563 26.2368927,15.489563 25.4558441,16.2706116 L15.5541139,26.1723418 C13.2128024,28.5136533 13.2157797,32.3148184 15.5563492,34.6553879 C17.8983587,36.9973974 21.6996532,36.9973652 24.0393953,34.6576231 L31.1126984,27.5843201 L40.3038668,18.3931516 C43.8175067,14.8795118 43.8159962,9.17491954 40.3050865,5.66400986 C36.790594,2.14951731 31.0905532,2.15062113 27.5759447,5.66522959 L18.3847763,14.856398 L8.48527375,24.7559006 C3.79871609,29.4424582 3.79840156,37.0395759 8.48528137,41.7264557 C13.172029,46.4132033 20.7685539,46.413746 25.4558365,41.7264633 L38.1837662,28.9985336 C38.9648148,28.2174851 38.9648148,26.9511551 38.1837662,26.1701065 C37.4027176,25.3890579 36.1363876,25.3890579 35.3553391,26.1701065 L22.6274094,38.8980362 C19.5023144,42.0231312 14.4384494,42.0227695 11.3137085,38.8980286 C8.18897828,35.7732984 8.18918796,30.7088406 11.3137009,27.5843277 L21.2132034,17.6848251 L30.4043719,8.49365671 C32.3571283,6.54090025 35.5245093,6.54028688 37.4766594,8.49243698 C39.4258071,10.4415847 39.426647,13.6135172 37.4754397,15.5647245 L28.2842712,24.755893 L28.2842712,24.755893 Z" id="Combined-Shape"></path>
                </g>
            </g>
        </g>
    </g>
</svg>