<?xml version="1.0" encoding="UTF-8"?>
<svg width="48px" height="48px" viewBox="0 0 48 48" version="1.1" xmlns="http://www.w3.org/2000/svg" xmlns:xlink="http://www.w3.org/1999/xlink">
    <!-- Generator: Sketch 40.1 (33804) - http://www.bohemiancoding.com/sketch -->
    <title>theicons.co/svg/ui-52</title>
    <desc>Created with Sketch.</desc>
    <defs></defs>
    <g id="The-Icons" stroke="none" stroke-width="1" fill="none" fill-rule="evenodd">
        <g id="v-1.0" transform="translate(-336.000000, -2336.000000)" fill="#4D4D4D">
            <g id="UI" transform="translate(96.000000, 2096.000000)">
                <g id="Link" transform="translate(240.000000, 240.000000)">
                    <path d="M28.2491495,16.9224234 C29.0266034,16.1449695 30.2845739,16.1424383 31.0710678,16.9289322 C31.8521164,17.7099808 31.8501493,18.9782778 31.0775766,19.7508505 L19.7508505,31.0775766 C18.9733966,31.8550305 17.7154261,31.8575617 16.9289322,31.0710678 C16.1478836,30.2900192 16.1498507,29.0217222 16.9224234,28.2491495 L28.2491495,16.9224234 L28.2491495,16.9224234 Z M22.5857864,33.8994949 L16.9289608,39.5563206 C14.5882373,41.8970441 10.782879,41.8955773 8.44365081,39.5563492 C6.10245057,37.2151489 6.10363611,33.4110825 8.44367944,31.0710392 L14.1005051,25.4142136 C14.8815536,24.633165 14.8815536,23.366835 14.1005051,22.5857864 C13.3194565,21.8047379 12.0531265,21.8047379 11.2720779,22.5857864 L5.61525231,28.2426121 C1.71350633,32.144358 1.71153149,38.4810841 5.61522369,42.3847763 C9.51606112,46.2856137 15.8540789,46.2880567 19.7573879,42.3847477 L25.4142136,36.7279221 C26.1952621,35.9468735 26.1952621,34.6805435 25.4142136,33.8994949 C24.633165,33.1184464 23.366835,33.1184464 22.5857864,33.8994949 L22.5857864,33.8994949 Z M36.7279221,25.4142136 L42.3847477,19.7573879 C46.2880567,15.8540789 46.2856137,9.51606112 42.3847763,5.61522369 C38.4810841,1.71153149 32.144358,1.71350633 28.2426121,5.61525231 L22.5857864,11.2720779 C21.8047379,12.0531265 21.8047379,13.3194565 22.5857864,14.1005051 C23.366835,14.8815536 24.633165,14.8815536 25.4142136,14.1005051 L31.0710392,8.44367944 C33.4110825,6.10363611 37.2151489,6.10245057 39.5563492,8.44365081 C41.8955773,10.782879 41.8970441,14.5882373 39.5563206,16.9289608 L33.8994949,22.5857864 C33.1184464,23.366835 33.1184464,24.633165 33.8994949,25.4142136 C34.6805435,26.1952621 35.9468735,26.1952621 36.7279221,25.4142136 L36.7279221,25.4142136 Z" id="Combined-Shape"></path>
                </g>
            </g>
        </g>
    </g>
</svg>