<?xml version="1.0" encoding="UTF-8"?>
<svg width="48px" height="48px" viewBox="0 0 48 48" version="1.1" xmlns="http://www.w3.org/2000/svg" xmlns:xlink="http://www.w3.org/1999/xlink">
    <!-- Generator: Sketch 40.1 (33804) - http://www.bohemiancoding.com/sketch -->
    <title>theicons.co/svg/ui-53</title>
    <desc>Created with Sketch.</desc>
    <defs></defs>
    <g id="The-Icons" stroke="none" stroke-width="1" fill="none" fill-rule="evenodd">
        <g id="v-1.0" transform="translate(-416.000000, -2336.000000)" fill="#4D4D4D">
            <g id="UI" transform="translate(96.000000, 2096.000000)">
                <g id="Unlink" transform="translate(320.000000, 240.000000)">
                    <path d="M28.2491495,16.9224234 C29.0266034,16.1449695 30.2845739,16.1424383 31.0710678,16.9289322 C31.8521164,17.7099808 31.8501493,18.9782778 31.0775766,19.7508505 L19.7508505,31.0775766 C18.9733966,31.8550305 17.7154261,31.8575617 16.9289322,31.0710678 C16.1478836,30.2900192 16.1498507,29.0217222 16.9224234,28.2491495 L28.2491495,16.9224234 L28.2491495,16.9224234 Z M22.5857864,33.8994949 L16.9289608,39.5563206 C14.5882373,41.8970441 10.782879,41.8955773 8.44365081,39.5563492 C6.10245057,37.2151489 6.10363611,33.4110825 8.44367944,31.0710392 L14.1005051,25.4142136 C14.8815536,24.633165 14.8815536,23.366835 14.1005051,22.5857864 C13.3194565,21.8047379 12.0531265,21.8047379 11.2720779,22.5857864 L5.61525231,28.2426121 C1.71350633,32.144358 1.71153149,38.4810841 5.61522369,42.3847763 C9.51606112,46.2856137 15.8540789,46.2880567 19.7573879,42.3847477 L25.4142136,36.7279221 C26.1952621,35.9468735 26.1952621,34.6805435 25.4142136,33.8994949 C24.633165,33.1184464 23.366835,33.1184464 22.5857864,33.8994949 L22.5857864,33.8994949 Z M36.7279221,25.4142136 L42.3847477,19.7573879 C46.2880567,15.8540789 46.2856137,9.51606112 42.3847763,5.61522369 C38.4810841,1.71153149 32.144358,1.71350633 28.2426121,5.61525231 L22.5857864,11.2720779 C21.8047379,12.0531265 21.8047379,13.3194565 22.5857864,14.1005051 C23.366835,14.8815536 24.633165,14.8815536 25.4142136,14.1005051 L31.0710392,8.44367944 C33.4110825,6.10363611 37.2151489,6.10245057 39.5563492,8.44365081 C41.8955773,10.782879 41.8970441,14.5882373 39.5563206,16.9289608 L33.8994949,22.5857864 C33.1184464,23.366835 33.1184464,24.633165 33.8994949,25.4142136 C34.6805435,26.1952621 35.9468735,26.1952621 36.7279221,25.4142136 L36.7279221,25.4142136 Z M29.1737012,37.3603776 L30.5879148,41.6030183 C30.9372103,42.6509049 32.0698503,43.2172249 33.1177369,42.8679293 C34.1656235,42.5186338 34.7319435,41.3859939 34.382648,40.3381072 L32.9684344,36.0954665 C32.6191389,35.0475799 31.4864989,34.4812599 30.4386123,34.8305555 C29.3907256,35.179851 28.8244057,36.312491 29.1737012,37.3603776 L29.1737012,37.3603776 Z M36.0954665,32.9684344 L40.3381072,34.382648 C41.3859939,34.7319435 42.5186338,34.1656235 42.8679293,33.1177369 C43.2172249,32.0698503 42.6509049,30.9372103 41.6030183,30.5879148 L37.3603776,29.1737012 C36.312491,28.8244057 35.179851,29.3907256 34.8305555,30.4386123 C34.4812599,31.4864989 35.0475799,32.6191389 36.0954665,32.9684344 L36.0954665,32.9684344 Z M18.8262988,10.6396224 L17.4120852,6.39698172 C17.0627897,5.34909508 15.9301497,4.78277511 14.8822631,5.13207066 C13.8343765,5.4813662 13.2680565,6.61400615 13.617352,7.66189278 L15.0315656,11.9045335 C15.3808611,12.9524201 16.5135011,13.5187401 17.5613877,13.1694445 C18.6092744,12.820149 19.1755943,11.687509 18.8262988,10.6396224 L18.8262988,10.6396224 Z M11.9045335,15.0315656 L7.66189278,13.617352 C6.61400615,13.2680565 5.4813662,13.8343765 5.13207066,14.8822631 C4.78277511,15.9301497 5.34909508,17.0627897 6.39698172,17.4120852 L10.6396224,18.8262988 C11.687509,19.1755943 12.820149,18.6092744 13.1694445,17.5613877 C13.5187401,16.5135011 12.9524201,15.3808611 11.9045335,15.0315656 L11.9045335,15.0315656 Z" id="Combined-Shape"></path>
                </g>
            </g>
        </g>
    </g>
</svg>