<?xml version="1.0" encoding="UTF-8"?>
<svg width="48px" height="48px" viewBox="0 0 48 48" version="1.1" xmlns="http://www.w3.org/2000/svg" xmlns:xlink="http://www.w3.org/1999/xlink">
    <!-- Generator: Sketch 40.1 (33804) - http://www.bohemiancoding.com/sketch -->
    <title>theicons.co/svg/ui-59</title>
    <desc>Created with Sketch.</desc>
    <defs></defs>
    <g id="The-Icons" stroke="none" stroke-width="1" fill="none" fill-rule="evenodd">
        <g id="v-1.0" transform="translate(-896.000000, -2336.000000)" fill="#4D4D4D">
            <g id="UI" transform="translate(96.000000, 2096.000000)">
                <g id="Layers" transform="translate(800.000000, 240.000000)">
                    <path d="M21.221835,4.87189842 L4.85096177,16.3630177 C3.71739651,17.1586951 3.71612386,18.8378439 4.84848171,19.6352387 L21.2193549,31.1634393 C22.8108524,32.2841555 25.1898892,32.2836333 26.7806451,31.1634393 L43.1515183,19.6352387 C44.2838761,18.8378439 44.2826035,17.1586951 43.1490382,16.3630177 L26.778165,4.87189842 C25.1877514,3.75554788 22.8115079,3.75606779 21.221835,4.87189842 Z M38.535722,29.9933829 L24.4776085,39.8929619 C24.2678647,40.0406614 23.7323022,40.0407789 23.5223915,39.8929619 L9.46709666,30.00988 C9.46709666,30.00988 9.82255284,29.7603766 10.185165,29.5058501 C11.0892454,28.8712539 11.3077054,27.62391 10.6731091,26.7198296 C10.0385128,25.8157492 8.79116891,25.5972892 7.88708854,26.2318855 C7.32484284,26.6265396 7.32484284,26.6265396 6.650148,27.1001245 C5.30075833,28.0472944 5.30075833,28.0472944 4.85096177,28.3630177 C3.71739651,29.1586951 3.71612386,30.8378439 4.84848171,31.6352387 L21.2193549,43.1634393 C22.8108524,44.2841555 25.1898892,44.2836333 26.7806451,43.1634393 L43.1515183,31.6352387 C44.2838761,30.8378439 44.2826035,29.1586951 43.1490382,28.3630177 C42.7123551,28.056499 42.7123551,28.056499 41.4023057,27.1369431 C40.747281,26.6771651 40.747281,26.6771651 40.2014271,26.2940168 C39.2973467,25.6594205 38.0500028,25.8778805 37.4154065,26.7819609 C36.7808102,27.6860413 36.9992703,28.9333852 37.9033506,29.5679814 C38.4492046,29.9511298 38.535722,29.9933829 38.535722,29.9933829 Z M24.4800886,8.14586308 L38.5146553,18.0082179 L24.4776085,27.8929619 C24.2678647,28.0406614 23.7323022,28.0407789 23.5223915,27.8929619 L9.47098938,18.0071476 L23.5199114,8.14586308 C23.7307382,7.99787858 24.269094,7.99776079 24.4800886,8.14586308 Z" id="Combined-Shape"></path>
                </g>
            </g>
        </g>
    </g>
</svg>