<?xml version="1.0" encoding="UTF-8"?>
<svg width="48px" height="48px" viewBox="0 0 48 48" version="1.1" xmlns="http://www.w3.org/2000/svg" xmlns:xlink="http://www.w3.org/1999/xlink">
    <!-- Generator: Sketch 40.1 (33804) - http://www.bohemiancoding.com/sketch -->
    <title>theicons.co/svg/ui-63</title>
    <desc>Created with Sketch.</desc>
    <defs></defs>
    <g id="The-Icons" stroke="none" stroke-width="1" fill="none" fill-rule="evenodd">
        <g id="v-1.0" transform="translate(-1216.000000, -2336.000000)" fill="#4D4D4D">
            <g id="UI" transform="translate(96.000000, 2096.000000)">
                <g id="Dashboard-1" transform="translate(1120.000000, 240.000000)">
                    <path d="M6.9752605,22.1404172 C6.3431794,23.9772725 6,25.9485593 6,28 C6,31.6284851 7.07445584,35.0897243 9.0477503,38 C9.59766817,38.0253582 38.9745407,37.9899902 38.9745393,37.9899902 C40.9336339,35.0636126 42,31.6147996 42,28 C42,25.9485593 41.6568206,23.9772725 41.0247395,22.1404172 L38.2663049,23.7330001 C37.3106278,24.2847606 36.0920336,23.9632544 35.5358984,23 C34.9836136,22.0434148 35.3038086,20.824596 36.2663049,20.2688985 L39.3019001,18.5162968 C36.458914,13.938874 31.6192543,10.7310346 26,10.1098576 L26,14.0018986 C26,15.1054196 25.1122704,16 24,16 C22.8954305,16 22,15.1132936 22,14.0018986 L22,10.1098576 C16.3807457,10.7310346 11.541086,13.938874 8.69809995,18.5162968 L11.7336951,20.2688985 C12.6961914,20.824596 13.0163864,22.0434148 12.4641016,23 C11.9079664,23.9632544 10.6893722,24.2847606 9.73369508,23.7330001 L6.9752605,22.1404172 Z M41.6005976,41.2011553 C44.4393903,37.4217884 46,32.8264363 46,28 C46,15.8497355 36.1502645,6 24,6 C11.8497355,6 2,15.8497355 2,28 C2,32.8264363 3.5606097,37.4217884 6.39940239,41.2011553 C6.77716951,41.7040876 7.36952897,42 7.99853525,42 L40.0014647,42 C40.630471,42 41.2228305,41.7040876 41.6005976,41.2011553 Z M25.8284271,30.8471028 C28.7025158,27.9730141 30.9003752,21.3041624 30.9003752,21.3041624 C31.2738463,20.2757578 30.7384675,19.7378052 29.6922104,20.126792 C29.6922104,20.126792 23.0456616,22.3161599 20.1715729,25.1902485 C18.6094757,26.7523457 18.6094757,29.2850056 20.1715729,30.8471028 C21.73367,32.4092 24.26633,32.4092 25.8284271,30.8471028 Z" id="Combined-Shape"></path>
                </g>
            </g>
        </g>
    </g>
</svg>