<?xml version="1.0" encoding="UTF-8"?>
<svg width="48px" height="48px" viewBox="0 0 48 48" version="1.1" xmlns="http://www.w3.org/2000/svg" xmlns:xlink="http://www.w3.org/1999/xlink">
    <!-- Generator: Sketch 40.1 (33804) - http://www.bohemiancoding.com/sketch -->
    <title>theicons.co/svg/ui-68</title>
    <desc>Created with Sketch.</desc>
    <defs></defs>
    <g id="The-Icons" stroke="none" stroke-width="1" fill="none" fill-rule="evenodd">
        <g id="v-1.0" transform="translate(-336.000000, -2416.000000)" fill="#4D4D4D">
            <g id="UI" transform="translate(96.000000, 2096.000000)">
                <g id="USB" transform="translate(240.000000, 320.000000)">
                    <path d="M14.0099776,23.4590803 C14.1536788,26.712494 15.8446957,28.7233709 18.7641976,29.9305046 C19.7819172,30.3513037 20.884501,30.6399897 22,30.8154578 L22,27.0021597 C21.9999988,27.0009005 21.9999988,26.9996411 22,26.9983814 L22,9 L20.999615,9 C19.8952581,9 19.479421,8.23292637 20.0603714,7.30340576 L22.9396286,2.69659424 C23.5252556,1.75959111 24.479421,1.76707363 25.0603714,2.69659424 L27.9396286,7.30340576 C28.5252556,8.24040889 28.1125667,9 27.000385,9 L26,9 L26,24.8154578 C27.115499,24.6399897 28.2180828,24.3513037 29.2358024,23.9305046 C32.2902307,22.6675825 34,20.5249096 34,17 L32.9970301,17 C32.4463856,17 32,16.5469637 32,16.0029699 L32,9.99703014 C32,9.4463856 32.4530363,9 32.9970301,9 L39.0029699,9 C39.5536144,9 40,9.45303631 40,9.99703014 L40,16.0029699 C40,16.5536144 39.5469637,17 39.0029699,17 L38,17 C38,22.292168 35.2097693,25.7888689 30.7641976,27.6269905 C29.2953645,28.2343126 27.7450957,28.6180783 26.1960843,28.8293263 C26.1298082,28.8383648 26.0644371,28.8469821 26,28.8551924 L26,32.9983814 C26.0000012,32.999641 26.0000012,33.0009005 26,33.0021597 L26,36.4160437 C27.7659048,37.1876003 29,38.949681 29,41 C29,43.7614237 26.7614237,46 24,46 C21.2385763,46 19,43.7614237 19,41 C19,38.949681 20.2340952,37.1876003 22,36.4160437 L22,34.8551924 C21.9355629,34.8469821 21.8701918,34.8383648 21.8039157,34.8293263 C20.2549043,34.6180783 18.7046355,34.2343126 17.2358024,33.6269905 C12.9229426,31.8437416 10.1680665,28.4994612 10.0074296,23.4691584 C8.80773085,22.7786032 8,21.4836294 8,20 C8,17.790861 9.790861,16 12,16 C14.209139,16 16,17.790861 16,20 C16,21.4764424 15.2000758,22.7660525 14.0099776,23.4590803 Z" id="Combined-Shape"></path>
                </g>
            </g>
        </g>
    </g>
</svg>