<?xml version="1.0" encoding="UTF-8"?>
<svg width="48px" height="48px" viewBox="0 0 48 48" version="1.1" xmlns="http://www.w3.org/2000/svg" xmlns:xlink="http://www.w3.org/1999/xlink">
    <!-- Generator: Sketch 40.1 (33804) - http://www.bohemiancoding.com/sketch -->
    <title>theicons.co/svg/ui-67</title>
    <desc>Created with Sketch.</desc>
    <defs></defs>
    <g id="The-Icons" stroke="none" stroke-width="1" fill="none" fill-rule="evenodd">
        <g id="v-1.0" transform="translate(-256.000000, -2416.000000)" fill="#4D4D4D">
            <g id="UI" transform="translate(96.000000, 2096.000000)">
                <g id="Web-Camera" transform="translate(160.000000, 320.000000)">
                    <path d="M27.8237563,18.8221219 C27.9383283,19.194496 28,19.5900459 28,20 C28,22.209139 26.209139,24 24,24 C21.790861,24 20,22.209139 20,20 C20,17.790861 21.790861,16 24,16 C24.4099541,16 24.805504,16.0616717 25.1778781,16.1762437 C24.4833529,16.4898155 24,17.1884612 24,18 C24,19.1045695 24.8954305,20 26,20 C26.8115388,20 27.5101845,19.5166471 27.8237563,18.8221219 Z M38.0165347,27.7221414 C39.2806012,25.4326063 40,22.8003155 40,20 C40,11.163444 32.836556,4 24,4 C15.163444,4 8,11.163444 8,20 C8,22.8129724 8.72591665,25.456398 10.0006388,27.7531654 L6.11586827,39.3670279 C5.68257606,40.662393 6.64646415,42.0013296 8.01237516,42.0014648 L40.0579074,42.0046387 C41.4267176,42.0047742 42.3911639,40.6607482 41.9527415,39.3640496 L38.0165347,27.7221414 Z M35.0694458,31.5528394 C32.1953398,34.3074201 28.2953315,36 24,36 C19.7123905,36 15.818684,34.3135003 12.946065,31.5676853 L10.8023452,38 L37.2067917,38.0043563 L35.0694458,31.5528394 Z M36,20 C36,13.372583 30.627417,8 24,8 C17.372583,8 12,13.372583 12,20 C12,26.627417 17.372583,32 24,32 C30.627417,32 36,26.627417 36,20 Z M16,20 C16,15.581722 19.581722,12 24,12 C28.418278,12 32,15.581722 32,20 C32,24.418278 28.418278,28 24,28 C19.581722,28 16,24.418278 16,20 Z" id="Combined-Shape"></path>
                </g>
            </g>
        </g>
    </g>
</svg>