<?xml version="1.0" encoding="UTF-8"?>
<svg width="48px" height="48px" viewBox="0 0 48 48" version="1.1" xmlns="http://www.w3.org/2000/svg" xmlns:xlink="http://www.w3.org/1999/xlink">
    <!-- Generator: Sketch 40.1 (33804) - http://www.bohemiancoding.com/sketch -->
    <title>theicons.co/svg/ui-60</title>
    <desc>Created with Sketch.</desc>
    <defs></defs>
    <g id="The-Icons" stroke="none" stroke-width="1" fill="none" fill-rule="evenodd">
        <g id="v-1.0" transform="translate(-976.000000, -2336.000000)" fill="#4D4D4D">
            <g id="UI" transform="translate(96.000000, 2096.000000)">
                <g id="Upload-to-Cloud" transform="translate(880.000000, 240.000000)">
                    <path d="M19.7710954,25.0779405 C18.9886253,25.8604106 17.7176851,25.8650208 16.9366366,25.0839722 C16.1501426,24.2974783 16.1582885,23.0338932 16.9426683,22.2495134 C16.9426683,22.2495134 22.5894714,16.6027124 22.5934908,16.5986909 C22.985731,16.2064507 23.4966341,16.0118545 24.0091774,16.0153809 C24.521032,16.0150558 25.0323971,16.20917 25.4279497,16.6047226 L31.0727404,22.2495134 C31.8552105,23.0319835 31.8598208,24.3029237 31.0787722,25.0839722 C30.2922783,25.8704662 29.0286931,25.8623203 28.2443133,25.0779405 L26.0077044,22.8413316 L26.0077044,41.9837987 C26.0077044,43.0890298 25.1122739,43.9844651 24.0077044,43.9844651 C22.895434,43.9844651 22.0077044,43.0887363 22.0077044,41.9837987 L22.0077044,22.8413316 L19.7710954,25.0779405 Z M37.0096588,32 C41.9691804,32 46,27.9672175 46,23 C46,18.0355513 41.8500977,14.0669694 37.4400001,14.0669694 C35.7269099,8.19332349 30.3037711,4 24,4 C17.1366627,4 11.5252686,9.34387207 10.6137304,14.0077771 C5.82836454,14.2057676 2,18.1591331 2,23 C2,27.9644487 6.02685715,32 10.9903412,32 L16,32 C17.1045695,32 18,31.1045695 18,30 C18,28.8954305 17.1045695,28 16,28 L10.9903412,28 C8.23792964,28 6,25.7572385 6,23 C6,20.2414857 8.24039464,18 10.9903412,18 L13.8583313,18 L14.1383513,16.3309118 C14.9401373,11.5517822 19.0982681,8 24,8 C28.9017319,8 33.0598627,11.5517822 33.8616487,16.3309118 L34.1416687,18 L37.0096588,18 C39.7620704,18 42,20.2427615 42,23 C42,25.7585143 39.7596054,28 37.0096588,28 L32,28 C30.8954305,28 30,28.8954305 30,30 C30,31.1045695 30.8954305,32 32,32 L37.0096588,32 Z" id="Combined-Shape"></path>
                </g>
            </g>
        </g>
    </g>
</svg>