<?xml version="1.0" encoding="UTF-8"?>
<svg width="48px" height="48px" viewBox="0 0 48 48" version="1.1" xmlns="http://www.w3.org/2000/svg" xmlns:xlink="http://www.w3.org/1999/xlink">
    <!-- Generator: Sketch 40.1 (33804) - http://www.bohemiancoding.com/sketch -->
    <title>theicons.co/svg/ui-65</title>
    <desc>Created with Sketch.</desc>
    <defs></defs>
    <g id="The-Icons" stroke="none" stroke-width="1" fill="none" fill-rule="evenodd">
        <g id="v-1.0" transform="translate(-96.000000, -2416.000000)" fill="#4D4D4D">
            <g id="UI" transform="translate(96.000000, 2096.000000)">
                <g id="Camera-1" transform="translate(0.000000, 320.000000)">
                    <path d="M29.7356344,23.2331829 C29.9074924,23.7917441 30,24.3850689 30,25 C30,28.3137085 27.3137085,31 24,31 C20.6862915,31 18,28.3137085 18,25 C18,21.6862915 20.6862915,19 24,19 C24.6149311,19 25.2082559,19.0925076 25.7668171,19.2643656 C24.7250294,19.7347233 24,20.7826918 24,22 C24,23.6568542 25.3431458,25 27,25 C28.2173082,25 29.2652767,24.2749706 29.7356344,23.2331829 Z M11.6,10 L13.257005,5.85748741 C13.6673498,4.83162544 14.8982124,4 15.9907951,4 L32.0092049,4 C33.1086907,4 34.3341578,4.83539441 34.742995,5.85748741 L36.4,10 L41.99819,10 C44.2083286,10 46,11.7890275 46,14.0042577 L46,37.9957423 C46,40.2072328 44.2069088,42 41.99819,42 L6.00180999,42 C3.79167136,42 2,40.2109725 2,37.9957423 L2,14.0042577 C2,11.7927672 3.79309123,10 6.00180999,10 L11.6,10 Z M6.00180999,14 C6.00206801,14 6,37.9957423 6,37.9957423 C6,38.0005116 41.99819,38 41.99819,38 C41.997932,38 42,14.0042577 42,14.0042577 C42,13.9994884 34.694023,13.9999869 34.694023,13.9999869 C34.1405482,13.9999941 33.5260256,13.5875957 33.3201535,13.0756492 L31.2790527,8 L16.7083066,7.99956324 L14.6831591,13.0624318 C14.4760373,13.5802364 13.8615479,14 13.3061954,14 L6.00180999,14 Z M14,25 C14,19.4771525 18.4771525,15 24,15 C29.5228475,15 34,19.4771525 34,25 C34,30.5228475 29.5228475,35 24,35 C18.4771525,35 14,30.5228475 14,25 Z" id="Combined-Shape"></path>
                </g>
            </g>
        </g>
    </g>
</svg>