<?xml version="1.0" encoding="UTF-8"?>
<svg width="48px" height="48px" viewBox="0 0 48 48" version="1.1" xmlns="http://www.w3.org/2000/svg" xmlns:xlink="http://www.w3.org/1999/xlink">
    <!-- Generator: Sketch 40.1 (33804) - http://www.bohemiancoding.com/sketch -->
    <title>theicons.co/svg/ui-64</title>
    <desc>Created with Sketch.</desc>
    <defs></defs>
    <g id="The-Icons" stroke="none" stroke-width="1" fill="none" fill-rule="evenodd">
        <g id="v-1.0" transform="translate(-1296.000000, -2336.000000)" fill="#4D4D4D">
            <g id="UI" transform="translate(96.000000, 2096.000000)">
                <g id="Dashboard-2" transform="translate(1200.000000, 240.000000)">
                    <path d="M25.1573419,22.1115243 C24.7828581,22.0383452 24.3959071,22 24,22 C20.6862915,22 18,24.6862915 18,28 C18,31.3137085 20.6862915,34 24,34 C27.3137085,34 30,31.3137085 30,28 C30,26.5336674 29.4739954,25.1901897 28.6003819,24.1479627 C29.0960944,23.2903591 29.2392119,23.0427598 30.065786,21.6127516 C32.0651075,18.1538406 32.0651075,18.1538406 32.731548,17.0008703 C33.2843135,16.0445627 32.9571779,14.8212174 32.0008703,14.268452 C31.0445627,13.7156865 29.8212174,14.0428221 29.268452,14.9991297 C28.6020115,16.1521 28.6020115,16.1521 26.6026899,19.6110109 C25.787371,21.0215472 25.6370226,21.2816563 25.1573419,22.1115243 Z M24,44 C35.045695,44 44,35.045695 44,24 C44,12.954305 35.045695,4 24,4 C12.954305,4 4,12.954305 4,24 C4,35.045695 12.954305,44 24,44 Z M24,40 C15.163444,40 8,32.836556 8,24 C8,15.163444 15.163444,8 24,8 C32.836556,8 40,15.163444 40,24 C40,32.836556 32.836556,40 24,40 Z M24,30 C25.1045695,30 26,29.1045695 26,28 C26,26.8954305 25.1045695,26 24,26 C22.8954305,26 22,26.8954305 22,28 C22,29.1045695 22.8954305,30 24,30 Z" id="Combined-Shape"></path>
                </g>
            </g>
        </g>
    </g>
</svg>