<?xml version="1.0" encoding="UTF-8"?>
<svg width="48px" height="48px" viewBox="0 0 48 48" version="1.1" xmlns="http://www.w3.org/2000/svg" xmlns:xlink="http://www.w3.org/1999/xlink">
    <!-- Generator: Sketch 40.1 (33804) - http://www.bohemiancoding.com/sketch -->
    <title>theicons.co/svg/ui-61</title>
    <desc>Created with Sketch.</desc>
    <defs></defs>
    <g id="The-Icons" stroke="none" stroke-width="1" fill="none" fill-rule="evenodd">
        <g id="v-1.0" transform="translate(-1056.000000, -2336.000000)" fill="#4D4D4D">
            <g id="UI" transform="translate(96.000000, 2096.000000)">
                <g id="Load-from-Cloud" transform="translate(960.000000, 240.000000)">
                    <path d="M19.7710954,34.9218584 C18.9886253,34.1393883 17.7176851,34.1347781 16.9366366,34.9158266 C16.1501426,35.7023206 16.1582885,36.9659057 16.9426683,37.7502855 C16.9426683,37.7502855 22.5894714,43.3970865 22.5934908,43.401108 C22.985731,43.7933482 23.4966341,43.9879443 24.0091774,43.984418 C24.521032,43.9847431 25.0323971,43.7906288 25.4279497,43.3950763 L31.0727404,37.7502855 C31.8552105,36.9678154 31.8598208,35.6968752 31.0787722,34.9158266 C30.2922783,34.1293327 29.0286931,34.1374786 28.2443133,34.9218584 L26.0077044,37.1584673 L26.0077044,18.0160001 C26.0077044,16.9107691 25.1122739,16.0153338 24.0077044,16.0153338 C22.895434,16.0153338 22.0077044,16.9110626 22.0077044,18.0160001 L22.0077044,37.1584673 L19.7710954,34.9218584 Z M37.0096588,32 C41.9691804,32 46,27.9672175 46,23 C46,18.0355513 41.8500977,14.0669694 37.4400001,14.0669694 C35.7269099,8.19332349 30.3037711,4 24,4 C17.1366627,4 11.5252686,9.34387207 10.6137304,14.0077771 C5.82836454,14.2057676 2,18.1591331 2,23 C2,27.9644487 6.02685715,32 10.9903412,32 L16,32 C17.1045695,32 18,31.1045695 18,30 C18,28.8954305 17.1045695,28 16,28 L10.9903412,28 C8.23792964,28 6,25.7572385 6,23 C6,20.2414857 8.24039464,18 10.9903412,18 L13.8583313,18 L14.1383513,16.3309118 C14.9401373,11.5517822 19.0982681,8 24,8 C28.9017319,8 33.0598627,11.5517822 33.8616487,16.3309118 L34.1416687,18 L37.0096588,18 C39.7620704,18 42,20.2427615 42,23 C42,25.7585143 39.7596054,28 37.0096588,28 L32,28 C30.8954305,28 30,28.8954305 30,30 C30,31.1045695 30.8954305,32 32,32 L37.0096588,32 Z" id="Combined-Shape"></path>
                </g>
            </g>
        </g>
    </g>
</svg>