<?xml version="1.0" encoding="UTF-8"?>
<svg width="48px" height="48px" viewBox="0 0 48 48" version="1.1" xmlns="http://www.w3.org/2000/svg" xmlns:xlink="http://www.w3.org/1999/xlink">
    <!-- Generator: Sketch 40.1 (33804) - http://www.bohemiancoding.com/sketch -->
    <title>theicons.co/svg/ui-72</title>
    <desc>Created with Sketch.</desc>
    <defs></defs>
    <g id="The-Icons" stroke="none" stroke-width="1" fill="none" fill-rule="evenodd">
        <g id="v-1.0" transform="translate(-656.000000, -2416.000000)" fill="#4D4D4D">
            <g id="UI" transform="translate(96.000000, 2096.000000)">
                <g id="Nesting-Box" transform="translate(560.000000, 320.000000)">
                    <path d="M12.001339,18.8350817 L15.6293858,39.6963506 C15.6515268,39.8236615 15.8614938,40 15.9907951,40 L32.0092049,40 C32.1327338,40 32.3494341,39.8181366 32.3706142,39.6963506 L35.998661,18.8350817 L24,6.85098114 L12.001339,18.8350817 Z M8.54216376,22.2900592 L11.6885387,40.3817153 C12.0441024,42.4262065 13.9180254,44 15.9907951,44 L32.0092049,44 C34.0756097,44 35.9567564,42.4212681 36.3114613,40.3817153 L39.4578362,22.2900592 L42.5857864,25.4142136 C43.366835,26.1952621 44.633165,26.1952621 45.4142136,25.4142136 C46.1952621,24.633165 46.1952621,23.366835 45.4142136,22.5857864 L25.4142136,2.58578644 C24.633165,1.80473785 23.366835,1.80473785 22.5857864,2.58578644 L2.58578644,22.5857864 C1.80473785,23.366835 1.80473785,24.633165 2.58578644,25.4142136 C3.36683502,26.1952621 4.63316498,26.1952621 5.41421356,25.4142136 L8.54216376,22.2900592 Z M24,36 C25.1045695,36 26,35.1045695 26,34 C26,32.8954305 25.1045695,32 24,32 C22.8954305,32 22,32.8954305 22,34 C22,35.1045695 22.8954305,36 24,36 Z M24,28 C26.209139,28 28,26.209139 28,24 C28,21.790861 26.209139,20 24,20 C21.790861,20 20,21.790861 20,24 C20,26.209139 21.790861,28 24,28 Z" id="Combined-Shape"></path>
                </g>
            </g>
        </g>
    </g>
</svg>