<?xml version="1.0" encoding="UTF-8"?>
<svg width="48px" height="48px" viewBox="0 0 48 48" version="1.1" xmlns="http://www.w3.org/2000/svg" xmlns:xlink="http://www.w3.org/1999/xlink">
    <!-- Generator: Sketch 40.1 (33804) - http://www.bohemiancoding.com/sketch -->
    <title>theicons.co/svg/ui-78</title>
    <desc>Created with Sketch.</desc>
    <defs></defs>
    <g id="The-Icons" stroke="none" stroke-width="1" fill="none" fill-rule="evenodd">
        <g id="v-1.0" transform="translate(-1136.000000, -2416.000000)" fill="#4D4D4D">
            <g id="UI" transform="translate(96.000000, 2096.000000)">
                <g id="Playlist" transform="translate(1040.000000, 320.000000)">
                    <path d="M36,15.6942542 L36,39 C36,42.8659932 32.8659932,46 29,46 C25.1340068,46 22,42.8659932 22,39 C22,35.1340068 25.1340068,32 29,32 C30.0735973,32 31.0907446,32.241691 32,32.6736312 L32,12 L32,6 C32,5.02232169 32.7068261,4.18794148 33.671202,4.02721215 L45.671202,2.02721215 C46.8902654,1.82403492 48,2.76412113 48,4 L48,12 C48,12.9776783 47.2931739,13.8120585 46.328798,13.9727878 L36,15.6942542 Z M32,39 C32,37.3431458 30.6568542,36 29,36 C27.3431458,36 26,37.3431458 26,39 C26,40.6568542 27.3431458,42 29,42 C30.6568542,42 32,40.6568542 32,39 Z M0,26 C0,24.8954305 0.899897516,24 1.99124431,24 L26.0087557,24 C27.1084896,24 28,24.8877296 28,26 C28,27.1045695 27.1001025,28 26.0087557,28 L1.99124431,28 C0.891510444,28 0,27.1122704 0,26 Z M0,18 C0,16.8954305 0.899897516,16 1.99124431,16 L26.0087557,16 C27.1084896,16 28,16.8877296 28,18 C28,19.1045695 27.1001025,20 26.0087557,20 L1.99124431,20 C0.891510444,20 0,19.1122704 0,18 Z M14,10 C14,8.8954305 14.8970601,8 16.0058587,8 L25.9941413,8 C27.1019465,8 28,8.88772964 28,10 C28,11.1045695 27.1029399,12 25.9941413,12 L16.0058587,12 C14.8980535,12 14,11.1122704 14,10 Z M44,10.3052472 L35.9993719,11.650948 L35.998314,7.69453517 L44,6.35803186 L44,10.3052472 Z" id="Combined-Shape"></path>
                </g>
            </g>
        </g>
    </g>
</svg>