<?xml version="1.0" encoding="UTF-8"?>
<svg width="48px" height="48px" viewBox="0 0 48 48" version="1.1" xmlns="http://www.w3.org/2000/svg" xmlns:xlink="http://www.w3.org/1999/xlink">
    <!-- Generator: Sketch 40.1 (33804) - http://www.bohemiancoding.com/sketch -->
    <title>theicons.co/svg/ui-77</title>
    <desc>Created with Sketch.</desc>
    <defs></defs>
    <g id="The-Icons" stroke="none" stroke-width="1" fill="none" fill-rule="evenodd">
        <g id="v-1.0" transform="translate(-1056.000000, -2416.000000)" fill="#4D4D4D">
            <g id="UI" transform="translate(96.000000, 2096.000000)">
                <g id="Map" transform="translate(960.000000, 320.000000)">
                    <path d="M30,8.58672849 L18,11.5643748 L18,39.4384472 L30,36.4384472 L30,8.58672849 Z M34,8.76254883 L42,11.4509277 L42.0194673,39.2316373 L34,36.5584816 L34,8.76254883 Z M14,39.2278659 L6,36.569458 L6.00017997,8.77491176 L14,11.4415184 L14,39.2278659 Z M2,6 L2,38 C2,38.8608608 2.55086019,39.6251385 3.36754447,39.8973666 L15.3675445,43.8973666 C15.7283933,44.0176495 16.11606,44.0325378 16.4850713,43.940285 L32,40.0918579 L43.3675445,43.8973666 C44.6626067,44.329054 46,43.3651155 46,42 L46,10 C46,9.13913918 45.4491398,8.3748615 44.6324555,8.1026334 L32.6324555,4.1026334 C32.2716067,3.98235047 31.88394,3.9674622 31.5149287,4.059715 L16.0144653,7.92163086 L4.63245553,4.1026334 C3.3373933,3.67094599 2,4.63488455 2,6 Z" id="Combined-Shape"></path>
                </g>
            </g>
        </g>
    </g>
</svg>