<?xml version="1.0" encoding="UTF-8"?>
<svg width="48px" height="48px" viewBox="0 0 48 48" version="1.1" xmlns="http://www.w3.org/2000/svg" xmlns:xlink="http://www.w3.org/1999/xlink">
    <!-- Generator: Sketch 40.1 (33804) - http://www.bohemiancoding.com/sketch -->
    <title>theicons.co/svg/ui-73</title>
    <desc>Created with Sketch.</desc>
    <defs></defs>
    <g id="The-Icons" stroke="none" stroke-width="1" fill="none" fill-rule="evenodd">
        <g id="v-1.0" transform="translate(-736.000000, -2416.000000)" fill="#4D4D4D">
            <g id="UI" transform="translate(96.000000, 2096.000000)">
                <g id="Pin-1" transform="translate(640.000000, 320.000000)">
                    <path d="M25.9907999,23.8018268 C30.5598635,22.8788444 34,18.8411657 34,14 C34,8.4771525 29.5228475,4 24,4 C18.4771525,4 14,8.4771525 14,14 C14,18.8411305 17.4400865,22.8787857 22.0091004,23.8018066 C22.0030786,23.8650749 22,23.929206 22,23.9940603 L22,36.0059397 C22,37.1054862 22.8954305,38 24,38 C25.1122704,38 26,37.1072288 26,36.0059397 L26,23.9940603 C26,23.9292224 25.9968864,23.8650974 25.9907999,23.8018268 Z M30,14 C30,10.6862915 27.3137085,8 24,8 C20.6862915,8 18,10.6862915 18,14 C18,17.3137085 20.6862915,20 24,20 C27.3137085,20 30,17.3137085 30,14 Z M6,37 C6,41.4927662 14.0231482,44 24,44 C33.9768518,44 42,41.4927662 42,37 C42,33.4346819 37.2742592,31.2764062 30.3038403,30.385978 C29.2081745,30.2460134 28.2064981,31.0207623 28.0665335,32.1164282 C27.9265689,33.2120941 28.7013178,34.2137705 29.7969837,34.3537351 C32.5132157,34.700717 34.8188256,35.2847033 36.3831968,35.9991616 C37.0715796,36.3135503 37.1807375,36.4435683 37.1807375,36.4435683 C37.6332037,36.750877 37.6347867,37.2719523 37.1752717,37.5615902 C37.1752717,37.5615902 36.9291532,37.9353256 34.7171585,38.6265739 C31.9434308,39.4933639 28.1103993,40 24,40 C19.8896007,40 16.0565692,39.4933639 13.2828415,38.6265739 C11.0708468,37.9353256 10.8119227,37.5540688 10.8119227,37.5540688 C10.3635102,37.2480651 10.3586051,36.7470364 10.8265958,36.4396864 C10.8265958,36.4396864 10.9371461,36.3083506 11.6305522,35.9928945 C13.2053301,35.2764697 15.52476,34.6922215 18.2548728,34.3471457 C19.3507234,34.2086344 20.1268002,33.2079864 19.9882888,32.1121358 C19.8497775,31.0162853 18.8491295,30.2402085 17.753279,30.3787199 C10.7524305,31.2636003 6,33.4256568 6,37 Z" id="Combined-Shape"></path>
                </g>
            </g>
        </g>
    </g>
</svg>