<?xml version="1.0" encoding="UTF-8"?>
<svg width="48px" height="48px" viewBox="0 0 48 48" version="1.1" xmlns="http://www.w3.org/2000/svg" xmlns:xlink="http://www.w3.org/1999/xlink">
    <!-- Generator: Sketch 40.1 (33804) - http://www.bohemiancoding.com/sketch -->
    <title>theicons.co/svg/ui-70</title>
    <desc>Created with Sketch.</desc>
    <defs></defs>
    <g id="The-Icons" stroke="none" stroke-width="1" fill="none" fill-rule="evenodd">
        <g id="v-1.0" transform="translate(-496.000000, -2416.000000)" fill="#4D4D4D">
            <g id="UI" transform="translate(96.000000, 2096.000000)">
                <g id="Robohead" transform="translate(400.000000, 320.000000)">
                    <path d="M26,40 L22,40 L22,35 L26,35 L26,40 Z M30,40 L34,40 L34,37.0023695 C34,35.8950561 33.1076829,35 32.009947,35 L30,35 L30,40 Z M18,40 L14,40 L14,37.0023695 C14,35.8942178 14.8911397,35 15.990053,35 L18,35 L18,40 Z M10,40 L6.00018338,40 C5.99700181,40 6.00015466,40.0027953 6.00015466,40.0098214 L6.00015466,11.9901786 C6.00015466,12.0005848 6.00081477,12 6.00018338,12 L41.9973403,12 C42.0005219,12 41.9973691,11.9972047 41.9973691,11.9901786 L41.9973691,40.0098214 C41.9973691,39.9994152 41.996709,40 41.9973403,40 L38,40 L38,37.0023695 C38,33.6886567 35.3195708,31 32.009947,31 L15.990053,31 C12.6789073,31 10,33.6881604 10,37.0023695 L10,40 Z M20,8 L6.40002808,8 C3.97606724,8 2,9.7864638 2,11.9901786 L2,40.0098214 C2,42.2147544 3.96995967,44 6.40002808,44 L41.5999719,44 C44.0239328,44 46,42.2135362 46,40.0098214 L46,11.9901786 C46,9.7852456 44.0300403,8 41.5999719,8 L28,8 L28,6 C28,3.79535615 26.209139,2 24,2 C21.7953562,2 20,3.790861 20,6 L20,8 Z M16,28 C19.3137085,28 22,25.3137085 22,22 C22,18.6862915 19.3137085,16 16,16 C12.6862915,16 10,18.6862915 10,22 C10,25.3137085 12.6862915,28 16,28 Z M32,28 C35.3137085,28 38,25.3137085 38,22 C38,18.6862915 35.3137085,16 32,16 C28.6862915,16 26,18.6862915 26,22 C26,25.3137085 28.6862915,28 32,28 Z M16,24 C17.1045695,24 18,23.1045695 18,22 C18,20.8954305 17.1045695,20 16,20 C14.8954305,20 14,20.8954305 14,22 C14,23.1045695 14.8954305,24 16,24 Z M32,24 C33.1045695,24 34,23.1045695 34,22 C34,20.8954305 33.1045695,20 32,20 C30.8954305,20 30,20.8954305 30,22 C30,23.1045695 30.8954305,24 32,24 Z" id="Combined-Shape"></path>
                </g>
            </g>
        </g>
    </g>
</svg>