<?xml version="1.0" encoding="UTF-8"?>
<svg width="48px" height="48px" viewBox="0 0 48 48" version="1.1" xmlns="http://www.w3.org/2000/svg" xmlns:xlink="http://www.w3.org/1999/xlink">
    <!-- Generator: Sketch 40.1 (33804) - http://www.bohemiancoding.com/sketch -->
    <title>theicons.co/svg/ui-74</title>
    <desc>Created with Sketch.</desc>
    <defs></defs>
    <g id="The-Icons" stroke="none" stroke-width="1" fill="none" fill-rule="evenodd">
        <g id="v-1.0" transform="translate(-816.000000, -2416.000000)" fill="#4D4D4D">
            <g id="UI" transform="translate(96.000000, 2096.000000)">
                <g id="Pin-2" transform="translate(720.000000, 320.000000)">
                    <path d="M32.9186161,36.7886885 C37.3102892,31.5764609 40,25.8428817 40,20 C40,11.163444 32.836556,4 24,4 C15.163444,4 8,11.163444 8,20 C8,25.8428817 10.6897108,31.5764609 15.0813839,36.7886885 C18.3173304,40.6292497 22.3956181,44 24,44 C25.6043819,44 29.6826696,40.6292497 32.9186161,36.7886885 Z M22.6488636,38.7083977 C21.173586,37.4890643 19.5882018,35.9297128 18.1403263,34.2113115 C14.3013909,29.6550971 12,24.7492882 12,20 C12,13.372583 17.372583,8 24,8 C30.627417,8 36,13.372583 36,20 C36,24.7492882 33.6986091,29.6550971 29.8596737,34.2113115 C28.4117982,35.9297128 26.826414,37.4890643 25.3511364,38.7083977 C24.8427526,39.1285826 24,39.7487515 24,39.7487515 C24,39.7487515 23.2422247,39.1988172 22.6488636,38.7083977 Z M18,20 C18,16.6862915 20.6862915,14 24,14 C27.3137085,14 30,16.6862915 30,20 C30,23.3137085 27.3137085,26 24,26 C20.6862915,26 18,23.3137085 18,20 Z M26,20 C26,18.8954305 25.1045695,18 24,18 C22.8954305,18 22,18.8954305 22,20 C22,21.1045695 22.8954305,22 24,22 C25.1045695,22 26,21.1045695 26,20 Z" id="Combined-Shape"></path>
                </g>
            </g>
        </g>
    </g>
</svg>