<?xml version="1.0" encoding="UTF-8"?>
<svg width="48px" height="48px" viewBox="0 0 48 48" version="1.1" xmlns="http://www.w3.org/2000/svg" xmlns:xlink="http://www.w3.org/1999/xlink">
    <!-- Generator: Sketch 40.1 (33804) - http://www.bohemiancoding.com/sketch -->
    <title>theicons.co/svg/ui-75</title>
    <desc>Created with Sketch.</desc>
    <defs></defs>
    <g id="The-Icons" stroke="none" stroke-width="1" fill="none" fill-rule="evenodd">
        <g id="v-1.0" transform="translate(-896.000000, -2416.000000)" fill="#4D4D4D">
            <g id="UI" transform="translate(96.000000, 2096.000000)">
                <g id="Pin-3" transform="translate(800.000000, 320.000000)">
                    <path d="M29.244602,35.1203011 C35.6046755,32.9175742 40,26.892234 40,20 C40,11.163444 32.836556,4 24,4 C15.163444,4 8,11.163444 8,20 C8,26.8959853 12.4001103,32.9241327 18.7657844,35.1238943 C18.9025269,35.4676514 22.1723769,42.8122769 22.1723769,42.8122769 C22.8762128,44.3959077 25.1237872,44.3959077 25.8276231,42.8122769 C25.8276231,42.8122769 29.0900269,35.4985962 29.244602,35.1203011 Z M25.9580882,32.6698725 L24,37.1051582 L22.0419118,32.6698725 C21.7999048,32.125357 21.3277053,31.717109 20.7539332,31.5563292 C15.6180904,30.1171867 12,25.4145619 12,20 C12,13.372583 17.372583,8 24,8 C30.627417,8 36,13.372583 36,20 C36,25.4145619 32.3819096,30.1171867 27.2460668,31.5563292 C26.6722947,31.717109 26.2000952,32.125357 25.9580882,32.6698725 Z M18,20 C18,16.6862915 20.6862915,14 24,14 C27.3137085,14 30,16.6862915 30,20 C30,23.3137085 27.3137085,26 24,26 C20.6862915,26 18,23.3137085 18,20 Z M26,20 C26,18.8954305 25.1045695,18 24,18 C22.8954305,18 22,18.8954305 22,20 C22,21.1045695 22.8954305,22 24,22 C25.1045695,22 26,21.1045695 26,20 Z" id="Combined-Shape"></path>
                </g>
            </g>
        </g>
    </g>
</svg>