<?xml version="1.0" encoding="UTF-8"?>
<svg width="48px" height="48px" viewBox="0 0 48 48" version="1.1" xmlns="http://www.w3.org/2000/svg" xmlns:xlink="http://www.w3.org/1999/xlink">
    <!-- Generator: Sketch 40.1 (33804) - http://www.bohemiancoding.com/sketch -->
    <title>theicons.co/svg/ui-80</title>
    <desc>Created with Sketch.</desc>
    <defs></defs>
    <g id="The-Icons" stroke="none" stroke-width="1" fill="none" fill-rule="evenodd">
        <g id="v-1.0" transform="translate(-1296.000000, -2416.000000)" fill="#4D4D4D">
            <g id="UI" transform="translate(96.000000, 2096.000000)">
                <g id="Note-2" transform="translate(1200.000000, 320.000000)">
                    <path d="M40,6.52394105 L40,10.4151769 L18,15.5803259 L18,11.68909 L40,6.52394105 Z M44,4.04398859 L44,33 C44,36.8659932 40.8659932,40 37,40 C33.1340068,40 30,36.8659932 30,33 C30,29.1340068 33.1340068,26 37,26 C38.0735973,26 39.0907446,26.241691 40,26.6736312 L40,14.5239411 L18,19.68909 L18,39 C18,42.8659932 14.8659932,46 11,46 C7.13400675,46 4,42.8659932 4,39 C4,35.1340068 7.13400675,32 11,32 C12.0735973,32 13.0907446,32.241691 14,32.6736312 L14,10 L14.0763193,10 C14.1137216,9.12669801 14.7250737,8.34921142 15.617822,8.13961242 L41.5428708,2.0529425 C42.618201,1.80047702 43.694592,2.46754065 43.9470575,3.54287082 C43.9865153,3.71093399 44.0035122,3.87902307 44,4.04398859 Z M40,33 C40,31.3431458 38.6568542,30 37,30 C35.3431458,30 34,31.3431458 34,33 C34,34.6568542 35.3431458,36 37,36 C38.6568542,36 40,34.6568542 40,33 Z M14,39 C14,37.3431458 12.6568542,36 11,36 C9.34314575,36 8,37.3431458 8,39 C8,40.6568542 9.34314575,42 11,42 C12.6568542,42 14,40.6568542 14,39 Z" id="Combined-Shape"></path>
                </g>
            </g>
        </g>
    </g>
</svg>