<?xml version="1.0" encoding="UTF-8"?>
<svg width="48px" height="48px" viewBox="0 0 48 48" version="1.1" xmlns="http://www.w3.org/2000/svg" xmlns:xlink="http://www.w3.org/1999/xlink">
    <!-- Generator: Sketch 40.3 (33839) - http://www.bohemiancoding.com/sketch -->
    <title>theicons.co/svg/ui-83</title>
    <desc>Created with Sketch.</desc>
    <defs></defs>
    <g id="Page-1" stroke="none" stroke-width="1" fill="none" fill-rule="evenodd">
        <path d="M40,16 L40,12.0002124 C40,10.8950241 39.1073867,10 38.0098214,10 L38,10 C38,11.1047419 37.1122704,12 36,12 C34.8954305,12 34,11.1125667 34,10.000385 L30,10 C30,11.1047419 29.1122704,12 28,12 C26.8954305,12 26,11.1125667 26,10.000385 L22,10 C22,11.1047419 21.1122704,12 20,12 C18.8954305,12 18,11.1125667 18,10.000385 L14,10 C14,11.1047419 13.1122704,12 12,12 C10.8954305,12 10,11.1125667 10,10.000385 L9.99017859,10 C8.89145651,10 8,10.8938867 8,12.0002124 L8,16 L40,16 Z M40,20 L40,37.9997876 C40,39.1061133 39.1085435,40 38.0098214,40 L9.99017859,40 C8.89261326,40 8,39.1049759 8,37.9997876 L8,20 L40,20 Z M34,6 L30,6 L30,3.99961498 C30,2.88743329 29.1045695,2 28,2 C26.8877296,2 26,2.89525812 26,3.99961498 L26,6 L22,6 L22,3.99961498 C22,2.88743329 21.1045695,2 20,2 C18.8877296,2 18,2.89525812 18,3.99961498 L18,6 L14,6 L14,3.99961498 C14,2.88743329 13.1045695,2 12,2 C10.8877296,2 10,2.89525812 10,3.99961498 L10,6 L9.99017859,6 C6.67987615,6 4,8.68718171 4,12.0002124 L4,37.9997876 C4,41.3117034 6.68105549,44 9.99017859,44 L38.0098214,44 C41.3201238,44 44,41.3128183 44,37.9997876 L44,12.0002124 C44,8.68829665 41.3189445,6 38.0098214,6 L38,6 L38,3.99961498 C38,2.88743329 37.1045695,2 36,2 C34.8877296,2 34,2.89525812 34,3.99961498 L34,6 Z M12,26 C12,24.8954305 12.8970262,24 14.0049466,24 L33.9950534,24 C35.1023548,24 36,24.8877296 36,26 C36,27.1045695 35.1029738,28 33.9950534,28 L14.0049466,28 C12.8976452,28 12,27.1122704 12,26 Z M12,34 C12,32.8954305 12.8970262,32 14.0049466,32 L33.9950534,32 C35.1023548,32 36,32.8877296 36,34 C36,35.1045695 35.1029738,36 33.9950534,36 L14.0049466,36 C12.8976452,36 12,35.1122704 12,34 Z" id="Combined-Shape" fill="#4D4D4D"></path>
    </g>
</svg>