<?xml version="1.0" encoding="UTF-8"?>
<svg width="48px" height="48px" viewBox="0 0 48 48" version="1.1" xmlns="http://www.w3.org/2000/svg" xmlns:xlink="http://www.w3.org/1999/xlink">
    <!-- Generator: Sketch 40.3 (33839) - http://www.bohemiancoding.com/sketch -->
    <title>theicons.co/svg/ui-81</title>
    <desc>Created with Sketch.</desc>
    <defs></defs>
    <g id="Page-1" stroke="none" stroke-width="1" fill="none" fill-rule="evenodd">
        <path d="M34.1385632,28.2746021 L37.861125,31.997164 C39.2214715,29.6444181 40,26.9131266 40,24 C40,21.1635829 39.2619326,18.4995506 37.9673745,16.1894798 L34.2237432,19.933111 C34.7246106,21.1911457 35,22.5634125 35,24 C35,25.5160544 34.6933008,26.9604754 34.1385632,28.2746021 Z M28.5624157,34.0121631 L32.2575307,37.7072782 C29.8468916,39.1626148 27.0212367,40 24,40 C21.1635829,40 18.4995506,39.2619326 16.1894798,37.9673745 L19.933111,34.2237432 C21.1911457,34.7246106 22.5634125,35 24,35 C25.6275561,35 27.1725544,34.646528 28.5624157,34.0121631 Z M14.081298,28.7618478 L10.4040133,32.4391325 C8.88015753,29.9892997 8,27.0974357 8,24 C8,20.9787633 8.83738524,18.1531084 10.2927218,15.7424693 L13.9878369,19.4375843 C13.353472,20.8274456 13,22.3724439 13,24 C13,25.7058257 13.3882866,27.3209623 14.081298,28.7618478 Z M19.7253979,13.8614368 L16.002836,10.138875 C18.3555819,8.7785285 21.0868734,8 24,8 C27.0974357,8 29.9892997,8.88015753 32.4391325,10.4040133 L28.7618478,14.081298 C27.3209623,13.3882866 25.7058257,13 24,13 C22.4839456,13 21.0395246,13.3066992 19.7253979,13.8614368 Z M44,24 C44,12.954305 35.045695,4 24,4 C12.954305,4 4,12.954305 4,24 C4,35.045695 12.954305,44 24,44 C35.045695,44 44,35.045695 44,24 Z M17,24 C17,20.1340068 20.1340068,17 24,17 C27.8659932,17 31,20.1340068 31,24 C31,27.8659932 27.8659932,31 24,31 C20.1340068,31 17,27.8659932 17,24 Z" id="Combined-Shape" fill="#4D4D4D"></path>
    </g>
</svg>