<?xml version="1.0" encoding="UTF-8"?>
<svg width="48px" height="48px" viewBox="0 0 48 48" version="1.1" xmlns="http://www.w3.org/2000/svg" xmlns:xlink="http://www.w3.org/1999/xlink">
    <!-- Generator: Sketch 40.3 (33839) - http://www.bohemiancoding.com/sketch -->
    <title>theicons.co/svg/ui-85</title>
    <desc>Created with Sketch.</desc>
    <defs></defs>
    <g id="Page-1" stroke="none" stroke-width="1" fill="none" fill-rule="evenodd">
        <path d="M26,27 L26,23.6585886 C28.3303847,22.8349158 30,20.6124377 30,18 C30,14.6862915 27.3137085,12 24,12 C20.6862915,12 18,14.6862915 18,18 C18,20.6124377 19.6696153,22.8349158 22,23.6585886 L22,35.0081158 C22,36.1066027 22.8954305,37 24,37 L28.0020869,37 C29.1017394,37 30,36.1045695 30,35 C30,33.8877296 29.1055038,33 28.0020869,33 L26,33 L26,31 L28.0020869,31 C29.1017394,31 30,30.1045695 30,29 C30,27.8877296 29.1055038,27 28.0020869,27 L26,27 Z M44,24 C44,12.954305 35.045695,4 24,4 C12.954305,4 4,12.954305 4,24 C4,35.045695 12.954305,44 24,44 C35.045695,44 44,35.045695 44,24 Z M8,24 C8,15.163444 15.163444,8 24,8 C32.836556,8 40,15.163444 40,24 C40,32.836556 32.836556,40 24,40 C15.163444,40 8,32.836556 8,24 Z M26,18 C26,16.8954305 25.1045695,16 24,16 C22.8954305,16 22,16.8954305 22,18 C22,19.1045695 22.8954305,20 24,20 C25.1045695,20 26,19.1045695 26,18 Z" id="Combined-Shape" fill="#4D4D4D"></path>
    </g>
</svg>