<?xml version="1.0" encoding="UTF-8"?>
<svg width="48px" height="48px" viewBox="0 0 48 48" version="1.1" xmlns="http://www.w3.org/2000/svg" xmlns:xlink="http://www.w3.org/1999/xlink">
    <!-- Generator: Sketch 41 (35326) - http://www.bohemiancoding.com/sketch -->
    <title>theicons.co/svg/ui-86</title>
    <desc>Created with Sketch.</desc>
    <defs></defs>
    <g id="The-Icons" stroke="none" stroke-width="1" fill="none" fill-rule="evenodd">
        <g id="v-1.4" transform="translate(-864.000000, -2592.000000)" fill="#4D4D4D">
            <g id="UI" transform="translate(96.000000, 2496.000000)">
                <g id="Block" transform="translate(768.000000, 96.000000)">
                    <path d="M33.8112877,11.3602852 C31.1019203,9.25416321 27.6974229,8 24,8 C15.163444,8 8,15.163444 8,24 C8,27.6974229 9.25416321,31.1019203 11.3602852,33.8112877 L33.8112877,11.3602852 L33.8112877,11.3602852 Z M36.6397148,14.1887123 C38.7458368,16.8980797 40,20.3025771 40,24 C40,32.836556 32.836556,40 24,40 C20.3025771,40 16.8980797,38.7458368 14.1887123,36.6397148 L36.6397148,14.1887123 L36.6397148,14.1887123 Z M44,24 C44,12.954305 35.045695,4 24,4 C12.954305,4 4,12.954305 4,24 C4,35.045695 12.954305,44 24,44 C35.045695,44 44,35.045695 44,24 Z" id="Combined-Shape"></path>
                </g>
            </g>
        </g>
    </g>
</svg>