<?xml version="1.0" encoding="UTF-8"?>
<svg width="48px" height="48px" viewBox="0 0 48 48" version="1.1" xmlns="http://www.w3.org/2000/svg" xmlns:xlink="http://www.w3.org/1999/xlink">
    <!-- Generator: Sketch 41 (35326) - http://www.bohemiancoding.com/sketch -->
    <title>theicons.co/svg/ui-90</title>
    <desc>Created with Sketch.</desc>
    <defs></defs>
    <g id="The-Icons" stroke="none" stroke-width="1" fill="none" fill-rule="evenodd">
        <g id="v-1.4" transform="translate(-1728.000000, -2592.000000)" fill="#4D4D4D">
            <g id="UI" transform="translate(96.000000, 2496.000000)">
                <g id="User" transform="translate(1632.000000, 96.000000)">
                    <path d="M16.1595504,27.6799693 C17.8626294,30.7341073 20.3797677,33.0000006 24,33 C27.6221518,32.9999994 30.1400395,30.7317024 31.8431579,27.6751094 C32.385913,27.8794393 32.9268488,28.0987793 33.4643319,28.3314842 C34.6988316,28.8659646 35.8444136,29.4393635 36.8653312,30.0097129 C37.4069483,30.3122946 37.7922474,30.5445496 37.9958293,30.6744886 C38.4780432,31.0252038 39.0125084,31.6464676 39.4202543,32.3649732 C39.8027853,33.0390466 40,33.6720549 40,33.9809686 L40,36.6968073 C39.3007754,37.1237339 38.2544703,37.5961492 36.9700998,38.0357559 C33.4296487,39.2475604 28.8238612,39.9940588 23.9999995,39.9940594 C19.1780045,39.99406 14.5729353,39.2465517 11.0307917,38.0332347 C9.74660434,37.5933523 8.69995703,37.1206803 8,36.69352 L8,33.9809686 C8,33.6549385 8.19676145,33.0141942 8.57512722,32.3446211 C8.98773698,31.6144484 9.52953532,30.9992151 10.0110502,30.675984 C10.1544259,30.582496 10.5595049,30.335611 11.1538016,30.0037513 C12.1735635,29.4343086 13.3192186,28.8617309 14.5555121,28.3279188 C15.0871102,28.0983831 15.6223029,27.8818763 16.1595504,27.6799693 Z M14.5744604,23.9975863 C13.4244023,20.5126626 13,16.7858611 13,14.3572973 C13,8.63711995 17.9248678,4 24,4 C30.0751322,4 35,8.63711995 35,14.3572973 C35,16.7846656 34.5760155,20.5089933 33.4272375,23.9924387 C37.4330556,25.522778 40.2370334,27.3553001 40.2370334,27.3553001 C42.3152625,28.8044444 44,31.7783973 44,33.9809686 L44,37.9952691 C44,40.2053804 35.369873,43.9999986 24,44 C12.630127,44.0000014 4,40.1978404 4,37.9952691 L4,33.9809686 C4,31.7708572 5.65583636,28.776955 7.78393559,27.3484058 C7.78393559,27.3484058 10.5706199,25.5249277 14.5744604,23.9975863 Z M23.9999993,29 C27.9391574,28.9999994 31,21.7652671 31,14.3572973 C31,10.9018914 27.9180372,8 24,8 C20.0819628,8 17,10.9018914 17,14.3572973 C17,21.7652677 20.0608426,29.0000006 23.9999993,29 Z" id="Combined-Shape"></path>
                </g>
            </g>
        </g>
    </g>
</svg>