<?xml version="1.0" encoding="UTF-8" standalone="no"?>
<svg width="96px" height="96px" viewBox="0 0 96 96" version="1.1" xmlns="http://www.w3.org/2000/svg" xmlns:xlink="http://www.w3.org/1999/xlink" xmlns:sketch="http://www.bohemiancoding.com/sketch/ns">
    <!-- Generator: Sketch 3.3.3 (12072) - http://www.bohemiancoding.com/sketch -->
    <title>Icon 2</title>
    <desc>Created with Sketch.</desc>
    <defs></defs>
    <g id="Page-1" stroke="none" stroke-width="1" fill="none" fill-rule="evenodd" sketch:type="MSPage">
        <g id="Icon-2" sketch:type="MSArtboardGroup" stroke="#3C4151" stroke-width="4" stroke-linecap="round" stroke-linejoin="round">
            <path d="M46.984,68.484 C46.984,69.036 46.536,69.484 45.984,69.484 C45.432,69.484 44.984,69.036 44.984,68.484 C44.984,67.932 45.432,67.484 45.984,67.484 C46.536,67.484 46.984,67.932 46.984,68.484 L46.984,68.484 Z M33.984,34.484 C33.984,27.857 39.357,22.484 45.984,22.484 C52.611,22.484 57.984,27.857 57.984,34.484 M45.984,22.484 C52.611,22.484 57.984,27.857 57.984,34.484 C57.984,41.111 52.611,46.484 45.984,46.484 M45.984,46.984 L45.984,58.984 L45.984,46.984 Z" id="Imported-Layers" sketch:type="MSShapeGroup"></path>
        </g>
    </g>
</svg>