<?xml version="1.0" standalone="no"?>
<!DOCTYPE svg PUBLIC "-//W3C//DTD SVG 20010904//EN"
 "http://www.w3.org/TR/2001/REC-SVG-20010904/DTD/svg10.dtd">
<svg version="1.0" xmlns="http://www.w3.org/2000/svg"
 width="1024.000000pt" height="1024.000000pt" viewBox="0 0 1024.000000 1024.000000"
 preserveAspectRatio="xMidYMid meet">
<metadata>
Created by potrace 1.11, written by Peter Selinger 2001-2013
</metadata>
<g transform="translate(0.000000,1024.000000) scale(0.100000,-0.100000)"
fill="#000000" stroke="none">
<path d="M4775 10229 c-1586 -104 -3044 -955 -3930 -2294 -1126 -1701 -1126
-3929 0 -5630 655 -990 1640 -1732 2758 -2076 2183 -672 4531 170 5792 2076
1061 1604 1127 3686 169 5356 -448 783 -1120 1455 -1903 1903 -870 499 -1876
731 -2886 665z m-1130 -3000 c76 -40 116 -94 128 -174 13 -81 -67 -511 -239
-1290 -253 -1142 -320 -1562 -341 -2122 -5 -160 -9 -191 -27 -227 -64 -126
-263 -137 -340 -18 -46 69 -158 490 -235 882 -47 241 -82 453 -151 910 -92
609 -164 1018 -220 1242 -26 103 -25 134 3 188 75 148 289 159 355 17 23 -48
85 -330 137 -623 33 -184 195 -1221 195 -1246 0 -35 14 22 55 232 26 129 100
480 165 780 140 642 167 779 225 1122 46 277 54 300 117 331 47 23 125 21 173
-4z m4160 0 c76 -40 116 -94 128 -174 13 -81 -67 -511 -239 -1290 -253 -1142
-320 -1562 -341 -2122 -5 -160 -9 -191 -27 -227 -64 -126 -263 -137 -340 -18
-46 69 -158 490 -235 882 -47 241 -82 453 -151 910 -92 609 -164 1018 -220
1242 -26 103 -25 134 3 188 75 148 289 159 355 17 23 -48 85 -330 137 -623 33
-184 195 -1221 195 -1246 0 -35 14 22 55 232 26 129 100 480 165 780 140 642
167 779 225 1122 46 277 54 300 117 331 47 23 125 21 173 -4z m-3425 -3274
c72 -16 136 -18 420 -18 184 0 430 5 545 12 415 23 652 30 688 20 94 -26 150
-105 150 -212 0 -102 -56 -184 -141 -206 -35 -10 -252 -19 -947 -42 -448 -15
-767 -1 -910 38 -141 39 -204 189 -136 321 22 43 66 87 101 101 33 14 125 8
230 -14z"/>
</g>
</svg>
